G04 Layer_Physical_Order=2*
G04 Layer_Color=16711680*
%FSLAX44Y44*%
%MOMM*%
G71*
G01*
G75*
%ADD12C,0.2500*%
%ADD13C,2.0000*%
%ADD16R,15.0000X3.0000*%
%ADD17C,1.5000*%
%ADD18R,1.5000X1.5000*%
%ADD19C,1.0000*%
%ADD20C,2.0000*%
%ADD21C,3.5000*%
G04:AMPARAMS|DCode=22|XSize=1mm|YSize=0.9mm|CornerRadius=0.1125mm|HoleSize=0mm|Usage=FLASHONLY|Rotation=270.000|XOffset=0mm|YOffset=0mm|HoleType=Round|Shape=RoundedRectangle|*
%AMROUNDEDRECTD22*
21,1,1.0000,0.6750,0,0,270.0*
21,1,0.7750,0.9000,0,0,270.0*
1,1,0.2250,-0.3375,-0.3875*
1,1,0.2250,-0.3375,0.3875*
1,1,0.2250,0.3375,0.3875*
1,1,0.2250,0.3375,-0.3875*
%
%ADD22ROUNDEDRECTD22*%
G36*
X1665904Y192275D02*
X1671662Y190892D01*
X1677133Y188626D01*
X1682183Y185532D01*
X1686686Y181686D01*
X1690532Y177183D01*
X1693626Y172133D01*
X1695892Y166662D01*
X1697275Y160904D01*
X1697730Y155120D01*
X1697706Y155000D01*
Y142500D01*
X1668770D01*
X1667500Y142500D01*
X1667500Y143770D01*
Y154500D01*
X1512500D01*
Y145000D01*
X1500612Y142622D01*
X1499315Y143382D01*
X1499254Y143461D01*
X1499218Y143823D01*
X1498103Y147498D01*
X1496292Y150886D01*
X1493855Y153855D01*
X1490886Y156292D01*
X1487498Y158103D01*
X1483823Y159218D01*
X1480000Y159594D01*
X1476177Y159218D01*
X1472502Y158103D01*
X1469114Y156292D01*
X1466145Y153855D01*
X1463708Y150886D01*
X1461897Y147498D01*
X1460782Y143823D01*
X1460406Y140000D01*
X1460782Y136177D01*
X1461897Y132502D01*
X1463708Y129114D01*
X1466145Y126145D01*
X1469114Y123708D01*
X1472502Y121897D01*
X1476177Y120782D01*
X1480000Y120406D01*
X1482450Y120647D01*
X1483783Y119502D01*
X1483801Y119171D01*
X1462500Y100000D01*
X1450000Y87500D01*
Y10000D01*
D01*
X1450000Y-590000D01*
X2445000Y-590000D01*
X2445000Y-2447597D01*
X2443754Y-2447845D01*
X2443739Y-2447809D01*
X2440635Y-2442742D01*
X2436776Y-2438224D01*
X2432258Y-2434365D01*
X2427191Y-2431261D01*
X2421702Y-2428987D01*
X2415924Y-2427599D01*
X2410000Y-2427133D01*
X2404076Y-2427599D01*
X2398299Y-2428987D01*
X2392809Y-2431261D01*
X2387742Y-2434365D01*
X2383224Y-2438224D01*
X2379365Y-2442742D01*
X2376261Y-2447809D01*
X2373987Y-2453299D01*
X2372599Y-2459076D01*
X2372133Y-2465000D01*
X2372599Y-2470924D01*
X2373987Y-2476702D01*
X2376261Y-2482191D01*
X2379365Y-2487258D01*
X2383224Y-2491776D01*
X2385604Y-2493808D01*
X2385164Y-2495000D01*
X1224836D01*
X1224396Y-2493808D01*
X1226776Y-2491776D01*
X1230635Y-2487258D01*
X1233739Y-2482191D01*
X1236013Y-2476702D01*
X1237401Y-2470924D01*
X1237867Y-2465000D01*
X1237401Y-2459076D01*
X1236013Y-2453299D01*
X1233739Y-2447809D01*
X1230635Y-2442743D01*
X1226776Y-2438224D01*
X1222258Y-2434365D01*
X1217191Y-2431261D01*
X1211701Y-2428987D01*
X1205924Y-2427599D01*
X1202084Y-2427297D01*
X1202078Y-2427291D01*
X1202078Y-1207000D01*
X1204000D01*
X1204136Y-1206864D01*
X1205125Y-1207061D01*
X1211875D01*
X1213094Y-1206819D01*
X1214128Y-1206128D01*
X1214819Y-1205094D01*
X1215061Y-1203875D01*
Y-1196125D01*
X1214819Y-1194906D01*
X1214128Y-1193872D01*
X1213094Y-1193181D01*
X1211875Y-1192939D01*
X1206625D01*
X1206314Y-1192628D01*
Y-55999D01*
X1206062Y-54731D01*
X1205343Y-53656D01*
X1202000Y-50313D01*
Y-42000D01*
X1150000Y10000D01*
X1150000D01*
X1147500Y12500D01*
X1122500Y37500D01*
X1121750D01*
X1099314Y59936D01*
Y60686D01*
Y66419D01*
X1100517Y66827D01*
X1101085Y66086D01*
X1103696Y64082D01*
X1104500Y63749D01*
Y75001D01*
X1110000D01*
Y80501D01*
X1121252D01*
X1120919Y81305D01*
X1118915Y83916D01*
X1116960Y85416D01*
X1117391Y86686D01*
X1169199D01*
X1170467Y86939D01*
X1171308Y87500D01*
X1250000D01*
X1275000Y112500D01*
X1275000Y112500D01*
X1280000Y117500D01*
X1284193D01*
X1284445Y116230D01*
D01*
D01*
X1283696Y115920D01*
X1281085Y113916D01*
X1279081Y111305D01*
X1278749Y110501D01*
X1290000D01*
Y105001D01*
X1295500D01*
Y93749D01*
X1296304Y94082D01*
X1298730Y95943D01*
X1300000Y95618D01*
Y84384D01*
X1298730Y84058D01*
X1296304Y85920D01*
X1295500Y86253D01*
Y75001D01*
Y63749D01*
X1296304Y64082D01*
X1298730Y65943D01*
X1300000Y65618D01*
Y52500D01*
X1304500Y48000D01*
X1400000Y48000D01*
Y192706D01*
X1660000D01*
X1660121Y192730D01*
X1665904Y192275D01*
D02*
G37*
G36*
X1697706Y136315D02*
Y135000D01*
X1697659D01*
X1698022Y129473D01*
X1699102Y124041D01*
X1700883Y118797D01*
X1703332Y113830D01*
X1706409Y109225D01*
X1710061Y105061D01*
X1714225Y101409D01*
X1718830Y98332D01*
X1723797Y95882D01*
X1729042Y94102D01*
X1734474Y93022D01*
X1740000Y92659D01*
Y92706D01*
X2382294D01*
X2388023Y86977D01*
X2387899Y85934D01*
X2387648Y85555D01*
X2385603Y83809D01*
D01*
X2383224Y81777D01*
X2379365Y77258D01*
X2376261Y72192D01*
X2373987Y66702D01*
X2372599Y60925D01*
X2372133Y55001D01*
X2372599Y49077D01*
X2373987Y43299D01*
X2376261Y37810D01*
X2379365Y32743D01*
X2383224Y28225D01*
X2387742Y24366D01*
X2392809Y21261D01*
X2398299Y18987D01*
X2404076Y17600D01*
X2410000Y17134D01*
X2415924Y17600D01*
X2421702Y18987D01*
X2427191Y21261D01*
X2432258Y24366D01*
X2436776Y28225D01*
X2440635Y32743D01*
X2443739Y37810D01*
X2443754Y37845D01*
X2445000Y37598D01*
X2445000Y-586000D01*
X1454000D01*
X1454000Y44000D01*
X1454449Y44449D01*
X1454025Y44898D01*
X1455000Y80000D01*
X1462500Y87500D01*
X1511230Y136230D01*
X1512500Y135704D01*
Y125500D01*
X1667500D01*
Y137500D01*
X1667500Y137500D01*
X1696436Y137500D01*
X1697706Y136315D01*
D02*
G37*
G36*
X740000Y192706D02*
X927295D01*
X927748Y192253D01*
X928197Y192706D01*
X1064794D01*
X1065000Y192500D01*
Y156200D01*
X1064218Y154738D01*
X1063246Y151533D01*
X1062918Y148201D01*
X1063246Y144868D01*
X1064218Y141664D01*
X1065000Y140201D01*
Y55000D01*
X1192687Y-72687D01*
Y-1192627D01*
X1192375Y-1192939D01*
X1188125D01*
X1186906Y-1193181D01*
X1185872Y-1193872D01*
X1185181Y-1194906D01*
X1184939Y-1196125D01*
Y-1203875D01*
X1185181Y-1205094D01*
X1185872Y-1206128D01*
X1186906Y-1206819D01*
X1188125Y-1207061D01*
X1194875D01*
X1195864Y-1206864D01*
X1196000Y-1207000D01*
X1198000D01*
X1198000Y-2427291D01*
X1194076Y-2427599D01*
X1188298Y-2428987D01*
X1182809Y-2431261D01*
X1177742Y-2434365D01*
X1173224Y-2438224D01*
X1169365Y-2442743D01*
X1166261Y-2447809D01*
X1163987Y-2453299D01*
X1162599Y-2459076D01*
X1162133Y-2465000D01*
X1162599Y-2470924D01*
X1163987Y-2476702D01*
X1166261Y-2482191D01*
X1169365Y-2487258D01*
X1173224Y-2491776D01*
X1175604Y-2493808D01*
X1175164Y-2495000D01*
X14835Y-2495000D01*
X14396Y-2493808D01*
X16776Y-2491776D01*
X20635Y-2487258D01*
X23739Y-2482191D01*
X26013Y-2476702D01*
X27401Y-2470924D01*
X27867Y-2465000D01*
X27401Y-2459076D01*
X26013Y-2453299D01*
X23739Y-2447809D01*
X20635Y-2442742D01*
X16776Y-2438224D01*
X12257Y-2434365D01*
X7191Y-2431261D01*
X1701Y-2428987D01*
X-4076Y-2427599D01*
X-10000Y-2427133D01*
X-15924Y-2427599D01*
X-21702Y-2428987D01*
X-27191Y-2431261D01*
X-32258Y-2434365D01*
X-36776Y-2438224D01*
X-40635Y-2442742D01*
X-43740Y-2447809D01*
X-43754Y-2447845D01*
X-45000Y-2447597D01*
Y37597D01*
X-43754Y37845D01*
X-43740Y37809D01*
X-40635Y32743D01*
X-36776Y28224D01*
X-32257Y24365D01*
X-27191Y21260D01*
X-21702Y18987D01*
X-15924Y17599D01*
X-10000Y17133D01*
X-4076Y17599D01*
X1701Y18987D01*
X7191Y21260D01*
X12257Y24365D01*
X16776Y28224D01*
X20635Y32743D01*
X23740Y37809D01*
X26013Y43299D01*
X27401Y49076D01*
X27867Y55000D01*
X27401Y60924D01*
X26013Y66701D01*
X23740Y72191D01*
X20635Y77257D01*
X16776Y81776D01*
X12257Y85635D01*
X7191Y88740D01*
X1701Y91013D01*
X-59Y91436D01*
X92Y92706D01*
X660000D01*
Y92659D01*
X665527Y93022D01*
X670959Y94102D01*
X676203Y95882D01*
X681170Y98332D01*
X685775Y101409D01*
X689939Y105061D01*
X693591Y109225D01*
X696668Y113830D01*
X699118Y118797D01*
X700898Y124041D01*
X701978Y129473D01*
X702341Y135000D01*
X702294D01*
X702294Y135000D01*
Y153730D01*
X702294Y155000D01*
X702358Y156243D01*
X702725Y160904D01*
X704108Y166662D01*
X706374Y172133D01*
X709468Y177183D01*
X713314Y181686D01*
X717817Y185532D01*
X722867Y188626D01*
X728338Y190892D01*
X734096Y192275D01*
X739880Y192730D01*
X740000Y192706D01*
D02*
G37*
G36*
X1339021Y192500D02*
X1395000D01*
Y52500D01*
X1335000D01*
Y135000D01*
X1332481D01*
X1332453Y135078D01*
X1332201Y136270D01*
X1334204Y138710D01*
X1335782Y141664D01*
X1336754Y144868D01*
X1337083Y148201D01*
X1336754Y151533D01*
X1335782Y154738D01*
X1334204Y157691D01*
X1332079Y160280D01*
X1329491Y162404D01*
X1326537Y163983D01*
X1323333Y164955D01*
X1320000Y165283D01*
X1316668Y164955D01*
X1313463Y163983D01*
X1310510Y162404D01*
X1307921Y160280D01*
X1305797Y157691D01*
X1304218Y154738D01*
X1303246Y151533D01*
X1302918Y148201D01*
X1303246Y144868D01*
X1304218Y141664D01*
X1305797Y138710D01*
X1307800Y136270D01*
X1307548Y135078D01*
X1307520Y135000D01*
X1162500D01*
X1162500Y95000D01*
X1119381D01*
X1119057Y96270D01*
X1120919Y98697D01*
X1121252Y99501D01*
X1110000D01*
Y105001D01*
X1104500D01*
Y116253D01*
X1103696Y115920D01*
X1101270Y114058D01*
X1100000Y114383D01*
Y192706D01*
X1338815D01*
X1339021Y192500D01*
D02*
G37*
%LPC*%
G36*
X1667500Y177500D02*
X1595500D01*
Y165500D01*
X1667500D01*
Y177500D01*
D02*
G37*
G36*
X1584500D02*
X1512500D01*
Y165500D01*
X1584500D01*
Y177500D01*
D02*
G37*
G36*
X1284500Y99501D02*
X1278748D01*
X1279081Y98697D01*
X1281085Y96086D01*
X1283696Y94082D01*
X1284500Y93749D01*
Y99501D01*
D02*
G37*
G36*
Y86253D02*
X1283696Y85920D01*
X1281085Y83916D01*
X1279081Y81305D01*
X1278748Y80501D01*
X1284500D01*
Y86253D01*
D02*
G37*
G36*
X1121252Y69501D02*
X1115500D01*
Y63749D01*
X1116304Y64082D01*
X1118915Y66086D01*
X1120919Y68697D01*
X1121252Y69501D01*
D02*
G37*
G36*
X1284500D02*
X1278748D01*
X1279081Y68697D01*
X1281085Y66086D01*
X1283696Y64082D01*
X1284500Y63749D01*
Y69501D01*
D02*
G37*
G36*
X1667500Y114500D02*
X1595500D01*
Y102500D01*
X1667500D01*
Y114500D01*
D02*
G37*
G36*
X1584500D02*
X1512500D01*
Y102500D01*
X1584500D01*
Y114500D01*
D02*
G37*
G36*
X887500Y157500D02*
X815500D01*
Y145500D01*
X887500D01*
Y157500D01*
D02*
G37*
G36*
X804500D02*
X732500D01*
Y145500D01*
X804500D01*
Y157500D01*
D02*
G37*
G36*
X887500Y134500D02*
X815500D01*
Y122500D01*
X887500D01*
Y134500D01*
D02*
G37*
G36*
X804500D02*
X732500D01*
Y122500D01*
X804500D01*
Y134500D01*
D02*
G37*
G36*
X920000Y159594D02*
X916177Y159218D01*
X912502Y158103D01*
X909114Y156292D01*
X906145Y153855D01*
X903708Y150886D01*
X901897Y147498D01*
X900782Y143823D01*
X900406Y140000D01*
X900782Y136177D01*
X901897Y132502D01*
X903708Y129114D01*
X906145Y126145D01*
X909114Y123708D01*
X912502Y121897D01*
X916177Y120782D01*
X920000Y120406D01*
X923823Y120782D01*
X927498Y121897D01*
X930886Y123708D01*
X933855Y126145D01*
X936292Y129114D01*
X938103Y132502D01*
X939218Y136177D01*
X939594Y140000D01*
X939218Y143823D01*
X938103Y147498D01*
X936292Y150886D01*
X933855Y153855D01*
X930886Y156292D01*
X927498Y158103D01*
X923823Y159218D01*
X920000Y159594D01*
D02*
G37*
G36*
X1055500Y116253D02*
Y110501D01*
X1061252D01*
X1060919Y111305D01*
X1058915Y113916D01*
X1056304Y115920D01*
X1055500Y116253D01*
D02*
G37*
G36*
X1044500Y116253D02*
X1043696Y115920D01*
X1041085Y113916D01*
X1039081Y111305D01*
X1038749Y110501D01*
X1044500D01*
Y116253D01*
D02*
G37*
G36*
Y99501D02*
X1038748D01*
X1039081Y98697D01*
X1041085Y96086D01*
X1043696Y94082D01*
X1044500Y93749D01*
Y99501D01*
D02*
G37*
G36*
X1061252D02*
X1055500D01*
Y93749D01*
X1056304Y94082D01*
X1058915Y96086D01*
X1060919Y98697D01*
X1061252Y99501D01*
D02*
G37*
G36*
X1055500Y86253D02*
Y80501D01*
X1061252D01*
X1060919Y81305D01*
X1058915Y83916D01*
X1056304Y85920D01*
X1055500Y86253D01*
D02*
G37*
G36*
X1044500Y86253D02*
X1043696Y85920D01*
X1041085Y83916D01*
X1039081Y81305D01*
X1038749Y80501D01*
X1044500D01*
Y86253D01*
D02*
G37*
G36*
Y69501D02*
X1038748D01*
X1039081Y68697D01*
X1041085Y66086D01*
X1043696Y64082D01*
X1044500Y63749D01*
Y69501D01*
D02*
G37*
G36*
X1061252D02*
X1055500D01*
Y63749D01*
X1056031Y63969D01*
X1056304Y64082D01*
X1058915Y66086D01*
X1060919Y68697D01*
X1061252Y69501D01*
D02*
G37*
G36*
X1115500Y116253D02*
Y110501D01*
X1121252D01*
X1120919Y111305D01*
X1118915Y113916D01*
X1116304Y115920D01*
X1115500Y116253D01*
D02*
G37*
G36*
X1355500Y116253D02*
Y110501D01*
X1361252D01*
X1360919Y111305D01*
X1358915Y113916D01*
X1356304Y115920D01*
X1355500Y116253D01*
D02*
G37*
G36*
X1344500Y116253D02*
X1343696Y115920D01*
X1341085Y113916D01*
X1339082Y111305D01*
X1338749Y110501D01*
X1344500D01*
Y116253D01*
D02*
G37*
G36*
X1361252Y99501D02*
X1355500D01*
Y93749D01*
X1356304Y94082D01*
X1358915Y96086D01*
X1360919Y98697D01*
X1361252Y99501D01*
D02*
G37*
G36*
X1344500D02*
X1338748D01*
X1339082Y98697D01*
X1341085Y96086D01*
X1343696Y94082D01*
X1344500Y93749D01*
Y99501D01*
D02*
G37*
G36*
X1355500Y86253D02*
Y80501D01*
X1361252D01*
X1360919Y81305D01*
X1358915Y83916D01*
X1356304Y85920D01*
X1355500Y86253D01*
D02*
G37*
G36*
X1344500Y86253D02*
X1343696Y85920D01*
X1341085Y83916D01*
X1339082Y81305D01*
X1338748Y80501D01*
X1344500D01*
Y86253D01*
D02*
G37*
G36*
X1361252Y69501D02*
X1355500D01*
Y63749D01*
X1356304Y64082D01*
X1358915Y66086D01*
X1360919Y68697D01*
X1361252Y69501D01*
D02*
G37*
G36*
X1344500D02*
X1338748D01*
X1339082Y68697D01*
X1341085Y66086D01*
X1343696Y64082D01*
X1344500Y63749D01*
Y69501D01*
D02*
G37*
%LPD*%
D12*
X1300501Y122500D02*
X1320000Y103001D01*
X1275499Y122500D02*
X1300501D01*
X1245000Y92001D02*
X1275499Y122500D01*
X1101999Y90000D02*
X1169199D01*
X1096000Y36500D02*
Y84001D01*
X1101999Y90000D01*
X1169199D02*
X1187300Y108101D01*
X1196000Y-1194000D02*
Y-63500D01*
X1096000Y36500D02*
X1196000Y-63500D01*
X1080000Y100001D02*
X1096000Y84001D01*
X1187300Y108101D02*
X1190900D01*
X1320000Y100001D02*
Y103001D01*
X1190900Y108101D02*
X1207000Y92001D01*
X1245000D01*
X1116500Y30501D02*
X1203000Y-55999D01*
Y-1194000D02*
Y-55999D01*
Y-1194000D02*
X1208500Y-1199500D01*
Y-1200000D02*
Y-1199500D01*
X1191500Y-1198500D02*
X1196000Y-1194000D01*
X1191500Y-1200000D02*
Y-1198500D01*
D13*
X1345000Y177500D02*
X1355600Y166900D01*
X1301149Y177500D02*
X1345000D01*
D16*
X810000Y140000D02*
D03*
X1590000Y160000D02*
D03*
Y120000D02*
D03*
D17*
X1212700Y105601D02*
D03*
D18*
X1187300D02*
D03*
D19*
X1480000Y140000D02*
D03*
X920000D02*
D03*
X1407500Y177500D02*
D03*
X1427500D02*
D03*
X2435000Y-30000D02*
D03*
Y-10000D02*
D03*
X1467500Y177500D02*
D03*
X1447500D02*
D03*
X1487500D02*
D03*
X1835000Y22500D02*
D03*
X1855000D02*
D03*
X1875000D02*
D03*
X1895000D02*
D03*
X1915000D02*
D03*
X1735000D02*
D03*
X1755000D02*
D03*
X1775000D02*
D03*
X1795000D02*
D03*
X1815000D02*
D03*
X1635000D02*
D03*
X1655000D02*
D03*
X1675000D02*
D03*
X1695000D02*
D03*
X1715000D02*
D03*
X1535000D02*
D03*
X1555000D02*
D03*
X1575000D02*
D03*
X1595000D02*
D03*
X1615000D02*
D03*
X1495000D02*
D03*
X1515000D02*
D03*
X1375000Y22500D02*
D03*
X1395000D02*
D03*
X1415000D02*
D03*
X1275000D02*
D03*
X1295000D02*
D03*
X1315000D02*
D03*
X1335000D02*
D03*
X1355000D02*
D03*
X1255000D02*
D03*
X1235000D02*
D03*
X1215000D02*
D03*
X1195000D02*
D03*
X1175000D02*
D03*
X297500Y32500D02*
D03*
X277500D02*
D03*
X257500D02*
D03*
X237500D02*
D03*
X217500D02*
D03*
X397500D02*
D03*
X377500D02*
D03*
X357500D02*
D03*
X337500D02*
D03*
X317500D02*
D03*
X497500D02*
D03*
X477500D02*
D03*
X457500D02*
D03*
X437500D02*
D03*
X417500D02*
D03*
X597500D02*
D03*
X577500D02*
D03*
X557500D02*
D03*
X537500D02*
D03*
X517500D02*
D03*
X697500D02*
D03*
X677500D02*
D03*
X657500D02*
D03*
X637500D02*
D03*
X617500D02*
D03*
X797500D02*
D03*
X777500D02*
D03*
X757500D02*
D03*
X737500D02*
D03*
X717500D02*
D03*
X897500D02*
D03*
X877500D02*
D03*
X857500D02*
D03*
X837500D02*
D03*
X817500D02*
D03*
X-35000Y-2390000D02*
D03*
X1117000Y31001D02*
D03*
X2435000Y-50000D02*
D03*
Y-70000D02*
D03*
Y-90000D02*
D03*
Y-110000D02*
D03*
Y-130000D02*
D03*
Y-230000D02*
D03*
Y-210000D02*
D03*
Y-190000D02*
D03*
Y-170000D02*
D03*
Y-150000D02*
D03*
Y-330000D02*
D03*
Y-310000D02*
D03*
Y-290000D02*
D03*
Y-270000D02*
D03*
Y-250000D02*
D03*
Y-430000D02*
D03*
Y-410000D02*
D03*
Y-390000D02*
D03*
Y-370000D02*
D03*
Y-350000D02*
D03*
Y-530000D02*
D03*
Y-510000D02*
D03*
Y-490000D02*
D03*
Y-470000D02*
D03*
Y-450000D02*
D03*
Y-570000D02*
D03*
Y-550000D02*
D03*
Y-690000D02*
D03*
Y-670000D02*
D03*
Y-650000D02*
D03*
Y-630000D02*
D03*
Y-610000D02*
D03*
Y-790000D02*
D03*
Y-770000D02*
D03*
Y-750000D02*
D03*
Y-730000D02*
D03*
Y-710000D02*
D03*
Y-890000D02*
D03*
Y-870000D02*
D03*
Y-850000D02*
D03*
Y-830000D02*
D03*
Y-810000D02*
D03*
Y-990000D02*
D03*
Y-970000D02*
D03*
Y-950000D02*
D03*
Y-930000D02*
D03*
Y-910000D02*
D03*
Y-1090000D02*
D03*
Y-1070000D02*
D03*
Y-1050000D02*
D03*
Y-1030000D02*
D03*
Y-1010000D02*
D03*
Y-1190000D02*
D03*
Y-1170000D02*
D03*
Y-1150000D02*
D03*
Y-1130000D02*
D03*
Y-1110000D02*
D03*
Y-1290000D02*
D03*
Y-1270000D02*
D03*
Y-1250000D02*
D03*
Y-1230000D02*
D03*
Y-1210000D02*
D03*
Y-1390000D02*
D03*
Y-1370000D02*
D03*
Y-1350000D02*
D03*
Y-1330000D02*
D03*
Y-1310000D02*
D03*
Y-1490000D02*
D03*
Y-1470000D02*
D03*
Y-1450000D02*
D03*
Y-1430000D02*
D03*
Y-1410000D02*
D03*
Y-1590000D02*
D03*
Y-1570000D02*
D03*
Y-1550000D02*
D03*
Y-1530000D02*
D03*
Y-1510000D02*
D03*
Y-1690000D02*
D03*
Y-1670000D02*
D03*
Y-1650000D02*
D03*
Y-1630000D02*
D03*
Y-1610000D02*
D03*
Y-1790000D02*
D03*
Y-1770000D02*
D03*
Y-1750000D02*
D03*
Y-1730000D02*
D03*
Y-1710000D02*
D03*
X-35000Y-750000D02*
D03*
Y-650000D02*
D03*
Y-670000D02*
D03*
Y-690000D02*
D03*
Y-710000D02*
D03*
Y-730000D02*
D03*
Y-550000D02*
D03*
Y-570000D02*
D03*
Y-590000D02*
D03*
Y-610000D02*
D03*
Y-630000D02*
D03*
Y-450000D02*
D03*
Y-470000D02*
D03*
Y-490000D02*
D03*
Y-510000D02*
D03*
Y-530000D02*
D03*
Y-350000D02*
D03*
Y-370000D02*
D03*
Y-390000D02*
D03*
Y-410000D02*
D03*
Y-430000D02*
D03*
Y-250000D02*
D03*
Y-270000D02*
D03*
Y-290000D02*
D03*
Y-310000D02*
D03*
Y-330000D02*
D03*
Y-150000D02*
D03*
Y-170000D02*
D03*
Y-190000D02*
D03*
Y-210000D02*
D03*
Y-230000D02*
D03*
Y-50000D02*
D03*
Y-70000D02*
D03*
Y-90000D02*
D03*
Y-110000D02*
D03*
Y-130000D02*
D03*
Y-1470000D02*
D03*
Y-1370000D02*
D03*
Y-1390000D02*
D03*
Y-1410000D02*
D03*
Y-1430000D02*
D03*
Y-1450000D02*
D03*
Y-1270000D02*
D03*
Y-1290000D02*
D03*
Y-1310000D02*
D03*
Y-1330000D02*
D03*
Y-1350000D02*
D03*
Y-1170000D02*
D03*
Y-1190000D02*
D03*
Y-1210000D02*
D03*
Y-1230000D02*
D03*
Y-1250000D02*
D03*
Y-1070000D02*
D03*
Y-1090000D02*
D03*
Y-1110000D02*
D03*
Y-1130000D02*
D03*
Y-1150000D02*
D03*
Y-970000D02*
D03*
Y-990000D02*
D03*
Y-1010000D02*
D03*
Y-1030000D02*
D03*
Y-1050000D02*
D03*
Y-870000D02*
D03*
Y-890000D02*
D03*
Y-910000D02*
D03*
Y-930000D02*
D03*
Y-950000D02*
D03*
Y-770000D02*
D03*
Y-790000D02*
D03*
Y-810000D02*
D03*
Y-830000D02*
D03*
Y-850000D02*
D03*
Y-2190000D02*
D03*
Y-2090000D02*
D03*
Y-2110000D02*
D03*
Y-2130000D02*
D03*
Y-2150000D02*
D03*
Y-2170000D02*
D03*
Y-1990000D02*
D03*
Y-2010000D02*
D03*
Y-2030000D02*
D03*
Y-2050000D02*
D03*
Y-2070000D02*
D03*
Y-1890000D02*
D03*
Y-1910000D02*
D03*
Y-1930000D02*
D03*
Y-1950000D02*
D03*
Y-1970000D02*
D03*
Y-1790000D02*
D03*
Y-1810000D02*
D03*
Y-1830000D02*
D03*
Y-1850000D02*
D03*
Y-1870000D02*
D03*
Y-1690000D02*
D03*
Y-1710000D02*
D03*
Y-1730000D02*
D03*
Y-1750000D02*
D03*
Y-1770000D02*
D03*
Y-1590000D02*
D03*
Y-1610000D02*
D03*
Y-1630000D02*
D03*
Y-1650000D02*
D03*
Y-1670000D02*
D03*
Y-1490000D02*
D03*
Y-1510000D02*
D03*
Y-1530000D02*
D03*
Y-1550000D02*
D03*
Y-1570000D02*
D03*
Y-2310000D02*
D03*
Y-2330000D02*
D03*
Y-2350000D02*
D03*
Y-2370000D02*
D03*
Y-2210000D02*
D03*
Y-2230000D02*
D03*
Y-2250000D02*
D03*
Y-2270000D02*
D03*
Y-2290000D02*
D03*
D20*
X1080000Y148201D02*
D03*
X1110000Y75001D02*
D03*
X1080000D02*
D03*
X1050000D02*
D03*
X1110000Y105001D02*
D03*
X1080000D02*
D03*
X1050000D02*
D03*
X1320000Y148201D02*
D03*
X1350000Y75001D02*
D03*
X1320000D02*
D03*
X1290000D02*
D03*
X1350000Y105001D02*
D03*
X1320000D02*
D03*
X1290000D02*
D03*
D21*
X2410000Y55001D02*
D03*
Y-2465000D02*
D03*
X1200000Y-2465000D02*
D03*
X-10000Y-2465000D02*
D03*
X-10000Y55000D02*
D03*
D22*
X1208500Y-1200000D02*
D03*
X1191500D02*
D03*
M02*
