M48
;Layer_Color=9474304
;FILE_FORMAT=4:4
METRIC
;TYPE=PLATED
T1F00S00C0.3000
T2F00S00C0.5000
T3F00S00C0.9000
T4F00S00C1.0000
T5F00S00C2.0000
T6F00S00C3.0000
T7F00S00C3.2000
%
T01
X01292500Y01275001
X01257500Y01275000
T02
X01192000Y02506001
T03
X01262300Y02583101
X01287700
T04
X01125000Y02545001
X01155000
X01185000
X01365000
X01395000
X01425000
Y02575001
X01395000
X01365000
X01185000
X01155000
X01125000
T05
X00812500Y02508750
X00905000Y02507500
X01417500Y02508750
X01512500Y02507500
X01607500Y02508750
T06
X01395000Y02618201
X01155000
T07
X00065000Y00040000
X01275000Y00040000
X02485000Y00040000
X00065000Y02530000
X01275000
X02485000Y02530001
M30
