G04 Layer_Color=8388736*
%FSLAX44Y44*%
%MOMM*%
G71*
G01*
G75*
G04:AMPARAMS|DCode=35|XSize=1.2032mm|YSize=1.1032mm|CornerRadius=0.2141mm|HoleSize=0mm|Usage=FLASHONLY|Rotation=90.000|XOffset=0mm|YOffset=0mm|HoleType=Round|Shape=RoundedRectangle|*
%AMROUNDEDRECTD35*
21,1,1.2032,0.6750,0,0,90.0*
21,1,0.7750,1.1032,0,0,90.0*
1,1,0.4282,0.3375,0.3875*
1,1,0.4282,0.3375,-0.3875*
1,1,0.4282,-0.3375,-0.3875*
1,1,0.4282,-0.3375,0.3875*
%
%ADD35ROUNDEDRECTD35*%
%ADD36C,3.7032*%
%ADD37C,2.2032*%
%ADD38C,1.2032*%
%ADD39R,1.7032X1.7032*%
%ADD40C,1.7032*%
%ADD41R,15.2032X3.2032*%
D35*
X1266500Y1275000D02*
D03*
X1283500D02*
D03*
D36*
X65000Y2530000D02*
D03*
X1275000D02*
D03*
X65000Y40000D02*
D03*
X1275000Y40000D02*
D03*
X2485000Y40000D02*
D03*
Y2530001D02*
D03*
D37*
X1365000Y2575001D02*
D03*
X1395000D02*
D03*
X1425000D02*
D03*
X1365000Y2545001D02*
D03*
X1395000D02*
D03*
X1425000D02*
D03*
X1395000Y2618201D02*
D03*
X1125000Y2575001D02*
D03*
X1155000D02*
D03*
X1185000D02*
D03*
X1125000Y2545001D02*
D03*
X1155000D02*
D03*
X1185000D02*
D03*
X1155000Y2618201D02*
D03*
D38*
X905000Y2507500D02*
D03*
X1512500D02*
D03*
D39*
X1262300Y2583101D02*
D03*
D40*
X1287700D02*
D03*
D41*
X1607500Y2508750D02*
D03*
X1417500D02*
D03*
X812500D02*
D03*
M02*
