G04 Layer_Color=65535*
%FSLAX44Y44*%
%MOMM*%
G71*
G01*
G75*
%ADD28C,0.2000*%
%ADD29C,0.3000*%
%ADD30C,0.1500*%
%ADD31C,0.1270*%
%ADD32C,0.5000*%
G36*
X1131050Y2056721D02*
X1132250Y2056654D01*
X1133649Y2056588D01*
X1135182Y2056521D01*
X1136849Y2056388D01*
X1138648Y2056188D01*
X1140581Y2055921D01*
X1142514Y2055655D01*
X1144580Y2055321D01*
X1146580Y2054922D01*
X1148646Y2054455D01*
X1150645Y2053922D01*
X1152578Y2053322D01*
X1152711Y2053255D01*
X1153045Y2053189D01*
X1153578Y2052989D01*
X1154244Y2052655D01*
X1155111Y2052322D01*
X1156177Y2051856D01*
X1157243Y2051389D01*
X1158510Y2050789D01*
X1159776Y2050056D01*
X1161176Y2049323D01*
X1162575Y2048457D01*
X1163975Y2047523D01*
X1165441Y2046524D01*
X1166841Y2045457D01*
X1168174Y2044258D01*
X1169507Y2042991D01*
X1169574Y2042924D01*
X1169773Y2042658D01*
X1170173Y2042258D01*
X1170640Y2041725D01*
X1171173Y2041058D01*
X1171840Y2040259D01*
X1172506Y2039326D01*
X1173306Y2038259D01*
X1174106Y2037059D01*
X1174972Y2035793D01*
X1175772Y2034393D01*
X1176638Y2032927D01*
X1177438Y2031328D01*
X1178238Y2029661D01*
X1178971Y2027928D01*
X1179638Y2026129D01*
X1179704Y2025995D01*
X1179771Y2025662D01*
X1179971Y2025129D01*
X1180171Y2024396D01*
X1180437Y2023463D01*
X1180704Y2022330D01*
X1181037Y2020997D01*
X1181371Y2019530D01*
X1181637Y2017931D01*
X1181970Y2016198D01*
X1182237Y2014265D01*
X1182504Y2012266D01*
X1182704Y2010133D01*
X1182904Y2007934D01*
X1182970Y2005601D01*
X1183037Y2003201D01*
Y2003135D01*
Y2003068D01*
Y2002868D01*
Y2002601D01*
Y2002268D01*
Y2001868D01*
X1182970Y2000935D01*
X1182904Y1999736D01*
X1182837Y1998403D01*
X1182770Y1996870D01*
X1182637Y1995203D01*
X1182437Y1993404D01*
X1182170Y1991471D01*
X1181904Y1989538D01*
X1181571Y1987539D01*
X1181171Y1985539D01*
X1180704Y1983540D01*
X1180171Y1981540D01*
X1179571Y1979607D01*
X1179504Y1979474D01*
X1179438Y1979141D01*
X1179238Y1978608D01*
X1178904Y1977941D01*
X1178571Y1977075D01*
X1178105Y1976075D01*
X1177571Y1974942D01*
X1176972Y1973742D01*
X1176305Y1972476D01*
X1175505Y1971143D01*
X1174639Y1969743D01*
X1173706Y1968344D01*
X1172706Y1966944D01*
X1171640Y1965611D01*
X1170440Y1964278D01*
X1169174Y1963012D01*
X1169107Y1962945D01*
X1168840Y1962745D01*
X1168507Y1962412D01*
X1167974Y1961945D01*
X1167308Y1961412D01*
X1166508Y1960746D01*
X1165575Y1960079D01*
X1164508Y1959279D01*
X1163308Y1958546D01*
X1162042Y1957680D01*
X1160642Y1956880D01*
X1159110Y1956080D01*
X1157510Y1955280D01*
X1155777Y1954480D01*
X1153978Y1953814D01*
X1152111Y1953147D01*
X1151978Y1953081D01*
X1151645Y1953014D01*
X1151045Y1952881D01*
X1150312Y1952614D01*
X1149312Y1952414D01*
X1148112Y1952148D01*
X1146779Y1951815D01*
X1145247Y1951548D01*
X1143580Y1951215D01*
X1141714Y1950948D01*
X1139781Y1950615D01*
X1137648Y1950415D01*
X1135449Y1950215D01*
X1133116Y1950015D01*
X1130717Y1949948D01*
X1128184Y1949882D01*
X1123919D01*
X1122719Y1949948D01*
X1120853D01*
X1120186Y1950015D01*
X1119320Y1950082D01*
X1118320Y1950148D01*
X1117187Y1950215D01*
X1115987Y1950282D01*
X1114788Y1950415D01*
X1114454D01*
X1114254Y1950482D01*
X1113588Y1950548D01*
X1112788Y1950615D01*
X1111855Y1950681D01*
X1110789Y1950748D01*
X1108656Y1950948D01*
X1108522D01*
X1108189Y1951015D01*
X1107589Y1951081D01*
X1106923Y1951148D01*
X1106057Y1951215D01*
X1105190Y1951348D01*
X1103324Y1951615D01*
Y1951681D01*
Y1951815D01*
Y1952014D01*
Y1952281D01*
Y1952681D01*
Y1953147D01*
Y1953614D01*
Y1954214D01*
Y1955547D01*
Y1957146D01*
Y1958879D01*
Y1960812D01*
Y1962878D01*
Y1965078D01*
Y1967344D01*
Y1969610D01*
Y1974276D01*
Y1976541D01*
Y1978741D01*
Y1978808D01*
Y1978874D01*
Y1979274D01*
Y1979874D01*
Y1980674D01*
Y1981740D01*
Y1982873D01*
Y1984206D01*
Y1985672D01*
Y1987206D01*
Y1988805D01*
Y1992204D01*
Y1995603D01*
Y1997336D01*
Y1998936D01*
Y1999003D01*
Y1999202D01*
Y1999602D01*
Y2000069D01*
Y2000669D01*
Y2001335D01*
Y2002068D01*
Y2002935D01*
Y2004734D01*
Y2006667D01*
Y2008733D01*
Y2010666D01*
Y2010733D01*
Y2010866D01*
Y2011133D01*
Y2011533D01*
Y2011933D01*
Y2012466D01*
Y2013665D01*
Y2015065D01*
Y2016531D01*
Y2017998D01*
Y2019464D01*
Y2019597D01*
Y2019864D01*
Y2020330D01*
Y2020930D01*
Y2021597D01*
Y2022330D01*
Y2023796D01*
Y2023863D01*
Y2024129D01*
Y2024463D01*
Y2024929D01*
Y2025462D01*
Y2025995D01*
Y2027195D01*
Y2027262D01*
Y2027462D01*
Y2027795D01*
Y2028128D01*
Y2029061D01*
Y2029995D01*
Y2030061D01*
Y2030195D01*
Y2030461D01*
Y2030728D01*
Y2031461D01*
Y2032261D01*
Y2032327D01*
Y2032394D01*
Y2032794D01*
Y2033394D01*
Y2034193D01*
Y2035060D01*
Y2035993D01*
Y2036926D01*
Y2037859D01*
Y2037993D01*
Y2038326D01*
Y2038859D01*
Y2039659D01*
Y2040659D01*
Y2041858D01*
Y2043258D01*
Y2044924D01*
Y2044991D01*
Y2045257D01*
Y2045657D01*
Y2046190D01*
Y2046857D01*
Y2047657D01*
Y2048457D01*
Y2049390D01*
Y2049523D01*
Y2049856D01*
Y2050323D01*
Y2051056D01*
Y2051922D01*
Y2052922D01*
Y2054055D01*
Y2055255D01*
X1104124D01*
X1104457Y2055321D01*
X1104990Y2055388D01*
X1105657Y2055455D01*
X1106523Y2055521D01*
X1107390Y2055588D01*
X1109322Y2055788D01*
X1109456D01*
X1109789Y2055855D01*
X1110322Y2055921D01*
X1110989Y2055988D01*
X1111855Y2056055D01*
X1112855Y2056121D01*
X1113988Y2056254D01*
X1115188Y2056321D01*
X1115521D01*
X1115787Y2056388D01*
X1116454D01*
X1117387Y2056454D01*
X1118387Y2056521D01*
X1119586Y2056588D01*
X1120853Y2056654D01*
X1122119Y2056721D01*
X1123319D01*
X1124185Y2056788D01*
X1130117D01*
X1131050Y2056721D01*
D02*
G37*
G36*
X715827Y2041301D02*
X722593Y2040334D01*
X729843Y2038884D01*
X737576Y2036468D01*
X745309Y2033568D01*
X752558Y2029702D01*
X753525Y2029218D01*
X755458Y2027285D01*
X758358Y2024868D01*
X761741Y2021485D01*
X764641Y2016652D01*
X767541Y2011819D01*
X769474Y2006019D01*
X770441Y1999736D01*
Y1998770D01*
X769958Y1996353D01*
X769474Y1992970D01*
X768024Y1988620D01*
X766091Y1983787D01*
X762708Y1978954D01*
X758358Y1973638D01*
X752075Y1969288D01*
X751108Y1968804D01*
X748692Y1967354D01*
X744825Y1965905D01*
X739026Y1963971D01*
X732259Y1961555D01*
X724526Y1960105D01*
X715343Y1958655D01*
X705194Y1958172D01*
X700361D01*
X695044Y1958655D01*
X688278Y1959621D01*
X680545Y1960588D01*
X672812Y1962521D01*
X664596Y1964938D01*
X657346Y1968321D01*
X656379Y1968804D01*
X654446Y1970254D01*
X651546Y1972671D01*
X648163Y1976054D01*
X644297Y1980404D01*
X641397Y1985720D01*
X639464Y1992003D01*
X638497Y1999253D01*
Y2000220D01*
X638980Y2002636D01*
X639464Y2006019D01*
X640913Y2010369D01*
X643330Y2015202D01*
X646713Y2020519D01*
X651546Y2025352D01*
X657829Y2030185D01*
X658796Y2030668D01*
X661212Y2032118D01*
X665562Y2034051D01*
X670879Y2035985D01*
X678128Y2037918D01*
X686345Y2039851D01*
X695528Y2041301D01*
X705677Y2041784D01*
X710510D01*
X715827Y2041301D01*
D02*
G37*
G36*
X2314137Y1773063D02*
X2344585D01*
Y1699600D01*
X2192342D01*
Y1715066D01*
X2191859D01*
X2190892Y1714099D01*
X2188959Y1713133D01*
X2186543Y1712166D01*
X2183159Y1710716D01*
X2179293Y1708783D01*
X2174943Y1706850D01*
X2170110Y1705400D01*
X2164794Y1703466D01*
X2158511Y1701533D01*
X2145461Y1698150D01*
X2130479Y1696217D01*
X2114529Y1695250D01*
X2109696D01*
X2106313Y1695733D01*
X2101963Y1696217D01*
X2096647Y1696700D01*
X2091330Y1697667D01*
X2085047Y1699117D01*
X2071031Y1702500D01*
X2063782Y1704916D01*
X2056532Y1707816D01*
X2048799Y1711199D01*
X2041549Y1715549D01*
X2033816Y1719899D01*
X2026567Y1725215D01*
X2026083Y1725699D01*
X2025117Y1726665D01*
X2023183Y1728599D01*
X2020767Y1731015D01*
X2017867Y1733915D01*
X2014484Y1737782D01*
X2011101Y1742131D01*
X2007717Y1747448D01*
X2004334Y1753248D01*
X2000951Y1759531D01*
X1997568Y1766780D01*
X1994668Y1774513D01*
X1992251Y1782729D01*
X1990318Y1791912D01*
X1989352Y1801579D01*
X1988868Y1811728D01*
Y1812211D01*
Y1814628D01*
X1989352Y1817528D01*
Y1821878D01*
X1989835Y1826711D01*
X1990802Y1832511D01*
X1991768Y1839277D01*
X1993218Y1846043D01*
X1995151Y1853293D01*
X1997568Y1861026D01*
X1999984Y1868759D01*
X2003368Y1876492D01*
X2007717Y1884225D01*
X2012067Y1891475D01*
X2017384Y1898724D01*
X2023667Y1905007D01*
X2024150Y1905491D01*
X2025117Y1906457D01*
X2027533Y1907907D01*
X2029950Y1910324D01*
X2033816Y1912740D01*
X2038166Y1915640D01*
X2042999Y1918540D01*
X2048799Y1921440D01*
X2055082Y1924340D01*
X2062332Y1927723D01*
X2070065Y1930139D01*
X2078764Y1932556D01*
X2087464Y1934973D01*
X2097130Y1936422D01*
X2107763Y1937389D01*
X2118396Y1937872D01*
X2122746D01*
X2125645Y1937389D01*
X2129512D01*
X2133862Y1936906D01*
X2138695Y1936422D01*
X2144011Y1935456D01*
X2155611Y1933039D01*
X2168177Y1929656D01*
X2180260Y1924823D01*
X2192342Y1918540D01*
Y1961071D01*
X2162860D01*
Y2035018D01*
X2314137D01*
Y1773063D01*
D02*
G37*
G36*
X950296Y2026062D02*
X950896Y2025995D01*
X952029D01*
X952696Y2025929D01*
X953029D01*
X953296Y2025862D01*
X953895D01*
X954562Y2025796D01*
X954695D01*
X955095Y2025729D01*
X955628Y2025662D01*
X956228Y2025529D01*
Y2025396D01*
Y2025062D01*
Y2024463D01*
Y2023730D01*
Y2022796D01*
Y2021663D01*
Y2020464D01*
Y2019131D01*
Y2017731D01*
Y2016198D01*
Y2013065D01*
Y2009866D01*
Y2006734D01*
Y2006667D01*
Y2006401D01*
Y2005934D01*
Y2005401D01*
Y2004734D01*
Y2003868D01*
Y2003001D01*
Y2002002D01*
Y2000935D01*
Y1999869D01*
Y1997536D01*
Y1995203D01*
Y1992937D01*
Y1992871D01*
Y1992737D01*
Y1992471D01*
Y1992137D01*
Y1991738D01*
Y1991271D01*
Y1990138D01*
Y1988872D01*
Y1987472D01*
Y1986072D01*
Y1984673D01*
Y1984606D01*
Y1984539D01*
Y1984339D01*
Y1984073D01*
Y1983473D01*
Y1982607D01*
Y1981674D01*
Y1980674D01*
Y1979607D01*
Y1978608D01*
Y1978541D01*
Y1978341D01*
Y1978008D01*
Y1977675D01*
Y1976675D01*
Y1975675D01*
Y1975608D01*
Y1975475D01*
Y1975208D01*
Y1974875D01*
Y1974075D01*
Y1973276D01*
Y1973209D01*
Y1973076D01*
Y1972876D01*
Y1972609D01*
Y1972009D01*
Y1971343D01*
Y1971276D01*
Y1971210D01*
Y1970876D01*
Y1970343D01*
Y1969743D01*
Y1969677D01*
Y1969410D01*
Y1968943D01*
Y1968477D01*
Y1967877D01*
Y1967211D01*
Y1965944D01*
Y1965878D01*
Y1965611D01*
Y1965278D01*
Y1964678D01*
Y1964011D01*
Y1963145D01*
Y1962145D01*
Y1961012D01*
Y1960945D01*
Y1960812D01*
Y1960479D01*
Y1960146D01*
Y1959679D01*
Y1959146D01*
Y1957946D01*
Y1957880D01*
Y1957613D01*
Y1957280D01*
Y1956747D01*
Y1956147D01*
Y1955480D01*
Y1954680D01*
Y1953881D01*
X956095D01*
X955762Y1953747D01*
X955295Y1953614D01*
X954629Y1953481D01*
X953762Y1953281D01*
X952829Y1953014D01*
X951829Y1952748D01*
X950763Y1952481D01*
X950630D01*
X950230Y1952348D01*
X949630Y1952214D01*
X948764Y1952081D01*
X947830Y1951881D01*
X946697Y1951615D01*
X945498Y1951415D01*
X944165Y1951148D01*
X944031D01*
X943831Y1951081D01*
X943565D01*
X942898Y1950948D01*
X941965Y1950815D01*
X940899Y1950615D01*
X939699Y1950482D01*
X938433Y1950282D01*
X937100Y1950148D01*
X936767D01*
X936500Y1950082D01*
X935767D01*
X934834Y1950015D01*
X933701Y1949948D01*
X932501D01*
X931168Y1949882D01*
X928502D01*
X927569Y1949948D01*
X926503D01*
X925369Y1950015D01*
X924103Y1950082D01*
X922837Y1950148D01*
X922703D01*
X922504Y1950215D01*
X922304D01*
X921637Y1950282D01*
X920837Y1950415D01*
X919837Y1950548D01*
X918705Y1950681D01*
X917571Y1950881D01*
X916372Y1951081D01*
X916238D01*
X915839Y1951215D01*
X915239Y1951348D01*
X914506Y1951548D01*
X913572Y1951815D01*
X912573Y1952148D01*
X910440Y1952948D01*
X910307Y1953014D01*
X909973Y1953147D01*
X909440Y1953481D01*
X908774Y1953814D01*
X907974Y1954281D01*
X907107Y1954814D01*
X906241Y1955414D01*
X905308Y1956080D01*
X905175Y1956147D01*
X904908Y1956413D01*
X904442Y1956813D01*
X903908Y1957346D01*
X903242Y1958013D01*
X902575Y1958813D01*
X901842Y1959679D01*
X901109Y1960612D01*
X901042Y1960746D01*
X900776Y1961079D01*
X900443Y1961612D01*
X899976Y1962345D01*
X899443Y1963212D01*
X898910Y1964211D01*
X898376Y1965411D01*
X897843Y1966611D01*
Y1966677D01*
X897776Y1966744D01*
X897710Y1966944D01*
X897643Y1967211D01*
X897377Y1967944D01*
X897110Y1968877D01*
X896777Y1970010D01*
X896443Y1971343D01*
X896110Y1972876D01*
X895844Y1974475D01*
Y1974542D01*
Y1974675D01*
X895777Y1974942D01*
X895710Y1975275D01*
X895644Y1975675D01*
Y1976142D01*
X895577Y1976741D01*
X895510Y1977408D01*
X895377Y1978874D01*
X895244Y1980540D01*
X895177Y1982407D01*
X895110Y1984473D01*
Y1984539D01*
Y1984739D01*
Y1985073D01*
Y1985539D01*
Y1986072D01*
Y1986672D01*
Y1987405D01*
Y1988139D01*
Y1989805D01*
Y1991671D01*
Y1993470D01*
Y1995270D01*
Y1995337D01*
Y1995470D01*
Y1995737D01*
Y1996003D01*
Y1996403D01*
Y1996870D01*
Y1997936D01*
Y1999202D01*
Y2000535D01*
Y2001868D01*
Y2003201D01*
Y2003335D01*
Y2003668D01*
Y2004135D01*
Y2004734D01*
Y2005468D01*
Y2006267D01*
Y2007867D01*
Y2007934D01*
Y2008200D01*
Y2008533D01*
Y2009000D01*
Y2009533D01*
Y2010133D01*
Y2011333D01*
Y2011399D01*
Y2011533D01*
Y2011799D01*
Y2012066D01*
Y2012866D01*
Y2013865D01*
Y2014865D01*
Y2015798D01*
Y2016598D01*
Y2016931D01*
Y2017198D01*
Y2017264D01*
Y2017398D01*
Y2017731D01*
Y2018131D01*
Y2018731D01*
Y2019464D01*
Y2020397D01*
Y2021463D01*
Y2021530D01*
Y2021597D01*
Y2021930D01*
Y2022530D01*
Y2023196D01*
Y2023263D01*
Y2023396D01*
Y2023596D01*
Y2023863D01*
Y2024596D01*
Y2025529D01*
X895311D01*
X895644Y2025596D01*
X896044Y2025662D01*
X896510D01*
X897110Y2025729D01*
X897843Y2025862D01*
X898710Y2025929D01*
X899109D01*
X899376Y2025995D01*
X900709D01*
X901109Y2026062D01*
X901642Y2026129D01*
X902709D01*
X903242Y2026062D01*
X903842Y2025995D01*
X905108D01*
X905841Y2025929D01*
X905974D01*
X906441Y2025862D01*
X907041D01*
X907707Y2025796D01*
X907841D01*
X908241Y2025729D01*
X908774Y2025662D01*
X909440Y2025529D01*
Y2025462D01*
Y2025262D01*
Y2024929D01*
Y2024529D01*
Y2023996D01*
Y2023396D01*
Y2022663D01*
Y2021930D01*
Y2020264D01*
Y2018464D01*
Y2016665D01*
Y2014865D01*
Y2014798D01*
Y2014665D01*
Y2014465D01*
Y2014132D01*
Y2013732D01*
Y2013266D01*
Y2012199D01*
Y2010999D01*
Y2009666D01*
Y2008333D01*
Y2007000D01*
Y2006867D01*
Y2006600D01*
Y2006067D01*
Y2005468D01*
Y2004801D01*
Y2004001D01*
Y2002468D01*
Y2002402D01*
Y2002135D01*
Y2001802D01*
Y2001335D01*
Y2000802D01*
Y2000202D01*
Y1999069D01*
Y1999003D01*
Y1998869D01*
Y1998603D01*
Y1998336D01*
Y1997536D01*
Y1996603D01*
Y1995603D01*
Y1994670D01*
Y1993870D01*
Y1993537D01*
Y1993271D01*
Y1993204D01*
Y1993071D01*
Y1992737D01*
Y1992337D01*
Y1991738D01*
Y1991071D01*
Y1990205D01*
Y1989138D01*
Y1989072D01*
Y1989005D01*
Y1988605D01*
Y1988072D01*
Y1987339D01*
Y1987272D01*
Y1987139D01*
Y1986939D01*
Y1986672D01*
Y1985939D01*
Y1985006D01*
Y1984939D01*
Y1984873D01*
Y1984673D01*
Y1984406D01*
Y1983806D01*
X909507Y1982940D01*
Y1981940D01*
X909574Y1980874D01*
X909707Y1978674D01*
Y1978541D01*
X909773Y1978208D01*
X909840Y1977675D01*
X909973Y1977008D01*
X910107Y1976208D01*
X910240Y1975342D01*
X910706Y1973609D01*
Y1973476D01*
X910840Y1973209D01*
X910973Y1972809D01*
X911106Y1972209D01*
X911373Y1971609D01*
X911640Y1970943D01*
X912306Y1969543D01*
X912373Y1969477D01*
X912506Y1969277D01*
X912706Y1968943D01*
X912973Y1968477D01*
X913706Y1967477D01*
X914572Y1966411D01*
X914639Y1966344D01*
X914839Y1966211D01*
X915105Y1965944D01*
X915439Y1965678D01*
X915839Y1965344D01*
X916372Y1965011D01*
X917438Y1964278D01*
X917505Y1964211D01*
X917705Y1964145D01*
X918038Y1963945D01*
X918504Y1963745D01*
X919038Y1963545D01*
X919638Y1963278D01*
X920971Y1962878D01*
X921037D01*
X921304Y1962812D01*
X921637Y1962678D01*
X922170Y1962612D01*
X922770Y1962478D01*
X923437Y1962345D01*
X924170Y1962212D01*
X924969Y1962079D01*
X925369D01*
X925769Y1962012D01*
X926369D01*
X927036Y1961945D01*
X927835D01*
X929568Y1961879D01*
X930901D01*
X931834Y1961945D01*
X932901D01*
X934034Y1962012D01*
X936367Y1962212D01*
X936500D01*
X936900Y1962278D01*
X937500Y1962412D01*
X938299Y1962545D01*
X939166Y1962678D01*
X940166Y1962878D01*
X942165Y1963412D01*
Y1963545D01*
Y1963811D01*
Y1964345D01*
Y1964944D01*
Y1965744D01*
Y1966744D01*
Y1967744D01*
Y1968943D01*
Y1970143D01*
Y1971476D01*
Y1974209D01*
Y1976941D01*
Y1979674D01*
Y1979741D01*
Y1980007D01*
Y1980341D01*
Y1980874D01*
Y1981474D01*
Y1982140D01*
Y1982940D01*
Y1983806D01*
Y1985739D01*
Y1987739D01*
Y1989805D01*
Y1991804D01*
Y1991871D01*
Y1992004D01*
Y1992204D01*
Y1992471D01*
Y1993271D01*
Y1994204D01*
Y1995337D01*
Y1996536D01*
Y1997736D01*
Y1998936D01*
Y1999003D01*
Y1999069D01*
Y1999469D01*
Y2000002D01*
Y2000735D01*
Y2001535D01*
Y2002402D01*
Y2003268D01*
Y2004135D01*
Y2004201D01*
Y2004401D01*
Y2004668D01*
Y2005001D01*
Y2005801D01*
Y2006667D01*
Y2006734D01*
Y2006867D01*
Y2007067D01*
Y2007334D01*
Y2008000D01*
Y2008733D01*
Y2008800D01*
Y2008867D01*
Y2009066D01*
Y2009333D01*
Y2010000D01*
Y2010799D01*
Y2011666D01*
Y2012532D01*
Y2013399D01*
Y2014065D01*
Y2014132D01*
Y2014398D01*
Y2014732D01*
Y2015332D01*
Y2015998D01*
Y2016931D01*
Y2018064D01*
Y2019331D01*
Y2019397D01*
Y2019530D01*
Y2019797D01*
Y2020130D01*
Y2020530D01*
Y2020997D01*
Y2021997D01*
Y2022063D01*
Y2022263D01*
Y2022596D01*
Y2022996D01*
Y2023530D01*
Y2024129D01*
Y2024796D01*
Y2025529D01*
X942298D01*
X942632Y2025596D01*
X943165Y2025729D01*
X943831Y2025796D01*
X943965D01*
X944365Y2025862D01*
X944964D01*
X945698Y2025929D01*
X945831D01*
X946297Y2025995D01*
X947630D01*
X948030Y2026062D01*
X948564Y2026129D01*
X949763D01*
X950296Y2026062D01*
D02*
G37*
G36*
X1088728Y2044458D02*
X1088928Y2044124D01*
X1089261Y2043591D01*
X1089727Y2042858D01*
Y2042791D01*
X1089594Y2042725D01*
X1089527Y2042525D01*
X1089327Y2042258D01*
X1089061Y2041858D01*
X1088794Y2041458D01*
X1088461Y2040925D01*
X1088061Y2040392D01*
X1087661Y2039725D01*
X1087128Y2038926D01*
X1086595Y2038126D01*
X1085995Y2037259D01*
X1085395Y2036260D01*
X1084662Y2035193D01*
X1083929Y2034060D01*
X1083129Y2032861D01*
X1082263Y2031594D01*
X1081396Y2030195D01*
X1080463Y2028795D01*
X1079463Y2027262D01*
X1078397Y2025662D01*
X1077264Y2023996D01*
X1076131Y2022197D01*
X1074931Y2020397D01*
X1073665Y2018464D01*
X1072332Y2016465D01*
X1070999Y2014398D01*
X1069599Y2012266D01*
X1068133Y2010066D01*
X1066600Y2007800D01*
X1065000Y2005401D01*
X1063401Y2002935D01*
X1063467D01*
X1063601Y2003001D01*
X1063934Y2003068D01*
X1066800D01*
X1067666Y2003001D01*
X1068666Y2002935D01*
X1069733Y2002802D01*
X1071932Y2002468D01*
X1072065D01*
X1072465Y2002335D01*
X1072998Y2002202D01*
X1073732Y2002002D01*
X1074531Y2001802D01*
X1075464Y2001469D01*
X1077397Y2000735D01*
X1077531Y2000669D01*
X1077797Y2000535D01*
X1078264Y2000269D01*
X1078864Y1999935D01*
X1079597Y1999536D01*
X1080330Y1999069D01*
X1081863Y1998003D01*
X1081929Y1997936D01*
X1082196Y1997736D01*
X1082596Y1997403D01*
X1083129Y1996936D01*
X1083662Y1996470D01*
X1084262Y1995870D01*
X1085528Y1994470D01*
X1085595Y1994404D01*
X1085795Y1994137D01*
X1086128Y1993804D01*
X1086461Y1993271D01*
X1086928Y1992737D01*
X1087395Y1992004D01*
X1087861Y1991271D01*
X1088328Y1990471D01*
X1088394Y1990405D01*
X1088528Y1990071D01*
X1088728Y1989671D01*
X1089061Y1989138D01*
X1089394Y1988472D01*
X1089727Y1987672D01*
X1090394Y1986006D01*
X1090461Y1985872D01*
X1090527Y1985606D01*
X1090660Y1985139D01*
X1090860Y1984539D01*
X1091060Y1983873D01*
X1091260Y1983073D01*
X1091593Y1981340D01*
Y1981274D01*
X1091660Y1980940D01*
X1091727Y1980474D01*
X1091794Y1979941D01*
X1091860Y1979207D01*
X1091927Y1978474D01*
X1091993Y1976741D01*
Y1976675D01*
Y1976541D01*
Y1976275D01*
Y1975942D01*
Y1975542D01*
X1091927Y1975075D01*
Y1973942D01*
X1091794Y1972609D01*
X1091660Y1971143D01*
X1091460Y1969677D01*
X1091194Y1968144D01*
Y1968077D01*
X1091127Y1967944D01*
Y1967744D01*
X1091060Y1967477D01*
X1090927Y1967144D01*
X1090860Y1966677D01*
X1090594Y1965744D01*
X1090194Y1964611D01*
X1089794Y1963345D01*
X1089327Y1962012D01*
X1088728Y1960746D01*
Y1960679D01*
X1088661Y1960612D01*
X1088594Y1960412D01*
X1088461Y1960212D01*
X1088061Y1959546D01*
X1087661Y1958746D01*
X1087061Y1957813D01*
X1086461Y1956747D01*
X1085728Y1955680D01*
X1084995Y1954614D01*
X1084929Y1954480D01*
X1084595Y1954147D01*
X1084129Y1953614D01*
X1083529Y1952948D01*
X1082796Y1952214D01*
X1081996Y1951415D01*
X1081063Y1950548D01*
X1080063Y1949682D01*
X1079930Y1949615D01*
X1079597Y1949282D01*
X1078997Y1948882D01*
X1078264Y1948349D01*
X1077330Y1947749D01*
X1076331Y1947082D01*
X1075198Y1946416D01*
X1074065Y1945816D01*
X1073998D01*
X1073931Y1945749D01*
X1073732Y1945683D01*
X1073531Y1945549D01*
X1072865Y1945283D01*
X1071999Y1944883D01*
X1070932Y1944483D01*
X1069733Y1944017D01*
X1068466Y1943550D01*
X1067133Y1943150D01*
X1067066D01*
X1067000Y1943083D01*
X1066800D01*
X1066533Y1943017D01*
X1065800Y1942817D01*
X1064800Y1942550D01*
X1063667Y1942350D01*
X1062401Y1942084D01*
X1061001Y1941817D01*
X1059535Y1941550D01*
X1059335D01*
X1059135Y1941484D01*
X1058869D01*
X1058469Y1941417D01*
X1058069D01*
X1057069Y1941351D01*
X1055869Y1941217D01*
X1054470Y1941151D01*
X1053003Y1941084D01*
X1050137D01*
X1049271Y1941151D01*
X1048205D01*
X1047005Y1941217D01*
X1045739Y1941284D01*
X1044472Y1941351D01*
X1044339D01*
X1044139Y1941417D01*
X1043872D01*
X1043206Y1941484D01*
X1042406Y1941617D01*
X1041406Y1941684D01*
X1040273Y1941884D01*
X1037941Y1942217D01*
X1037807D01*
X1037407Y1942350D01*
X1036741Y1942484D01*
X1035941Y1942617D01*
X1034941Y1942817D01*
X1033875Y1943083D01*
X1031609Y1943683D01*
X1031542D01*
X1031476Y1943750D01*
X1031076Y1943883D01*
X1030409Y1944017D01*
X1029609Y1944283D01*
X1028676Y1944616D01*
X1027610Y1944950D01*
X1025344Y1945816D01*
Y1945883D01*
X1025411Y1946083D01*
Y1946416D01*
X1025477Y1946816D01*
X1025610Y1947282D01*
X1025677Y1947816D01*
X1025944Y1948949D01*
Y1949015D01*
X1026010Y1949215D01*
X1026144Y1949548D01*
X1026277Y1949948D01*
X1026410Y1950415D01*
X1026610Y1950948D01*
X1027010Y1952014D01*
Y1952081D01*
X1027143Y1952281D01*
X1027210Y1952548D01*
X1027410Y1952948D01*
X1027610Y1953414D01*
X1027810Y1953947D01*
X1028276Y1955014D01*
X1028343Y1955080D01*
X1028410Y1955280D01*
X1028543Y1955547D01*
X1028743Y1955947D01*
X1028943Y1956347D01*
X1029210Y1956880D01*
X1029809Y1957946D01*
X1029943Y1957880D01*
X1030209Y1957813D01*
X1030676Y1957613D01*
X1031276Y1957413D01*
X1032009Y1957146D01*
X1032809Y1956880D01*
X1034541Y1956280D01*
X1034675D01*
X1034941Y1956147D01*
X1035408Y1956013D01*
X1036074Y1955813D01*
X1036808Y1955614D01*
X1037607Y1955414D01*
X1039474Y1954880D01*
X1039607D01*
X1039940Y1954814D01*
X1040407Y1954680D01*
X1041073Y1954547D01*
X1041940Y1954414D01*
X1042806Y1954281D01*
X1043806Y1954147D01*
X1044872Y1954014D01*
X1045005D01*
X1045405Y1953947D01*
X1045939D01*
X1046738Y1953881D01*
X1047672Y1953814D01*
X1048671D01*
X1049804Y1953747D01*
X1052004D01*
X1052737Y1953814D01*
X1053537D01*
X1054470Y1953881D01*
X1056336Y1954014D01*
X1056469D01*
X1056803Y1954081D01*
X1057269Y1954147D01*
X1057935Y1954281D01*
X1058669Y1954347D01*
X1059535Y1954547D01*
X1061335Y1954880D01*
X1061468D01*
X1061734Y1955014D01*
X1062201Y1955147D01*
X1062801Y1955347D01*
X1063534Y1955547D01*
X1064267Y1955813D01*
X1065800Y1956413D01*
X1065867Y1956480D01*
X1066133Y1956613D01*
X1066600Y1956813D01*
X1067066Y1957080D01*
X1067666Y1957346D01*
X1068333Y1957746D01*
X1069666Y1958679D01*
X1069733Y1958746D01*
X1069999Y1958879D01*
X1070332Y1959146D01*
X1070732Y1959546D01*
X1071265Y1959946D01*
X1071799Y1960479D01*
X1072865Y1961679D01*
X1072932Y1961745D01*
X1073132Y1961945D01*
X1073398Y1962345D01*
X1073732Y1962745D01*
X1074065Y1963345D01*
X1074531Y1963945D01*
X1074931Y1964678D01*
X1075331Y1965411D01*
X1075398Y1965478D01*
X1075531Y1965744D01*
X1075664Y1966144D01*
X1075931Y1966744D01*
X1076198Y1967410D01*
X1076397Y1968144D01*
X1076664Y1969010D01*
X1076864Y1969877D01*
Y1970010D01*
X1076931Y1970343D01*
X1077064Y1970810D01*
X1077197Y1971543D01*
X1077264Y1972343D01*
X1077397Y1973276D01*
X1077464Y1974342D01*
Y1975408D01*
Y1975475D01*
Y1975608D01*
Y1975875D01*
Y1976142D01*
X1077397Y1976541D01*
Y1977008D01*
X1077264Y1978074D01*
X1077064Y1979274D01*
X1076797Y1980607D01*
X1076464Y1981940D01*
X1075931Y1983206D01*
Y1983273D01*
X1075864Y1983340D01*
X1075664Y1983740D01*
X1075331Y1984406D01*
X1074865Y1985139D01*
X1074198Y1986006D01*
X1073465Y1986939D01*
X1072598Y1987805D01*
X1071532Y1988672D01*
X1071399Y1988738D01*
X1070999Y1989005D01*
X1070332Y1989405D01*
X1069532Y1989872D01*
X1068533Y1990405D01*
X1067333Y1990938D01*
X1066067Y1991471D01*
X1064667Y1991938D01*
X1064601D01*
X1064467Y1992004D01*
X1064267Y1992071D01*
X1064001Y1992137D01*
X1063601Y1992204D01*
X1063201Y1992271D01*
X1062134Y1992471D01*
X1060868Y1992671D01*
X1059402Y1992871D01*
X1057802Y1992937D01*
X1056069Y1993004D01*
X1054203D01*
X1053137Y1992937D01*
X1052604D01*
X1052204Y1992871D01*
X1051337D01*
X1050271Y1992804D01*
X1050004D01*
X1049738Y1992737D01*
X1049338D01*
X1048871Y1992671D01*
X1048405Y1992604D01*
X1047272Y1992404D01*
X1047205D01*
X1047005Y1992337D01*
X1046738D01*
X1046339Y1992271D01*
X1045472Y1992071D01*
X1044406Y1991871D01*
X1044339Y1991938D01*
X1044272Y1992071D01*
X1044139Y1992337D01*
X1043939Y1992604D01*
X1043806Y1992871D01*
X1043672Y1993071D01*
X1043539Y1993204D01*
Y1993271D01*
Y1993337D01*
X1043406Y1993470D01*
X1043206Y1993804D01*
Y1993870D01*
X1043273Y1993937D01*
X1043406Y1994137D01*
X1043606Y1994404D01*
X1043806Y1994737D01*
X1044072Y1995137D01*
X1044339Y1995603D01*
X1044739Y1996203D01*
X1045139Y1996803D01*
X1045539Y1997536D01*
X1046072Y1998269D01*
X1046605Y1999136D01*
X1047205Y2000069D01*
X1047805Y2001069D01*
X1048538Y2002135D01*
X1049271Y2003268D01*
X1050004Y2004534D01*
X1050871Y2005801D01*
X1051737Y2007200D01*
X1052604Y2008600D01*
X1053603Y2010133D01*
X1054603Y2011732D01*
X1055669Y2013399D01*
X1056736Y2015132D01*
X1057935Y2016931D01*
X1059135Y2018864D01*
X1060335Y2020797D01*
X1061668Y2022863D01*
X1063001Y2024929D01*
X1064334Y2027129D01*
X1065800Y2029395D01*
X1067266Y2031727D01*
X1030276D01*
Y2031794D01*
X1030209Y2031994D01*
X1030143Y2032261D01*
X1030076Y2032661D01*
X1030009Y2033060D01*
X1029943Y2033594D01*
X1029809Y2034660D01*
Y2034727D01*
Y2034927D01*
X1029743Y2035260D01*
Y2035660D01*
Y2036193D01*
X1029676Y2036726D01*
Y2037926D01*
Y2037993D01*
Y2038059D01*
Y2038459D01*
Y2038926D01*
Y2039525D01*
Y2039592D01*
Y2039659D01*
X1029743Y2040059D01*
Y2040592D01*
X1029809Y2041258D01*
Y2041325D01*
Y2041392D01*
X1029876Y2041792D01*
Y2042325D01*
X1029943Y2042924D01*
Y2042991D01*
X1030009Y2043058D01*
X1030076Y2043458D01*
X1030143Y2043991D01*
X1030276Y2044524D01*
X1088661D01*
X1088728Y2044458D01*
D02*
G37*
G36*
X849256Y2055721D02*
X850589D01*
X851388Y2055655D01*
X851788D01*
X852122Y2055588D01*
X852788D01*
X853588Y2055521D01*
X853721D01*
X853921Y2055455D01*
X854188D01*
X854854Y2055388D01*
X855587Y2055255D01*
Y2055188D01*
X855654Y2055055D01*
X855721Y2054855D01*
X855787Y2054588D01*
X855921Y2054188D01*
X856054Y2053722D01*
X856254Y2053255D01*
X856454Y2052655D01*
X856854Y2051256D01*
X857387Y2049723D01*
X857920Y2047923D01*
X858587Y2045990D01*
X859253Y2043924D01*
X859920Y2041792D01*
X860653Y2039525D01*
X861386Y2037193D01*
X862919Y2032594D01*
X863652Y2030261D01*
X864385Y2028062D01*
X864452Y2027928D01*
X864585Y2027529D01*
X864718Y2026929D01*
X864985Y2026129D01*
X865318Y2025129D01*
X865718Y2023929D01*
X866118Y2022663D01*
X866584Y2021197D01*
X867118Y2019664D01*
X867651Y2018064D01*
X868717Y2014665D01*
X869850Y2011266D01*
X870384Y2009600D01*
X870917Y2007934D01*
Y2007867D01*
X870983Y2007667D01*
X871117Y2007267D01*
X871317Y2006801D01*
X871450Y2006201D01*
X871717Y2005534D01*
X871983Y2004801D01*
X872250Y2003934D01*
X872850Y2002068D01*
X873449Y2000135D01*
X874116Y1998069D01*
X874782Y1996136D01*
Y1996070D01*
X874849Y1995937D01*
X874916Y1995670D01*
X875049Y1995270D01*
X875182Y1994870D01*
X875382Y1994337D01*
X875715Y1993137D01*
X876182Y1991738D01*
X876649Y1990271D01*
X877115Y1988805D01*
X877582Y1987339D01*
X877648Y1987206D01*
X877715Y1986939D01*
X877848Y1986472D01*
X878048Y1985939D01*
X878248Y1985273D01*
X878515Y1984539D01*
X878981Y1983073D01*
Y1983006D01*
X879115Y1982740D01*
X879248Y1982407D01*
X879381Y1981940D01*
X879581Y1981407D01*
X879715Y1980807D01*
X880114Y1979607D01*
Y1979541D01*
X880181Y1979341D01*
X880314Y1979074D01*
X880381Y1978674D01*
X880714Y1977808D01*
X881048Y1976808D01*
Y1976741D01*
X881114Y1976608D01*
X881181Y1976342D01*
X881314Y1976075D01*
X881514Y1975342D01*
X881714Y1974542D01*
Y1974475D01*
X881781Y1974409D01*
X881914Y1974009D01*
X882114Y1973409D01*
X882381Y1972676D01*
X882647Y1971743D01*
X882980Y1970810D01*
X883247Y1969877D01*
X883580Y1968943D01*
X883647Y1968810D01*
X883713Y1968477D01*
X883913Y1967944D01*
X884180Y1967211D01*
X884447Y1966211D01*
X884846Y1965011D01*
X885380Y1963611D01*
X885913Y1961945D01*
Y1961879D01*
X886046Y1961612D01*
X886180Y1961212D01*
X886313Y1960612D01*
X886513Y1959946D01*
X886779Y1959213D01*
X887046Y1958346D01*
X887312Y1957413D01*
X887379Y1957280D01*
X887446Y1956947D01*
X887646Y1956413D01*
X887846Y1955747D01*
X888112Y1954880D01*
X888446Y1953881D01*
X888779Y1952814D01*
X889179Y1951615D01*
X889045D01*
X888645Y1951481D01*
X888112Y1951415D01*
X887379Y1951281D01*
X886979D01*
X886779Y1951215D01*
X886113D01*
X885313Y1951148D01*
X884647D01*
X883913Y1951081D01*
X882580D01*
X881914Y1951015D01*
X879914D01*
X879248Y1951081D01*
X877982D01*
X877315Y1951148D01*
X876982D01*
X876715Y1951215D01*
X876049D01*
X875382Y1951281D01*
X875249D01*
X874849Y1951348D01*
X874249Y1951481D01*
X873649Y1951615D01*
Y1951681D01*
X873583Y1951748D01*
X873516Y1951948D01*
X873449Y1952214D01*
X873250Y1952881D01*
X872983Y1953747D01*
X872716Y1954680D01*
X872383Y1955747D01*
X872050Y1956813D01*
X871717Y1957880D01*
Y1958013D01*
X871583Y1958346D01*
X871450Y1958813D01*
X871250Y1959479D01*
X871050Y1960146D01*
X870850Y1960945D01*
X870583Y1961745D01*
X870317Y1962478D01*
Y1962545D01*
X870250Y1962745D01*
X870184Y1963078D01*
X870050Y1963478D01*
X869784Y1964345D01*
X869450Y1965211D01*
Y1965278D01*
X869384Y1965411D01*
X869317Y1965611D01*
X869250Y1965944D01*
X869117Y1966611D01*
X868917Y1967277D01*
Y1967344D01*
X868851Y1967410D01*
X868784Y1967810D01*
X868584Y1968410D01*
X868384Y1969077D01*
X868184Y1969743D01*
X867984Y1970410D01*
X867784Y1970876D01*
Y1971076D01*
X867718Y1971210D01*
X867651Y1971343D01*
X867584Y1971609D01*
X867518Y1971943D01*
X867318Y1972476D01*
X867118Y1973276D01*
X866984Y1973742D01*
X866784Y1974276D01*
X866584Y1974875D01*
X866385Y1975542D01*
X826995D01*
Y1975475D01*
X826861Y1975142D01*
X826728Y1974675D01*
X826528Y1974075D01*
X826328Y1973209D01*
X825995Y1972143D01*
X825662Y1970943D01*
X825262Y1969543D01*
X824795Y1967944D01*
X824262Y1966211D01*
X823662Y1964211D01*
X823062Y1962079D01*
X822396Y1959746D01*
X821663Y1957213D01*
X820863Y1954480D01*
X819996Y1951615D01*
X819863D01*
X819663Y1951548D01*
X819397Y1951481D01*
X818797Y1951415D01*
X818064Y1951281D01*
X817930D01*
X817464Y1951215D01*
X816930D01*
X816264Y1951148D01*
X815664D01*
X815064Y1951081D01*
X813731D01*
X813131Y1951015D01*
X811199D01*
X810465Y1951081D01*
X809199D01*
X808466Y1951148D01*
X808333D01*
X807866Y1951215D01*
X807333D01*
X806666Y1951281D01*
X806533D01*
X806133Y1951348D01*
X805600Y1951481D01*
X805000Y1951615D01*
Y1951681D01*
X805067Y1951815D01*
X805134Y1952014D01*
X805200Y1952281D01*
X805333Y1952681D01*
X805467Y1953147D01*
X805667Y1953614D01*
X805867Y1954214D01*
X806267Y1955547D01*
X806800Y1957146D01*
X807400Y1958879D01*
X807999Y1960812D01*
X808666Y1962878D01*
X809399Y1965078D01*
X810132Y1967344D01*
X810865Y1969610D01*
X812398Y1974276D01*
X813131Y1976541D01*
X813865Y1978741D01*
Y1978808D01*
X813931Y1978874D01*
X814065Y1979274D01*
X814198Y1979874D01*
X814464Y1980674D01*
X814798Y1981740D01*
X815198Y1982873D01*
X815598Y1984206D01*
X816064Y1985672D01*
X816597Y1987206D01*
X817131Y1988805D01*
X818197Y1992204D01*
X819330Y1995603D01*
X819863Y1997336D01*
X820396Y1998936D01*
Y1999003D01*
X820463Y1999202D01*
X820596Y1999602D01*
X820796Y2000069D01*
X820929Y2000669D01*
X821196Y2001335D01*
X821396Y2002068D01*
X821729Y2002935D01*
X822262Y2004734D01*
X822929Y2006667D01*
X823596Y2008733D01*
X824195Y2010666D01*
Y2010733D01*
X824262Y2010866D01*
X824329Y2011133D01*
X824462Y2011533D01*
X824595Y2011933D01*
X824795Y2012466D01*
X825195Y2013665D01*
X825662Y2015065D01*
X826128Y2016531D01*
X826595Y2017998D01*
X827061Y2019464D01*
X827128Y2019597D01*
X827195Y2019864D01*
X827328Y2020330D01*
X827528Y2020930D01*
X827728Y2021597D01*
X827994Y2022330D01*
X828461Y2023796D01*
Y2023863D01*
X828594Y2024129D01*
X828727Y2024463D01*
X828861Y2024929D01*
X829061Y2025462D01*
X829194Y2025995D01*
X829594Y2027195D01*
Y2027262D01*
X829661Y2027462D01*
X829794Y2027795D01*
X829927Y2028128D01*
X830194Y2029061D01*
X830527Y2030061D01*
Y2030128D01*
X830594Y2030261D01*
X830660Y2030528D01*
X830727Y2030794D01*
X830994Y2031528D01*
X831260Y2032261D01*
Y2032327D01*
X831327Y2032394D01*
X831460Y2032794D01*
X831593Y2033394D01*
X831860Y2034193D01*
X832127Y2035060D01*
X832460Y2035993D01*
X832727Y2036926D01*
X833060Y2037859D01*
X833126Y2037993D01*
X833193Y2038326D01*
X833393Y2038859D01*
X833660Y2039659D01*
X833993Y2040659D01*
X834393Y2041858D01*
X834859Y2043258D01*
X835393Y2044924D01*
Y2044991D01*
X835526Y2045257D01*
X835659Y2045657D01*
X835792Y2046190D01*
X835992Y2046857D01*
X836259Y2047657D01*
X836525Y2048457D01*
X836792Y2049390D01*
X836859Y2049523D01*
X836925Y2049856D01*
X837125Y2050389D01*
X837392Y2051056D01*
X837659Y2051922D01*
X837992Y2052922D01*
X838325Y2054055D01*
X838725Y2055255D01*
X838858D01*
X839325Y2055321D01*
X839925Y2055455D01*
X840658Y2055521D01*
X841058D01*
X841324Y2055588D01*
X841991D01*
X842791Y2055655D01*
X843191D01*
X843457Y2055721D01*
X845390D01*
X845723Y2055788D01*
X848522D01*
X849256Y2055721D01*
D02*
G37*
G36*
X1446110Y2034535D02*
X1452393D01*
X1459643Y2034051D01*
X1474625Y2033085D01*
X1490091Y2032118D01*
X1505074Y2030185D01*
X1511840Y2029218D01*
X1518607Y2027768D01*
X1519090D01*
X1520056Y2027285D01*
X1521506Y2026802D01*
X1523923Y2026318D01*
X1526823Y2025352D01*
X1529723Y2024385D01*
X1536972Y2021485D01*
X1545189Y2017619D01*
X1553888Y2012302D01*
X1562104Y2006503D01*
X1569837Y1998770D01*
X1570804Y1997803D01*
X1572737Y1994903D01*
X1575637Y1990553D01*
X1579020Y1984270D01*
X1582404Y1977021D01*
X1585303Y1968321D01*
X1587237Y1958655D01*
X1588203Y1948022D01*
Y1947539D01*
Y1946572D01*
Y1945122D01*
X1587720Y1943189D01*
X1587237Y1938356D01*
X1586270Y1931589D01*
X1583854Y1924340D01*
X1580954Y1916607D01*
X1576604Y1909357D01*
X1570804Y1902591D01*
X1569837Y1901624D01*
X1567421Y1899691D01*
X1563555Y1896791D01*
X1558238Y1892924D01*
X1551955Y1889058D01*
X1544705Y1885191D01*
X1536006Y1881325D01*
X1526823Y1878425D01*
X1527306D01*
X1528273Y1877942D01*
X1530206Y1877458D01*
X1532623Y1876492D01*
X1535522Y1875525D01*
X1538906Y1874075D01*
X1547122Y1870209D01*
X1555822Y1865859D01*
X1565004Y1860059D01*
X1573704Y1853293D01*
X1581437Y1845560D01*
Y1845077D01*
X1582404Y1844593D01*
X1584337Y1841694D01*
X1587720Y1836860D01*
X1591103Y1830577D01*
X1594486Y1823328D01*
X1597870Y1814628D01*
X1599803Y1804962D01*
X1600769Y1794812D01*
Y1794329D01*
Y1793362D01*
Y1791429D01*
X1600286Y1789013D01*
Y1786113D01*
X1599803Y1782729D01*
X1597870Y1774997D01*
X1595453Y1765814D01*
X1591586Y1756147D01*
X1586270Y1746481D01*
X1582887Y1741648D01*
X1579020Y1737298D01*
Y1736815D01*
X1578054Y1736332D01*
X1576604Y1735365D01*
X1575154Y1733432D01*
X1570321Y1729565D01*
X1563555Y1724732D01*
X1554855Y1719899D01*
X1544705Y1714583D01*
X1532623Y1710233D01*
X1519090Y1706850D01*
X1518607D01*
X1517157Y1706366D01*
X1515223D01*
X1512323Y1705883D01*
X1508457Y1705400D01*
X1503624Y1704433D01*
X1497824Y1703950D01*
X1491541Y1703466D01*
X1484291Y1702500D01*
X1476075Y1702017D01*
X1466892Y1701533D01*
X1457226Y1700567D01*
X1446593Y1700083D01*
X1435477D01*
X1422911Y1699600D01*
X1220404D01*
Y1779346D01*
X1249402D01*
Y1954305D01*
X1220404D01*
Y2035018D01*
X1440310D01*
X1446110Y2034535D01*
D02*
G37*
G36*
X965215Y1937389D02*
X969082D01*
X973431Y1936906D01*
X978748Y1936422D01*
X984064Y1935456D01*
X996147Y1933039D01*
X1009196Y1929656D01*
X1022246Y1924823D01*
X1034812Y1918540D01*
Y1933523D01*
X1185122D01*
Y1859576D01*
X1155640D01*
Y1731499D01*
Y1731015D01*
Y1729565D01*
Y1727632D01*
Y1724732D01*
Y1720866D01*
X1155156Y1716999D01*
X1154673Y1707333D01*
X1153707Y1696700D01*
X1152257Y1686067D01*
X1150323Y1675434D01*
X1147907Y1665768D01*
Y1665285D01*
X1147423Y1664802D01*
X1146457Y1661902D01*
X1144524Y1657552D01*
X1141624Y1652236D01*
X1137757Y1645952D01*
X1132441Y1639186D01*
X1126641Y1632420D01*
X1119391Y1626137D01*
X1118425Y1625170D01*
X1115525Y1623237D01*
X1111175Y1620337D01*
X1105376Y1616470D01*
X1098126Y1612604D01*
X1089426Y1608254D01*
X1079277Y1604871D01*
X1068160Y1601488D01*
X1067677D01*
X1066711Y1601004D01*
X1064777Y1600521D01*
X1062361Y1600038D01*
X1059461Y1599555D01*
X1055594Y1599071D01*
X1051245Y1598105D01*
X1046412Y1597621D01*
X1041095Y1596655D01*
X1034812Y1595688D01*
X1028046Y1595205D01*
X1020796Y1594722D01*
X1013063Y1594238D01*
X1004847Y1593755D01*
X996147Y1593271D01*
X973431D01*
X967149Y1593755D01*
X960382D01*
X946366Y1594722D01*
X945399D01*
X943466Y1595205D01*
X939600D01*
X934767Y1595688D01*
X928484Y1596655D01*
X921717Y1597621D01*
X913984Y1598588D01*
X905768Y1599555D01*
X905285D01*
X903835Y1600038D01*
X901901D01*
X899485Y1600521D01*
X896102Y1601488D01*
X892235Y1601971D01*
X884019Y1603421D01*
X874836Y1605838D01*
X865170Y1607771D01*
X856470Y1610671D01*
X852120Y1611637D01*
X848737Y1613087D01*
X882086Y1672535D01*
X882569D01*
X883536Y1672051D01*
X884986Y1671568D01*
X887402Y1670601D01*
X890302Y1669635D01*
X893685Y1668668D01*
X897552Y1667702D01*
X902385Y1666735D01*
X907218Y1665285D01*
X913018Y1664318D01*
X919301Y1663352D01*
X926067Y1662385D01*
X933317Y1661418D01*
X941050Y1660935D01*
X957965Y1660452D01*
X963282D01*
X969082Y1660935D01*
X975848Y1661418D01*
X983581Y1662868D01*
X991797Y1664318D01*
X1000014Y1666735D01*
X1007263Y1669635D01*
X1008230Y1670118D01*
X1010163Y1671085D01*
X1013063Y1673018D01*
X1016446Y1675434D01*
X1020313Y1678334D01*
X1024179Y1681718D01*
X1027562Y1685584D01*
X1029979Y1689934D01*
Y1690417D01*
X1030946Y1691867D01*
X1031429Y1694767D01*
X1032395Y1698633D01*
X1033362Y1702983D01*
X1033845Y1708783D01*
X1034812Y1715549D01*
Y1723282D01*
X1034329D01*
X1033362Y1722316D01*
X1030946Y1721832D01*
X1028529Y1720382D01*
X1025146Y1718932D01*
X1020796Y1717482D01*
X1016446Y1716033D01*
X1011130Y1714099D01*
X1005330Y1712166D01*
X999047Y1710716D01*
X985514Y1707816D01*
X970048Y1705883D01*
X953616Y1704916D01*
X948299D01*
X944916Y1705400D01*
X940083Y1705883D01*
X935250Y1706366D01*
X929450Y1707333D01*
X922684Y1708783D01*
X908668Y1712166D01*
X901418Y1714583D01*
X894168Y1717482D01*
X886435Y1720866D01*
X879186Y1725215D01*
X871936Y1729565D01*
X865170Y1734882D01*
X864687Y1735365D01*
X863720Y1736332D01*
X861787Y1737782D01*
X859370Y1740198D01*
X856954Y1743581D01*
X853570Y1746965D01*
X850670Y1751314D01*
X847287Y1756147D01*
X843904Y1761947D01*
X840521Y1767747D01*
X837138Y1774513D01*
X834721Y1781763D01*
X832305Y1789979D01*
X830371Y1798195D01*
X829405Y1807378D01*
X828922Y1817045D01*
Y1817528D01*
Y1819461D01*
X829405Y1822361D01*
Y1826228D01*
X829888Y1831061D01*
X830855Y1836377D01*
X832305Y1842177D01*
X833755Y1848943D01*
X835688Y1855710D01*
X838104Y1862959D01*
X841004Y1870209D01*
X844871Y1877458D01*
X849221Y1884708D01*
X854054Y1891958D01*
X859853Y1898724D01*
X866620Y1905007D01*
X867103Y1905491D01*
X868553Y1906457D01*
X870486Y1907907D01*
X873386Y1910324D01*
X877253Y1912740D01*
X881602Y1915640D01*
X886435Y1918540D01*
X892235Y1921440D01*
X898518Y1924340D01*
X905285Y1927723D01*
X913018Y1930139D01*
X921234Y1932556D01*
X929450Y1934973D01*
X938633Y1936422D01*
X948299Y1937389D01*
X957965Y1937872D01*
X962315D01*
X965215Y1937389D01*
D02*
G37*
G36*
X2385331Y253660D02*
Y252993D01*
X2389331Y233327D01*
Y232994D01*
X2389664Y232660D01*
X2390331Y232327D01*
X2403331Y226660D01*
X2404664D01*
X2421330Y238660D01*
X2421997D01*
X2422664Y237994D01*
X2436996Y224327D01*
Y223994D01*
Y223661D01*
Y223327D01*
Y222994D01*
X2425663Y206328D01*
Y205661D01*
Y205328D01*
Y204995D01*
X2431663Y191328D01*
Y190995D01*
X2431997Y190662D01*
X2432663Y190328D01*
X2451663Y186995D01*
X2452329D01*
X2452663Y186662D01*
Y185995D01*
Y166329D01*
Y165996D01*
X2452329Y165662D01*
X2451663Y165329D01*
X2433330Y161329D01*
X2432997D01*
X2432663Y160996D01*
X2432330Y160662D01*
X2425997Y145996D01*
Y145663D01*
Y144996D01*
Y144663D01*
X2436996Y128996D01*
Y128330D01*
Y127997D01*
X2422664Y113997D01*
X2422330Y113664D01*
X2421997D01*
X2421330Y113997D01*
X2406331Y124330D01*
X2404664D01*
X2398331Y120330D01*
X2397997D01*
X2397664Y120663D01*
X2397331Y120997D01*
X2382998Y154329D01*
Y154663D01*
Y154996D01*
X2383665Y155996D01*
X2385331Y156663D01*
X2385665Y156996D01*
X2385998Y157329D01*
X2386331Y157662D01*
X2386664Y157996D01*
X2387998Y158662D01*
X2389664Y160329D01*
X2391331Y162329D01*
X2393331Y164662D01*
X2394664Y167662D01*
X2395997Y171329D01*
X2396331Y175662D01*
Y175995D01*
Y177329D01*
X2395997Y178995D01*
X2395664Y180995D01*
X2394664Y183662D01*
X2393664Y186328D01*
X2391998Y188995D01*
X2389998Y191328D01*
X2389664Y191661D01*
X2388998Y192328D01*
X2387664Y193328D01*
X2385998Y194661D01*
X2383665Y195995D01*
X2380998Y196995D01*
X2377998Y197661D01*
X2374665Y197995D01*
X2373331D01*
X2371332Y197661D01*
X2369332Y197328D01*
X2366998Y196328D01*
X2364332Y195328D01*
X2361665Y193661D01*
X2359332Y191328D01*
X2358999Y190995D01*
X2358332Y190328D01*
X2357332Y188995D01*
X2356332Y186995D01*
X2354999Y184662D01*
X2353999Y181995D01*
X2353332Y178995D01*
X2352999Y175662D01*
Y174995D01*
Y173662D01*
X2353665Y171662D01*
X2354332Y168995D01*
X2355332Y165996D01*
X2356999Y162996D01*
X2359332Y160329D01*
X2362665Y157662D01*
X2362998Y157329D01*
X2363332Y156996D01*
X2363665D01*
Y156663D01*
X2365665Y155996D01*
X2365998Y155662D01*
Y154329D01*
X2352332Y120997D01*
X2351999Y120663D01*
X2350999Y120330D01*
X2344332Y124330D01*
X2342999D01*
X2327999Y113997D01*
X2327333Y113664D01*
X2326999D01*
X2326333Y113997D01*
X2312333Y127997D01*
Y128330D01*
Y128663D01*
Y128996D01*
X2323000Y144663D01*
Y144996D01*
Y145329D01*
Y145996D01*
X2317000Y160662D01*
Y160996D01*
X2316666Y161329D01*
X2316000D01*
X2297667Y165329D01*
X2297334D01*
X2297000Y165662D01*
X2296667Y166329D01*
Y185995D01*
Y186328D01*
Y186662D01*
X2297000Y186995D01*
X2297667D01*
X2316666Y190328D01*
X2317000D01*
X2317333Y190662D01*
X2318000Y191328D01*
X2323666Y204995D01*
Y205328D01*
Y205661D01*
Y205994D01*
Y206328D01*
X2312333Y222994D01*
Y223327D01*
Y223661D01*
Y223994D01*
Y224327D01*
X2326333Y237994D01*
X2326666Y238327D01*
X2327999Y238660D01*
X2344332Y226660D01*
X2345666D01*
X2358999Y232327D01*
X2359665D01*
X2359998Y232660D01*
Y233327D01*
X2363665Y252993D01*
Y253326D01*
Y253660D01*
X2363998Y253993D01*
X2384998D01*
X2385331Y253660D01*
D02*
G37*
G36*
X2177249Y259790D02*
X2178916Y259374D01*
X2180791Y258749D01*
X2182666Y257915D01*
X2184749Y256874D01*
X2186832Y255207D01*
X2187041Y254999D01*
X2187457Y254582D01*
X2188082Y253957D01*
X2188707Y253332D01*
X2188916Y253124D01*
X2189124Y252707D01*
X2190166Y251249D01*
X2259957Y130209D01*
X2260165Y130000D01*
X2260582Y129167D01*
X2260998Y127917D01*
X2261623Y126250D01*
X2262040Y124375D01*
X2262248Y122292D01*
X2262457Y119792D01*
X2262040Y117292D01*
Y117084D01*
X2261832Y116667D01*
X2261623Y115834D01*
X2261207Y114792D01*
Y114584D01*
X2260998Y114167D01*
X2260790Y113334D01*
X2260165Y112292D01*
X2259957Y112084D01*
X2259540Y111250D01*
X2258707Y110209D01*
X2257665Y108959D01*
X2256207Y107709D01*
X2254540Y106250D01*
X2252457Y105209D01*
X2250165Y104167D01*
X2249957D01*
X2249123Y103959D01*
X2248290Y103750D01*
X2247665Y103542D01*
X2247040D01*
X2245998Y103334D01*
X2103917D01*
X2102667Y103542D01*
X2101000Y103959D01*
X2098917Y104375D01*
X2096833Y105209D01*
X2094750Y106459D01*
X2092667Y108125D01*
X2092458Y108334D01*
X2092042Y108750D01*
X2091000Y110000D01*
X2090792Y110209D01*
X2090375Y110625D01*
X2089959Y111459D01*
X2089542Y112292D01*
X2089334D01*
X2089125Y112500D01*
X2088917Y113334D01*
X2088292Y114584D01*
X2087875Y116042D01*
X2087459Y117917D01*
X2087042Y120000D01*
Y122292D01*
X2087459Y124792D01*
Y125000D01*
X2087667Y125834D01*
X2087875Y126667D01*
X2088084Y127292D01*
Y127500D01*
X2088292Y127917D01*
X2088709Y128542D01*
X2089125Y129584D01*
X2089334Y129792D01*
Y130000D01*
X2159124Y250832D01*
Y251040D01*
X2159541Y251457D01*
X2159958Y252082D01*
X2160583Y252915D01*
X2162249Y254790D01*
X2164541Y256665D01*
X2164333D01*
X2164749Y256874D01*
X2165166Y257290D01*
X2165791Y257707D01*
X2165999Y257915D01*
X2166624Y258124D01*
X2167458Y258540D01*
X2168499Y258957D01*
X2169749Y259374D01*
X2171416Y259582D01*
X2173082Y259999D01*
X2175999D01*
X2177249Y259790D01*
D02*
G37*
G36*
X769958Y1773063D02*
X789773D01*
Y1699600D01*
X624481D01*
Y1773063D01*
X648646D01*
Y1859576D01*
X624481D01*
Y1933523D01*
X769958D01*
Y1773063D01*
D02*
G37*
G36*
X432606Y2034535D02*
X438889D01*
X446139Y2034051D01*
X461122Y2033085D01*
X476588Y2032118D01*
X491570Y2030185D01*
X498337Y2029218D01*
X505103Y2027768D01*
X505586D01*
X506553Y2027285D01*
X508003Y2026802D01*
X510419Y2026318D01*
X513319Y2025352D01*
X516219Y2024385D01*
X523469Y2021485D01*
X531685Y2017619D01*
X540385Y2012302D01*
X548601Y2006503D01*
X556334Y1998770D01*
X557301Y1997803D01*
X559234Y1994903D01*
X562134Y1990553D01*
X565517Y1984270D01*
X568900Y1977021D01*
X571800Y1968321D01*
X573733Y1958655D01*
X574700Y1948022D01*
Y1947539D01*
Y1946572D01*
Y1945122D01*
X574216Y1943189D01*
X573733Y1938356D01*
X572766Y1931589D01*
X570350Y1924340D01*
X567450Y1916607D01*
X563100Y1909357D01*
X557301Y1902591D01*
X556334Y1901624D01*
X553917Y1899691D01*
X550051Y1896791D01*
X544734Y1892924D01*
X538451Y1889058D01*
X531202Y1885191D01*
X522502Y1881325D01*
X513319Y1878425D01*
X513803D01*
X514769Y1877942D01*
X516702Y1877458D01*
X519119Y1876492D01*
X522019Y1875525D01*
X525402Y1874075D01*
X533618Y1870209D01*
X542318Y1865859D01*
X551501Y1860059D01*
X560200Y1853293D01*
X567933Y1845560D01*
Y1845077D01*
X568900Y1844593D01*
X570833Y1841694D01*
X574216Y1836860D01*
X577600Y1830577D01*
X580983Y1823328D01*
X584366Y1814628D01*
X586299Y1804962D01*
X587266Y1794812D01*
Y1794329D01*
Y1793362D01*
Y1791429D01*
X586782Y1789013D01*
Y1786113D01*
X586299Y1782729D01*
X584366Y1774997D01*
X581949Y1765814D01*
X578083Y1756147D01*
X572766Y1746481D01*
X569383Y1741648D01*
X565517Y1737298D01*
Y1736815D01*
X564550Y1736332D01*
X563100Y1735365D01*
X561650Y1733432D01*
X556817Y1729565D01*
X550051Y1724732D01*
X541351Y1719899D01*
X531202Y1714583D01*
X519119Y1710233D01*
X505586Y1706850D01*
X505103D01*
X503653Y1706366D01*
X501720D01*
X498820Y1705883D01*
X494953Y1705400D01*
X490120Y1704433D01*
X484321Y1703950D01*
X478037Y1703466D01*
X470788Y1702500D01*
X462572Y1702017D01*
X453389Y1701533D01*
X443722Y1700567D01*
X433090Y1700083D01*
X421973D01*
X409407Y1699600D01*
X206900D01*
Y1779346D01*
X235899D01*
Y1954305D01*
X206900D01*
Y2035018D01*
X426806D01*
X432606Y2034535D01*
D02*
G37*
G36*
X1803277Y1939806D02*
X1808593Y1939322D01*
X1815360Y1938356D01*
X1822609Y1937389D01*
X1830342Y1935939D01*
X1839042Y1934489D01*
X1847742Y1932073D01*
X1856441Y1929173D01*
X1865624Y1926273D01*
X1874807Y1921923D01*
X1883506Y1917573D01*
X1891723Y1912257D01*
X1899939Y1906457D01*
X1900422Y1905974D01*
X1901872Y1905007D01*
X1903806Y1903074D01*
X1906222Y1900174D01*
X1909605Y1896308D01*
X1912988Y1891958D01*
X1916855Y1887125D01*
X1920721Y1880842D01*
X1925071Y1874075D01*
X1928938Y1866826D01*
X1932321Y1858126D01*
X1935704Y1848943D01*
X1938604Y1838794D01*
X1941021Y1828161D01*
X1942954Y1816561D01*
X1943920Y1803995D01*
X1759296D01*
Y1803512D01*
Y1801579D01*
X1759779Y1798679D01*
X1760262Y1795296D01*
X1760745Y1790946D01*
X1761712Y1786113D01*
X1763162Y1780796D01*
X1765095Y1775963D01*
X1767512Y1770647D01*
X1769928Y1765330D01*
X1773795Y1760497D01*
X1777661Y1756147D01*
X1782495Y1752764D01*
X1788294Y1749864D01*
X1794577Y1747931D01*
X1801827Y1747448D01*
X1802793D01*
X1806177Y1747931D01*
X1810526Y1748898D01*
X1815843Y1750831D01*
X1821643Y1753731D01*
X1827926Y1758564D01*
X1830826Y1761464D01*
X1833242Y1764847D01*
X1835659Y1769197D01*
X1838075Y1773547D01*
X1938121Y1760981D01*
X1937637Y1760497D01*
X1936671Y1758564D01*
X1935221Y1755664D01*
X1933288Y1751798D01*
X1930388Y1747448D01*
X1927488Y1742615D01*
X1923621Y1737782D01*
X1919272Y1732948D01*
X1918788Y1732465D01*
X1917338Y1731015D01*
X1914438Y1728599D01*
X1911055Y1725699D01*
X1906705Y1722316D01*
X1901872Y1718449D01*
X1896073Y1714583D01*
X1889789Y1711199D01*
X1889306D01*
X1888340Y1710233D01*
X1886406Y1709749D01*
X1883506Y1708300D01*
X1880123Y1706850D01*
X1876257Y1705400D01*
X1871424Y1703950D01*
X1866107Y1702017D01*
X1860308Y1700083D01*
X1854025Y1698633D01*
X1847258Y1697183D01*
X1840009Y1695733D01*
X1823576Y1693800D01*
X1806177Y1692834D01*
X1798444D01*
X1792644Y1693317D01*
X1785878Y1693800D01*
X1778145Y1694767D01*
X1769445Y1695733D01*
X1760262Y1697183D01*
X1750596Y1698633D01*
X1740446Y1701050D01*
X1730297Y1703950D01*
X1720147Y1707333D01*
X1709998Y1711199D01*
X1700332Y1715549D01*
X1691632Y1720866D01*
X1683416Y1726665D01*
X1682932Y1727149D01*
X1681482Y1728115D01*
X1679549Y1730049D01*
X1677133Y1732948D01*
X1673749Y1736332D01*
X1670366Y1740198D01*
X1666500Y1745031D01*
X1663117Y1750348D01*
X1659250Y1756631D01*
X1655384Y1762914D01*
X1652000Y1770647D01*
X1648617Y1778380D01*
X1646201Y1786596D01*
X1644267Y1795779D01*
X1642818Y1804962D01*
X1642334Y1815111D01*
Y1815595D01*
Y1817528D01*
X1642818Y1820428D01*
Y1824294D01*
X1643784Y1828644D01*
X1644267Y1833961D01*
X1645717Y1839760D01*
X1647651Y1846527D01*
X1649584Y1853293D01*
X1652484Y1860543D01*
X1655384Y1867792D01*
X1659250Y1875525D01*
X1664083Y1882775D01*
X1669400Y1890508D01*
X1675683Y1897758D01*
X1682932Y1904524D01*
X1683416Y1905007D01*
X1684866Y1905974D01*
X1687282Y1907907D01*
X1690182Y1910324D01*
X1694532Y1912740D01*
X1699365Y1915640D01*
X1705165Y1919023D01*
X1711448Y1922406D01*
X1719181Y1925790D01*
X1727397Y1929173D01*
X1736097Y1932073D01*
X1745763Y1934489D01*
X1756396Y1936906D01*
X1767512Y1938839D01*
X1779595Y1939806D01*
X1792161Y1940289D01*
X1798444D01*
X1803277Y1939806D01*
D02*
G37*
G36*
X40000Y2550000D02*
X39500Y2549500D01*
X32850D01*
X30900Y2547550D01*
X29600D01*
X25050Y2543000D01*
Y2542350D01*
X21150Y2538450D01*
Y2534550D01*
X19850Y2533250D01*
Y2530000D01*
X10750D01*
Y2532600D01*
X11400Y2533250D01*
Y2537800D01*
X13350Y2539750D01*
Y2542350D01*
X15300Y2544300D01*
Y2546250D01*
X19850Y2550800D01*
X20500D01*
X25050Y2555350D01*
X27000D01*
X28950Y2557300D01*
X32850Y2557950D01*
X35200Y2559000D01*
X40000D01*
Y2550000D01*
D02*
G37*
G36*
X1275000D02*
X1274500Y2549500D01*
X1267850D01*
X1265900Y2547550D01*
X1264600D01*
X1260050Y2543000D01*
Y2542350D01*
X1256150Y2538450D01*
Y2534550D01*
X1254850Y2533250D01*
Y2530000D01*
X1245750D01*
Y2532600D01*
X1246400Y2533250D01*
Y2537800D01*
X1248350Y2539750D01*
Y2542350D01*
X1250300Y2544300D01*
Y2546250D01*
X1254850Y2550800D01*
X1255500D01*
X1260050Y2555350D01*
X1262000D01*
X1263950Y2557300D01*
X1267850Y2557950D01*
X1270200Y2559000D01*
X1275000D01*
Y2550000D01*
D02*
G37*
G36*
X40000Y60000D02*
X39500Y59500D01*
X32850D01*
X30900Y57550D01*
X29600D01*
X25050Y53000D01*
Y52350D01*
X21150Y48450D01*
Y44550D01*
X19850Y43250D01*
Y40000D01*
X10750D01*
Y42600D01*
X11400Y43250D01*
Y47800D01*
X13350Y49750D01*
Y52350D01*
X15300Y54300D01*
Y56250D01*
X19850Y60800D01*
X20500D01*
X25050Y65350D01*
X27000D01*
X28950Y67300D01*
X32850Y67950D01*
X35200Y69000D01*
X40000D01*
Y60000D01*
D02*
G37*
G36*
X2539250Y2527401D02*
X2538600Y2526751D01*
Y2522201D01*
X2536650Y2520251D01*
Y2517651D01*
X2534700Y2515701D01*
Y2513751D01*
X2530150Y2509201D01*
X2529500D01*
X2524950Y2504651D01*
X2523000D01*
X2521050Y2502701D01*
X2517150Y2502051D01*
X2514800Y2501001D01*
X2510000D01*
Y2510001D01*
X2510500Y2510501D01*
X2517150D01*
X2519100Y2512451D01*
X2520400D01*
X2524950Y2517001D01*
Y2517651D01*
X2528850Y2521551D01*
Y2525451D01*
X2530150Y2526751D01*
Y2530001D01*
X2539250D01*
Y2527401D01*
D02*
G37*
G36*
X2510000Y60000D02*
X2509500Y59500D01*
X2502850D01*
X2500900Y57550D01*
X2499600D01*
X2495050Y53000D01*
Y52350D01*
X2491150Y48450D01*
Y44550D01*
X2489850Y43250D01*
Y40000D01*
X2480750D01*
Y42600D01*
X2481400Y43250D01*
Y47800D01*
X2483350Y49750D01*
Y52350D01*
X2485300Y54300D01*
Y56250D01*
X2489850Y60800D01*
X2490500D01*
X2495050Y65350D01*
X2497000D01*
X2498950Y67300D01*
X2502850Y67950D01*
X2505200Y69000D01*
X2510000D01*
Y60000D01*
D02*
G37*
G36*
X69250Y2527400D02*
X68600Y2526750D01*
Y2522200D01*
X66650Y2520250D01*
Y2517650D01*
X64700Y2515700D01*
Y2513750D01*
X60150Y2509200D01*
X59500D01*
X54950Y2504650D01*
X53000D01*
X51050Y2502700D01*
X47150Y2502050D01*
X44800Y2501000D01*
X40000D01*
Y2510000D01*
X40500Y2510500D01*
X47150D01*
X49100Y2512450D01*
X50400D01*
X54950Y2517000D01*
Y2517650D01*
X58850Y2521550D01*
Y2525450D01*
X60150Y2526750D01*
Y2530000D01*
X69250D01*
Y2527400D01*
D02*
G37*
G36*
X1304250D02*
X1303600Y2526750D01*
Y2522200D01*
X1301650Y2520250D01*
Y2517650D01*
X1299700Y2515700D01*
Y2513750D01*
X1295150Y2509200D01*
X1294500D01*
X1289950Y2504650D01*
X1288000D01*
X1286050Y2502700D01*
X1282150Y2502050D01*
X1279800Y2501000D01*
X1275000D01*
Y2510000D01*
X1275500Y2510500D01*
X1282150D01*
X1284100Y2512450D01*
X1285400D01*
X1289950Y2517000D01*
Y2517650D01*
X1293850Y2521550D01*
Y2525450D01*
X1295150Y2526750D01*
Y2530000D01*
X1304250D01*
Y2527400D01*
D02*
G37*
G36*
X1304250Y37400D02*
X1303600Y36750D01*
Y32200D01*
X1301650Y30250D01*
Y27650D01*
X1299700Y25700D01*
Y23750D01*
X1295150Y19200D01*
X1294500D01*
X1289950Y14650D01*
X1288000D01*
X1286050Y12700D01*
X1282150Y12050D01*
X1279800Y11000D01*
X1275000D01*
Y20000D01*
X1275500Y20500D01*
X1282150D01*
X1284100Y22450D01*
X1285400D01*
X1289950Y27000D01*
Y27650D01*
X1293850Y31550D01*
Y35450D01*
X1295150Y36750D01*
Y40000D01*
X1304250D01*
Y37400D01*
D02*
G37*
G36*
X998951Y2027129D02*
X999950D01*
X1001950Y2026995D01*
X1002083D01*
X1002416Y2026929D01*
X1002950Y2026862D01*
X1003683Y2026795D01*
X1004482Y2026662D01*
X1005416Y2026529D01*
X1007348Y2026196D01*
X1007482D01*
X1007815Y2026062D01*
X1008348Y2025995D01*
X1009015Y2025796D01*
X1009815Y2025662D01*
X1010681Y2025462D01*
X1012414Y2024996D01*
X1012547D01*
X1012814Y2024863D01*
X1013280Y2024729D01*
X1013880Y2024596D01*
X1014547Y2024396D01*
X1015280Y2024129D01*
X1016879Y2023663D01*
Y2023596D01*
Y2023396D01*
X1016813Y2023130D01*
X1016746Y2022730D01*
X1016613Y2021797D01*
X1016413Y2020730D01*
Y2020664D01*
X1016346Y2020464D01*
X1016280Y2020197D01*
X1016213Y2019864D01*
X1016146Y2019397D01*
X1016013Y2018931D01*
X1015746Y2017864D01*
Y2017798D01*
X1015680Y2017598D01*
X1015613Y2017331D01*
X1015546Y2016998D01*
X1015213Y2016131D01*
X1014880Y2015132D01*
Y2015065D01*
X1014813Y2014932D01*
X1014680Y2014665D01*
X1014613Y2014332D01*
X1014280Y2013532D01*
X1013880Y2012599D01*
X1013813D01*
X1013614Y2012666D01*
X1013280Y2012799D01*
X1012814Y2012932D01*
X1012281Y2013132D01*
X1011681Y2013332D01*
X1010348Y2013732D01*
X1010281D01*
X1010014Y2013799D01*
X1009614Y2013932D01*
X1009081Y2014065D01*
X1008482Y2014199D01*
X1007815Y2014398D01*
X1006215Y2014732D01*
X1006149D01*
X1005816Y2014865D01*
X1005416Y2014932D01*
X1004816Y2015065D01*
X1004149Y2015198D01*
X1003350Y2015332D01*
X1001683Y2015598D01*
X1001550D01*
X1001283Y2015665D01*
X1000817D01*
X1000217Y2015732D01*
X999484Y2015798D01*
X998617D01*
X997751Y2015865D01*
X995885D01*
X995218Y2015798D01*
X994418Y2015732D01*
X993619Y2015665D01*
X991819Y2015398D01*
X991686D01*
X991419Y2015332D01*
X990953Y2015198D01*
X990353Y2014998D01*
X989686Y2014798D01*
X988953Y2014599D01*
X987354Y2013999D01*
X987287Y2013932D01*
X987020Y2013799D01*
X986687Y2013599D01*
X986220Y2013332D01*
X985754Y2012932D01*
X985221Y2012532D01*
X984754Y2011999D01*
X984288Y2011399D01*
X984221Y2011333D01*
X984154Y2011133D01*
X983954Y2010733D01*
X983755Y2010266D01*
X983555Y2009666D01*
X983421Y2009000D01*
X983288Y2008200D01*
X983221Y2007334D01*
Y2007267D01*
Y2007134D01*
Y2006867D01*
X983288Y2006600D01*
X983355Y2005867D01*
X983488Y2005068D01*
Y2005001D01*
X983555Y2004934D01*
X983688Y2004468D01*
X983954Y2003868D01*
X984288Y2003201D01*
Y2003135D01*
X984354Y2003068D01*
X984621Y2002668D01*
X984954Y2002135D01*
X985421Y2001602D01*
X985554Y2001469D01*
X985887Y2001135D01*
X986354Y2000735D01*
X987020Y2000269D01*
X987087D01*
X987154Y2000202D01*
X987553Y1999935D01*
X988153Y1999536D01*
X988820Y1999136D01*
X988886D01*
X989020Y1999069D01*
X989220Y1998936D01*
X989486Y1998802D01*
X990153Y1998536D01*
X990953Y1998203D01*
X991019D01*
X991153Y1998136D01*
X991353Y1998069D01*
X991686Y1997936D01*
X992419Y1997670D01*
X993285Y1997270D01*
X993352D01*
X993485Y1997203D01*
X993752Y1997136D01*
X994085Y1997003D01*
X994885Y1996736D01*
X995818Y1996470D01*
X995885D01*
X996018Y1996403D01*
X996285Y1996337D01*
X996551Y1996203D01*
X997284Y1995937D01*
X998151Y1995670D01*
X999017Y1995337D01*
X999684Y1995070D01*
X999950Y1995004D01*
X1000150Y1994937D01*
X1000284Y1994870D01*
X1000417D01*
X1000617Y1994803D01*
X1000950Y1994670D01*
X1001483Y1994537D01*
X1002150Y1994270D01*
X1002216D01*
X1002416Y1994137D01*
X1002750Y1994070D01*
X1003216Y1993870D01*
X1003683Y1993737D01*
X1004283Y1993537D01*
X1005482Y1993071D01*
X1005549D01*
X1005749Y1992937D01*
X1006082Y1992804D01*
X1006482Y1992604D01*
X1007015Y1992404D01*
X1007548Y1992137D01*
X1008681Y1991604D01*
X1008748Y1991538D01*
X1008948Y1991471D01*
X1009281Y1991271D01*
X1009681Y1991071D01*
X1010614Y1990471D01*
X1011614Y1989738D01*
X1011681Y1989671D01*
X1011814Y1989538D01*
X1012081Y1989338D01*
X1012414Y1989072D01*
X1013214Y1988405D01*
X1014080Y1987539D01*
X1014147Y1987472D01*
X1014280Y1987339D01*
X1014480Y1987072D01*
X1014747Y1986739D01*
X1015346Y1985939D01*
X1016013Y1984939D01*
X1016080Y1984873D01*
X1016146Y1984673D01*
X1016346Y1984406D01*
X1016546Y1984006D01*
X1016813Y1983540D01*
X1017079Y1983006D01*
X1017679Y1981807D01*
Y1981740D01*
X1017812Y1981540D01*
X1017879Y1981140D01*
X1018079Y1980674D01*
X1018212Y1980141D01*
X1018346Y1979474D01*
X1018612Y1978074D01*
Y1978008D01*
X1018679Y1977741D01*
X1018745Y1977275D01*
X1018812Y1976741D01*
X1018879Y1976075D01*
X1018945Y1975342D01*
X1019012Y1974542D01*
Y1973676D01*
Y1973542D01*
Y1973209D01*
Y1972676D01*
X1018945Y1972009D01*
X1018879Y1971276D01*
X1018812Y1970410D01*
X1018479Y1968544D01*
Y1968410D01*
X1018412Y1968144D01*
X1018279Y1967677D01*
X1018079Y1967077D01*
X1017879Y1966344D01*
X1017613Y1965544D01*
X1016879Y1963878D01*
X1016813Y1963811D01*
X1016679Y1963545D01*
X1016413Y1963078D01*
X1016146Y1962545D01*
X1015746Y1961945D01*
X1015280Y1961279D01*
X1014280Y1959812D01*
X1014213Y1959746D01*
X1014013Y1959479D01*
X1013680Y1959146D01*
X1013280Y1958746D01*
X1012747Y1958213D01*
X1012147Y1957613D01*
X1011414Y1957013D01*
X1010681Y1956413D01*
X1010614Y1956347D01*
X1010348Y1956147D01*
X1009948Y1955880D01*
X1009415Y1955480D01*
X1008748Y1955080D01*
X1008015Y1954614D01*
X1007149Y1954147D01*
X1006282Y1953681D01*
X1006149Y1953614D01*
X1005882Y1953481D01*
X1005416Y1953281D01*
X1004749Y1952948D01*
X1004016Y1952681D01*
X1003083Y1952281D01*
X1002150Y1951948D01*
X1001083Y1951615D01*
X1000950Y1951548D01*
X1000617Y1951481D01*
X1000017Y1951348D01*
X999284Y1951148D01*
X998417Y1950881D01*
X997418Y1950681D01*
X996285Y1950482D01*
X995152Y1950282D01*
X995018D01*
X994618Y1950215D01*
X994018Y1950148D01*
X993219Y1950082D01*
X992286Y1950015D01*
X991153Y1949948D01*
X989953Y1949882D01*
X986620D01*
X985621Y1949948D01*
X984554D01*
X982222Y1950082D01*
X982088D01*
X981688Y1950148D01*
X981155D01*
X980422Y1950282D01*
X979556Y1950348D01*
X978623Y1950482D01*
X976623Y1950815D01*
X976490D01*
X976156Y1950881D01*
X975690Y1951015D01*
X975023Y1951148D01*
X974224Y1951281D01*
X973424Y1951481D01*
X971624Y1951948D01*
X971491D01*
X971224Y1952014D01*
X970758Y1952148D01*
X970091Y1952348D01*
X969425Y1952548D01*
X968625Y1952748D01*
X966959Y1953347D01*
Y1953414D01*
Y1953614D01*
X967025Y1953881D01*
X967092Y1954281D01*
X967159Y1955147D01*
X967359Y1956213D01*
Y1956280D01*
X967425Y1956480D01*
X967492Y1956747D01*
X967559Y1957146D01*
X967692Y1957613D01*
X967825Y1958080D01*
X968158Y1959213D01*
Y1959279D01*
X968225Y1959479D01*
X968358Y1959746D01*
X968492Y1960079D01*
X968625Y1960546D01*
X968758Y1961012D01*
X969158Y1962079D01*
Y1962145D01*
X969225Y1962345D01*
X969358Y1962612D01*
X969492Y1963012D01*
X969625Y1963412D01*
X969825Y1963945D01*
X970225Y1965011D01*
X970291Y1964944D01*
X970558Y1964878D01*
X970958Y1964745D01*
X971491Y1964545D01*
X972091Y1964278D01*
X972824Y1964078D01*
X974357Y1963545D01*
X974424D01*
X974757Y1963478D01*
X975157Y1963345D01*
X975690Y1963212D01*
X976356Y1963078D01*
X977156Y1962878D01*
X978822Y1962478D01*
X978956D01*
X979222Y1962412D01*
X979689Y1962345D01*
X980289Y1962212D01*
X981022Y1962145D01*
X981755Y1962012D01*
X983488Y1961812D01*
X983888D01*
X984354Y1961745D01*
X984954D01*
X985687Y1961679D01*
X986421D01*
X988153Y1961612D01*
X989153D01*
X989686Y1961679D01*
X990219D01*
X991353Y1961745D01*
X991619D01*
X991952Y1961812D01*
X992352Y1961879D01*
X992819Y1961945D01*
X993352Y1962012D01*
X994485Y1962278D01*
X994552D01*
X994752Y1962345D01*
X995018Y1962412D01*
X995418Y1962545D01*
X996285Y1962812D01*
X997284Y1963212D01*
X997351D01*
X997484Y1963278D01*
X997751Y1963412D01*
X998084Y1963545D01*
X998884Y1963945D01*
X999750Y1964411D01*
X999817D01*
X999950Y1964545D01*
X1000150Y1964678D01*
X1000417Y1964878D01*
X1001083Y1965344D01*
X1001750Y1966011D01*
X1001816Y1966078D01*
X1001883Y1966144D01*
X1002083Y1966344D01*
X1002283Y1966611D01*
X1002816Y1967277D01*
X1003350Y1968010D01*
X1003416Y1968077D01*
X1003483Y1968210D01*
X1003616Y1968344D01*
X1003749Y1968610D01*
X1004083Y1969277D01*
X1004416Y1970143D01*
Y1970210D01*
X1004482Y1970343D01*
Y1970610D01*
X1004549Y1970876D01*
X1004616Y1971676D01*
X1004682Y1972609D01*
Y1972676D01*
Y1972876D01*
Y1973142D01*
Y1973542D01*
X1004616Y1974409D01*
X1004482Y1975342D01*
Y1975408D01*
X1004416Y1975542D01*
X1004349Y1975742D01*
X1004283Y1976075D01*
X1004016Y1976741D01*
X1003616Y1977408D01*
Y1977475D01*
X1003549Y1977541D01*
X1003283Y1978008D01*
X1002883Y1978541D01*
X1002350Y1979141D01*
Y1979207D01*
X1002216Y1979274D01*
X1001883Y1979607D01*
X1001417Y1980074D01*
X1000750Y1980607D01*
X1000684D01*
X1000617Y1980741D01*
X1000417Y1980807D01*
X1000150Y1981007D01*
X999484Y1981340D01*
X998751Y1981807D01*
X998684D01*
X998617Y1981873D01*
X998417Y1982007D01*
X998151Y1982140D01*
X997484Y1982473D01*
X996618Y1982873D01*
X996551D01*
X996418Y1982940D01*
X996151Y1983073D01*
X995885Y1983140D01*
X995085Y1983406D01*
X994152Y1983740D01*
X994085D01*
X993952Y1983806D01*
X993685Y1983940D01*
X993285Y1984006D01*
X992419Y1984273D01*
X991419Y1984606D01*
X991353D01*
X991286Y1984673D01*
X990819Y1984806D01*
X990219Y1985073D01*
X989553Y1985273D01*
X988886Y1985539D01*
X988353Y1985739D01*
X988087Y1985872D01*
X987953D01*
X987887Y1985939D01*
X987754Y1986006D01*
X987620Y1986072D01*
X987354Y1986139D01*
X986887Y1986339D01*
X986354Y1986539D01*
X986287D01*
X986154Y1986606D01*
X985887Y1986739D01*
X985621Y1986806D01*
X985221Y1987005D01*
X984754Y1987206D01*
X983688Y1987605D01*
X982421Y1988139D01*
X981088Y1988805D01*
X979755Y1989472D01*
X978422Y1990205D01*
X978356D01*
X978289Y1990271D01*
X977889Y1990538D01*
X977290Y1990938D01*
X976490Y1991471D01*
X975623Y1992071D01*
X974757Y1992737D01*
X973824Y1993470D01*
X973024Y1994270D01*
X972957Y1994404D01*
X972691Y1994670D01*
X972291Y1995137D01*
X971824Y1995737D01*
X971291Y1996470D01*
X970758Y1997336D01*
X970291Y1998336D01*
X969825Y1999402D01*
Y1999469D01*
X969758Y1999536D01*
X969691Y1999935D01*
X969492Y2000469D01*
X969358Y2001268D01*
X969158Y2002268D01*
X968958Y2003335D01*
X968892Y2004534D01*
X968825Y2005867D01*
Y2005934D01*
Y2006067D01*
Y2006334D01*
Y2006734D01*
X968892Y2007134D01*
Y2007667D01*
X969025Y2008800D01*
X969225Y2010200D01*
X969558Y2011666D01*
X969958Y2013199D01*
X970558Y2014665D01*
Y2014732D01*
X970624Y2014865D01*
X970758Y2015065D01*
X970891Y2015332D01*
X971291Y2016065D01*
X971891Y2016998D01*
X972624Y2018064D01*
X973491Y2019197D01*
X974557Y2020330D01*
X975823Y2021463D01*
X975890Y2021530D01*
X975956Y2021597D01*
X976156Y2021730D01*
X976490Y2021930D01*
X976823Y2022197D01*
X977223Y2022463D01*
X978223Y2023063D01*
X979489Y2023796D01*
X980955Y2024529D01*
X982622Y2025196D01*
X984488Y2025796D01*
X984554D01*
X984754Y2025862D01*
X985021Y2025929D01*
X985421Y2025995D01*
X985887Y2026129D01*
X986487Y2026262D01*
X987154Y2026395D01*
X987887Y2026529D01*
X988753Y2026595D01*
X989620Y2026729D01*
X990619Y2026862D01*
X991686Y2026995D01*
X993885Y2027129D01*
X996351Y2027195D01*
X998151D01*
X998951Y2027129D01*
D02*
G37*
G36*
X2510000Y2550001D02*
X2509500Y2549501D01*
X2502850D01*
X2500900Y2547551D01*
X2499600D01*
X2495050Y2543001D01*
Y2542351D01*
X2491150Y2538451D01*
Y2534551D01*
X2489850Y2533251D01*
Y2530001D01*
X2480750D01*
Y2532601D01*
X2481400Y2533251D01*
Y2537801D01*
X2483350Y2539751D01*
Y2542351D01*
X2485300Y2544301D01*
Y2546251D01*
X2489850Y2550801D01*
X2490500D01*
X2495050Y2555351D01*
X2497000D01*
X2498950Y2557301D01*
X2502850Y2557951D01*
X2505200Y2559001D01*
X2510000D01*
Y2550001D01*
D02*
G37*
G36*
X1275000Y60000D02*
X1274500Y59500D01*
X1267850D01*
X1265900Y57550D01*
X1264600D01*
X1260050Y53000D01*
Y52350D01*
X1256150Y48450D01*
Y44550D01*
X1254850Y43250D01*
Y40000D01*
X1245750D01*
Y42600D01*
X1246400Y43250D01*
Y47800D01*
X1248350Y49750D01*
Y52350D01*
X1250300Y54300D01*
Y56250D01*
X1254850Y60800D01*
X1255500D01*
X1260050Y65350D01*
X1262000D01*
X1263950Y67300D01*
X1267850Y67950D01*
X1270200Y69000D01*
X1275000D01*
Y60000D01*
D02*
G37*
G36*
X2539250Y37400D02*
X2538600Y36750D01*
Y32200D01*
X2536650Y30250D01*
Y27650D01*
X2534700Y25700D01*
Y23750D01*
X2530150Y19200D01*
X2529500D01*
X2524950Y14650D01*
X2523000D01*
X2521050Y12700D01*
X2517150Y12050D01*
X2514800Y11000D01*
X2510000D01*
Y20000D01*
X2510500Y20500D01*
X2517150D01*
X2519100Y22450D01*
X2520400D01*
X2524950Y27000D01*
Y27650D01*
X2528850Y31550D01*
Y35450D01*
X2530150Y36750D01*
Y40000D01*
X2539250D01*
Y37400D01*
D02*
G37*
G36*
X69250D02*
X68600Y36750D01*
Y32200D01*
X66650Y30250D01*
Y27650D01*
X64700Y25700D01*
Y23750D01*
X60150Y19200D01*
X59500D01*
X54950Y14650D01*
X53000D01*
X51050Y12700D01*
X47150Y12050D01*
X44800Y11000D01*
X40000D01*
Y20000D01*
X40500Y20500D01*
X47150D01*
X49100Y22450D01*
X50400D01*
X54950Y27000D01*
Y27650D01*
X58850Y31550D01*
Y35450D01*
X60150Y36750D01*
Y40000D01*
X69250D01*
Y37400D01*
D02*
G37*
%LPC*%
G36*
X1131317Y2043724D02*
X1124985D01*
X1123785Y2043658D01*
X1123186D01*
X1122786Y2043591D01*
X1122319D01*
X1121852Y2043524D01*
X1120719Y2043391D01*
X1120186D01*
X1119853Y2043324D01*
X1118987Y2043258D01*
X1118053Y2043125D01*
Y2042991D01*
Y2042591D01*
Y2041991D01*
Y2041125D01*
Y2040125D01*
Y2038926D01*
Y2037526D01*
Y2036060D01*
Y2034460D01*
Y2032794D01*
Y2029328D01*
Y2025729D01*
Y2023996D01*
Y2022263D01*
Y2022197D01*
Y2021863D01*
Y2021397D01*
Y2020797D01*
Y2019997D01*
Y2019131D01*
Y2018131D01*
Y2016998D01*
Y2015865D01*
Y2014599D01*
Y2011999D01*
Y2009400D01*
Y2006867D01*
Y2006801D01*
Y2006667D01*
Y2006401D01*
Y2006001D01*
Y2005534D01*
Y2005068D01*
Y2003801D01*
Y2002402D01*
Y2000935D01*
Y1999336D01*
Y1997869D01*
Y1997803D01*
Y1997670D01*
Y1997469D01*
Y1997203D01*
Y1996470D01*
Y1995603D01*
Y1994537D01*
Y1993404D01*
Y1992271D01*
Y1991138D01*
Y1991071D01*
Y1990805D01*
Y1990471D01*
Y1990071D01*
Y1989538D01*
Y1989005D01*
Y1987872D01*
Y1987805D01*
Y1987605D01*
Y1987339D01*
Y1986939D01*
Y1986072D01*
Y1985206D01*
Y1985139D01*
Y1985006D01*
Y1984806D01*
Y1984473D01*
Y1983806D01*
Y1983073D01*
Y1983006D01*
Y1982940D01*
Y1982473D01*
Y1981873D01*
Y1981274D01*
Y1981140D01*
Y1980874D01*
Y1980407D01*
Y1979874D01*
Y1979207D01*
Y1978474D01*
Y1977008D01*
Y1976941D01*
Y1976675D01*
Y1976208D01*
Y1975608D01*
Y1974875D01*
Y1973942D01*
Y1972876D01*
Y1971609D01*
Y1971543D01*
Y1971343D01*
Y1971010D01*
Y1970610D01*
Y1970076D01*
Y1969543D01*
Y1968210D01*
Y1968144D01*
Y1967877D01*
Y1967477D01*
Y1966877D01*
Y1966211D01*
Y1965478D01*
Y1964611D01*
Y1963678D01*
X1118387D01*
X1118787Y1963611D01*
X1119320Y1963545D01*
X1120053Y1963478D01*
X1120919Y1963412D01*
X1121919Y1963345D01*
X1123052Y1963212D01*
X1123652D01*
X1123985Y1963145D01*
X1124985D01*
X1126118Y1963078D01*
X1127118D01*
X1127584Y1963012D01*
X1130917D01*
X1131983Y1963078D01*
X1133183Y1963145D01*
X1134583Y1963212D01*
X1137449Y1963478D01*
X1137648D01*
X1137848Y1963545D01*
X1138115D01*
X1138848Y1963678D01*
X1139848Y1963811D01*
X1140981Y1964011D01*
X1142181Y1964278D01*
X1143514Y1964611D01*
X1144847Y1964944D01*
X1144913D01*
X1144980Y1965011D01*
X1145180D01*
X1145446Y1965145D01*
X1146113Y1965344D01*
X1146979Y1965611D01*
X1147979Y1966011D01*
X1149112Y1966411D01*
X1150245Y1966944D01*
X1151378Y1967544D01*
X1151445D01*
X1151512Y1967610D01*
X1151911Y1967810D01*
X1152445Y1968210D01*
X1153178Y1968677D01*
X1154044Y1969277D01*
X1154977Y1969943D01*
X1155977Y1970676D01*
X1156910Y1971543D01*
X1157044Y1971676D01*
X1157310Y1971943D01*
X1157843Y1972409D01*
X1158443Y1973076D01*
X1159110Y1973876D01*
X1159843Y1974809D01*
X1160642Y1975808D01*
X1161376Y1976941D01*
Y1977008D01*
X1161442Y1977075D01*
X1161709Y1977475D01*
X1162109Y1978141D01*
X1162575Y1979008D01*
X1163042Y1980007D01*
X1163642Y1981207D01*
X1164175Y1982540D01*
X1164708Y1984006D01*
Y1984073D01*
X1164775Y1984206D01*
X1164842Y1984406D01*
X1164908Y1984673D01*
X1165041Y1985073D01*
X1165175Y1985539D01*
X1165441Y1986606D01*
X1165775Y1987872D01*
X1166108Y1989405D01*
X1166441Y1991071D01*
X1166708Y1992871D01*
Y1992937D01*
X1166774Y1993071D01*
Y1993337D01*
X1166841Y1993737D01*
X1166908Y1994204D01*
X1166974Y1994737D01*
X1167041Y1995337D01*
X1167107Y1996070D01*
X1167174Y1996870D01*
X1167241Y1997670D01*
X1167308Y1999536D01*
X1167441Y2001535D01*
Y2003668D01*
Y2003735D01*
Y2003934D01*
Y2004201D01*
Y2004601D01*
Y2005068D01*
X1167374Y2005601D01*
Y2006201D01*
Y2006934D01*
X1167241Y2008467D01*
X1167107Y2010133D01*
X1166974Y2011866D01*
X1166708Y2013599D01*
Y2013665D01*
Y2013799D01*
X1166641Y2014065D01*
X1166574Y2014398D01*
X1166508Y2014798D01*
X1166441Y2015265D01*
X1166241Y2016398D01*
X1165908Y2017664D01*
X1165575Y2019131D01*
X1165175Y2020597D01*
X1164708Y2022063D01*
Y2022130D01*
X1164641Y2022263D01*
X1164575Y2022463D01*
X1164442Y2022730D01*
X1164175Y2023463D01*
X1163775Y2024329D01*
X1163308Y2025396D01*
X1162775Y2026595D01*
X1162109Y2027795D01*
X1161376Y2028995D01*
Y2029061D01*
X1161309Y2029128D01*
X1161042Y2029528D01*
X1160642Y2030128D01*
X1160109Y2030861D01*
X1159443Y2031727D01*
X1158710Y2032594D01*
X1157843Y2033594D01*
X1156977Y2034527D01*
X1156843Y2034660D01*
X1156577Y2034927D01*
X1156044Y2035393D01*
X1155377Y2035926D01*
X1154577Y2036593D01*
X1153644Y2037326D01*
X1152578Y2038059D01*
X1151512Y2038726D01*
X1151378Y2038792D01*
X1150978Y2038992D01*
X1150378Y2039326D01*
X1149579Y2039725D01*
X1148646Y2040192D01*
X1147513Y2040659D01*
X1146313Y2041125D01*
X1145046Y2041525D01*
X1144980D01*
X1144913Y2041591D01*
X1144713Y2041658D01*
X1144447Y2041725D01*
X1143780Y2041925D01*
X1142847Y2042125D01*
X1141781Y2042391D01*
X1140514Y2042658D01*
X1139181Y2042924D01*
X1137782Y2043125D01*
X1137582D01*
X1137382Y2043191D01*
X1137115D01*
X1136782Y2043258D01*
X1136315Y2043324D01*
X1135316Y2043458D01*
X1134116Y2043524D01*
X1132783Y2043658D01*
X1131317Y2043724D01*
D02*
G37*
G36*
X2153194Y1868759D02*
X2151261D01*
X2149328Y1868276D01*
X2146911Y1867792D01*
X2143528Y1867309D01*
X2140145Y1865859D01*
X2136278Y1864409D01*
X2132412Y1861993D01*
X2128545Y1859093D01*
X2124679Y1855710D01*
X2121296Y1851360D01*
X2117912Y1846043D01*
X2115496Y1839760D01*
X2113563Y1832994D01*
X2112113Y1824778D01*
X2111629Y1815111D01*
Y1814145D01*
Y1811728D01*
X2112113Y1807378D01*
X2113079Y1802545D01*
X2114046Y1796746D01*
X2115979Y1790462D01*
X2118396Y1784663D01*
X2121779Y1778863D01*
X2122262Y1778380D01*
X2123712Y1776930D01*
X2126129Y1774513D01*
X2129512Y1772097D01*
X2133862Y1769197D01*
X2138695Y1767264D01*
X2144978Y1765330D01*
X2152227Y1764847D01*
X2155127D01*
X2158511Y1765330D01*
X2162860Y1766297D01*
X2167210Y1767747D01*
X2172043Y1770163D01*
X2177360Y1773063D01*
X2181709Y1777413D01*
X2182193Y1777896D01*
X2183643Y1779830D01*
X2185576Y1782729D01*
X2187509Y1787079D01*
X2189442Y1792879D01*
X2191376Y1799645D01*
X2192826Y1807862D01*
X2193309Y1817528D01*
Y1818011D01*
Y1818495D01*
Y1821394D01*
X2192826Y1825261D01*
X2191859Y1830094D01*
X2190892Y1835894D01*
X2188959Y1842177D01*
X2186543Y1848460D01*
X2183159Y1854260D01*
X2182676Y1854743D01*
X2181226Y1856676D01*
X2178810Y1859093D01*
X2175426Y1861509D01*
X2171560Y1864409D01*
X2166243Y1866342D01*
X2159960Y1868276D01*
X2153194Y1868759D01*
D02*
G37*
G36*
X846656Y2041258D02*
Y2041192D01*
X846590Y2041058D01*
X846523Y2040792D01*
X846390Y2040459D01*
X846256Y2039992D01*
X846123Y2039392D01*
X845923Y2038726D01*
X845657Y2037993D01*
X845390Y2037059D01*
X845123Y2036126D01*
X844790Y2034993D01*
X844457Y2033860D01*
X844057Y2032527D01*
X843657Y2031128D01*
X843191Y2029661D01*
X842724Y2028062D01*
X842191Y2026329D01*
X841657Y2024529D01*
X841124Y2022596D01*
X840525Y2020597D01*
X839858Y2018464D01*
X839192Y2016265D01*
X838525Y2013932D01*
X837792Y2011533D01*
X837059Y2009000D01*
X836259Y2006334D01*
X835459Y2003601D01*
X834593Y2000735D01*
X833726Y1997803D01*
X832860Y1994737D01*
X831927Y1991604D01*
X830927Y1988338D01*
X862519D01*
Y1988405D01*
X862452Y1988539D01*
X862386Y1988805D01*
X862252Y1989138D01*
X862119Y1989605D01*
X861986Y1990205D01*
X861786Y1990871D01*
X861519Y1991671D01*
X861253Y1992537D01*
X860986Y1993470D01*
X860653Y1994604D01*
X860319Y1995803D01*
X859920Y1997070D01*
X859520Y1998469D01*
X859053Y1999935D01*
X858587Y2001535D01*
X858053Y2003268D01*
X857520Y2005068D01*
X856920Y2007000D01*
X856320Y2009000D01*
X855721Y2011133D01*
X855054Y2013332D01*
X854321Y2015665D01*
X853588Y2018064D01*
X852855Y2020597D01*
X852055Y2023263D01*
X851255Y2025995D01*
X850389Y2028862D01*
X849522Y2031794D01*
X848589Y2034860D01*
X847656Y2037993D01*
X846656Y2041258D01*
D02*
G37*
G36*
X1409378Y1961071D02*
X1378930D01*
Y1900174D01*
X1412761D01*
X1417594Y1900658D01*
X1423394Y1901141D01*
X1430161Y1902107D01*
X1436444Y1903557D01*
X1441760Y1905491D01*
X1446110Y1908390D01*
X1446593Y1908874D01*
X1447560Y1909840D01*
X1449010Y1911774D01*
X1450460Y1914190D01*
X1451910Y1917573D01*
X1453360Y1921440D01*
X1454326Y1925790D01*
X1454810Y1930623D01*
Y1931106D01*
Y1932556D01*
X1454326Y1934973D01*
X1453843Y1937389D01*
X1452876Y1940772D01*
X1451426Y1944155D01*
X1449493Y1948022D01*
X1447077Y1951405D01*
X1446593Y1951888D01*
X1445143Y1952855D01*
X1442727Y1954305D01*
X1438377Y1956238D01*
X1432577Y1958172D01*
X1429194Y1958655D01*
X1424844Y1959621D01*
X1420494Y1960105D01*
X1415178Y1960588D01*
X1409378Y1961071D01*
D02*
G37*
G36*
X1407928Y1839277D02*
X1378930D01*
Y1773063D01*
X1412761D01*
X1418078Y1773547D01*
X1423878Y1774030D01*
X1430644Y1774997D01*
X1437410Y1775963D01*
X1443210Y1777896D01*
X1448526Y1780313D01*
X1449010Y1780796D01*
X1450460Y1781763D01*
X1452393Y1783696D01*
X1454810Y1786113D01*
X1456743Y1789979D01*
X1458676Y1794329D01*
X1460126Y1799645D01*
X1460609Y1805928D01*
Y1806895D01*
Y1808828D01*
X1460126Y1811728D01*
X1459159Y1815595D01*
X1458193Y1819461D01*
X1456259Y1823811D01*
X1453360Y1827677D01*
X1449976Y1831061D01*
X1449493Y1831544D01*
X1447560Y1832511D01*
X1444660Y1833477D01*
X1440793Y1835410D01*
X1434994Y1836860D01*
X1427744Y1837827D01*
X1418561Y1838794D01*
X1407928Y1839277D01*
D02*
G37*
G36*
X993731Y1868759D02*
X990347D01*
X986964Y1867792D01*
X982131Y1866826D01*
X977298Y1864892D01*
X971982Y1861993D01*
X966665Y1858126D01*
X962315Y1852810D01*
X961832Y1852326D01*
X960865Y1849910D01*
X958932Y1846527D01*
X956999Y1842177D01*
X955066Y1836860D01*
X953132Y1830094D01*
X952166Y1822844D01*
X951683Y1814628D01*
Y1813661D01*
Y1811245D01*
X952166Y1807378D01*
X953132Y1802062D01*
X954099Y1796746D01*
X956032Y1790462D01*
X958932Y1784663D01*
X962315Y1778863D01*
X962799Y1778380D01*
X964249Y1776930D01*
X966665Y1774513D01*
X970532Y1772097D01*
X974881Y1769197D01*
X980198Y1767264D01*
X986481Y1765330D01*
X993247Y1764847D01*
X994214D01*
X996630Y1765330D01*
X1000497Y1765814D01*
X1005330Y1766780D01*
X1010163Y1768230D01*
X1015480Y1771130D01*
X1020313Y1774513D01*
X1024662Y1779346D01*
X1025146Y1779830D01*
X1026112Y1781763D01*
X1028046Y1785146D01*
X1029979Y1789013D01*
X1031912Y1794329D01*
X1033845Y1800129D01*
X1034812Y1807378D01*
X1035295Y1815111D01*
Y1815595D01*
Y1816078D01*
Y1818978D01*
X1034812Y1823328D01*
X1033845Y1828644D01*
X1032395Y1834927D01*
X1030462Y1841210D01*
X1028046Y1847977D01*
X1024179Y1853776D01*
X1023696Y1854260D01*
X1022246Y1856193D01*
X1019346Y1858609D01*
X1015963Y1861509D01*
X1011613Y1863926D01*
X1006297Y1866342D01*
X1000497Y1868276D01*
X993731Y1868759D01*
D02*
G37*
G36*
X2176207Y248124D02*
X2174332D01*
X2173291Y247915D01*
X2171624Y247707D01*
X2169958Y246874D01*
X2169749Y246665D01*
X2169541Y246457D01*
X2169124D01*
X2168916Y246249D01*
X2168083Y245624D01*
X2167249Y244582D01*
X2166416Y243332D01*
Y243124D01*
X2099958Y128334D01*
Y128125D01*
Y127917D01*
X2099750Y127709D01*
X2099333Y126875D01*
X2099125Y126459D01*
Y126042D01*
X2098917Y125417D01*
Y125209D01*
Y124792D01*
Y124167D01*
Y123334D01*
X2099125Y121042D01*
X2099542Y120000D01*
X2099958Y118750D01*
X2100167Y118334D01*
X2100792Y117500D01*
X2101000Y117292D01*
X2101833Y116459D01*
X2102042D01*
X2102250Y116042D01*
X2102875Y115625D01*
X2103708Y115209D01*
X2105792Y114375D01*
X2107042Y114167D01*
X2108500Y113959D01*
X2242873D01*
X2243290Y114167D01*
X2243707Y114375D01*
X2244123D01*
X2244540Y114584D01*
X2245165Y114792D01*
X2245998Y115417D01*
X2247873Y116667D01*
X2248707Y117709D01*
X2249540Y118750D01*
X2249748Y119167D01*
X2250165Y120209D01*
X2250582Y121667D01*
X2250790Y123542D01*
Y123750D01*
Y123959D01*
Y124375D01*
Y124584D01*
Y124792D01*
X2250582Y125834D01*
X2250165Y127084D01*
X2249540Y128542D01*
X2183082Y243332D01*
Y243540D01*
X2182874Y243749D01*
X2182249Y244582D01*
Y244790D01*
X2181832Y244999D01*
X2181207Y245624D01*
X2180999Y245832D01*
X2180791Y246040D01*
X2180166Y246457D01*
X2179332Y246874D01*
X2177249Y247707D01*
X2176207Y248124D01*
D02*
G37*
%LPD*%
G36*
X2213499Y135833D02*
X2136000D01*
Y142292D01*
X2213499D01*
Y135833D01*
D02*
G37*
G36*
X2190166Y210208D02*
X2192041Y207708D01*
X2191832Y207499D01*
X2191207Y207083D01*
X2190166Y206249D01*
X2189124Y205208D01*
X2188916Y204999D01*
X2188291Y204166D01*
X2187457Y203124D01*
X2186416Y201874D01*
Y201666D01*
X2186207Y201458D01*
X2185791Y200833D01*
X2185374Y199999D01*
X2184541Y197916D01*
X2183707Y195208D01*
X2183082Y192083D01*
X2182874Y188333D01*
X2183082Y186458D01*
X2183499Y184583D01*
X2184124Y182708D01*
X2184957Y180625D01*
X2185166Y180416D01*
X2185582Y179583D01*
X2186416Y178125D01*
X2187874Y176041D01*
Y175833D01*
X2188291Y175625D01*
X2188916Y174375D01*
X2190166Y172708D01*
X2191207Y170833D01*
Y170625D01*
X2191416Y170416D01*
X2191624Y169791D01*
X2192041Y169166D01*
X2192666Y166875D01*
X2193082Y164166D01*
Y163958D01*
Y163333D01*
Y162500D01*
Y161666D01*
Y161458D01*
Y160833D01*
X2192874Y159166D01*
Y158750D01*
X2192666Y157708D01*
X2192041Y156250D01*
X2191416Y154375D01*
X2190582Y152500D01*
X2189541Y150833D01*
X2188082Y149375D01*
X2186207Y148333D01*
X2184541Y153125D01*
X2184957Y153333D01*
X2185166Y153750D01*
X2185791Y154166D01*
X2186207Y155000D01*
X2186832Y156250D01*
X2187249Y157708D01*
X2187666Y159791D01*
Y160000D01*
X2187874Y160625D01*
Y161250D01*
Y161875D01*
Y162083D01*
Y162500D01*
Y163541D01*
Y163750D01*
X2187666Y164375D01*
X2187457Y165208D01*
X2187249Y166458D01*
X2186624Y167916D01*
X2185999Y169375D01*
X2184957Y171041D01*
X2183707Y172916D01*
Y173125D01*
X2183291Y173541D01*
X2182457Y174791D01*
X2181207Y176458D01*
X2180166Y178333D01*
X2179957Y178750D01*
X2179749Y179583D01*
X2179124Y181041D01*
X2178707Y182708D01*
X2178082Y184791D01*
X2177666Y187291D01*
X2177457Y189791D01*
X2177666Y192291D01*
Y192708D01*
X2177874Y193541D01*
X2178291Y194791D01*
X2178707Y196458D01*
X2179332Y198333D01*
X2179957Y200416D01*
X2180999Y202708D01*
X2182249Y204791D01*
X2182457Y205208D01*
X2183082Y206041D01*
X2183916Y207083D01*
X2185166Y208541D01*
X2185582Y208958D01*
X2186416Y209583D01*
X2187457Y210833D01*
X2188916Y211874D01*
X2190166Y210208D01*
D02*
G37*
G36*
X2177249D02*
X2179124Y207708D01*
X2178916Y207499D01*
X2178082Y207083D01*
X2177249Y206249D01*
X2176207Y205208D01*
X2175999Y204999D01*
X2175374Y204166D01*
X2174541Y203124D01*
X2173707Y201874D01*
Y201666D01*
X2173499Y201458D01*
X2173082Y200833D01*
X2172666Y199999D01*
X2171833Y197916D01*
X2170791Y195208D01*
X2170166Y192083D01*
X2169958Y188333D01*
X2170166Y186458D01*
X2170583Y184583D01*
X2171208Y182708D01*
X2172041Y180625D01*
X2172249Y180416D01*
X2172666Y179375D01*
X2173707Y177916D01*
X2174957Y176041D01*
Y175833D01*
X2175374Y175625D01*
X2175999Y174375D01*
X2177249Y172708D01*
X2178291Y170833D01*
Y170625D01*
X2178499Y170416D01*
X2178707Y169791D01*
X2179124Y169166D01*
X2179749Y166875D01*
X2180166Y164166D01*
Y163958D01*
Y163541D01*
Y162708D01*
Y161666D01*
Y161458D01*
Y160625D01*
X2179957Y159791D01*
Y159166D01*
Y158750D01*
X2179749Y157708D01*
X2179332Y156250D01*
X2178707Y154375D01*
X2177874Y152500D01*
X2176624Y150833D01*
X2175166Y149375D01*
X2173291Y148333D01*
X2171624Y153125D01*
X2171833D01*
X2172041Y153333D01*
X2172458Y153750D01*
X2172874Y154166D01*
X2173499Y155000D01*
X2173916Y156250D01*
X2174332Y157708D01*
X2174749Y159791D01*
Y160000D01*
X2174957Y160416D01*
Y161875D01*
Y162083D01*
Y162500D01*
Y163541D01*
Y163750D01*
X2174749Y164375D01*
X2174541Y165208D01*
X2174332Y166458D01*
X2173707Y167708D01*
X2173082Y169375D01*
X2172041Y171041D01*
X2170791Y172916D01*
Y173125D01*
X2170374Y173541D01*
X2169958Y174166D01*
X2169541Y175000D01*
X2168291Y176666D01*
X2167458Y178333D01*
X2167249Y178750D01*
X2166833Y179583D01*
X2166416Y181041D01*
X2165791Y182708D01*
X2165166Y184791D01*
X2164749Y187291D01*
X2164541Y189791D01*
X2164749Y192291D01*
Y192708D01*
X2164958Y193541D01*
X2165374Y194791D01*
X2165791Y196458D01*
X2166416Y198333D01*
X2167041Y200416D01*
X2168083Y202708D01*
X2169333Y204791D01*
X2169541Y205208D01*
X2170166Y206041D01*
X2171208Y207083D01*
X2172458Y208541D01*
X2172874Y208958D01*
X2173707Y209791D01*
X2174749Y210833D01*
X2175999Y211874D01*
X2177249Y210208D01*
D02*
G37*
G36*
X2164333D02*
X2166208Y207708D01*
X2165999Y207499D01*
X2165166Y206874D01*
X2164333Y206041D01*
X2163291Y205208D01*
X2163083Y204999D01*
X2162458Y204166D01*
X2161624Y203124D01*
X2160791Y201874D01*
Y201666D01*
X2160583Y201458D01*
X2160166Y200833D01*
X2159749Y199999D01*
X2158916Y197916D01*
X2157874Y195208D01*
X2157249Y192083D01*
X2157041Y188333D01*
X2157249Y186458D01*
X2157666Y184583D01*
X2158291Y182708D01*
X2159124Y180625D01*
X2159333Y180416D01*
X2159749Y179375D01*
X2160791Y177916D01*
X2162249Y176041D01*
Y175833D01*
X2162458Y175625D01*
X2163291Y174375D01*
X2164333Y172708D01*
X2165374Y170833D01*
Y170625D01*
X2165583Y170416D01*
X2165791Y169791D01*
X2166208Y169166D01*
X2166833Y166875D01*
X2167249Y164166D01*
Y163958D01*
Y163333D01*
Y162500D01*
Y161666D01*
Y161458D01*
Y160625D01*
Y159791D01*
X2167041Y159166D01*
Y158750D01*
X2166833Y157708D01*
X2166208Y156250D01*
X2165583Y154375D01*
X2164749Y152500D01*
X2163708Y150833D01*
X2162249Y149375D01*
X2160374Y148333D01*
X2158708Y153125D01*
X2158916D01*
X2159124Y153333D01*
X2159541Y153750D01*
X2159958Y154375D01*
X2160583Y155208D01*
X2160999Y156250D01*
X2161416Y157916D01*
X2161833Y159791D01*
Y160000D01*
X2162041Y160416D01*
Y161875D01*
Y162291D01*
Y162708D01*
Y163541D01*
Y163750D01*
X2161833Y164375D01*
Y165208D01*
X2161416Y166458D01*
X2160999Y167708D01*
X2160166Y169375D01*
X2159333Y171041D01*
X2158083Y172916D01*
Y173125D01*
X2157666Y173541D01*
X2156624Y174791D01*
X2155583Y176666D01*
X2154541Y178333D01*
X2154333Y178750D01*
X2153916Y179583D01*
X2153499Y181041D01*
X2152874Y182708D01*
X2152249Y184791D01*
X2151833Y187291D01*
X2151624Y189791D01*
X2151833Y192291D01*
Y192708D01*
X2152041Y193541D01*
X2152458Y194791D01*
X2152874Y196458D01*
X2153499Y198333D01*
X2154124Y200416D01*
X2155166Y202708D01*
X2156416Y204791D01*
X2156624Y205208D01*
X2157249Y206041D01*
X2158291Y207083D01*
X2159541Y208541D01*
X2159958Y208958D01*
X2160791Y209791D01*
X2161833Y210833D01*
X2163083Y211874D01*
X2164333Y210208D01*
D02*
G37*
%LPC*%
G36*
X395875Y1961071D02*
X365426D01*
Y1900174D01*
X399258D01*
X404091Y1900658D01*
X409891Y1901141D01*
X416657Y1902107D01*
X422940Y1903557D01*
X428256Y1905491D01*
X432606Y1908390D01*
X433090Y1908874D01*
X434056Y1909840D01*
X435506Y1911774D01*
X436956Y1914190D01*
X438406Y1917573D01*
X439856Y1921440D01*
X440823Y1925790D01*
X441306Y1930623D01*
Y1931106D01*
Y1932556D01*
X440823Y1934973D01*
X440339Y1937389D01*
X439373Y1940772D01*
X437923Y1944155D01*
X435989Y1948022D01*
X433573Y1951405D01*
X433090Y1951888D01*
X431640Y1952855D01*
X429223Y1954305D01*
X424873Y1956238D01*
X419074Y1958172D01*
X415690Y1958655D01*
X411341Y1959621D01*
X406991Y1960105D01*
X401674Y1960588D01*
X395875Y1961071D01*
D02*
G37*
G36*
X394425Y1839277D02*
X365426D01*
Y1773063D01*
X399258D01*
X404574Y1773547D01*
X410374Y1774030D01*
X417140Y1774997D01*
X423907Y1775963D01*
X429706Y1777896D01*
X435023Y1780313D01*
X435506Y1780796D01*
X436956Y1781763D01*
X438889Y1783696D01*
X441306Y1786113D01*
X443239Y1789979D01*
X445172Y1794329D01*
X446622Y1799645D01*
X447106Y1805928D01*
Y1806895D01*
Y1808828D01*
X446622Y1811728D01*
X445656Y1815595D01*
X444689Y1819461D01*
X442756Y1823811D01*
X439856Y1827677D01*
X436473Y1831061D01*
X435989Y1831544D01*
X434056Y1832511D01*
X431156Y1833477D01*
X427290Y1835410D01*
X421490Y1836860D01*
X414240Y1837827D01*
X405057Y1838794D01*
X394425Y1839277D01*
D02*
G37*
G36*
X1794577Y1887125D02*
X1791677D01*
X1788777Y1886641D01*
X1785394Y1885675D01*
X1781044Y1883742D01*
X1777178Y1881325D01*
X1772828Y1877942D01*
X1769445Y1873592D01*
X1768962Y1873109D01*
X1767995Y1871176D01*
X1766545Y1868276D01*
X1765095Y1863926D01*
X1763645Y1859093D01*
X1762195Y1853293D01*
X1761229Y1847010D01*
X1760745Y1839760D01*
Y1839277D01*
Y1838310D01*
Y1834927D01*
X1829376D01*
Y1835410D01*
Y1835894D01*
X1829859Y1838794D01*
Y1841694D01*
Y1842660D01*
Y1843143D01*
Y1844110D01*
Y1846527D01*
X1829376Y1849910D01*
X1828892Y1854260D01*
X1827442Y1859093D01*
X1825992Y1864409D01*
X1823576Y1869725D01*
X1820193Y1874559D01*
X1819709Y1875042D01*
X1818259Y1876492D01*
X1816326Y1878425D01*
X1813426Y1880842D01*
X1809560Y1883258D01*
X1805210Y1885191D01*
X1800377Y1886641D01*
X1794577Y1887125D01*
D02*
G37*
%LPD*%
D28*
X1249600Y2595801D02*
X1300400D01*
X1249600Y2570401D02*
Y2595801D01*
Y2570401D02*
X1300400D01*
Y2595801D01*
X175000Y75001D02*
Y2475001D01*
X2375000Y275001D02*
Y2475001D01*
X75000Y2375001D02*
X2475000D01*
X75000Y2275001D02*
X2475000D01*
X75000Y2175001D02*
X2475000D01*
X75000Y2075001D02*
X2475000D01*
X75000Y1475001D02*
X2475000D01*
X75000Y1375001D02*
X2475000D01*
X75000Y1275001D02*
X2475000D01*
X75000Y1175001D02*
X2475000D01*
X75000Y1075001D02*
X2475000D01*
X75000Y975001D02*
X2475000D01*
X75000Y875001D02*
X2475000D01*
X75000Y775001D02*
X2475000D01*
X75000Y675001D02*
X2475000D01*
X75000Y475001D02*
X2475000D01*
X75000Y575001D02*
X2475000D01*
X75000Y375001D02*
X2475000D01*
X75000Y175001D02*
X2075000D01*
X75000Y275001D02*
X2475000D01*
X75000Y1975001D02*
X175000D01*
X75000Y1875001D02*
X175000D01*
X75000Y1775001D02*
X175000D01*
X75000Y1675001D02*
X775000D01*
X2375000Y1975001D02*
X2475000D01*
X2375000Y1875001D02*
X2475000D01*
X2375000Y1775001D02*
X2475000D01*
X375000Y2075001D02*
Y2475001D01*
X475000Y2075001D02*
Y2475001D01*
X575000Y2075001D02*
Y2475001D01*
X675000Y2075001D02*
Y2475001D01*
X775000Y2075001D02*
Y2475001D01*
X875000Y2075001D02*
Y2475001D01*
X975000Y2075001D02*
Y2475001D01*
X1075000Y2075001D02*
Y2475001D01*
X1175000Y2075001D02*
Y2475001D01*
X1275000Y2075001D02*
Y2475001D01*
X1375000Y2075001D02*
Y2475001D01*
X1475000Y2075001D02*
Y2475001D01*
X1575000Y2075001D02*
Y2475001D01*
X1675000Y1975001D02*
Y2475001D01*
X1775000Y1975001D02*
Y2475001D01*
X1875000Y1975001D02*
Y2475001D01*
X1975000Y1975001D02*
Y2475001D01*
X2075000Y1975001D02*
Y2475001D01*
X2175000Y2075001D02*
Y2475001D01*
X375000Y75001D02*
Y1675001D01*
X475000Y75001D02*
Y1675001D01*
X575000Y75001D02*
Y1675001D01*
X675000Y75001D02*
Y1675001D01*
X775000Y75001D02*
Y1675001D01*
X975000Y75001D02*
Y1575001D01*
X1075000Y75001D02*
Y1575001D01*
X1175000Y75001D02*
Y1675001D01*
X1375000Y75001D02*
Y1675001D01*
X1475000Y75001D02*
Y1675001D01*
X1575000Y75001D02*
Y1675001D01*
X1675000Y75001D02*
Y1675001D01*
X1775000Y75001D02*
Y1675001D01*
X1875000Y75001D02*
Y1675001D01*
X1975000Y75001D02*
Y1675001D01*
X2075000Y75001D02*
Y1675001D01*
X2175000Y275001D02*
Y1675001D01*
X275000Y75001D02*
Y1675001D01*
X75000Y1575001D02*
X2475000D01*
X1175000Y1675001D02*
X2475000D01*
X875000Y75001D02*
Y1575001D01*
X1275000Y75001D02*
Y1675001D01*
X1675000Y1975001D02*
X2075000D01*
X2275000Y2075001D02*
Y2475001D01*
Y75001D02*
Y1675001D01*
X275000Y2075001D02*
Y2475001D01*
X1322994Y2590001D02*
Y2578005D01*
Y2584003D01*
X1305000D01*
X810000Y2531001D02*
X815998D01*
X812999D01*
Y2548995D01*
X810000Y2545996D01*
X1476996Y2531001D02*
X1465000D01*
X1476996Y2542997D01*
Y2545996D01*
X1473997Y2548995D01*
X1467999D01*
X1465000Y2545996D01*
X1601000D02*
X1603999Y2548995D01*
X1609997D01*
X1612996Y2545996D01*
Y2542997D01*
X1609997Y2539998D01*
X1606998D01*
X1609997D01*
X1612996Y2536999D01*
Y2534000D01*
X1609997Y2531001D01*
X1603999D01*
X1601000Y2534000D01*
D29*
X2530000Y2530001D02*
G03*
X2530000Y2530001I-20000J0D01*
G01*
X2530000Y40000D02*
G03*
X2530000Y40000I-20000J0D01*
G01*
X1295000Y40000D02*
G03*
X1295000Y40000I-20000J0D01*
G01*
X60000Y40000D02*
G03*
X60000Y40000I-20000J0D01*
G01*
X1295000Y2530000D02*
G03*
X1295000Y2530000I-20000J0D01*
G01*
X60000D02*
G03*
X60000Y2530000I-20000J0D01*
G01*
X1078000Y2570000D02*
Y2579997D01*
Y2574998D01*
X1048010D01*
X1053008Y2570000D01*
X1078000Y2614985D02*
Y2594992D01*
X1058007Y2614985D01*
X1053008D01*
X1048010Y2609987D01*
Y2599990D01*
X1053008Y2594992D01*
X1048010Y2624982D02*
X1068003D01*
X1078000Y2634979D01*
X1068003Y2644976D01*
X1048010D01*
X1503000Y2589994D02*
Y2570000D01*
X1483007Y2589994D01*
X1478008D01*
X1473010Y2584995D01*
Y2574998D01*
X1478008Y2570000D01*
X1503000Y2614985D02*
X1473010D01*
X1488005Y2599990D01*
Y2619984D01*
X1473010Y2629980D02*
X1493003D01*
X1503000Y2639977D01*
X1493003Y2649974D01*
X1473010D01*
X2525000Y105001D02*
X2508339D01*
X2500008Y113332D01*
X2508339Y121662D01*
X2525000D01*
X2512504D01*
Y105001D01*
X2508339Y129993D02*
X2520835D01*
X2525000Y134158D01*
Y146654D01*
X2508339D01*
X2525000Y154985D02*
Y167481D01*
X2520835Y171646D01*
X2516670Y167481D01*
Y159150D01*
X2512504Y154985D01*
X2508339Y159150D01*
Y171646D01*
X2504174Y179977D02*
X2500008Y184142D01*
Y192473D01*
X2504174Y196638D01*
X2508339D01*
X2512504Y192473D01*
Y188307D01*
Y192473D01*
X2516670Y196638D01*
X2520835D01*
X2525000Y192473D01*
Y184142D01*
X2520835Y179977D01*
X2500008Y204969D02*
X2525000D01*
Y217465D01*
X2520835Y221630D01*
X2504174D01*
X2500008Y217465D01*
Y204969D01*
Y254953D02*
X2525000D01*
Y267448D01*
X2520835Y271614D01*
X2516670D01*
X2512504Y267448D01*
Y254953D01*
Y267448D01*
X2508339Y271614D01*
X2504174D01*
X2500008Y267448D01*
Y254953D01*
X2525000Y279944D02*
Y288275D01*
Y284110D01*
X2508339D01*
Y279944D01*
X2533331Y309102D02*
Y313267D01*
X2529166Y317432D01*
X2508339D01*
Y304936D01*
X2512504Y300771D01*
X2520835D01*
X2525000Y304936D01*
Y317432D01*
X2500008Y325763D02*
X2525000D01*
Y338259D01*
X2520835Y342424D01*
X2516670D01*
X2512504Y338259D01*
Y325763D01*
Y338259D01*
X2508339Y342424D01*
X2504174D01*
X2500008Y338259D01*
Y325763D01*
X2525000Y363251D02*
Y354920D01*
X2520835Y350755D01*
X2512504D01*
X2508339Y354920D01*
Y363251D01*
X2512504Y367416D01*
X2516670D01*
Y350755D01*
X2500008Y392408D02*
X2525000D01*
Y379912D01*
X2520835Y375747D01*
X2512504D01*
X2508339Y379912D01*
Y392408D01*
X2500008Y425731D02*
X2516670D01*
X2525000Y434061D01*
X2516670Y442392D01*
X2500008D01*
X2504174Y450723D02*
X2500008Y454888D01*
Y463218D01*
X2504174Y467384D01*
X2520835D01*
X2525000Y463218D01*
Y454888D01*
X2520835Y450723D01*
X2504174D01*
X2525000Y475714D02*
X2520835D01*
Y479880D01*
X2525000D01*
Y475714D01*
Y496541D02*
Y504872D01*
Y500706D01*
X2500008D01*
X2504174Y496541D01*
X2525000Y517368D02*
X2508339D01*
X2500008Y525698D01*
X2508339Y534029D01*
X2525000D01*
X2512504D01*
Y517368D01*
X2529166Y546525D02*
X2525000Y550690D01*
X2520835D01*
Y546525D01*
X2525000D01*
Y550690D01*
X2529166Y546525D01*
X2533331Y542360D01*
X2500008Y609005D02*
X2525000D01*
Y596509D01*
X2520835Y592343D01*
X2512504D01*
X2508339Y596509D01*
Y609005D01*
X2525000Y629831D02*
Y621501D01*
X2520835Y617335D01*
X2512504D01*
X2508339Y621501D01*
Y629831D01*
X2512504Y633997D01*
X2516670D01*
Y617335D01*
X2525000Y642327D02*
Y654823D01*
X2520835Y658989D01*
X2516670Y654823D01*
Y646493D01*
X2512504Y642327D01*
X2508339Y646493D01*
Y658989D01*
X2525000Y667319D02*
Y675650D01*
Y671485D01*
X2508339D01*
Y667319D01*
X2533331Y696477D02*
Y700642D01*
X2529166Y704807D01*
X2508339D01*
Y692311D01*
X2512504Y688146D01*
X2520835D01*
X2525000Y692311D01*
Y704807D01*
Y713138D02*
X2508339D01*
Y725634D01*
X2512504Y729799D01*
X2525000D01*
X2500008Y763122D02*
X2525000D01*
Y775618D01*
X2520835Y779783D01*
X2516670D01*
X2512504D01*
X2508339Y775618D01*
Y763122D01*
Y788113D02*
X2520835D01*
X2525000Y792279D01*
Y804775D01*
X2529166D01*
X2533331Y800610D01*
Y796444D01*
X2525000Y804775D02*
X2508339D01*
X2504174Y854759D02*
X2500008Y850593D01*
Y842263D01*
X2504174Y838097D01*
X2520835D01*
X2525000Y842263D01*
Y850593D01*
X2520835Y854759D01*
X2500008Y863089D02*
X2525000D01*
X2512504D01*
X2508339Y867255D01*
Y875585D01*
X2512504Y879751D01*
X2525000D01*
X2508339Y888081D02*
X2525000D01*
X2516670D01*
X2512504Y892246D01*
X2508339Y896412D01*
Y900577D01*
X2525000Y913073D02*
Y921404D01*
Y917238D01*
X2508339D01*
Y913073D01*
X2525000Y933900D02*
Y946396D01*
X2520835Y950561D01*
X2516670Y946396D01*
Y938065D01*
X2512504Y933900D01*
X2508339Y938065D01*
Y950561D01*
X2500008Y983884D02*
X2525000D01*
Y996379D01*
X2520835Y1000545D01*
X2516670D01*
X2512504Y996379D01*
Y983884D01*
Y996379D01*
X2508339Y1000545D01*
X2504174D01*
X2500008Y996379D01*
Y983884D01*
X2508339Y1013041D02*
Y1021372D01*
X2512504Y1025537D01*
X2525000D01*
Y1013041D01*
X2520835Y1008876D01*
X2516670Y1013041D01*
Y1025537D01*
X2508339Y1033867D02*
X2525000D01*
X2516670D01*
X2512504Y1038033D01*
X2508339Y1042198D01*
Y1046363D01*
Y1058859D02*
X2525000D01*
X2516670D01*
X2512504Y1063025D01*
X2508339Y1067190D01*
Y1071355D01*
X2525000Y1083851D02*
X2520835D01*
Y1088017D01*
X2525000D01*
Y1083851D01*
X2504174Y1146331D02*
X2500008Y1142166D01*
Y1133835D01*
X2504174Y1129670D01*
X2508339D01*
X2512504Y1133835D01*
Y1142166D01*
X2516670Y1146331D01*
X2520835D01*
X2525000Y1142166D01*
Y1133835D01*
X2520835Y1129670D01*
X2525000Y1167158D02*
Y1158827D01*
X2520835Y1154662D01*
X2512504D01*
X2508339Y1158827D01*
Y1167158D01*
X2512504Y1171323D01*
X2516670D01*
Y1154662D01*
X2525000Y1192150D02*
Y1183819D01*
X2520835Y1179654D01*
X2512504D01*
X2508339Y1183819D01*
Y1192150D01*
X2512504Y1196315D01*
X2516670D01*
Y1179654D01*
X2533331Y1237968D02*
Y1242133D01*
X2529166Y1246299D01*
X2508339D01*
Y1233803D01*
X2512504Y1229638D01*
X2520835D01*
X2525000Y1233803D01*
Y1246299D01*
Y1254629D02*
Y1262960D01*
Y1258795D01*
X2508339D01*
Y1254629D01*
X2504174Y1279621D02*
X2508339D01*
Y1275456D01*
Y1283787D01*
Y1279621D01*
X2520835D01*
X2525000Y1283787D01*
X2500008Y1296283D02*
X2525000D01*
X2512504D01*
X2508339Y1300448D01*
Y1308779D01*
X2512504Y1312944D01*
X2525000D01*
X2508339Y1321275D02*
X2520835D01*
X2525000Y1325440D01*
Y1337936D01*
X2508339D01*
X2500008Y1346266D02*
X2525000D01*
Y1358762D01*
X2520835Y1362928D01*
X2516670D01*
X2512504D01*
X2508339Y1358762D01*
Y1346266D01*
X2525000Y1371258D02*
X2520835D01*
Y1375424D01*
X2525000D01*
Y1371258D01*
X2508339Y1408746D02*
Y1396250D01*
X2512504Y1392085D01*
X2520835D01*
X2525000Y1396250D01*
Y1408746D01*
Y1421242D02*
Y1429573D01*
X2520835Y1433738D01*
X2512504D01*
X2508339Y1429573D01*
Y1421242D01*
X2512504Y1417077D01*
X2520835D01*
X2525000Y1421242D01*
Y1442069D02*
X2508339D01*
Y1446234D01*
X2512504Y1450399D01*
X2525000D01*
X2512504D01*
X2508339Y1454565D01*
X2512504Y1458730D01*
X2525000D01*
Y1467061D02*
X2508339Y1483722D01*
X2525000Y1492053D02*
X2508339D01*
X2500008Y1500383D01*
X2508339Y1508714D01*
X2525000D01*
X2512504D01*
Y1492053D01*
X2508339Y1517045D02*
X2520835D01*
X2525000Y1521210D01*
Y1533706D01*
X2508339D01*
X2525000Y1542036D02*
Y1554532D01*
X2520835Y1558698D01*
X2516670Y1554532D01*
Y1546202D01*
X2512504Y1542036D01*
X2508339Y1546202D01*
Y1558698D01*
X2504174Y1567029D02*
X2500008Y1571194D01*
Y1579524D01*
X2504174Y1583690D01*
X2508339D01*
X2512504Y1579524D01*
Y1575359D01*
Y1579524D01*
X2516670Y1583690D01*
X2520835D01*
X2525000Y1579524D01*
Y1571194D01*
X2520835Y1567029D01*
X2500008Y1592020D02*
X2525000D01*
Y1604516D01*
X2520835Y1608682D01*
X2504174D01*
X2500008Y1604516D01*
Y1592020D01*
X2525000Y1617012D02*
X2508339Y1633674D01*
X2500008Y1642004D02*
X2525000D01*
Y1654500D01*
X2520835Y1658665D01*
X2516670D01*
X2512504Y1654500D01*
Y1642004D01*
Y1654500D01*
X2508339Y1658665D01*
X2504174D01*
X2500008Y1654500D01*
Y1642004D01*
X2525000Y1666996D02*
Y1675327D01*
Y1671161D01*
X2508339D01*
Y1666996D01*
X2533331Y1696153D02*
Y1700319D01*
X2529166Y1704484D01*
X2508339D01*
Y1691988D01*
X2512504Y1687823D01*
X2520835D01*
X2525000Y1691988D01*
Y1704484D01*
X2500008Y1712815D02*
X2525000D01*
Y1725311D01*
X2520835Y1729476D01*
X2516670D01*
X2512504Y1725311D01*
Y1712815D01*
Y1725311D01*
X2508339Y1729476D01*
X2504174D01*
X2500008Y1725311D01*
Y1712815D01*
X2525000Y1750303D02*
Y1741972D01*
X2520835Y1737807D01*
X2512504D01*
X2508339Y1741972D01*
Y1750303D01*
X2512504Y1754468D01*
X2516670D01*
Y1737807D01*
X2500008Y1779460D02*
X2525000D01*
Y1766964D01*
X2520835Y1762798D01*
X2512504D01*
X2508339Y1766964D01*
Y1779460D01*
X2525000Y1816948D02*
X2504174D01*
X2512504D01*
Y1812782D01*
Y1821113D01*
Y1816948D01*
X2504174D01*
X2500008Y1821113D01*
X2525000Y1837774D02*
Y1846105D01*
X2520835Y1850270D01*
X2512504D01*
X2508339Y1846105D01*
Y1837774D01*
X2512504Y1833609D01*
X2520835D01*
X2525000Y1837774D01*
X2508339Y1858601D02*
X2525000D01*
X2516670D01*
X2512504Y1862766D01*
X2508339Y1866931D01*
Y1871097D01*
X2525000Y1908585D02*
Y1916915D01*
Y1912750D01*
X2508339D01*
Y1908585D01*
X2525000Y1929411D02*
X2508339D01*
Y1941907D01*
X2512504Y1946073D01*
X2525000D01*
Y1958569D02*
X2504174D01*
X2512504D01*
Y1954403D01*
Y1962734D01*
Y1958569D01*
X2504174D01*
X2500008Y1962734D01*
X2525000Y1979395D02*
Y1987726D01*
X2520835Y1991891D01*
X2512504D01*
X2508339Y1987726D01*
Y1979395D01*
X2512504Y1975230D01*
X2520835D01*
X2525000Y1979395D01*
X2508339Y2000222D02*
X2525000D01*
X2516670D01*
X2512504Y2004387D01*
X2508339Y2008552D01*
Y2012718D01*
X2525000Y2025214D02*
X2508339D01*
Y2029379D01*
X2512504Y2033544D01*
X2525000D01*
X2512504D01*
X2508339Y2037710D01*
X2512504Y2041875D01*
X2525000D01*
X2508339Y2054371D02*
Y2062702D01*
X2512504Y2066867D01*
X2525000D01*
Y2054371D01*
X2520835Y2050206D01*
X2516670Y2054371D01*
Y2066867D01*
X2504174Y2079363D02*
X2508339D01*
Y2075198D01*
Y2083528D01*
Y2079363D01*
X2520835D01*
X2525000Y2083528D01*
Y2096024D02*
Y2104355D01*
Y2100190D01*
X2508339D01*
Y2096024D01*
X2525000Y2121016D02*
Y2129347D01*
X2520835Y2133512D01*
X2512504D01*
X2508339Y2129347D01*
Y2121016D01*
X2512504Y2116851D01*
X2520835D01*
X2525000Y2121016D01*
Y2141843D02*
X2508339D01*
Y2154339D01*
X2512504Y2158504D01*
X2525000D01*
X2508339Y2195992D02*
Y2204323D01*
X2512504Y2208488D01*
X2525000D01*
Y2195992D01*
X2520835Y2191827D01*
X2516670Y2195992D01*
Y2208488D01*
X2525000Y2216819D02*
X2508339D01*
Y2229314D01*
X2512504Y2233480D01*
X2525000D01*
X2500008Y2258472D02*
X2525000D01*
Y2245976D01*
X2520835Y2241810D01*
X2512504D01*
X2508339Y2245976D01*
Y2258472D01*
X2525000Y2291794D02*
Y2304290D01*
X2520835Y2308456D01*
X2516670Y2304290D01*
Y2295960D01*
X2512504Y2291794D01*
X2508339Y2295960D01*
Y2308456D01*
X2525000Y2320952D02*
Y2329282D01*
X2520835Y2333448D01*
X2512504D01*
X2508339Y2329282D01*
Y2320952D01*
X2512504Y2316786D01*
X2520835D01*
X2525000Y2320952D01*
X2508339Y2341778D02*
X2520835D01*
X2525000Y2345943D01*
Y2358439D01*
X2508339D01*
Y2366770D02*
X2525000D01*
X2516670D01*
X2512504Y2370935D01*
X2508339Y2375101D01*
Y2379266D01*
Y2408423D02*
Y2395927D01*
X2512504Y2391762D01*
X2520835D01*
X2525000Y2395927D01*
Y2408423D01*
Y2429250D02*
Y2420919D01*
X2520835Y2416754D01*
X2512504D01*
X2508339Y2420919D01*
Y2429250D01*
X2512504Y2433415D01*
X2516670D01*
Y2416754D01*
X20008Y145001D02*
X45000D01*
Y157497D01*
X40835Y161662D01*
X36670D01*
X32504Y157497D01*
Y145001D01*
Y157497D01*
X28339Y161662D01*
X24174D01*
X20008Y157497D01*
Y145001D01*
X28339Y174158D02*
Y182489D01*
X32504Y186654D01*
X45000D01*
Y174158D01*
X40835Y169993D01*
X36670Y174158D01*
Y186654D01*
X45000Y194985D02*
Y207481D01*
X40835Y211646D01*
X36670Y207481D01*
Y199150D01*
X32504Y194985D01*
X28339Y199150D01*
Y211646D01*
X45000Y232473D02*
Y224142D01*
X40835Y219977D01*
X32504D01*
X28339Y224142D01*
Y232473D01*
X32504Y236638D01*
X36670D01*
Y219977D01*
X20008Y261630D02*
X45000D01*
Y249134D01*
X40835Y244969D01*
X32504D01*
X28339Y249134D01*
Y261630D01*
X45000Y299118D02*
Y307449D01*
X40835Y311614D01*
X32504D01*
X28339Y307449D01*
Y299118D01*
X32504Y294953D01*
X40835D01*
X45000Y299118D01*
Y319944D02*
X28339D01*
Y332440D01*
X32504Y336606D01*
X45000D01*
X20008Y386590D02*
X45000D01*
Y374094D01*
X40835Y369928D01*
X32504D01*
X28339Y374094D01*
Y386590D01*
X45000Y407416D02*
Y399086D01*
X40835Y394920D01*
X32504D01*
X28339Y399086D01*
Y407416D01*
X32504Y411581D01*
X36670D01*
Y394920D01*
X45000Y419912D02*
Y432408D01*
X40835Y436573D01*
X36670Y432408D01*
Y424077D01*
X32504Y419912D01*
X28339Y424077D01*
Y436573D01*
X45000Y444904D02*
Y453235D01*
Y449069D01*
X28339D01*
Y444904D01*
X53331Y474061D02*
Y478227D01*
X49166Y482392D01*
X28339D01*
Y469896D01*
X32504Y465731D01*
X40835D01*
X45000Y469896D01*
Y482392D01*
Y490723D02*
X28339D01*
Y503218D01*
X32504Y507384D01*
X45000D01*
Y515714D02*
Y528210D01*
X40835Y532376D01*
X36670Y528210D01*
Y519880D01*
X32504Y515714D01*
X28339Y519880D01*
Y532376D01*
X20008Y565698D02*
X45000D01*
Y578194D01*
X40835Y582360D01*
X36670D01*
X32504D01*
X28339Y578194D01*
Y565698D01*
Y590690D02*
X40835D01*
X45000Y594856D01*
Y607351D01*
X49166D01*
X53331Y603186D01*
Y599021D01*
X45000Y607351D02*
X28339D01*
X20008Y657335D02*
Y649005D01*
Y653170D01*
X40835D01*
X45000Y649005D01*
Y644839D01*
X40835Y640674D01*
X45000Y669831D02*
Y678162D01*
X40835Y682327D01*
X32504D01*
X28339Y678162D01*
Y669831D01*
X32504Y665666D01*
X40835D01*
X45000Y669831D01*
Y690658D02*
Y703154D01*
X40835Y707319D01*
X36670Y703154D01*
Y694823D01*
X32504Y690658D01*
X28339Y694823D01*
Y707319D01*
X45000Y728146D02*
Y719815D01*
X40835Y715650D01*
X32504D01*
X28339Y719815D01*
Y728146D01*
X32504Y732311D01*
X36670D01*
Y715650D01*
X45000Y744807D02*
X24174D01*
X32504D01*
Y740642D01*
Y748972D01*
Y744807D01*
X24174D01*
X20008Y748972D01*
X45000Y786460D02*
X20008D01*
Y798956D01*
X24174Y803122D01*
X32504D01*
X36670Y798956D01*
Y786460D01*
X28339Y811452D02*
X45000D01*
X36670D01*
X32504Y815618D01*
X28339Y819783D01*
Y823948D01*
Y836444D02*
X40835D01*
X45000Y840610D01*
Y853105D01*
X28339D01*
X45000Y861436D02*
Y873932D01*
X40835Y878097D01*
X36670Y873932D01*
Y865601D01*
X32504Y861436D01*
X28339Y865601D01*
Y878097D01*
Y890593D02*
Y898924D01*
X32504Y903089D01*
X45000D01*
Y890593D01*
X40835Y886428D01*
X36670Y890593D01*
Y903089D01*
X49166Y915585D02*
X45000Y919751D01*
X40835D01*
Y915585D01*
X45000D01*
Y919751D01*
X49166Y915585D01*
X53331Y911420D01*
X45000Y961404D02*
X20008D01*
Y973900D01*
X24174Y978065D01*
X32504D01*
X36670Y973900D01*
Y961404D01*
Y969734D02*
X45000Y978065D01*
Y998892D02*
Y990561D01*
X40835Y986396D01*
X32504D01*
X28339Y990561D01*
Y998892D01*
X32504Y1003057D01*
X36670D01*
Y986396D01*
X53331Y1011388D02*
X28339D01*
Y1023884D01*
X32504Y1028049D01*
X40835D01*
X45000Y1023884D01*
Y1011388D01*
Y1036380D02*
X20008D01*
Y1048876D01*
X24174Y1053041D01*
X32504D01*
X36670Y1048876D01*
Y1036380D01*
Y1044710D02*
X45000Y1053041D01*
X28339Y1065537D02*
Y1073867D01*
X32504Y1078033D01*
X45000D01*
Y1065537D01*
X40835Y1061372D01*
X36670Y1065537D01*
Y1078033D01*
X53331Y1086363D02*
X28339D01*
Y1098859D01*
X32504Y1103025D01*
X40835D01*
X45000Y1098859D01*
Y1086363D01*
X20008Y1136347D02*
X45000D01*
Y1148843D01*
X40835Y1153008D01*
X24174D01*
X20008Y1148843D01*
Y1136347D01*
X45000Y1161339D02*
Y1169670D01*
Y1165505D01*
X28339D01*
Y1161339D01*
X45000Y1182166D02*
Y1194662D01*
X40835Y1198827D01*
X36670Y1194662D01*
Y1186331D01*
X32504Y1182166D01*
X28339Y1186331D01*
Y1198827D01*
Y1223819D02*
Y1211323D01*
X32504Y1207158D01*
X40835D01*
X45000Y1211323D01*
Y1223819D01*
Y1236315D02*
Y1244646D01*
X40835Y1248811D01*
X32504D01*
X28339Y1244646D01*
Y1236315D01*
X32504Y1232150D01*
X40835D01*
X45000Y1236315D01*
X28339Y1257142D02*
X40835D01*
X45000Y1261307D01*
Y1273803D01*
X28339D01*
X45000Y1282133D02*
X28339D01*
Y1294629D01*
X32504Y1298795D01*
X45000D01*
X24174Y1311291D02*
X28339D01*
Y1307125D01*
Y1315456D01*
Y1311291D01*
X40835D01*
X45000Y1315456D01*
X49166Y1332117D02*
X45000Y1336283D01*
X40835D01*
Y1332117D01*
X45000D01*
Y1336283D01*
X49166Y1332117D01*
X53331Y1327952D01*
X28339Y1382101D02*
Y1390432D01*
X32504Y1394597D01*
X45000D01*
Y1382101D01*
X40835Y1377936D01*
X36670Y1382101D01*
Y1394597D01*
X45000Y1402928D02*
X28339D01*
Y1415424D01*
X32504Y1419589D01*
X45000D01*
X20008Y1444581D02*
X45000D01*
Y1432085D01*
X40835Y1427920D01*
X32504D01*
X28339Y1432085D01*
Y1444581D01*
X45000Y1482069D02*
Y1490399D01*
X40835Y1494565D01*
X32504D01*
X28339Y1490399D01*
Y1482069D01*
X32504Y1477903D01*
X40835D01*
X45000Y1482069D01*
X24174Y1507061D02*
X28339D01*
Y1502896D01*
Y1511226D01*
Y1507061D01*
X40835D01*
X45000Y1511226D01*
X20008Y1523722D02*
X45000D01*
X32504D01*
X28339Y1527887D01*
Y1536218D01*
X32504Y1540383D01*
X45000D01*
Y1561210D02*
Y1552879D01*
X40835Y1548714D01*
X32504D01*
X28339Y1552879D01*
Y1561210D01*
X32504Y1565375D01*
X36670D01*
Y1548714D01*
X28339Y1573706D02*
X45000D01*
X36670D01*
X32504Y1577871D01*
X28339Y1582037D01*
Y1586202D01*
X45000Y1598698D02*
Y1611194D01*
X40835Y1615359D01*
X36670Y1611194D01*
Y1602863D01*
X32504Y1598698D01*
X28339Y1602863D01*
Y1615359D01*
X45000Y1623690D02*
X40835D01*
Y1627855D01*
X45000D01*
Y1623690D01*
X24174Y1686170D02*
X20008Y1682004D01*
Y1673674D01*
X24174Y1669508D01*
X28339D01*
X32504Y1673674D01*
Y1682004D01*
X36670Y1686170D01*
X40835D01*
X45000Y1682004D01*
Y1673674D01*
X40835Y1669508D01*
X45000Y1706996D02*
Y1698665D01*
X40835Y1694500D01*
X32504D01*
X28339Y1698665D01*
Y1706996D01*
X32504Y1711161D01*
X36670D01*
Y1694500D01*
X45000Y1731988D02*
Y1723658D01*
X40835Y1719492D01*
X32504D01*
X28339Y1723658D01*
Y1731988D01*
X32504Y1736153D01*
X36670D01*
Y1719492D01*
X28339Y1769476D02*
X45000D01*
X36670D01*
X32504Y1773641D01*
X28339Y1777807D01*
Y1781972D01*
X45000Y1806964D02*
Y1798633D01*
X40835Y1794468D01*
X32504D01*
X28339Y1798633D01*
Y1806964D01*
X32504Y1811129D01*
X36670D01*
Y1794468D01*
X53331Y1819460D02*
X28339D01*
Y1831956D01*
X32504Y1836121D01*
X40835D01*
X45000Y1831956D01*
Y1819460D01*
X28339Y1844452D02*
X45000D01*
X36670D01*
X32504Y1848617D01*
X28339Y1852782D01*
Y1856948D01*
Y1873609D02*
Y1881940D01*
X32504Y1886105D01*
X45000D01*
Y1873609D01*
X40835Y1869444D01*
X36670Y1873609D01*
Y1886105D01*
X53331Y1894436D02*
X28339D01*
Y1906932D01*
X32504Y1911097D01*
X40835D01*
X45000Y1906932D01*
Y1894436D01*
Y1919427D02*
X40835D01*
Y1923593D01*
X45000D01*
Y1919427D01*
Y1944420D02*
Y1952750D01*
X40835Y1956915D01*
X32504D01*
X28339Y1952750D01*
Y1944420D01*
X32504Y1940254D01*
X40835D01*
X45000Y1944420D01*
X28339Y1965246D02*
X45000D01*
X36670D01*
X32504Y1969411D01*
X28339Y1973577D01*
Y1977742D01*
X53331Y1998569D02*
Y2002734D01*
X49166Y2006899D01*
X28339D01*
Y1994403D01*
X32504Y1990238D01*
X40835D01*
X45000Y1994403D01*
Y2006899D01*
Y2015230D02*
X28339Y2031891D01*
Y2040222D02*
X40835D01*
X45000Y2044387D01*
X40835Y2048553D01*
X45000Y2052718D01*
X40835Y2056883D01*
X28339D01*
X45000Y2065214D02*
Y2073544D01*
Y2069379D01*
X28339D01*
Y2065214D01*
X45000Y2086040D02*
X20008D01*
X36670D02*
X28339Y2098536D01*
X36670Y2086040D02*
X45000Y2098536D01*
Y2111032D02*
Y2119363D01*
Y2115198D01*
X28339D01*
Y2111032D01*
X45000Y2131859D02*
X28339Y2148520D01*
X45000Y2156851D02*
X20008D01*
Y2169347D01*
X24174Y2173512D01*
X32504D01*
X36670Y2169347D01*
Y2156851D01*
X24174Y2198504D02*
X20008Y2194339D01*
Y2186008D01*
X24174Y2181843D01*
X40835D01*
X45000Y2186008D01*
Y2194339D01*
X40835Y2198504D01*
X20008Y2206835D02*
X45000D01*
Y2219331D01*
X40835Y2223496D01*
X36670D01*
X32504Y2219331D01*
Y2206835D01*
Y2219331D01*
X28339Y2223496D01*
X24174D01*
X20008Y2219331D01*
Y2206835D01*
X49166Y2231827D02*
Y2248488D01*
X20008Y2256819D02*
X45000D01*
X32504D01*
Y2273480D01*
X20008D01*
X45000D01*
Y2294306D02*
Y2285976D01*
X40835Y2281810D01*
X32504D01*
X28339Y2285976D01*
Y2294306D01*
X32504Y2298472D01*
X36670D01*
Y2281810D01*
X28339Y2310968D02*
Y2319298D01*
X32504Y2323464D01*
X45000D01*
Y2310968D01*
X40835Y2306802D01*
X36670Y2310968D01*
Y2323464D01*
X24174Y2335960D02*
X28339D01*
Y2331794D01*
Y2340125D01*
Y2335960D01*
X40835D01*
X45000Y2340125D01*
X20008Y2352621D02*
X45000D01*
Y2365117D01*
X40835Y2369282D01*
X36670D01*
X32504D01*
X28339Y2365117D01*
Y2352621D01*
X45000Y2390109D02*
Y2381778D01*
X40835Y2377613D01*
X32504D01*
X28339Y2381778D01*
Y2390109D01*
X32504Y2394274D01*
X36670D01*
Y2377613D01*
X20008Y2419266D02*
X45000D01*
Y2406770D01*
X40835Y2402605D01*
X32504D01*
X28339Y2406770D01*
Y2419266D01*
D30*
X2539000Y2530001D02*
G03*
X2539000Y2530001I-29000J0D01*
G01*
X2539000Y40000D02*
G03*
X2539000Y40000I-29000J0D01*
G01*
X1304000Y40000D02*
G03*
X1304000Y40000I-29000J0D01*
G01*
X69000Y40000D02*
G03*
X69000Y40000I-29000J0D01*
G01*
X1304000Y2530000D02*
G03*
X1304000Y2530000I-29000J0D01*
G01*
X69000D02*
G03*
X69000Y2530000I-29000J0D01*
G01*
D31*
X1273476Y1270936D02*
X1276524D01*
X1273476Y1279064D02*
X1276524D01*
D32*
X75000Y75000D02*
Y2475000D01*
Y75000D02*
X2475000D01*
Y2475000D01*
X75000D02*
X2475000D01*
M02*
