G04 Layer_Physical_Order=2*
G04 Layer_Color=16711680*
%FSLAX44Y44*%
%MOMM*%
G71*
G01*
G75*
%ADD13C,3.0000*%
%ADD16C,2.0000*%
%ADD17C,0.2500*%
%ADD21C,3.5000*%
%ADD22C,2.0000*%
%ADD23C,1.0000*%
%ADD24R,1.5000X1.5000*%
%ADD25C,1.5000*%
%ADD26R,15.0000X3.0000*%
%ADD27C,0.6000*%
G04:AMPARAMS|DCode=28|XSize=1.27mm|YSize=1.27mm|CornerRadius=0.1588mm|HoleSize=0mm|Usage=FLASHONLY|Rotation=0.000|XOffset=0mm|YOffset=0mm|HoleType=Round|Shape=RoundedRectangle|*
%AMROUNDEDRECTD28*
21,1,1.2700,0.9525,0,0,0.0*
21,1,0.9525,1.2700,0,0,0.0*
1,1,0.3175,0.4763,-0.4763*
1,1,0.3175,-0.4763,-0.4763*
1,1,0.3175,-0.4763,0.4763*
1,1,0.3175,0.4763,0.4763*
%
%ADD28ROUNDEDRECTD28*%
G04:AMPARAMS|DCode=29|XSize=1.3mm|YSize=0.8mm|CornerRadius=0.1mm|HoleSize=0mm|Usage=FLASHONLY|Rotation=270.000|XOffset=0mm|YOffset=0mm|HoleType=Round|Shape=RoundedRectangle|*
%AMROUNDEDRECTD29*
21,1,1.3000,0.6000,0,0,270.0*
21,1,1.1000,0.8000,0,0,270.0*
1,1,0.2000,-0.3000,-0.5500*
1,1,0.2000,-0.3000,0.5500*
1,1,0.2000,0.3000,0.5500*
1,1,0.2000,0.3000,-0.5500*
%
%ADD29ROUNDEDRECTD29*%
%ADD30C,0.2000*%
G36*
X1140000Y2520001D02*
X800000D01*
X840000Y2560001D01*
X1030000D01*
X1060000Y2590001D01*
Y2590001D01*
X1140000D01*
Y2520001D01*
D02*
G37*
G36*
X1274687Y2417628D02*
Y2407620D01*
X1273417Y2407234D01*
X1273343Y2407344D01*
X1206860Y2473828D01*
X1207346Y2475001D01*
X1217314D01*
X1274687Y2417628D01*
D02*
G37*
G36*
X2475000Y75001D02*
X75000D01*
Y2475001D01*
X1196314D01*
X1267687Y2403628D01*
Y1289873D01*
X1257843Y1280030D01*
X1257500Y1280098D01*
X1255549Y1279710D01*
X1253895Y1278605D01*
X1252790Y1276951D01*
X1252402Y1275000D01*
X1252790Y1273049D01*
X1253895Y1271395D01*
X1255549Y1270290D01*
X1257500Y1269902D01*
X1259451Y1270290D01*
X1261105Y1271395D01*
X1262210Y1273049D01*
X1262598Y1275000D01*
X1262530Y1275343D01*
X1273343Y1286157D01*
X1274062Y1287232D01*
X1274066Y1287252D01*
X1275414Y1287521D01*
X1275657Y1287157D01*
X1287470Y1275343D01*
X1287402Y1275001D01*
X1287790Y1273050D01*
X1288896Y1271396D01*
X1290549Y1270291D01*
X1292500Y1269903D01*
X1294451Y1270291D01*
X1296105Y1271396D01*
X1297210Y1273050D01*
X1297598Y1275001D01*
X1297210Y1276952D01*
X1296105Y1278606D01*
X1294451Y1279711D01*
X1292500Y1280099D01*
X1292156Y1280030D01*
X1281314Y1290872D01*
Y2419001D01*
X1281062Y2420269D01*
X1280343Y2421344D01*
X1227860Y2473828D01*
X1228346Y2475001D01*
X2475000D01*
Y75001D01*
D02*
G37*
D13*
X1118650Y2538651D02*
X1125000Y2545001D01*
X1070050Y2575001D02*
X1125000D01*
X1040050Y2545001D02*
X1070050Y2575001D01*
X842401Y2538651D02*
X1118650D01*
X1571249Y2545001D02*
X1607500Y2508750D01*
X1425000Y2545001D02*
X1571249D01*
X1425000D02*
Y2575001D01*
X812500Y2508750D02*
X842401Y2538651D01*
D16*
X1216100Y2575001D02*
X1249600Y2608501D01*
X1185000Y2575001D02*
X1216100D01*
X1249600Y2608501D02*
X1332150D01*
Y2506901D02*
X1370250D01*
X1319450Y2494201D02*
X1332150Y2506901D01*
X1235800Y2494201D02*
X1319450D01*
X1185000Y2545001D02*
X1235800Y2494201D01*
X1425000Y2575001D02*
Y2636301D01*
X1414700Y2646601D02*
X1425000Y2636301D01*
X1370250Y2646601D02*
X1414700D01*
X1332150Y2608501D02*
X1370250Y2646601D01*
X1365000Y2545001D02*
Y2575001D01*
Y2524851D02*
Y2545001D01*
Y2524851D02*
X1382950Y2506901D01*
D17*
X1191500Y2505501D02*
X1278000Y2419001D01*
Y1289500D02*
Y2419001D01*
Y1289500D02*
X1292500Y1275000D01*
X1171000Y2505001D02*
X1271000Y2405001D01*
Y1288500D02*
Y2405001D01*
X1257500Y1275000D02*
X1271000Y1288500D01*
X1171000Y2505001D02*
Y2559001D01*
X1320000Y2567001D02*
X1355000Y2602001D01*
X1282000Y2567001D02*
X1320000D01*
X1265900Y2583101D02*
X1282000Y2567001D01*
X1395000Y2575001D02*
Y2578001D01*
X1371000Y2602001D02*
X1395000Y2578001D01*
X1355000Y2602001D02*
X1371000D01*
X1262300Y2583101D02*
X1265900D01*
X1155000Y2575001D02*
X1171000Y2559001D01*
X1238200D01*
X1262300Y2583101D01*
D21*
X65000Y2530000D02*
D03*
X1275000D02*
D03*
X65000Y40000D02*
D03*
X1275000Y40000D02*
D03*
X2485000Y40000D02*
D03*
Y2530001D02*
D03*
D22*
X1365000Y2575001D02*
D03*
X1395000D02*
D03*
X1425000D02*
D03*
X1365000Y2545001D02*
D03*
X1395000D02*
D03*
X1425000D02*
D03*
X1395000Y2618201D02*
D03*
X1125000Y2575001D02*
D03*
X1155000D02*
D03*
X1185000D02*
D03*
X1125000Y2545001D02*
D03*
X1155000D02*
D03*
X1185000D02*
D03*
X1155000Y2618201D02*
D03*
D23*
X905000Y2507500D02*
D03*
X1512500D02*
D03*
X1192000Y2506001D02*
D03*
D24*
X1262300Y2583101D02*
D03*
D25*
X1287700D02*
D03*
D26*
X1607500Y2508750D02*
D03*
X1417500D02*
D03*
X812500D02*
D03*
D27*
X1292500Y1275001D02*
D03*
X1257500Y1275000D02*
D03*
D28*
X1257525Y2654001D02*
D03*
X1238475D02*
D03*
Y2632001D02*
D03*
X1257525D02*
D03*
D29*
X1294000Y2643001D02*
D03*
X1314000D02*
D03*
D30*
Y2613001D02*
Y2643001D01*
X1257525D02*
Y2654001D01*
Y2632001D02*
Y2643001D01*
X1294000D01*
X1238475Y2632001D02*
Y2654001D01*
X1229000Y2632001D02*
X1238475D01*
X1189000Y2592001D02*
X1229000Y2632001D01*
X1142000Y2592001D02*
X1189000D01*
X1125000Y2575001D02*
X1142000Y2592001D01*
M02*
