G04 Layer_Color=65535*
%FSLAX44Y44*%
%MOMM*%
G71*
G01*
G75*
%ADD23C,1.0000*%
%ADD24C,0.3000*%
%ADD25C,0.1500*%
%ADD26C,0.2000*%
%ADD27C,0.5000*%
G36*
X1056050Y-418279D02*
X1057250Y-418346D01*
X1058649Y-418412D01*
X1060182Y-418479D01*
X1061849Y-418612D01*
X1063648Y-418812D01*
X1065581Y-419079D01*
X1067514Y-419345D01*
X1069580Y-419679D01*
X1071580Y-420079D01*
X1073646Y-420545D01*
X1075645Y-421078D01*
X1077578Y-421678D01*
X1077711Y-421745D01*
X1078045Y-421811D01*
X1078578Y-422011D01*
X1079244Y-422345D01*
X1080111Y-422678D01*
X1081177Y-423144D01*
X1082243Y-423611D01*
X1083510Y-424211D01*
X1084776Y-424944D01*
X1086176Y-425677D01*
X1087575Y-426544D01*
X1088975Y-427477D01*
X1090441Y-428476D01*
X1091841Y-429543D01*
X1093174Y-430742D01*
X1094507Y-432009D01*
X1094574Y-432076D01*
X1094773Y-432342D01*
X1095173Y-432742D01*
X1095640Y-433275D01*
X1096173Y-433942D01*
X1096840Y-434741D01*
X1097506Y-435675D01*
X1098306Y-436741D01*
X1099106Y-437941D01*
X1099972Y-439207D01*
X1100772Y-440607D01*
X1101638Y-442073D01*
X1102438Y-443672D01*
X1103238Y-445339D01*
X1103971Y-447072D01*
X1104638Y-448871D01*
X1104704Y-449005D01*
X1104771Y-449338D01*
X1104971Y-449871D01*
X1105171Y-450604D01*
X1105437Y-451537D01*
X1105704Y-452670D01*
X1106037Y-454003D01*
X1106371Y-455470D01*
X1106637Y-457069D01*
X1106970Y-458802D01*
X1107237Y-460735D01*
X1107504Y-462734D01*
X1107704Y-464867D01*
X1107904Y-467066D01*
X1107970Y-469399D01*
X1108037Y-471799D01*
Y-471865D01*
Y-471932D01*
Y-472132D01*
Y-472398D01*
Y-472732D01*
Y-473132D01*
X1107970Y-474065D01*
X1107904Y-475264D01*
X1107837Y-476597D01*
X1107770Y-478130D01*
X1107637Y-479797D01*
X1107437Y-481596D01*
X1107170Y-483529D01*
X1106904Y-485462D01*
X1106571Y-487461D01*
X1106171Y-489461D01*
X1105704Y-491460D01*
X1105171Y-493460D01*
X1104571Y-495393D01*
X1104504Y-495526D01*
X1104438Y-495859D01*
X1104238Y-496392D01*
X1103904Y-497059D01*
X1103571Y-497925D01*
X1103105Y-498925D01*
X1102571Y-500058D01*
X1101972Y-501258D01*
X1101305Y-502524D01*
X1100505Y-503857D01*
X1099639Y-505257D01*
X1098706Y-506656D01*
X1097706Y-508056D01*
X1096640Y-509389D01*
X1095440Y-510722D01*
X1094174Y-511988D01*
X1094107Y-512055D01*
X1093840Y-512255D01*
X1093507Y-512588D01*
X1092974Y-513055D01*
X1092308Y-513588D01*
X1091508Y-514254D01*
X1090575Y-514921D01*
X1089508Y-515721D01*
X1088308Y-516454D01*
X1087042Y-517320D01*
X1085642Y-518120D01*
X1084110Y-518920D01*
X1082510Y-519720D01*
X1080777Y-520519D01*
X1078978Y-521186D01*
X1077111Y-521852D01*
X1076978Y-521919D01*
X1076645Y-521986D01*
X1076045Y-522119D01*
X1075312Y-522386D01*
X1074312Y-522586D01*
X1073112Y-522852D01*
X1071779Y-523186D01*
X1070247Y-523452D01*
X1068580Y-523785D01*
X1066714Y-524052D01*
X1064781Y-524385D01*
X1062648Y-524585D01*
X1060449Y-524785D01*
X1058116Y-524985D01*
X1055717Y-525052D01*
X1053184Y-525118D01*
X1048919D01*
X1047719Y-525052D01*
X1045853D01*
X1045186Y-524985D01*
X1044320Y-524918D01*
X1043320Y-524852D01*
X1042187Y-524785D01*
X1040987Y-524718D01*
X1039788Y-524585D01*
X1039454D01*
X1039254Y-524519D01*
X1038588Y-524452D01*
X1037788Y-524385D01*
X1036855Y-524319D01*
X1035789Y-524252D01*
X1033656Y-524052D01*
X1033522D01*
X1033189Y-523985D01*
X1032589Y-523919D01*
X1031923Y-523852D01*
X1031057Y-523785D01*
X1030190Y-523652D01*
X1028324Y-523385D01*
Y-523319D01*
Y-523186D01*
Y-522985D01*
Y-522719D01*
Y-522319D01*
Y-521852D01*
Y-521386D01*
Y-520786D01*
Y-519453D01*
Y-517854D01*
Y-516121D01*
Y-514188D01*
Y-512122D01*
Y-509922D01*
Y-507656D01*
Y-505390D01*
Y-500725D01*
Y-498459D01*
Y-496259D01*
Y-496192D01*
Y-496126D01*
Y-495726D01*
Y-495126D01*
Y-494326D01*
Y-493260D01*
Y-492127D01*
Y-490794D01*
Y-489328D01*
Y-487794D01*
Y-486195D01*
Y-482796D01*
Y-479397D01*
Y-477664D01*
Y-476064D01*
Y-475998D01*
Y-475798D01*
Y-475398D01*
Y-474931D01*
Y-474331D01*
Y-473665D01*
Y-472932D01*
Y-472065D01*
Y-470266D01*
Y-468333D01*
Y-466267D01*
Y-464334D01*
Y-464267D01*
Y-464134D01*
Y-463867D01*
Y-463467D01*
Y-463068D01*
Y-462534D01*
Y-461335D01*
Y-459935D01*
Y-458469D01*
Y-457002D01*
Y-455536D01*
Y-455403D01*
Y-455136D01*
Y-454670D01*
Y-454070D01*
Y-453403D01*
Y-452670D01*
Y-451204D01*
Y-451137D01*
Y-450871D01*
Y-450537D01*
Y-450071D01*
Y-449538D01*
Y-449005D01*
Y-447805D01*
Y-447738D01*
Y-447538D01*
Y-447205D01*
Y-446872D01*
Y-445939D01*
Y-445005D01*
Y-444939D01*
Y-444805D01*
Y-444539D01*
Y-444272D01*
Y-443539D01*
Y-442739D01*
Y-442673D01*
Y-442606D01*
Y-442206D01*
Y-441606D01*
Y-440807D01*
Y-439940D01*
Y-439007D01*
Y-438074D01*
Y-437141D01*
Y-437007D01*
Y-436674D01*
Y-436141D01*
Y-435341D01*
Y-434342D01*
Y-433142D01*
Y-431742D01*
Y-430076D01*
Y-430009D01*
Y-429743D01*
Y-429343D01*
Y-428810D01*
Y-428143D01*
Y-427343D01*
Y-426544D01*
Y-425611D01*
Y-425477D01*
Y-425144D01*
Y-424677D01*
Y-423944D01*
Y-423078D01*
Y-422078D01*
Y-420945D01*
Y-419745D01*
X1029124D01*
X1029457Y-419679D01*
X1029990Y-419612D01*
X1030657Y-419545D01*
X1031523Y-419479D01*
X1032390Y-419412D01*
X1034322Y-419212D01*
X1034456D01*
X1034789Y-419145D01*
X1035322Y-419079D01*
X1035989Y-419012D01*
X1036855Y-418946D01*
X1037855Y-418879D01*
X1038988Y-418745D01*
X1040188Y-418679D01*
X1040521D01*
X1040787Y-418612D01*
X1041454D01*
X1042387Y-418546D01*
X1043387Y-418479D01*
X1044586Y-418412D01*
X1045853Y-418346D01*
X1047119Y-418279D01*
X1048319D01*
X1049185Y-418212D01*
X1055117D01*
X1056050Y-418279D01*
D02*
G37*
G36*
X640827Y-433699D02*
X647593Y-434666D01*
X654843Y-436115D01*
X662576Y-438532D01*
X670309Y-441432D01*
X677558Y-445298D01*
X678525Y-445782D01*
X680458Y-447715D01*
X683358Y-450132D01*
X686741Y-453515D01*
X689641Y-458348D01*
X692541Y-463181D01*
X694474Y-468981D01*
X695441Y-475264D01*
Y-476230D01*
X694958Y-478647D01*
X694474Y-482030D01*
X693024Y-486380D01*
X691091Y-491213D01*
X687708Y-496046D01*
X683358Y-501362D01*
X677075Y-505712D01*
X676108Y-506196D01*
X673692Y-507646D01*
X669825Y-509095D01*
X664026Y-511029D01*
X657259Y-513445D01*
X649526Y-514895D01*
X640343Y-516345D01*
X630194Y-516828D01*
X625361D01*
X620044Y-516345D01*
X613278Y-515379D01*
X605545Y-514412D01*
X597812Y-512479D01*
X589596Y-510062D01*
X582346Y-506679D01*
X581379Y-506196D01*
X579446Y-504746D01*
X576546Y-502329D01*
X573163Y-498946D01*
X569297Y-494596D01*
X566397Y-489280D01*
X564464Y-482997D01*
X563497Y-475747D01*
Y-474780D01*
X563980Y-472364D01*
X564464Y-468981D01*
X565913Y-464631D01*
X568330Y-459798D01*
X571713Y-454481D01*
X576546Y-449648D01*
X582829Y-444815D01*
X583796Y-444332D01*
X586213Y-442882D01*
X590562Y-440949D01*
X595879Y-439015D01*
X603128Y-437082D01*
X611345Y-435149D01*
X620528Y-433699D01*
X630677Y-433216D01*
X635510D01*
X640827Y-433699D01*
D02*
G37*
G36*
X2239137Y-701937D02*
X2269585D01*
Y-775400D01*
X2117342D01*
Y-759934D01*
X2116859D01*
X2115892Y-760901D01*
X2113959Y-761867D01*
X2111543Y-762834D01*
X2108159Y-764284D01*
X2104293Y-766217D01*
X2099943Y-768150D01*
X2095110Y-769600D01*
X2089794Y-771534D01*
X2083511Y-773467D01*
X2070461Y-776850D01*
X2055479Y-778783D01*
X2039529Y-779750D01*
X2034696D01*
X2031313Y-779267D01*
X2026963Y-778783D01*
X2021647Y-778300D01*
X2016330Y-777333D01*
X2010047Y-775883D01*
X1996031Y-772500D01*
X1988782Y-770084D01*
X1981532Y-767184D01*
X1973799Y-763801D01*
X1966549Y-759451D01*
X1958816Y-755101D01*
X1951567Y-749784D01*
X1951083Y-749301D01*
X1950117Y-748335D01*
X1948183Y-746401D01*
X1945767Y-743985D01*
X1942867Y-741085D01*
X1939484Y-737218D01*
X1936101Y-732869D01*
X1932717Y-727552D01*
X1929334Y-721752D01*
X1925951Y-715469D01*
X1922568Y-708220D01*
X1919668Y-700487D01*
X1917251Y-692271D01*
X1915318Y-683088D01*
X1914352Y-673421D01*
X1913868Y-663272D01*
Y-662788D01*
Y-660372D01*
X1914352Y-657472D01*
Y-653122D01*
X1914835Y-648289D01*
X1915802Y-642489D01*
X1916768Y-635723D01*
X1918218Y-628957D01*
X1920151Y-621707D01*
X1922568Y-613974D01*
X1924984Y-606241D01*
X1928368Y-598508D01*
X1932717Y-590775D01*
X1937067Y-583526D01*
X1942384Y-576276D01*
X1948667Y-569993D01*
X1949150Y-569509D01*
X1950117Y-568543D01*
X1952533Y-567093D01*
X1954950Y-564676D01*
X1958816Y-562260D01*
X1963166Y-559360D01*
X1967999Y-556460D01*
X1973799Y-553560D01*
X1980082Y-550660D01*
X1987332Y-547277D01*
X1995065Y-544861D01*
X2003764Y-542444D01*
X2012464Y-540027D01*
X2022130Y-538577D01*
X2032763Y-537611D01*
X2043396Y-537128D01*
X2047746D01*
X2050645Y-537611D01*
X2054512D01*
X2058862Y-538094D01*
X2063695Y-538577D01*
X2069011Y-539544D01*
X2080611Y-541961D01*
X2093177Y-545344D01*
X2105260Y-550177D01*
X2117342Y-556460D01*
Y-513929D01*
X2087860D01*
Y-439982D01*
X2239137D01*
Y-701937D01*
D02*
G37*
G36*
X875296Y-448938D02*
X875896Y-449005D01*
X877029D01*
X877696Y-449071D01*
X878029D01*
X878296Y-449138D01*
X878895D01*
X879562Y-449204D01*
X879695D01*
X880095Y-449271D01*
X880628Y-449338D01*
X881228Y-449471D01*
Y-449604D01*
Y-449938D01*
Y-450537D01*
Y-451270D01*
Y-452204D01*
Y-453337D01*
Y-454536D01*
Y-455869D01*
Y-457269D01*
Y-458802D01*
Y-461935D01*
Y-465134D01*
Y-468266D01*
Y-468333D01*
Y-468599D01*
Y-469066D01*
Y-469599D01*
Y-470266D01*
Y-471132D01*
Y-471999D01*
Y-472998D01*
Y-474065D01*
Y-475131D01*
Y-477464D01*
Y-479797D01*
Y-482063D01*
Y-482129D01*
Y-482263D01*
Y-482529D01*
Y-482863D01*
Y-483262D01*
Y-483729D01*
Y-484862D01*
Y-486128D01*
Y-487528D01*
Y-488928D01*
Y-490327D01*
Y-490394D01*
Y-490461D01*
Y-490661D01*
Y-490927D01*
Y-491527D01*
Y-492393D01*
Y-493326D01*
Y-494326D01*
Y-495393D01*
Y-496392D01*
Y-496459D01*
Y-496659D01*
Y-496992D01*
Y-497325D01*
Y-498325D01*
Y-499325D01*
Y-499392D01*
Y-499525D01*
Y-499791D01*
Y-500125D01*
Y-500924D01*
Y-501724D01*
Y-501791D01*
Y-501924D01*
Y-502124D01*
Y-502391D01*
Y-502991D01*
Y-503657D01*
Y-503724D01*
Y-503790D01*
Y-504124D01*
Y-504657D01*
Y-505257D01*
Y-505323D01*
Y-505590D01*
Y-506057D01*
Y-506523D01*
Y-507123D01*
Y-507789D01*
Y-509056D01*
Y-509122D01*
Y-509389D01*
Y-509722D01*
Y-510322D01*
Y-510989D01*
Y-511855D01*
Y-512855D01*
Y-513988D01*
Y-514054D01*
Y-514188D01*
Y-514521D01*
Y-514854D01*
Y-515321D01*
Y-515854D01*
Y-517054D01*
Y-517120D01*
Y-517387D01*
Y-517720D01*
Y-518253D01*
Y-518853D01*
Y-519520D01*
Y-520320D01*
Y-521119D01*
X881095D01*
X880762Y-521253D01*
X880295Y-521386D01*
X879629Y-521519D01*
X878762Y-521719D01*
X877829Y-521986D01*
X876829Y-522252D01*
X875763Y-522519D01*
X875630D01*
X875230Y-522652D01*
X874630Y-522786D01*
X873764Y-522919D01*
X872830Y-523119D01*
X871697Y-523385D01*
X870498Y-523585D01*
X869165Y-523852D01*
X869031D01*
X868831Y-523919D01*
X868565D01*
X867898Y-524052D01*
X866965Y-524185D01*
X865899Y-524385D01*
X864699Y-524519D01*
X863433Y-524718D01*
X862100Y-524852D01*
X861767D01*
X861500Y-524918D01*
X860767D01*
X859834Y-524985D01*
X858701Y-525052D01*
X857501D01*
X856168Y-525118D01*
X853502D01*
X852569Y-525052D01*
X851503D01*
X850369Y-524985D01*
X849103Y-524918D01*
X847837Y-524852D01*
X847703D01*
X847504Y-524785D01*
X847304D01*
X846637Y-524718D01*
X845837Y-524585D01*
X844837Y-524452D01*
X843705Y-524319D01*
X842571Y-524119D01*
X841372Y-523919D01*
X841238D01*
X840839Y-523785D01*
X840239Y-523652D01*
X839506Y-523452D01*
X838572Y-523186D01*
X837573Y-522852D01*
X835440Y-522052D01*
X835307Y-521986D01*
X834973Y-521852D01*
X834440Y-521519D01*
X833774Y-521186D01*
X832974Y-520719D01*
X832107Y-520186D01*
X831241Y-519586D01*
X830308Y-518920D01*
X830175Y-518853D01*
X829908Y-518587D01*
X829442Y-518187D01*
X828908Y-517654D01*
X828242Y-516987D01*
X827575Y-516187D01*
X826842Y-515321D01*
X826109Y-514388D01*
X826042Y-514254D01*
X825776Y-513921D01*
X825443Y-513388D01*
X824976Y-512655D01*
X824443Y-511788D01*
X823910Y-510789D01*
X823376Y-509589D01*
X822843Y-508389D01*
Y-508323D01*
X822776Y-508256D01*
X822710Y-508056D01*
X822643Y-507789D01*
X822377Y-507056D01*
X822110Y-506123D01*
X821777Y-504990D01*
X821443Y-503657D01*
X821110Y-502124D01*
X820844Y-500525D01*
Y-500458D01*
Y-500325D01*
X820777Y-500058D01*
X820710Y-499725D01*
X820644Y-499325D01*
Y-498858D01*
X820577Y-498259D01*
X820510Y-497592D01*
X820377Y-496126D01*
X820244Y-494459D01*
X820177Y-492593D01*
X820110Y-490527D01*
Y-490461D01*
Y-490261D01*
Y-489927D01*
Y-489461D01*
Y-488928D01*
Y-488328D01*
Y-487595D01*
Y-486861D01*
Y-485195D01*
Y-483329D01*
Y-481530D01*
Y-479730D01*
Y-479663D01*
Y-479530D01*
Y-479263D01*
Y-478997D01*
Y-478597D01*
Y-478130D01*
Y-477064D01*
Y-475798D01*
Y-474465D01*
Y-473132D01*
Y-471799D01*
Y-471665D01*
Y-471332D01*
Y-470866D01*
Y-470266D01*
Y-469533D01*
Y-468733D01*
Y-467133D01*
Y-467066D01*
Y-466800D01*
Y-466467D01*
Y-466000D01*
Y-465467D01*
Y-464867D01*
Y-463667D01*
Y-463601D01*
Y-463467D01*
Y-463201D01*
Y-462934D01*
Y-462134D01*
Y-461135D01*
Y-460135D01*
Y-459202D01*
Y-458402D01*
Y-458069D01*
Y-457802D01*
Y-457736D01*
Y-457602D01*
Y-457269D01*
Y-456869D01*
Y-456269D01*
Y-455536D01*
Y-454603D01*
Y-453537D01*
Y-453470D01*
Y-453403D01*
Y-453070D01*
Y-452470D01*
Y-451804D01*
Y-451737D01*
Y-451604D01*
Y-451404D01*
Y-451137D01*
Y-450404D01*
Y-449471D01*
X820311D01*
X820644Y-449404D01*
X821044Y-449338D01*
X821510D01*
X822110Y-449271D01*
X822843Y-449138D01*
X823710Y-449071D01*
X824109D01*
X824376Y-449005D01*
X825709D01*
X826109Y-448938D01*
X826642Y-448871D01*
X827709D01*
X828242Y-448938D01*
X828842Y-449005D01*
X830108D01*
X830841Y-449071D01*
X830974D01*
X831441Y-449138D01*
X832041D01*
X832707Y-449204D01*
X832841D01*
X833241Y-449271D01*
X833774Y-449338D01*
X834440Y-449471D01*
Y-449538D01*
Y-449738D01*
Y-450071D01*
Y-450471D01*
Y-451004D01*
Y-451604D01*
Y-452337D01*
Y-453070D01*
Y-454736D01*
Y-456536D01*
Y-458335D01*
Y-460135D01*
Y-460202D01*
Y-460335D01*
Y-460535D01*
Y-460868D01*
Y-461268D01*
Y-461735D01*
Y-462801D01*
Y-464001D01*
Y-465334D01*
Y-466667D01*
Y-468000D01*
Y-468133D01*
Y-468400D01*
Y-468933D01*
Y-469533D01*
Y-470199D01*
Y-470999D01*
Y-472532D01*
Y-472598D01*
Y-472865D01*
Y-473198D01*
Y-473665D01*
Y-474198D01*
Y-474798D01*
Y-475931D01*
Y-475998D01*
Y-476131D01*
Y-476397D01*
Y-476664D01*
Y-477464D01*
Y-478397D01*
Y-479397D01*
Y-480330D01*
Y-481130D01*
Y-481463D01*
Y-481729D01*
Y-481796D01*
Y-481929D01*
Y-482263D01*
Y-482663D01*
Y-483262D01*
Y-483929D01*
Y-484795D01*
Y-485862D01*
Y-485928D01*
Y-485995D01*
Y-486395D01*
Y-486928D01*
Y-487661D01*
Y-487728D01*
Y-487861D01*
Y-488061D01*
Y-488328D01*
Y-489061D01*
Y-489994D01*
Y-490061D01*
Y-490127D01*
Y-490327D01*
Y-490594D01*
Y-491194D01*
X834507Y-492060D01*
Y-493060D01*
X834574Y-494126D01*
X834707Y-496326D01*
Y-496459D01*
X834773Y-496792D01*
X834840Y-497325D01*
X834973Y-497992D01*
X835107Y-498792D01*
X835240Y-499658D01*
X835706Y-501391D01*
Y-501524D01*
X835840Y-501791D01*
X835973Y-502191D01*
X836106Y-502791D01*
X836373Y-503391D01*
X836640Y-504057D01*
X837306Y-505457D01*
X837373Y-505523D01*
X837506Y-505723D01*
X837706Y-506057D01*
X837973Y-506523D01*
X838706Y-507523D01*
X839572Y-508589D01*
X839639Y-508656D01*
X839839Y-508789D01*
X840105Y-509056D01*
X840439Y-509322D01*
X840839Y-509656D01*
X841372Y-509989D01*
X842438Y-510722D01*
X842505Y-510789D01*
X842705Y-510855D01*
X843038Y-511055D01*
X843504Y-511255D01*
X844038Y-511455D01*
X844638Y-511722D01*
X845971Y-512122D01*
X846037D01*
X846304Y-512188D01*
X846637Y-512322D01*
X847170Y-512388D01*
X847770Y-512522D01*
X848437Y-512655D01*
X849170Y-512788D01*
X849969Y-512921D01*
X850369D01*
X850769Y-512988D01*
X851369D01*
X852036Y-513055D01*
X852835D01*
X854568Y-513121D01*
X855901D01*
X856834Y-513055D01*
X857901D01*
X859034Y-512988D01*
X861367Y-512788D01*
X861500D01*
X861900Y-512721D01*
X862500Y-512588D01*
X863299Y-512455D01*
X864166Y-512322D01*
X865166Y-512122D01*
X867165Y-511588D01*
Y-511455D01*
Y-511189D01*
Y-510655D01*
Y-510056D01*
Y-509256D01*
Y-508256D01*
Y-507256D01*
Y-506057D01*
Y-504857D01*
Y-503524D01*
Y-500791D01*
Y-498059D01*
Y-495326D01*
Y-495259D01*
Y-494993D01*
Y-494659D01*
Y-494126D01*
Y-493526D01*
Y-492860D01*
Y-492060D01*
Y-491194D01*
Y-489261D01*
Y-487261D01*
Y-485195D01*
Y-483196D01*
Y-483129D01*
Y-482996D01*
Y-482796D01*
Y-482529D01*
Y-481729D01*
Y-480796D01*
Y-479663D01*
Y-478464D01*
Y-477264D01*
Y-476064D01*
Y-475998D01*
Y-475931D01*
Y-475531D01*
Y-474998D01*
Y-474265D01*
Y-473465D01*
Y-472598D01*
Y-471732D01*
Y-470866D01*
Y-470799D01*
Y-470599D01*
Y-470332D01*
Y-469999D01*
Y-469199D01*
Y-468333D01*
Y-468266D01*
Y-468133D01*
Y-467933D01*
Y-467666D01*
Y-467000D01*
Y-466267D01*
Y-466200D01*
Y-466133D01*
Y-465933D01*
Y-465667D01*
Y-465000D01*
Y-464201D01*
Y-463334D01*
Y-462468D01*
Y-461601D01*
Y-460935D01*
Y-460868D01*
Y-460602D01*
Y-460268D01*
Y-459668D01*
Y-459002D01*
Y-458069D01*
Y-456936D01*
Y-455669D01*
Y-455603D01*
Y-455470D01*
Y-455203D01*
Y-454870D01*
Y-454470D01*
Y-454003D01*
Y-453003D01*
Y-452937D01*
Y-452737D01*
Y-452404D01*
Y-452004D01*
Y-451470D01*
Y-450871D01*
Y-450204D01*
Y-449471D01*
X867298D01*
X867632Y-449404D01*
X868165Y-449271D01*
X868831Y-449204D01*
X868965D01*
X869365Y-449138D01*
X869964D01*
X870698Y-449071D01*
X870831D01*
X871297Y-449005D01*
X872630D01*
X873030Y-448938D01*
X873564Y-448871D01*
X874763D01*
X875296Y-448938D01*
D02*
G37*
G36*
X1013728Y-430542D02*
X1013928Y-430876D01*
X1014261Y-431409D01*
X1014727Y-432142D01*
Y-432209D01*
X1014594Y-432275D01*
X1014527Y-432475D01*
X1014327Y-432742D01*
X1014061Y-433142D01*
X1013794Y-433542D01*
X1013461Y-434075D01*
X1013061Y-434608D01*
X1012661Y-435275D01*
X1012128Y-436074D01*
X1011595Y-436874D01*
X1010995Y-437741D01*
X1010395Y-438740D01*
X1009662Y-439807D01*
X1008929Y-440940D01*
X1008129Y-442140D01*
X1007263Y-443406D01*
X1006396Y-444805D01*
X1005463Y-446205D01*
X1004463Y-447738D01*
X1003397Y-449338D01*
X1002264Y-451004D01*
X1001131Y-452803D01*
X999931Y-454603D01*
X998665Y-456536D01*
X997332Y-458535D01*
X995999Y-460602D01*
X994599Y-462734D01*
X993133Y-464934D01*
X991600Y-467200D01*
X990000Y-469599D01*
X988401Y-472065D01*
X988467D01*
X988601Y-471999D01*
X988934Y-471932D01*
X991800D01*
X992666Y-471999D01*
X993666Y-472065D01*
X994733Y-472198D01*
X996932Y-472532D01*
X997065D01*
X997465Y-472665D01*
X997998Y-472798D01*
X998732Y-472998D01*
X999531Y-473198D01*
X1000464Y-473531D01*
X1002397Y-474265D01*
X1002531Y-474331D01*
X1002797Y-474465D01*
X1003264Y-474731D01*
X1003864Y-475065D01*
X1004597Y-475464D01*
X1005330Y-475931D01*
X1006863Y-476997D01*
X1006929Y-477064D01*
X1007196Y-477264D01*
X1007596Y-477597D01*
X1008129Y-478064D01*
X1008662Y-478530D01*
X1009262Y-479130D01*
X1010528Y-480530D01*
X1010595Y-480596D01*
X1010795Y-480863D01*
X1011128Y-481196D01*
X1011461Y-481729D01*
X1011928Y-482263D01*
X1012395Y-482996D01*
X1012861Y-483729D01*
X1013328Y-484529D01*
X1013394Y-484595D01*
X1013528Y-484929D01*
X1013728Y-485328D01*
X1014061Y-485862D01*
X1014394Y-486528D01*
X1014727Y-487328D01*
X1015394Y-488994D01*
X1015461Y-489128D01*
X1015527Y-489394D01*
X1015660Y-489861D01*
X1015860Y-490461D01*
X1016060Y-491127D01*
X1016260Y-491927D01*
X1016593Y-493660D01*
Y-493726D01*
X1016660Y-494060D01*
X1016727Y-494526D01*
X1016794Y-495059D01*
X1016860Y-495793D01*
X1016927Y-496526D01*
X1016993Y-498259D01*
Y-498325D01*
Y-498459D01*
Y-498725D01*
Y-499058D01*
Y-499458D01*
X1016927Y-499925D01*
Y-501058D01*
X1016794Y-502391D01*
X1016660Y-503857D01*
X1016460Y-505323D01*
X1016194Y-506856D01*
Y-506923D01*
X1016127Y-507056D01*
Y-507256D01*
X1016060Y-507523D01*
X1015927Y-507856D01*
X1015860Y-508323D01*
X1015594Y-509256D01*
X1015194Y-510389D01*
X1014794Y-511655D01*
X1014327Y-512988D01*
X1013728Y-514254D01*
Y-514321D01*
X1013661Y-514388D01*
X1013594Y-514588D01*
X1013461Y-514788D01*
X1013061Y-515454D01*
X1012661Y-516254D01*
X1012061Y-517187D01*
X1011461Y-518253D01*
X1010728Y-519320D01*
X1009995Y-520386D01*
X1009929Y-520519D01*
X1009595Y-520853D01*
X1009129Y-521386D01*
X1008529Y-522052D01*
X1007796Y-522786D01*
X1006996Y-523585D01*
X1006063Y-524452D01*
X1005063Y-525318D01*
X1004930Y-525385D01*
X1004597Y-525718D01*
X1003997Y-526118D01*
X1003264Y-526651D01*
X1002330Y-527251D01*
X1001331Y-527918D01*
X1000198Y-528584D01*
X999065Y-529184D01*
X998998D01*
X998931Y-529251D01*
X998732Y-529317D01*
X998531Y-529450D01*
X997865Y-529717D01*
X996999Y-530117D01*
X995932Y-530517D01*
X994733Y-530984D01*
X993466Y-531450D01*
X992133Y-531850D01*
X992066D01*
X992000Y-531917D01*
X991800D01*
X991533Y-531983D01*
X990800Y-532183D01*
X989800Y-532450D01*
X988667Y-532650D01*
X987401Y-532916D01*
X986001Y-533183D01*
X984535Y-533450D01*
X984335D01*
X984135Y-533516D01*
X983869D01*
X983469Y-533583D01*
X983069D01*
X982069Y-533649D01*
X980869Y-533783D01*
X979470Y-533849D01*
X978003Y-533916D01*
X975137D01*
X974271Y-533849D01*
X973205D01*
X972005Y-533783D01*
X970739Y-533716D01*
X969472Y-533649D01*
X969339D01*
X969139Y-533583D01*
X968872D01*
X968206Y-533516D01*
X967406Y-533383D01*
X966406Y-533316D01*
X965273Y-533116D01*
X962941Y-532783D01*
X962807D01*
X962407Y-532650D01*
X961741Y-532516D01*
X960941Y-532383D01*
X959941Y-532183D01*
X958875Y-531917D01*
X956609Y-531317D01*
X956542D01*
X956476Y-531250D01*
X956076Y-531117D01*
X955409Y-530984D01*
X954609Y-530717D01*
X953676Y-530384D01*
X952610Y-530050D01*
X950344Y-529184D01*
Y-529117D01*
X950411Y-528917D01*
Y-528584D01*
X950477Y-528184D01*
X950610Y-527718D01*
X950677Y-527184D01*
X950944Y-526051D01*
Y-525985D01*
X951010Y-525785D01*
X951144Y-525452D01*
X951277Y-525052D01*
X951410Y-524585D01*
X951610Y-524052D01*
X952010Y-522985D01*
Y-522919D01*
X952143Y-522719D01*
X952210Y-522452D01*
X952410Y-522052D01*
X952610Y-521586D01*
X952810Y-521053D01*
X953276Y-519986D01*
X953343Y-519920D01*
X953410Y-519720D01*
X953543Y-519453D01*
X953743Y-519053D01*
X953943Y-518653D01*
X954210Y-518120D01*
X954809Y-517054D01*
X954943Y-517120D01*
X955209Y-517187D01*
X955676Y-517387D01*
X956276Y-517587D01*
X957009Y-517854D01*
X957809Y-518120D01*
X959541Y-518720D01*
X959675D01*
X959941Y-518853D01*
X960408Y-518987D01*
X961074Y-519187D01*
X961808Y-519386D01*
X962607Y-519586D01*
X964474Y-520120D01*
X964607D01*
X964940Y-520186D01*
X965407Y-520320D01*
X966073Y-520453D01*
X966940Y-520586D01*
X967806Y-520719D01*
X968806Y-520853D01*
X969872Y-520986D01*
X970005D01*
X970405Y-521053D01*
X970939D01*
X971738Y-521119D01*
X972672Y-521186D01*
X973671D01*
X974804Y-521253D01*
X977004D01*
X977737Y-521186D01*
X978537D01*
X979470Y-521119D01*
X981336Y-520986D01*
X981469D01*
X981803Y-520919D01*
X982269Y-520853D01*
X982935Y-520719D01*
X983669Y-520653D01*
X984535Y-520453D01*
X986335Y-520120D01*
X986468D01*
X986734Y-519986D01*
X987201Y-519853D01*
X987801Y-519653D01*
X988534Y-519453D01*
X989267Y-519187D01*
X990800Y-518587D01*
X990867Y-518520D01*
X991133Y-518387D01*
X991600Y-518187D01*
X992066Y-517920D01*
X992666Y-517654D01*
X993333Y-517254D01*
X994666Y-516321D01*
X994733Y-516254D01*
X994999Y-516121D01*
X995332Y-515854D01*
X995732Y-515454D01*
X996265Y-515054D01*
X996799Y-514521D01*
X997865Y-513321D01*
X997932Y-513255D01*
X998132Y-513055D01*
X998398Y-512655D01*
X998732Y-512255D01*
X999065Y-511655D01*
X999531Y-511055D01*
X999931Y-510322D01*
X1000331Y-509589D01*
X1000398Y-509522D01*
X1000531Y-509256D01*
X1000664Y-508856D01*
X1000931Y-508256D01*
X1001198Y-507589D01*
X1001397Y-506856D01*
X1001664Y-505990D01*
X1001864Y-505123D01*
Y-504990D01*
X1001931Y-504657D01*
X1002064Y-504190D01*
X1002197Y-503457D01*
X1002264Y-502657D01*
X1002397Y-501724D01*
X1002464Y-500658D01*
Y-499591D01*
Y-499525D01*
Y-499392D01*
Y-499125D01*
Y-498858D01*
X1002397Y-498459D01*
Y-497992D01*
X1002264Y-496926D01*
X1002064Y-495726D01*
X1001797Y-494393D01*
X1001464Y-493060D01*
X1000931Y-491794D01*
Y-491727D01*
X1000864Y-491660D01*
X1000664Y-491260D01*
X1000331Y-490594D01*
X999865Y-489861D01*
X999198Y-488994D01*
X998465Y-488061D01*
X997598Y-487195D01*
X996532Y-486328D01*
X996399Y-486262D01*
X995999Y-485995D01*
X995332Y-485595D01*
X994532Y-485129D01*
X993533Y-484595D01*
X992333Y-484062D01*
X991067Y-483529D01*
X989667Y-483062D01*
X989601D01*
X989467Y-482996D01*
X989267Y-482929D01*
X989001Y-482863D01*
X988601Y-482796D01*
X988201Y-482729D01*
X987134Y-482529D01*
X985868Y-482329D01*
X984402Y-482129D01*
X982802Y-482063D01*
X981069Y-481996D01*
X979203D01*
X978137Y-482063D01*
X977604D01*
X977204Y-482129D01*
X976337D01*
X975271Y-482196D01*
X975004D01*
X974738Y-482263D01*
X974338D01*
X973871Y-482329D01*
X973405Y-482396D01*
X972272Y-482596D01*
X972205D01*
X972005Y-482663D01*
X971738D01*
X971339Y-482729D01*
X970472Y-482929D01*
X969406Y-483129D01*
X969339Y-483062D01*
X969272Y-482929D01*
X969139Y-482663D01*
X968939Y-482396D01*
X968806Y-482129D01*
X968672Y-481929D01*
X968539Y-481796D01*
Y-481729D01*
Y-481663D01*
X968406Y-481530D01*
X968206Y-481196D01*
Y-481130D01*
X968273Y-481063D01*
X968406Y-480863D01*
X968606Y-480596D01*
X968806Y-480263D01*
X969072Y-479863D01*
X969339Y-479397D01*
X969739Y-478797D01*
X970139Y-478197D01*
X970539Y-477464D01*
X971072Y-476731D01*
X971605Y-475864D01*
X972205Y-474931D01*
X972805Y-473931D01*
X973538Y-472865D01*
X974271Y-471732D01*
X975004Y-470466D01*
X975871Y-469199D01*
X976737Y-467800D01*
X977604Y-466400D01*
X978603Y-464867D01*
X979603Y-463268D01*
X980669Y-461601D01*
X981736Y-459868D01*
X982935Y-458069D01*
X984135Y-456136D01*
X985335Y-454203D01*
X986668Y-452137D01*
X988001Y-450071D01*
X989334Y-447871D01*
X990800Y-445605D01*
X992266Y-443273D01*
X955276D01*
Y-443206D01*
X955209Y-443006D01*
X955143Y-442739D01*
X955076Y-442340D01*
X955009Y-441940D01*
X954943Y-441406D01*
X954809Y-440340D01*
Y-440273D01*
Y-440073D01*
X954743Y-439740D01*
Y-439340D01*
Y-438807D01*
X954676Y-438274D01*
Y-437074D01*
Y-437007D01*
Y-436941D01*
Y-436541D01*
Y-436074D01*
Y-435475D01*
Y-435408D01*
Y-435341D01*
X954743Y-434941D01*
Y-434408D01*
X954809Y-433742D01*
Y-433675D01*
Y-433608D01*
X954876Y-433209D01*
Y-432675D01*
X954943Y-432076D01*
Y-432009D01*
X955009Y-431942D01*
X955076Y-431542D01*
X955143Y-431009D01*
X955276Y-430476D01*
X1013661D01*
X1013728Y-430542D01*
D02*
G37*
G36*
X774256Y-419279D02*
X775589D01*
X776388Y-419345D01*
X776788D01*
X777122Y-419412D01*
X777788D01*
X778588Y-419479D01*
X778721D01*
X778921Y-419545D01*
X779188D01*
X779854Y-419612D01*
X780587Y-419745D01*
Y-419812D01*
X780654Y-419945D01*
X780721Y-420145D01*
X780787Y-420412D01*
X780921Y-420812D01*
X781054Y-421278D01*
X781254Y-421745D01*
X781454Y-422345D01*
X781854Y-423744D01*
X782387Y-425277D01*
X782920Y-427077D01*
X783587Y-429010D01*
X784253Y-431076D01*
X784920Y-433209D01*
X785653Y-435475D01*
X786386Y-437807D01*
X787919Y-442406D01*
X788652Y-444739D01*
X789385Y-446938D01*
X789452Y-447072D01*
X789585Y-447472D01*
X789718Y-448071D01*
X789985Y-448871D01*
X790318Y-449871D01*
X790718Y-451071D01*
X791118Y-452337D01*
X791584Y-453803D01*
X792118Y-455336D01*
X792651Y-456936D01*
X793717Y-460335D01*
X794850Y-463734D01*
X795384Y-465400D01*
X795917Y-467066D01*
Y-467133D01*
X795983Y-467333D01*
X796117Y-467733D01*
X796317Y-468200D01*
X796450Y-468799D01*
X796717Y-469466D01*
X796983Y-470199D01*
X797250Y-471065D01*
X797850Y-472932D01*
X798449Y-474865D01*
X799116Y-476931D01*
X799782Y-478863D01*
Y-478930D01*
X799849Y-479063D01*
X799916Y-479330D01*
X800049Y-479730D01*
X800182Y-480130D01*
X800382Y-480663D01*
X800715Y-481863D01*
X801182Y-483262D01*
X801649Y-484729D01*
X802115Y-486195D01*
X802582Y-487661D01*
X802648Y-487794D01*
X802715Y-488061D01*
X802848Y-488528D01*
X803048Y-489061D01*
X803248Y-489727D01*
X803515Y-490461D01*
X803981Y-491927D01*
Y-491993D01*
X804115Y-492260D01*
X804248Y-492593D01*
X804381Y-493060D01*
X804581Y-493593D01*
X804715Y-494193D01*
X805114Y-495393D01*
Y-495459D01*
X805181Y-495659D01*
X805314Y-495926D01*
X805381Y-496326D01*
X805714Y-497192D01*
X806048Y-498192D01*
Y-498259D01*
X806114Y-498392D01*
X806181Y-498658D01*
X806314Y-498925D01*
X806514Y-499658D01*
X806714Y-500458D01*
Y-500525D01*
X806781Y-500591D01*
X806914Y-500991D01*
X807114Y-501591D01*
X807381Y-502324D01*
X807647Y-503257D01*
X807980Y-504190D01*
X808247Y-505123D01*
X808580Y-506057D01*
X808647Y-506190D01*
X808713Y-506523D01*
X808913Y-507056D01*
X809180Y-507789D01*
X809447Y-508789D01*
X809846Y-509989D01*
X810380Y-511389D01*
X810913Y-513055D01*
Y-513121D01*
X811046Y-513388D01*
X811180Y-513788D01*
X811313Y-514388D01*
X811513Y-515054D01*
X811779Y-515787D01*
X812046Y-516654D01*
X812312Y-517587D01*
X812379Y-517720D01*
X812446Y-518053D01*
X812646Y-518587D01*
X812846Y-519253D01*
X813112Y-520120D01*
X813446Y-521119D01*
X813779Y-522186D01*
X814179Y-523385D01*
X814045D01*
X813645Y-523519D01*
X813112Y-523585D01*
X812379Y-523719D01*
X811979D01*
X811779Y-523785D01*
X811113D01*
X810313Y-523852D01*
X809647D01*
X808913Y-523919D01*
X807580D01*
X806914Y-523985D01*
X804914D01*
X804248Y-523919D01*
X802982D01*
X802315Y-523852D01*
X801982D01*
X801715Y-523785D01*
X801049D01*
X800382Y-523719D01*
X800249D01*
X799849Y-523652D01*
X799249Y-523519D01*
X798649Y-523385D01*
Y-523319D01*
X798583Y-523252D01*
X798516Y-523052D01*
X798449Y-522786D01*
X798250Y-522119D01*
X797983Y-521253D01*
X797716Y-520320D01*
X797383Y-519253D01*
X797050Y-518187D01*
X796717Y-517120D01*
Y-516987D01*
X796583Y-516654D01*
X796450Y-516187D01*
X796250Y-515521D01*
X796050Y-514854D01*
X795850Y-514054D01*
X795583Y-513255D01*
X795317Y-512522D01*
Y-512455D01*
X795250Y-512255D01*
X795184Y-511922D01*
X795050Y-511522D01*
X794784Y-510655D01*
X794450Y-509789D01*
Y-509722D01*
X794384Y-509589D01*
X794317Y-509389D01*
X794250Y-509056D01*
X794117Y-508389D01*
X793917Y-507723D01*
Y-507656D01*
X793851Y-507589D01*
X793784Y-507190D01*
X793584Y-506590D01*
X793384Y-505923D01*
X793184Y-505257D01*
X792984Y-504590D01*
X792784Y-504124D01*
Y-503924D01*
X792718Y-503790D01*
X792651Y-503657D01*
X792584Y-503391D01*
X792518Y-503057D01*
X792318Y-502524D01*
X792118Y-501724D01*
X791984Y-501258D01*
X791784Y-500725D01*
X791584Y-500125D01*
X791385Y-499458D01*
X751995D01*
Y-499525D01*
X751861Y-499858D01*
X751728Y-500325D01*
X751528Y-500924D01*
X751328Y-501791D01*
X750995Y-502857D01*
X750662Y-504057D01*
X750262Y-505457D01*
X749795Y-507056D01*
X749262Y-508789D01*
X748662Y-510789D01*
X748062Y-512921D01*
X747396Y-515254D01*
X746663Y-517787D01*
X745863Y-520519D01*
X744996Y-523385D01*
X744863D01*
X744663Y-523452D01*
X744397Y-523519D01*
X743797Y-523585D01*
X743064Y-523719D01*
X742930D01*
X742464Y-523785D01*
X741930D01*
X741264Y-523852D01*
X740664D01*
X740064Y-523919D01*
X738731D01*
X738131Y-523985D01*
X736199D01*
X735465Y-523919D01*
X734199D01*
X733466Y-523852D01*
X733333D01*
X732866Y-523785D01*
X732333D01*
X731666Y-523719D01*
X731533D01*
X731133Y-523652D01*
X730600Y-523519D01*
X730000Y-523385D01*
Y-523319D01*
X730067Y-523186D01*
X730134Y-522985D01*
X730200Y-522719D01*
X730333Y-522319D01*
X730467Y-521852D01*
X730667Y-521386D01*
X730867Y-520786D01*
X731267Y-519453D01*
X731800Y-517854D01*
X732400Y-516121D01*
X732999Y-514188D01*
X733666Y-512122D01*
X734399Y-509922D01*
X735132Y-507656D01*
X735865Y-505390D01*
X737398Y-500725D01*
X738131Y-498459D01*
X738865Y-496259D01*
Y-496192D01*
X738931Y-496126D01*
X739065Y-495726D01*
X739198Y-495126D01*
X739464Y-494326D01*
X739798Y-493260D01*
X740198Y-492127D01*
X740598Y-490794D01*
X741064Y-489328D01*
X741597Y-487794D01*
X742131Y-486195D01*
X743197Y-482796D01*
X744330Y-479397D01*
X744863Y-477664D01*
X745396Y-476064D01*
Y-475998D01*
X745463Y-475798D01*
X745596Y-475398D01*
X745796Y-474931D01*
X745929Y-474331D01*
X746196Y-473665D01*
X746396Y-472932D01*
X746729Y-472065D01*
X747262Y-470266D01*
X747929Y-468333D01*
X748596Y-466267D01*
X749195Y-464334D01*
Y-464267D01*
X749262Y-464134D01*
X749329Y-463867D01*
X749462Y-463467D01*
X749595Y-463068D01*
X749795Y-462534D01*
X750195Y-461335D01*
X750662Y-459935D01*
X751128Y-458469D01*
X751595Y-457002D01*
X752061Y-455536D01*
X752128Y-455403D01*
X752195Y-455136D01*
X752328Y-454670D01*
X752528Y-454070D01*
X752728Y-453403D01*
X752994Y-452670D01*
X753461Y-451204D01*
Y-451137D01*
X753594Y-450871D01*
X753727Y-450537D01*
X753861Y-450071D01*
X754061Y-449538D01*
X754194Y-449005D01*
X754594Y-447805D01*
Y-447738D01*
X754661Y-447538D01*
X754794Y-447205D01*
X754927Y-446872D01*
X755194Y-445939D01*
X755527Y-444939D01*
Y-444872D01*
X755594Y-444739D01*
X755660Y-444472D01*
X755727Y-444206D01*
X755994Y-443473D01*
X756260Y-442739D01*
Y-442673D01*
X756327Y-442606D01*
X756460Y-442206D01*
X756593Y-441606D01*
X756860Y-440807D01*
X757127Y-439940D01*
X757460Y-439007D01*
X757727Y-438074D01*
X758060Y-437141D01*
X758126Y-437007D01*
X758193Y-436674D01*
X758393Y-436141D01*
X758660Y-435341D01*
X758993Y-434342D01*
X759393Y-433142D01*
X759859Y-431742D01*
X760393Y-430076D01*
Y-430009D01*
X760526Y-429743D01*
X760659Y-429343D01*
X760792Y-428810D01*
X760992Y-428143D01*
X761259Y-427343D01*
X761525Y-426544D01*
X761792Y-425611D01*
X761859Y-425477D01*
X761925Y-425144D01*
X762125Y-424611D01*
X762392Y-423944D01*
X762659Y-423078D01*
X762992Y-422078D01*
X763325Y-420945D01*
X763725Y-419745D01*
X763858D01*
X764325Y-419679D01*
X764925Y-419545D01*
X765658Y-419479D01*
X766058D01*
X766324Y-419412D01*
X766991D01*
X767791Y-419345D01*
X768191D01*
X768457Y-419279D01*
X770390D01*
X770723Y-419212D01*
X773522D01*
X774256Y-419279D01*
D02*
G37*
G36*
X1371110Y-440465D02*
X1377393D01*
X1384643Y-440949D01*
X1399625Y-441915D01*
X1415091Y-442882D01*
X1430074Y-444815D01*
X1436840Y-445782D01*
X1443607Y-447232D01*
X1444090D01*
X1445056Y-447715D01*
X1446506Y-448198D01*
X1448923Y-448682D01*
X1451823Y-449648D01*
X1454723Y-450615D01*
X1461972Y-453515D01*
X1470189Y-457381D01*
X1478888Y-462698D01*
X1487104Y-468497D01*
X1494837Y-476230D01*
X1495804Y-477197D01*
X1497737Y-480097D01*
X1500637Y-484447D01*
X1504020Y-490730D01*
X1507404Y-497979D01*
X1510303Y-506679D01*
X1512237Y-516345D01*
X1513203Y-526978D01*
Y-527461D01*
Y-528428D01*
Y-529878D01*
X1512720Y-531811D01*
X1512237Y-536644D01*
X1511270Y-543411D01*
X1508853Y-550660D01*
X1505954Y-558393D01*
X1501604Y-565643D01*
X1495804Y-572409D01*
X1494837Y-573376D01*
X1492421Y-575309D01*
X1488555Y-578209D01*
X1483238Y-582076D01*
X1476955Y-585942D01*
X1469705Y-589809D01*
X1461006Y-593675D01*
X1451823Y-596575D01*
X1452306D01*
X1453273Y-597058D01*
X1455206Y-597542D01*
X1457623Y-598508D01*
X1460522Y-599475D01*
X1463906Y-600925D01*
X1472122Y-604791D01*
X1480822Y-609141D01*
X1490004Y-614941D01*
X1498704Y-621707D01*
X1506437Y-629440D01*
Y-629923D01*
X1507404Y-630407D01*
X1509337Y-633307D01*
X1512720Y-638140D01*
X1516103Y-644423D01*
X1519486Y-651672D01*
X1522870Y-660372D01*
X1524803Y-670038D01*
X1525769Y-680188D01*
Y-680671D01*
Y-681638D01*
Y-683571D01*
X1525286Y-685987D01*
Y-688887D01*
X1524803Y-692271D01*
X1522870Y-700004D01*
X1520453Y-709186D01*
X1516586Y-718853D01*
X1511270Y-728519D01*
X1507887Y-733352D01*
X1504020Y-737702D01*
Y-738185D01*
X1503054Y-738668D01*
X1501604Y-739635D01*
X1500154Y-741568D01*
X1495321Y-745435D01*
X1488555Y-750268D01*
X1479855Y-755101D01*
X1469705Y-760417D01*
X1457623Y-764767D01*
X1444090Y-768150D01*
X1443607D01*
X1442157Y-768634D01*
X1440223D01*
X1437323Y-769117D01*
X1433457Y-769600D01*
X1428624Y-770567D01*
X1422824Y-771050D01*
X1416541Y-771534D01*
X1409291Y-772500D01*
X1401075Y-772983D01*
X1391892Y-773467D01*
X1382226Y-774433D01*
X1371593Y-774917D01*
X1360477D01*
X1347911Y-775400D01*
X1145404D01*
Y-695654D01*
X1174402D01*
Y-520695D01*
X1145404D01*
Y-439982D01*
X1365310D01*
X1371110Y-440465D01*
D02*
G37*
G36*
X890215Y-537611D02*
X894082D01*
X898431Y-538094D01*
X903748Y-538577D01*
X909064Y-539544D01*
X921147Y-541961D01*
X934196Y-545344D01*
X947246Y-550177D01*
X959812Y-556460D01*
Y-541477D01*
X1110122D01*
Y-615424D01*
X1080640D01*
Y-743502D01*
Y-743985D01*
Y-745435D01*
Y-747368D01*
Y-750268D01*
Y-754134D01*
X1080156Y-758001D01*
X1079673Y-767667D01*
X1078707Y-778300D01*
X1077257Y-788933D01*
X1075323Y-799566D01*
X1072907Y-809232D01*
Y-809715D01*
X1072423Y-810198D01*
X1071457Y-813098D01*
X1069524Y-817448D01*
X1066624Y-822765D01*
X1062757Y-829047D01*
X1057441Y-835814D01*
X1051641Y-842580D01*
X1044391Y-848863D01*
X1043425Y-849830D01*
X1040525Y-851763D01*
X1036175Y-854663D01*
X1030376Y-858530D01*
X1023126Y-862396D01*
X1014426Y-866746D01*
X1004277Y-870129D01*
X993160Y-873512D01*
X992677D01*
X991711Y-873996D01*
X989777Y-874479D01*
X987361Y-874962D01*
X984461Y-875445D01*
X980594Y-875929D01*
X976245Y-876895D01*
X971412Y-877379D01*
X966095Y-878345D01*
X959812Y-879312D01*
X953046Y-879795D01*
X945796Y-880278D01*
X938063Y-880762D01*
X929847Y-881245D01*
X921147Y-881729D01*
X898431D01*
X892149Y-881245D01*
X885382D01*
X871366Y-880278D01*
X870399D01*
X868466Y-879795D01*
X864600D01*
X859767Y-879312D01*
X853484Y-878345D01*
X846717Y-877379D01*
X838984Y-876412D01*
X830768Y-875445D01*
X830285D01*
X828835Y-874962D01*
X826901D01*
X824485Y-874479D01*
X821102Y-873512D01*
X817235Y-873029D01*
X809019Y-871579D01*
X799836Y-869162D01*
X790170Y-867229D01*
X781470Y-864329D01*
X777120Y-863363D01*
X773737Y-861913D01*
X807086Y-802465D01*
X807569D01*
X808536Y-802949D01*
X809986Y-803432D01*
X812402Y-804399D01*
X815302Y-805365D01*
X818685Y-806332D01*
X822552Y-807299D01*
X827385Y-808265D01*
X832218Y-809715D01*
X838018Y-810682D01*
X844301Y-811648D01*
X851067Y-812615D01*
X858317Y-813582D01*
X866050Y-814065D01*
X882965Y-814548D01*
X888282D01*
X894082Y-814065D01*
X900848Y-813582D01*
X908581Y-812132D01*
X916797Y-810682D01*
X925014Y-808265D01*
X932263Y-805365D01*
X933230Y-804882D01*
X935163Y-803915D01*
X938063Y-801982D01*
X941446Y-799566D01*
X945313Y-796666D01*
X949179Y-793282D01*
X952562Y-789416D01*
X954979Y-785066D01*
Y-784583D01*
X955946Y-783133D01*
X956429Y-780233D01*
X957395Y-776367D01*
X958362Y-772017D01*
X958845Y-766217D01*
X959812Y-759451D01*
Y-751718D01*
X959329D01*
X958362Y-752684D01*
X955946Y-753168D01*
X953529Y-754618D01*
X950146Y-756068D01*
X945796Y-757517D01*
X941446Y-758967D01*
X936130Y-760901D01*
X930330Y-762834D01*
X924047Y-764284D01*
X910514Y-767184D01*
X895048Y-769117D01*
X878616Y-770084D01*
X873299D01*
X869916Y-769600D01*
X865083Y-769117D01*
X860250Y-768634D01*
X854450Y-767667D01*
X847684Y-766217D01*
X833668Y-762834D01*
X826418Y-760417D01*
X819168Y-757517D01*
X811435Y-754134D01*
X804186Y-749784D01*
X796936Y-745435D01*
X790170Y-740118D01*
X789687Y-739635D01*
X788720Y-738668D01*
X786787Y-737218D01*
X784370Y-734802D01*
X781954Y-731419D01*
X778570Y-728036D01*
X775670Y-723686D01*
X772287Y-718853D01*
X768904Y-713053D01*
X765521Y-707253D01*
X762138Y-700487D01*
X759721Y-693237D01*
X757305Y-685021D01*
X755371Y-676805D01*
X754405Y-667622D01*
X753922Y-657955D01*
Y-657472D01*
Y-655539D01*
X754405Y-652639D01*
Y-648773D01*
X754888Y-643939D01*
X755855Y-638623D01*
X757305Y-632823D01*
X758755Y-626057D01*
X760688Y-619291D01*
X763104Y-612041D01*
X766004Y-604791D01*
X769871Y-597542D01*
X774221Y-590292D01*
X779054Y-583042D01*
X784853Y-576276D01*
X791620Y-569993D01*
X792103Y-569509D01*
X793553Y-568543D01*
X795486Y-567093D01*
X798386Y-564676D01*
X802253Y-562260D01*
X806602Y-559360D01*
X811435Y-556460D01*
X817235Y-553560D01*
X823518Y-550660D01*
X830285Y-547277D01*
X838018Y-544861D01*
X846234Y-542444D01*
X854450Y-540027D01*
X863633Y-538577D01*
X873299Y-537611D01*
X882965Y-537128D01*
X887315D01*
X890215Y-537611D01*
D02*
G37*
G36*
X2310331Y-2221340D02*
Y-2222007D01*
X2314331Y-2241673D01*
Y-2242006D01*
X2314664Y-2242340D01*
X2315331Y-2242673D01*
X2328331Y-2248340D01*
X2329664D01*
X2346330Y-2236340D01*
X2346997D01*
X2347664Y-2237006D01*
X2361996Y-2250673D01*
Y-2251006D01*
Y-2251339D01*
Y-2251673D01*
Y-2252006D01*
X2350663Y-2268672D01*
Y-2269339D01*
Y-2269672D01*
Y-2270005D01*
X2356663Y-2283672D01*
Y-2284005D01*
X2356997Y-2284339D01*
X2357663Y-2284672D01*
X2376663Y-2288005D01*
X2377329D01*
X2377663Y-2288338D01*
Y-2289005D01*
Y-2308671D01*
Y-2309005D01*
X2377329Y-2309338D01*
X2376663Y-2309671D01*
X2358330Y-2313671D01*
X2357997D01*
X2357663Y-2314004D01*
X2357330Y-2314338D01*
X2350997Y-2329004D01*
Y-2329337D01*
Y-2330004D01*
Y-2330337D01*
X2361996Y-2346004D01*
Y-2346670D01*
Y-2347003D01*
X2347664Y-2361003D01*
X2347330Y-2361336D01*
X2346997D01*
X2346330Y-2361003D01*
X2331331Y-2350670D01*
X2329664D01*
X2323331Y-2354670D01*
X2322997D01*
X2322664Y-2354337D01*
X2322331Y-2354003D01*
X2307998Y-2320671D01*
Y-2320338D01*
Y-2320004D01*
X2308665Y-2319004D01*
X2310331Y-2318338D01*
X2310665Y-2318004D01*
X2310998Y-2317671D01*
X2311331Y-2317338D01*
X2311664Y-2317004D01*
X2312998Y-2316338D01*
X2314664Y-2314671D01*
X2316331Y-2312671D01*
X2318331Y-2310338D01*
X2319664Y-2307338D01*
X2320997Y-2303671D01*
X2321331Y-2299338D01*
Y-2299005D01*
Y-2297672D01*
X2320997Y-2296005D01*
X2320664Y-2294005D01*
X2319664Y-2291338D01*
X2318664Y-2288672D01*
X2316998Y-2286005D01*
X2314998Y-2283672D01*
X2314664Y-2283338D01*
X2313998Y-2282672D01*
X2312664Y-2281672D01*
X2310998Y-2280339D01*
X2308665Y-2279005D01*
X2305998Y-2278005D01*
X2302998Y-2277339D01*
X2299665Y-2277005D01*
X2298331D01*
X2296332Y-2277339D01*
X2294332Y-2277672D01*
X2291998Y-2278672D01*
X2289332Y-2279672D01*
X2286665Y-2281339D01*
X2284332Y-2283672D01*
X2283999Y-2284005D01*
X2283332Y-2284672D01*
X2282332Y-2286005D01*
X2281332Y-2288005D01*
X2279999Y-2290338D01*
X2278999Y-2293005D01*
X2278332Y-2296005D01*
X2277999Y-2299338D01*
Y-2300005D01*
Y-2301338D01*
X2278665Y-2303338D01*
X2279332Y-2306005D01*
X2280332Y-2309005D01*
X2281999Y-2312004D01*
X2284332Y-2314671D01*
X2287665Y-2317338D01*
X2287998Y-2317671D01*
X2288332Y-2318004D01*
X2288665D01*
Y-2318338D01*
X2290665Y-2319004D01*
X2290998Y-2319337D01*
Y-2320671D01*
X2277332Y-2354003D01*
X2276999Y-2354337D01*
X2275999Y-2354670D01*
X2269332Y-2350670D01*
X2267999D01*
X2252999Y-2361003D01*
X2252333Y-2361336D01*
X2251999D01*
X2251333Y-2361003D01*
X2237333Y-2347003D01*
Y-2346670D01*
Y-2346337D01*
Y-2346004D01*
X2248000Y-2330337D01*
Y-2330004D01*
Y-2329671D01*
Y-2329004D01*
X2242000Y-2314338D01*
Y-2314004D01*
X2241666Y-2313671D01*
X2241000D01*
X2222667Y-2309671D01*
X2222334D01*
X2222000Y-2309338D01*
X2221667Y-2308671D01*
Y-2289005D01*
Y-2288672D01*
Y-2288338D01*
X2222000Y-2288005D01*
X2222667D01*
X2241666Y-2284672D01*
X2242000D01*
X2242333Y-2284339D01*
X2243000Y-2283672D01*
X2248666Y-2270005D01*
Y-2269672D01*
Y-2269339D01*
Y-2269006D01*
Y-2268672D01*
X2237333Y-2252006D01*
Y-2251673D01*
Y-2251339D01*
Y-2251006D01*
Y-2250673D01*
X2251333Y-2237006D01*
X2251666Y-2236673D01*
X2252999Y-2236340D01*
X2269332Y-2248340D01*
X2270666D01*
X2283999Y-2242673D01*
X2284665D01*
X2284998Y-2242340D01*
Y-2241673D01*
X2288665Y-2222007D01*
Y-2221673D01*
Y-2221340D01*
X2288998Y-2221007D01*
X2309998D01*
X2310331Y-2221340D01*
D02*
G37*
G36*
X2102249Y-2215210D02*
X2103916Y-2215626D01*
X2105791Y-2216251D01*
X2107666Y-2217085D01*
X2109749Y-2218126D01*
X2111832Y-2219793D01*
X2112041Y-2220001D01*
X2112457Y-2220418D01*
X2113082Y-2221043D01*
X2113707Y-2221668D01*
X2113916Y-2221876D01*
X2114124Y-2222293D01*
X2115166Y-2223751D01*
X2184957Y-2344792D01*
X2185165Y-2345000D01*
X2185582Y-2345833D01*
X2185998Y-2347083D01*
X2186623Y-2348750D01*
X2187040Y-2350625D01*
X2187248Y-2352708D01*
X2187457Y-2355208D01*
X2187040Y-2357708D01*
Y-2357916D01*
X2186832Y-2358333D01*
X2186623Y-2359166D01*
X2186207Y-2360208D01*
Y-2360416D01*
X2185998Y-2360833D01*
X2185790Y-2361666D01*
X2185165Y-2362708D01*
X2184957Y-2362916D01*
X2184540Y-2363750D01*
X2183707Y-2364791D01*
X2182665Y-2366041D01*
X2181207Y-2367291D01*
X2179540Y-2368750D01*
X2177457Y-2369791D01*
X2175165Y-2370833D01*
X2174957D01*
X2174123Y-2371041D01*
X2173290Y-2371250D01*
X2172665Y-2371458D01*
X2172040D01*
X2170998Y-2371666D01*
X2028917D01*
X2027667Y-2371458D01*
X2026000Y-2371041D01*
X2023917Y-2370625D01*
X2021833Y-2369791D01*
X2019750Y-2368541D01*
X2017667Y-2366875D01*
X2017458Y-2366666D01*
X2017042Y-2366250D01*
X2016000Y-2365000D01*
X2015792Y-2364791D01*
X2015375Y-2364375D01*
X2014959Y-2363541D01*
X2014542Y-2362708D01*
X2014334D01*
X2014125Y-2362500D01*
X2013917Y-2361666D01*
X2013292Y-2360416D01*
X2012875Y-2358958D01*
X2012459Y-2357083D01*
X2012042Y-2355000D01*
Y-2352708D01*
X2012459Y-2350208D01*
Y-2350000D01*
X2012667Y-2349167D01*
X2012875Y-2348333D01*
X2013084Y-2347708D01*
Y-2347500D01*
X2013292Y-2347083D01*
X2013709Y-2346458D01*
X2014125Y-2345417D01*
X2014334Y-2345208D01*
Y-2345000D01*
X2084124Y-2224168D01*
Y-2223960D01*
X2084541Y-2223543D01*
X2084958Y-2222918D01*
X2085583Y-2222085D01*
X2087249Y-2220210D01*
X2089541Y-2218335D01*
X2089333D01*
X2089749Y-2218126D01*
X2090166Y-2217710D01*
X2090791Y-2217293D01*
X2090999Y-2217085D01*
X2091624Y-2216876D01*
X2092458Y-2216460D01*
X2093499Y-2216043D01*
X2094749Y-2215626D01*
X2096416Y-2215418D01*
X2098082Y-2215001D01*
X2100999D01*
X2102249Y-2215210D01*
D02*
G37*
G36*
X694958Y-701937D02*
X714773D01*
Y-775400D01*
X549481D01*
Y-701937D01*
X573646D01*
Y-615424D01*
X549481D01*
Y-541477D01*
X694958D01*
Y-701937D01*
D02*
G37*
G36*
X357606Y-440465D02*
X363889D01*
X371139Y-440949D01*
X386122Y-441915D01*
X401588Y-442882D01*
X416570Y-444815D01*
X423337Y-445782D01*
X430103Y-447232D01*
X430586D01*
X431553Y-447715D01*
X433003Y-448198D01*
X435419Y-448682D01*
X438319Y-449648D01*
X441219Y-450615D01*
X448469Y-453515D01*
X456685Y-457381D01*
X465385Y-462698D01*
X473601Y-468497D01*
X481334Y-476230D01*
X482301Y-477197D01*
X484234Y-480097D01*
X487134Y-484447D01*
X490517Y-490730D01*
X493900Y-497979D01*
X496800Y-506679D01*
X498733Y-516345D01*
X499700Y-526978D01*
Y-527461D01*
Y-528428D01*
Y-529878D01*
X499216Y-531811D01*
X498733Y-536644D01*
X497766Y-543411D01*
X495350Y-550660D01*
X492450Y-558393D01*
X488100Y-565643D01*
X482301Y-572409D01*
X481334Y-573376D01*
X478917Y-575309D01*
X475051Y-578209D01*
X469734Y-582076D01*
X463451Y-585942D01*
X456202Y-589809D01*
X447502Y-593675D01*
X438319Y-596575D01*
X438803D01*
X439769Y-597058D01*
X441702Y-597542D01*
X444119Y-598508D01*
X447019Y-599475D01*
X450402Y-600925D01*
X458618Y-604791D01*
X467318Y-609141D01*
X476501Y-614941D01*
X485200Y-621707D01*
X492933Y-629440D01*
Y-629923D01*
X493900Y-630407D01*
X495833Y-633307D01*
X499216Y-638140D01*
X502600Y-644423D01*
X505983Y-651672D01*
X509366Y-660372D01*
X511299Y-670038D01*
X512266Y-680188D01*
Y-680671D01*
Y-681638D01*
Y-683571D01*
X511782Y-685987D01*
Y-688887D01*
X511299Y-692271D01*
X509366Y-700004D01*
X506949Y-709186D01*
X503083Y-718853D01*
X497766Y-728519D01*
X494383Y-733352D01*
X490517Y-737702D01*
Y-738185D01*
X489550Y-738668D01*
X488100Y-739635D01*
X486650Y-741568D01*
X481817Y-745435D01*
X475051Y-750268D01*
X466351Y-755101D01*
X456202Y-760417D01*
X444119Y-764767D01*
X430586Y-768150D01*
X430103D01*
X428653Y-768634D01*
X426720D01*
X423820Y-769117D01*
X419953Y-769600D01*
X415120Y-770567D01*
X409321Y-771050D01*
X403037Y-771534D01*
X395788Y-772500D01*
X387572Y-772983D01*
X378389Y-773467D01*
X368722Y-774433D01*
X358090Y-774917D01*
X346973D01*
X334407Y-775400D01*
X131900D01*
Y-695654D01*
X160899D01*
Y-520695D01*
X131900D01*
Y-439982D01*
X351806D01*
X357606Y-440465D01*
D02*
G37*
G36*
X1728277Y-535194D02*
X1733593Y-535678D01*
X1740360Y-536644D01*
X1747609Y-537611D01*
X1755342Y-539061D01*
X1764042Y-540511D01*
X1772742Y-542927D01*
X1781441Y-545827D01*
X1790624Y-548727D01*
X1799807Y-553077D01*
X1808506Y-557427D01*
X1816723Y-562743D01*
X1824939Y-568543D01*
X1825422Y-569026D01*
X1826872Y-569993D01*
X1828806Y-571926D01*
X1831222Y-574826D01*
X1834605Y-578692D01*
X1837988Y-583042D01*
X1841855Y-587875D01*
X1845721Y-594158D01*
X1850071Y-600925D01*
X1853938Y-608174D01*
X1857321Y-616874D01*
X1860704Y-626057D01*
X1863604Y-636206D01*
X1866021Y-646839D01*
X1867954Y-658439D01*
X1868920Y-671005D01*
X1684296D01*
Y-671488D01*
Y-673421D01*
X1684779Y-676321D01*
X1685262Y-679704D01*
X1685745Y-684054D01*
X1686712Y-688887D01*
X1688162Y-694204D01*
X1690095Y-699037D01*
X1692512Y-704353D01*
X1694928Y-709670D01*
X1698795Y-714503D01*
X1702661Y-718853D01*
X1707495Y-722236D01*
X1713294Y-725136D01*
X1719577Y-727069D01*
X1726827Y-727552D01*
X1727793D01*
X1731177Y-727069D01*
X1735526Y-726102D01*
X1740843Y-724169D01*
X1746643Y-721269D01*
X1752926Y-716436D01*
X1755826Y-713536D01*
X1758242Y-710153D01*
X1760659Y-705803D01*
X1763075Y-701453D01*
X1863121Y-714019D01*
X1862637Y-714503D01*
X1861671Y-716436D01*
X1860221Y-719336D01*
X1858288Y-723202D01*
X1855388Y-727552D01*
X1852488Y-732385D01*
X1848621Y-737218D01*
X1844272Y-742051D01*
X1843788Y-742535D01*
X1842338Y-743985D01*
X1839438Y-746401D01*
X1836055Y-749301D01*
X1831705Y-752684D01*
X1826872Y-756551D01*
X1821073Y-760417D01*
X1814789Y-763801D01*
X1814306D01*
X1813340Y-764767D01*
X1811406Y-765250D01*
X1808506Y-766700D01*
X1805123Y-768150D01*
X1801257Y-769600D01*
X1796424Y-771050D01*
X1791107Y-772983D01*
X1785308Y-774917D01*
X1779025Y-776367D01*
X1772258Y-777817D01*
X1765009Y-779267D01*
X1748576Y-781200D01*
X1731177Y-782166D01*
X1723444D01*
X1717644Y-781683D01*
X1710878Y-781200D01*
X1703145Y-780233D01*
X1694445Y-779267D01*
X1685262Y-777817D01*
X1675596Y-776367D01*
X1665446Y-773950D01*
X1655297Y-771050D01*
X1645147Y-767667D01*
X1634998Y-763801D01*
X1625332Y-759451D01*
X1616632Y-754134D01*
X1608416Y-748335D01*
X1607932Y-747851D01*
X1606482Y-746885D01*
X1604549Y-744951D01*
X1602133Y-742051D01*
X1598749Y-738668D01*
X1595366Y-734802D01*
X1591500Y-729969D01*
X1588117Y-724652D01*
X1584250Y-718369D01*
X1580384Y-712086D01*
X1577000Y-704353D01*
X1573617Y-696620D01*
X1571201Y-688404D01*
X1569267Y-679221D01*
X1567818Y-670038D01*
X1567334Y-659889D01*
Y-659405D01*
Y-657472D01*
X1567818Y-654572D01*
Y-650706D01*
X1568784Y-646356D01*
X1569267Y-641040D01*
X1570717Y-635240D01*
X1572651Y-628473D01*
X1574584Y-621707D01*
X1577484Y-614457D01*
X1580384Y-607208D01*
X1584250Y-599475D01*
X1589083Y-592225D01*
X1594400Y-584492D01*
X1600683Y-577242D01*
X1607932Y-570476D01*
X1608416Y-569993D01*
X1609866Y-569026D01*
X1612282Y-567093D01*
X1615182Y-564676D01*
X1619532Y-562260D01*
X1624365Y-559360D01*
X1630165Y-555977D01*
X1636448Y-552593D01*
X1644181Y-549210D01*
X1652397Y-545827D01*
X1661097Y-542927D01*
X1670763Y-540511D01*
X1681396Y-538094D01*
X1692512Y-536161D01*
X1704595Y-535194D01*
X1717161Y-534711D01*
X1723444D01*
X1728277Y-535194D01*
D02*
G37*
G36*
X19250Y52400D02*
X18600Y51750D01*
Y47200D01*
X16650Y45250D01*
Y42650D01*
X14700Y40700D01*
Y38750D01*
X10150Y34200D01*
X9500D01*
X4950Y29650D01*
X3000D01*
X1050Y27700D01*
X-2850Y27050D01*
X-5200Y26000D01*
X-10000D01*
Y35000D01*
X-9500Y35500D01*
X-2850D01*
X-900Y37450D01*
X400D01*
X4950Y42000D01*
Y42650D01*
X8850Y46550D01*
Y50450D01*
X10150Y51750D01*
Y55000D01*
X19250D01*
Y52400D01*
D02*
G37*
G36*
X2439250Y52401D02*
X2438600Y51751D01*
Y47201D01*
X2436650Y45251D01*
Y42651D01*
X2434700Y40701D01*
Y38751D01*
X2430150Y34201D01*
X2429500D01*
X2424950Y29651D01*
X2423000D01*
X2421050Y27701D01*
X2417150Y27051D01*
X2414800Y26001D01*
X2410000D01*
Y35001D01*
X2410500Y35501D01*
X2417150D01*
X2419100Y37451D01*
X2420400D01*
X2424950Y42001D01*
Y42651D01*
X2428850Y46551D01*
Y50451D01*
X2430150Y51751D01*
Y55001D01*
X2439250D01*
Y52401D01*
D02*
G37*
G36*
X-10000Y75000D02*
X-10500Y74500D01*
X-17150D01*
X-19100Y72550D01*
X-20400D01*
X-24950Y68000D01*
Y67350D01*
X-28850Y63450D01*
Y59550D01*
X-30150Y58250D01*
Y55000D01*
X-39250D01*
Y57600D01*
X-38600Y58250D01*
Y62800D01*
X-36650Y64750D01*
Y67350D01*
X-34700Y69300D01*
Y71250D01*
X-30150Y75800D01*
X-29500D01*
X-24950Y80350D01*
X-23000D01*
X-21050Y82300D01*
X-17150Y82950D01*
X-14800Y84000D01*
X-10000D01*
Y75000D01*
D02*
G37*
G36*
X1200000Y-2445000D02*
X1199500Y-2445500D01*
X1192850D01*
X1190900Y-2447450D01*
X1189600D01*
X1185050Y-2452000D01*
Y-2452650D01*
X1181150Y-2456550D01*
Y-2460450D01*
X1179850Y-2461750D01*
Y-2465000D01*
X1170750D01*
Y-2462400D01*
X1171400Y-2461750D01*
Y-2457200D01*
X1173350Y-2455250D01*
Y-2452650D01*
X1175300Y-2450700D01*
Y-2448750D01*
X1179850Y-2444200D01*
X1180500D01*
X1185050Y-2439650D01*
X1187000D01*
X1188950Y-2437700D01*
X1192850Y-2437050D01*
X1195200Y-2436000D01*
X1200000D01*
Y-2445000D01*
D02*
G37*
G36*
X-10000Y-2445000D02*
X-10500Y-2445500D01*
X-17150D01*
X-19100Y-2447450D01*
X-20400D01*
X-24950Y-2452000D01*
Y-2452650D01*
X-28850Y-2456550D01*
Y-2460450D01*
X-30150Y-2461750D01*
Y-2465000D01*
X-39250D01*
Y-2462400D01*
X-38600Y-2461750D01*
Y-2457200D01*
X-36650Y-2455250D01*
Y-2452650D01*
X-34700Y-2450700D01*
Y-2448750D01*
X-30150Y-2444200D01*
X-29500D01*
X-24950Y-2439650D01*
X-23000D01*
X-21050Y-2437700D01*
X-17150Y-2437050D01*
X-14800Y-2436000D01*
X-10000D01*
Y-2445000D01*
D02*
G37*
G36*
X2410000D02*
X2409500Y-2445500D01*
X2402850D01*
X2400900Y-2447450D01*
X2399600D01*
X2395050Y-2452000D01*
Y-2452650D01*
X2391150Y-2456550D01*
Y-2460450D01*
X2389850Y-2461750D01*
Y-2465000D01*
X2380750D01*
Y-2462400D01*
X2381400Y-2461750D01*
Y-2457200D01*
X2383350Y-2455250D01*
Y-2452650D01*
X2385300Y-2450700D01*
Y-2448750D01*
X2389850Y-2444200D01*
X2390500D01*
X2395050Y-2439650D01*
X2397000D01*
X2398950Y-2437700D01*
X2402850Y-2437050D01*
X2405200Y-2436000D01*
X2410000D01*
Y-2445000D01*
D02*
G37*
G36*
X923951Y-447871D02*
X924950D01*
X926950Y-448005D01*
X927083D01*
X927416Y-448071D01*
X927950Y-448138D01*
X928683Y-448205D01*
X929482Y-448338D01*
X930416Y-448471D01*
X932348Y-448805D01*
X932482D01*
X932815Y-448938D01*
X933348Y-449005D01*
X934015Y-449204D01*
X934815Y-449338D01*
X935681Y-449538D01*
X937414Y-450004D01*
X937547D01*
X937814Y-450137D01*
X938280Y-450271D01*
X938880Y-450404D01*
X939547Y-450604D01*
X940280Y-450871D01*
X941879Y-451337D01*
Y-451404D01*
Y-451604D01*
X941813Y-451870D01*
X941746Y-452270D01*
X941613Y-453203D01*
X941413Y-454270D01*
Y-454336D01*
X941346Y-454536D01*
X941280Y-454803D01*
X941213Y-455136D01*
X941146Y-455603D01*
X941013Y-456069D01*
X940746Y-457136D01*
Y-457202D01*
X940680Y-457402D01*
X940613Y-457669D01*
X940546Y-458002D01*
X940213Y-458869D01*
X939880Y-459868D01*
Y-459935D01*
X939813Y-460068D01*
X939680Y-460335D01*
X939613Y-460668D01*
X939280Y-461468D01*
X938880Y-462401D01*
X938813D01*
X938614Y-462334D01*
X938280Y-462201D01*
X937814Y-462068D01*
X937281Y-461868D01*
X936681Y-461668D01*
X935348Y-461268D01*
X935281D01*
X935014Y-461201D01*
X934614Y-461068D01*
X934081Y-460935D01*
X933482Y-460801D01*
X932815Y-460602D01*
X931215Y-460268D01*
X931149D01*
X930816Y-460135D01*
X930416Y-460068D01*
X929816Y-459935D01*
X929149Y-459802D01*
X928350Y-459668D01*
X926683Y-459402D01*
X926550D01*
X926283Y-459335D01*
X925817D01*
X925217Y-459268D01*
X924484Y-459202D01*
X923617D01*
X922751Y-459135D01*
X920885D01*
X920218Y-459202D01*
X919418Y-459268D01*
X918619Y-459335D01*
X916819Y-459602D01*
X916686D01*
X916419Y-459668D01*
X915953Y-459802D01*
X915353Y-460002D01*
X914686Y-460202D01*
X913953Y-460401D01*
X912354Y-461001D01*
X912287Y-461068D01*
X912020Y-461201D01*
X911687Y-461401D01*
X911220Y-461668D01*
X910754Y-462068D01*
X910221Y-462468D01*
X909754Y-463001D01*
X909288Y-463601D01*
X909221Y-463667D01*
X909154Y-463867D01*
X908954Y-464267D01*
X908755Y-464734D01*
X908555Y-465334D01*
X908421Y-466000D01*
X908288Y-466800D01*
X908221Y-467666D01*
Y-467733D01*
Y-467866D01*
Y-468133D01*
X908288Y-468400D01*
X908355Y-469133D01*
X908488Y-469932D01*
Y-469999D01*
X908555Y-470066D01*
X908688Y-470532D01*
X908954Y-471132D01*
X909288Y-471799D01*
Y-471865D01*
X909354Y-471932D01*
X909621Y-472332D01*
X909954Y-472865D01*
X910421Y-473398D01*
X910554Y-473531D01*
X910887Y-473865D01*
X911354Y-474265D01*
X912020Y-474731D01*
X912087D01*
X912154Y-474798D01*
X912553Y-475065D01*
X913153Y-475464D01*
X913820Y-475864D01*
X913886D01*
X914020Y-475931D01*
X914220Y-476064D01*
X914486Y-476198D01*
X915153Y-476464D01*
X915953Y-476797D01*
X916019D01*
X916153Y-476864D01*
X916352Y-476931D01*
X916686Y-477064D01*
X917419Y-477331D01*
X918285Y-477730D01*
X918352D01*
X918485Y-477797D01*
X918752Y-477864D01*
X919085Y-477997D01*
X919885Y-478264D01*
X920818Y-478530D01*
X920885D01*
X921018Y-478597D01*
X921285Y-478663D01*
X921551Y-478797D01*
X922284Y-479063D01*
X923151Y-479330D01*
X924017Y-479663D01*
X924684Y-479930D01*
X924950Y-479996D01*
X925150Y-480063D01*
X925284Y-480130D01*
X925417D01*
X925617Y-480196D01*
X925950Y-480330D01*
X926483Y-480463D01*
X927150Y-480730D01*
X927216D01*
X927416Y-480863D01*
X927750Y-480930D01*
X928216Y-481130D01*
X928683Y-481263D01*
X929283Y-481463D01*
X930482Y-481929D01*
X930549D01*
X930749Y-482063D01*
X931082Y-482196D01*
X931482Y-482396D01*
X932015Y-482596D01*
X932548Y-482863D01*
X933681Y-483396D01*
X933748Y-483462D01*
X933948Y-483529D01*
X934281Y-483729D01*
X934681Y-483929D01*
X935614Y-484529D01*
X936614Y-485262D01*
X936681Y-485328D01*
X936814Y-485462D01*
X937081Y-485662D01*
X937414Y-485928D01*
X938214Y-486595D01*
X939080Y-487461D01*
X939147Y-487528D01*
X939280Y-487661D01*
X939480Y-487928D01*
X939747Y-488261D01*
X940346Y-489061D01*
X941013Y-490061D01*
X941080Y-490127D01*
X941146Y-490327D01*
X941346Y-490594D01*
X941546Y-490994D01*
X941813Y-491460D01*
X942079Y-491993D01*
X942679Y-493193D01*
Y-493260D01*
X942812Y-493460D01*
X942879Y-493860D01*
X943079Y-494326D01*
X943212Y-494859D01*
X943346Y-495526D01*
X943612Y-496926D01*
Y-496992D01*
X943679Y-497259D01*
X943745Y-497725D01*
X943812Y-498259D01*
X943879Y-498925D01*
X943945Y-499658D01*
X944012Y-500458D01*
Y-501324D01*
Y-501458D01*
Y-501791D01*
Y-502324D01*
X943945Y-502991D01*
X943879Y-503724D01*
X943812Y-504590D01*
X943479Y-506456D01*
Y-506590D01*
X943412Y-506856D01*
X943279Y-507323D01*
X943079Y-507923D01*
X942879Y-508656D01*
X942613Y-509456D01*
X941879Y-511122D01*
X941813Y-511189D01*
X941679Y-511455D01*
X941413Y-511922D01*
X941146Y-512455D01*
X940746Y-513055D01*
X940280Y-513721D01*
X939280Y-515187D01*
X939213Y-515254D01*
X939013Y-515521D01*
X938680Y-515854D01*
X938280Y-516254D01*
X937747Y-516787D01*
X937147Y-517387D01*
X936414Y-517987D01*
X935681Y-518587D01*
X935614Y-518653D01*
X935348Y-518853D01*
X934948Y-519120D01*
X934415Y-519520D01*
X933748Y-519920D01*
X933015Y-520386D01*
X932149Y-520853D01*
X931282Y-521319D01*
X931149Y-521386D01*
X930882Y-521519D01*
X930416Y-521719D01*
X929749Y-522052D01*
X929016Y-522319D01*
X928083Y-522719D01*
X927150Y-523052D01*
X926083Y-523385D01*
X925950Y-523452D01*
X925617Y-523519D01*
X925017Y-523652D01*
X924284Y-523852D01*
X923417Y-524119D01*
X922418Y-524319D01*
X921285Y-524519D01*
X920152Y-524718D01*
X920018D01*
X919618Y-524785D01*
X919018Y-524852D01*
X918219Y-524918D01*
X917286Y-524985D01*
X916153Y-525052D01*
X914953Y-525118D01*
X911620D01*
X910621Y-525052D01*
X909554D01*
X907222Y-524918D01*
X907088D01*
X906688Y-524852D01*
X906155D01*
X905422Y-524718D01*
X904556Y-524652D01*
X903623Y-524519D01*
X901623Y-524185D01*
X901490D01*
X901156Y-524119D01*
X900690Y-523985D01*
X900023Y-523852D01*
X899224Y-523719D01*
X898424Y-523519D01*
X896624Y-523052D01*
X896491D01*
X896224Y-522985D01*
X895758Y-522852D01*
X895091Y-522652D01*
X894425Y-522452D01*
X893625Y-522252D01*
X891959Y-521652D01*
Y-521586D01*
Y-521386D01*
X892025Y-521119D01*
X892092Y-520719D01*
X892159Y-519853D01*
X892359Y-518787D01*
Y-518720D01*
X892425Y-518520D01*
X892492Y-518253D01*
X892559Y-517854D01*
X892692Y-517387D01*
X892825Y-516920D01*
X893158Y-515787D01*
Y-515721D01*
X893225Y-515521D01*
X893358Y-515254D01*
X893492Y-514921D01*
X893625Y-514454D01*
X893758Y-513988D01*
X894158Y-512921D01*
Y-512855D01*
X894225Y-512655D01*
X894358Y-512388D01*
X894492Y-511988D01*
X894625Y-511588D01*
X894825Y-511055D01*
X895225Y-509989D01*
X895291Y-510056D01*
X895558Y-510122D01*
X895958Y-510255D01*
X896491Y-510455D01*
X897091Y-510722D01*
X897824Y-510922D01*
X899357Y-511455D01*
X899424D01*
X899757Y-511522D01*
X900157Y-511655D01*
X900690Y-511788D01*
X901356Y-511922D01*
X902156Y-512122D01*
X903822Y-512522D01*
X903956D01*
X904222Y-512588D01*
X904689Y-512655D01*
X905289Y-512788D01*
X906022Y-512855D01*
X906755Y-512988D01*
X908488Y-513188D01*
X908888D01*
X909354Y-513255D01*
X909954D01*
X910687Y-513321D01*
X911421D01*
X913153Y-513388D01*
X914153D01*
X914686Y-513321D01*
X915219D01*
X916352Y-513255D01*
X916619D01*
X916952Y-513188D01*
X917352Y-513121D01*
X917819Y-513055D01*
X918352Y-512988D01*
X919485Y-512721D01*
X919552D01*
X919752Y-512655D01*
X920018Y-512588D01*
X920418Y-512455D01*
X921285Y-512188D01*
X922284Y-511788D01*
X922351D01*
X922484Y-511722D01*
X922751Y-511588D01*
X923084Y-511455D01*
X923884Y-511055D01*
X924750Y-510589D01*
X924817D01*
X924950Y-510455D01*
X925150Y-510322D01*
X925417Y-510122D01*
X926083Y-509656D01*
X926750Y-508989D01*
X926816Y-508923D01*
X926883Y-508856D01*
X927083Y-508656D01*
X927283Y-508389D01*
X927816Y-507723D01*
X928350Y-506990D01*
X928416Y-506923D01*
X928483Y-506790D01*
X928616Y-506656D01*
X928749Y-506390D01*
X929083Y-505723D01*
X929416Y-504857D01*
Y-504790D01*
X929482Y-504657D01*
Y-504390D01*
X929549Y-504124D01*
X929616Y-503324D01*
X929682Y-502391D01*
Y-502324D01*
Y-502124D01*
Y-501858D01*
Y-501458D01*
X929616Y-500591D01*
X929482Y-499658D01*
Y-499591D01*
X929416Y-499458D01*
X929349Y-499258D01*
X929283Y-498925D01*
X929016Y-498259D01*
X928616Y-497592D01*
Y-497525D01*
X928549Y-497459D01*
X928283Y-496992D01*
X927883Y-496459D01*
X927350Y-495859D01*
Y-495793D01*
X927216Y-495726D01*
X926883Y-495393D01*
X926417Y-494926D01*
X925750Y-494393D01*
X925684D01*
X925617Y-494259D01*
X925417Y-494193D01*
X925150Y-493993D01*
X924484Y-493660D01*
X923751Y-493193D01*
X923684D01*
X923617Y-493126D01*
X923417Y-492993D01*
X923151Y-492860D01*
X922484Y-492527D01*
X921618Y-492127D01*
X921551D01*
X921418Y-492060D01*
X921151Y-491927D01*
X920885Y-491860D01*
X920085Y-491594D01*
X919152Y-491260D01*
X919085D01*
X918952Y-491194D01*
X918685Y-491060D01*
X918285Y-490994D01*
X917419Y-490727D01*
X916419Y-490394D01*
X916352D01*
X916286Y-490327D01*
X915819Y-490194D01*
X915219Y-489927D01*
X914553Y-489727D01*
X913886Y-489461D01*
X913353Y-489261D01*
X913087Y-489128D01*
X912953D01*
X912887Y-489061D01*
X912754Y-488994D01*
X912620Y-488928D01*
X912354Y-488861D01*
X911887Y-488661D01*
X911354Y-488461D01*
X911287D01*
X911154Y-488394D01*
X910887Y-488261D01*
X910621Y-488194D01*
X910221Y-487994D01*
X909754Y-487794D01*
X908688Y-487395D01*
X907421Y-486861D01*
X906088Y-486195D01*
X904755Y-485528D01*
X903422Y-484795D01*
X903356D01*
X903289Y-484729D01*
X902889Y-484462D01*
X902290Y-484062D01*
X901490Y-483529D01*
X900623Y-482929D01*
X899757Y-482263D01*
X898824Y-481530D01*
X898024Y-480730D01*
X897957Y-480596D01*
X897691Y-480330D01*
X897291Y-479863D01*
X896824Y-479263D01*
X896291Y-478530D01*
X895758Y-477664D01*
X895291Y-476664D01*
X894825Y-475598D01*
Y-475531D01*
X894758Y-475464D01*
X894691Y-475065D01*
X894492Y-474531D01*
X894358Y-473731D01*
X894158Y-472732D01*
X893958Y-471665D01*
X893892Y-470466D01*
X893825Y-469133D01*
Y-469066D01*
Y-468933D01*
Y-468666D01*
Y-468266D01*
X893892Y-467866D01*
Y-467333D01*
X894025Y-466200D01*
X894225Y-464800D01*
X894558Y-463334D01*
X894958Y-461801D01*
X895558Y-460335D01*
Y-460268D01*
X895624Y-460135D01*
X895758Y-459935D01*
X895891Y-459668D01*
X896291Y-458935D01*
X896891Y-458002D01*
X897624Y-456936D01*
X898491Y-455803D01*
X899557Y-454670D01*
X900823Y-453537D01*
X900890Y-453470D01*
X900956Y-453403D01*
X901156Y-453270D01*
X901490Y-453070D01*
X901823Y-452803D01*
X902223Y-452537D01*
X903223Y-451937D01*
X904489Y-451204D01*
X905955Y-450471D01*
X907622Y-449804D01*
X909488Y-449204D01*
X909554D01*
X909754Y-449138D01*
X910021Y-449071D01*
X910421Y-449005D01*
X910887Y-448871D01*
X911487Y-448738D01*
X912154Y-448605D01*
X912887Y-448471D01*
X913753Y-448405D01*
X914620Y-448271D01*
X915619Y-448138D01*
X916686Y-448005D01*
X918885Y-447871D01*
X921351Y-447805D01*
X923151D01*
X923951Y-447871D01*
D02*
G37*
G36*
X2410000Y75001D02*
X2409500Y74501D01*
X2402850D01*
X2400900Y72551D01*
X2399600D01*
X2395050Y68001D01*
Y67351D01*
X2391150Y63451D01*
Y59551D01*
X2389850Y58251D01*
Y55001D01*
X2380750D01*
Y57601D01*
X2381400Y58251D01*
Y62801D01*
X2383350Y64751D01*
Y67351D01*
X2385300Y69301D01*
Y71251D01*
X2389850Y75801D01*
X2390500D01*
X2395050Y80351D01*
X2397000D01*
X2398950Y82301D01*
X2402850Y82951D01*
X2405200Y84001D01*
X2410000D01*
Y75001D01*
D02*
G37*
G36*
X1229250Y-2467600D02*
X1228600Y-2468250D01*
Y-2472800D01*
X1226650Y-2474750D01*
Y-2477350D01*
X1224700Y-2479300D01*
Y-2481250D01*
X1220150Y-2485800D01*
X1219500D01*
X1214950Y-2490350D01*
X1213000D01*
X1211050Y-2492300D01*
X1207150Y-2492950D01*
X1204800Y-2494000D01*
X1200000D01*
Y-2485000D01*
X1200500Y-2484500D01*
X1207150D01*
X1209100Y-2482550D01*
X1210400D01*
X1214950Y-2478000D01*
Y-2477350D01*
X1218850Y-2473450D01*
Y-2469550D01*
X1220150Y-2468250D01*
Y-2465000D01*
X1229250D01*
Y-2467600D01*
D02*
G37*
G36*
X2439250Y-2467600D02*
X2438600Y-2468250D01*
Y-2472800D01*
X2436650Y-2474750D01*
Y-2477350D01*
X2434700Y-2479300D01*
Y-2481250D01*
X2430150Y-2485800D01*
X2429500D01*
X2424950Y-2490350D01*
X2423000D01*
X2421050Y-2492300D01*
X2417150Y-2492950D01*
X2414800Y-2494000D01*
X2410000D01*
Y-2485000D01*
X2410500Y-2484500D01*
X2417150D01*
X2419100Y-2482550D01*
X2420400D01*
X2424950Y-2478000D01*
Y-2477350D01*
X2428850Y-2473450D01*
Y-2469550D01*
X2430150Y-2468250D01*
Y-2465000D01*
X2439250D01*
Y-2467600D01*
D02*
G37*
G36*
X19250D02*
X18600Y-2468250D01*
Y-2472800D01*
X16650Y-2474750D01*
Y-2477350D01*
X14700Y-2479300D01*
Y-2481250D01*
X10150Y-2485800D01*
X9500D01*
X4950Y-2490350D01*
X3000D01*
X1050Y-2492300D01*
X-2850Y-2492950D01*
X-5200Y-2494000D01*
X-10000D01*
Y-2485000D01*
X-9500Y-2484500D01*
X-2850D01*
X-900Y-2482550D01*
X400D01*
X4950Y-2478000D01*
Y-2477350D01*
X8850Y-2473450D01*
Y-2469550D01*
X10150Y-2468250D01*
Y-2465000D01*
X19250D01*
Y-2467600D01*
D02*
G37*
%LPC*%
G36*
X1056317Y-431276D02*
X1049985D01*
X1048785Y-431342D01*
X1048186D01*
X1047786Y-431409D01*
X1047319D01*
X1046852Y-431476D01*
X1045719Y-431609D01*
X1045186D01*
X1044853Y-431676D01*
X1043987Y-431742D01*
X1043053Y-431875D01*
Y-432009D01*
Y-432409D01*
Y-433009D01*
Y-433875D01*
Y-434875D01*
Y-436074D01*
Y-437474D01*
Y-438940D01*
Y-440540D01*
Y-442206D01*
Y-445672D01*
Y-449271D01*
Y-451004D01*
Y-452737D01*
Y-452803D01*
Y-453137D01*
Y-453603D01*
Y-454203D01*
Y-455003D01*
Y-455869D01*
Y-456869D01*
Y-458002D01*
Y-459135D01*
Y-460401D01*
Y-463001D01*
Y-465600D01*
Y-468133D01*
Y-468200D01*
Y-468333D01*
Y-468599D01*
Y-468999D01*
Y-469466D01*
Y-469932D01*
Y-471199D01*
Y-472598D01*
Y-474065D01*
Y-475664D01*
Y-477131D01*
Y-477197D01*
Y-477331D01*
Y-477531D01*
Y-477797D01*
Y-478530D01*
Y-479397D01*
Y-480463D01*
Y-481596D01*
Y-482729D01*
Y-483862D01*
Y-483929D01*
Y-484196D01*
Y-484529D01*
Y-484929D01*
Y-485462D01*
Y-485995D01*
Y-487128D01*
Y-487195D01*
Y-487395D01*
Y-487661D01*
Y-488061D01*
Y-488928D01*
Y-489794D01*
Y-489861D01*
Y-489994D01*
Y-490194D01*
Y-490527D01*
Y-491194D01*
Y-491927D01*
Y-491993D01*
Y-492060D01*
Y-492527D01*
Y-493126D01*
Y-493726D01*
Y-493860D01*
Y-494126D01*
Y-494593D01*
Y-495126D01*
Y-495793D01*
Y-496526D01*
Y-497992D01*
Y-498059D01*
Y-498325D01*
Y-498792D01*
Y-499392D01*
Y-500125D01*
Y-501058D01*
Y-502124D01*
Y-503391D01*
Y-503457D01*
Y-503657D01*
Y-503990D01*
Y-504390D01*
Y-504924D01*
Y-505457D01*
Y-506790D01*
Y-506856D01*
Y-507123D01*
Y-507523D01*
Y-508123D01*
Y-508789D01*
Y-509522D01*
Y-510389D01*
Y-511322D01*
X1043387D01*
X1043787Y-511389D01*
X1044320Y-511455D01*
X1045053Y-511522D01*
X1045919Y-511588D01*
X1046919Y-511655D01*
X1048052Y-511788D01*
X1048652D01*
X1048985Y-511855D01*
X1049985D01*
X1051118Y-511922D01*
X1052118D01*
X1052584Y-511988D01*
X1055917D01*
X1056983Y-511922D01*
X1058183Y-511855D01*
X1059583Y-511788D01*
X1062449Y-511522D01*
X1062648D01*
X1062848Y-511455D01*
X1063115D01*
X1063848Y-511322D01*
X1064848Y-511189D01*
X1065981Y-510989D01*
X1067181Y-510722D01*
X1068514Y-510389D01*
X1069847Y-510056D01*
X1069913D01*
X1069980Y-509989D01*
X1070180D01*
X1070446Y-509855D01*
X1071113Y-509656D01*
X1071979Y-509389D01*
X1072979Y-508989D01*
X1074112Y-508589D01*
X1075245Y-508056D01*
X1076378Y-507456D01*
X1076445D01*
X1076512Y-507389D01*
X1076911Y-507190D01*
X1077445Y-506790D01*
X1078178Y-506323D01*
X1079044Y-505723D01*
X1079977Y-505057D01*
X1080977Y-504324D01*
X1081910Y-503457D01*
X1082044Y-503324D01*
X1082310Y-503057D01*
X1082843Y-502591D01*
X1083443Y-501924D01*
X1084110Y-501124D01*
X1084843Y-500191D01*
X1085642Y-499192D01*
X1086376Y-498059D01*
Y-497992D01*
X1086442Y-497925D01*
X1086709Y-497525D01*
X1087109Y-496859D01*
X1087575Y-495992D01*
X1088042Y-494993D01*
X1088642Y-493793D01*
X1089175Y-492460D01*
X1089708Y-490994D01*
Y-490927D01*
X1089775Y-490794D01*
X1089842Y-490594D01*
X1089908Y-490327D01*
X1090041Y-489927D01*
X1090175Y-489461D01*
X1090441Y-488394D01*
X1090775Y-487128D01*
X1091108Y-485595D01*
X1091441Y-483929D01*
X1091708Y-482129D01*
Y-482063D01*
X1091774Y-481929D01*
Y-481663D01*
X1091841Y-481263D01*
X1091908Y-480796D01*
X1091974Y-480263D01*
X1092041Y-479663D01*
X1092107Y-478930D01*
X1092174Y-478130D01*
X1092241Y-477331D01*
X1092308Y-475464D01*
X1092441Y-473465D01*
Y-471332D01*
Y-471265D01*
Y-471065D01*
Y-470799D01*
Y-470399D01*
Y-469932D01*
X1092374Y-469399D01*
Y-468799D01*
Y-468066D01*
X1092241Y-466533D01*
X1092107Y-464867D01*
X1091974Y-463134D01*
X1091708Y-461401D01*
Y-461335D01*
Y-461201D01*
X1091641Y-460935D01*
X1091574Y-460602D01*
X1091508Y-460202D01*
X1091441Y-459735D01*
X1091241Y-458602D01*
X1090908Y-457336D01*
X1090575Y-455869D01*
X1090175Y-454403D01*
X1089708Y-452937D01*
Y-452870D01*
X1089641Y-452737D01*
X1089575Y-452537D01*
X1089442Y-452270D01*
X1089175Y-451537D01*
X1088775Y-450671D01*
X1088308Y-449604D01*
X1087775Y-448405D01*
X1087109Y-447205D01*
X1086376Y-446005D01*
Y-445939D01*
X1086309Y-445872D01*
X1086042Y-445472D01*
X1085642Y-444872D01*
X1085109Y-444139D01*
X1084443Y-443273D01*
X1083710Y-442406D01*
X1082843Y-441406D01*
X1081977Y-440473D01*
X1081843Y-440340D01*
X1081577Y-440073D01*
X1081044Y-439607D01*
X1080377Y-439074D01*
X1079577Y-438407D01*
X1078644Y-437674D01*
X1077578Y-436941D01*
X1076512Y-436274D01*
X1076378Y-436208D01*
X1075978Y-436008D01*
X1075378Y-435675D01*
X1074579Y-435275D01*
X1073646Y-434808D01*
X1072513Y-434342D01*
X1071313Y-433875D01*
X1070046Y-433475D01*
X1069980D01*
X1069913Y-433409D01*
X1069713Y-433342D01*
X1069447Y-433275D01*
X1068780Y-433075D01*
X1067847Y-432875D01*
X1066781Y-432609D01*
X1065514Y-432342D01*
X1064181Y-432076D01*
X1062782Y-431875D01*
X1062582D01*
X1062382Y-431809D01*
X1062115D01*
X1061782Y-431742D01*
X1061315Y-431676D01*
X1060316Y-431542D01*
X1059116Y-431476D01*
X1057783Y-431342D01*
X1056317Y-431276D01*
D02*
G37*
G36*
X2078194Y-606241D02*
X2076261D01*
X2074328Y-606724D01*
X2071911Y-607208D01*
X2068528Y-607691D01*
X2065145Y-609141D01*
X2061278Y-610591D01*
X2057412Y-613007D01*
X2053545Y-615907D01*
X2049679Y-619291D01*
X2046296Y-623640D01*
X2042912Y-628957D01*
X2040496Y-635240D01*
X2038563Y-642006D01*
X2037113Y-650222D01*
X2036629Y-659889D01*
Y-660855D01*
Y-663272D01*
X2037113Y-667622D01*
X2038079Y-672455D01*
X2039046Y-678254D01*
X2040979Y-684538D01*
X2043396Y-690337D01*
X2046779Y-696137D01*
X2047262Y-696620D01*
X2048712Y-698070D01*
X2051129Y-700487D01*
X2054512Y-702903D01*
X2058862Y-705803D01*
X2063695Y-707736D01*
X2069978Y-709670D01*
X2077227Y-710153D01*
X2080127D01*
X2083511Y-709670D01*
X2087860Y-708703D01*
X2092210Y-707253D01*
X2097043Y-704837D01*
X2102360Y-701937D01*
X2106709Y-697587D01*
X2107193Y-697104D01*
X2108643Y-695170D01*
X2110576Y-692271D01*
X2112509Y-687921D01*
X2114442Y-682121D01*
X2116376Y-675355D01*
X2117826Y-667138D01*
X2118309Y-657472D01*
Y-656989D01*
Y-656505D01*
Y-653606D01*
X2117826Y-649739D01*
X2116859Y-644906D01*
X2115892Y-639106D01*
X2113959Y-632823D01*
X2111543Y-626540D01*
X2108159Y-620740D01*
X2107676Y-620257D01*
X2106226Y-618324D01*
X2103810Y-615907D01*
X2100426Y-613491D01*
X2096560Y-610591D01*
X2091243Y-608658D01*
X2084960Y-606724D01*
X2078194Y-606241D01*
D02*
G37*
G36*
X771656Y-433742D02*
Y-433808D01*
X771590Y-433942D01*
X771523Y-434208D01*
X771390Y-434542D01*
X771256Y-435008D01*
X771123Y-435608D01*
X770923Y-436274D01*
X770657Y-437007D01*
X770390Y-437941D01*
X770123Y-438874D01*
X769790Y-440007D01*
X769457Y-441140D01*
X769057Y-442473D01*
X768657Y-443872D01*
X768191Y-445339D01*
X767724Y-446938D01*
X767191Y-448671D01*
X766657Y-450471D01*
X766124Y-452404D01*
X765525Y-454403D01*
X764858Y-456536D01*
X764192Y-458735D01*
X763525Y-461068D01*
X762792Y-463467D01*
X762059Y-466000D01*
X761259Y-468666D01*
X760459Y-471399D01*
X759593Y-474265D01*
X758726Y-477197D01*
X757860Y-480263D01*
X756927Y-483396D01*
X755927Y-486661D01*
X787519D01*
Y-486595D01*
X787452Y-486461D01*
X787386Y-486195D01*
X787252Y-485862D01*
X787119Y-485395D01*
X786986Y-484795D01*
X786786Y-484129D01*
X786519Y-483329D01*
X786253Y-482463D01*
X785986Y-481530D01*
X785653Y-480396D01*
X785319Y-479197D01*
X784920Y-477930D01*
X784520Y-476531D01*
X784053Y-475065D01*
X783587Y-473465D01*
X783053Y-471732D01*
X782520Y-469932D01*
X781920Y-468000D01*
X781320Y-466000D01*
X780721Y-463867D01*
X780054Y-461668D01*
X779321Y-459335D01*
X778588Y-456936D01*
X777855Y-454403D01*
X777055Y-451737D01*
X776255Y-449005D01*
X775389Y-446138D01*
X774522Y-443206D01*
X773589Y-440140D01*
X772656Y-437007D01*
X771656Y-433742D01*
D02*
G37*
G36*
X1334378Y-513929D02*
X1303930D01*
Y-574826D01*
X1337761D01*
X1342594Y-574342D01*
X1348394Y-573859D01*
X1355161Y-572893D01*
X1361444Y-571443D01*
X1366760Y-569509D01*
X1371110Y-566610D01*
X1371593Y-566126D01*
X1372560Y-565160D01*
X1374010Y-563226D01*
X1375460Y-560810D01*
X1376910Y-557427D01*
X1378360Y-553560D01*
X1379326Y-549210D01*
X1379810Y-544377D01*
Y-543894D01*
Y-542444D01*
X1379326Y-540027D01*
X1378843Y-537611D01*
X1377876Y-534228D01*
X1376426Y-530844D01*
X1374493Y-526978D01*
X1372077Y-523595D01*
X1371593Y-523112D01*
X1370143Y-522145D01*
X1367727Y-520695D01*
X1363377Y-518762D01*
X1357577Y-516828D01*
X1354194Y-516345D01*
X1349844Y-515379D01*
X1345494Y-514895D01*
X1340178Y-514412D01*
X1334378Y-513929D01*
D02*
G37*
G36*
X1332928Y-635723D02*
X1303930D01*
Y-701937D01*
X1337761D01*
X1343078Y-701453D01*
X1348878Y-700970D01*
X1355644Y-700004D01*
X1362410Y-699037D01*
X1368210Y-697104D01*
X1373526Y-694687D01*
X1374010Y-694204D01*
X1375460Y-693237D01*
X1377393Y-691304D01*
X1379810Y-688887D01*
X1381743Y-685021D01*
X1383676Y-680671D01*
X1385126Y-675355D01*
X1385609Y-669072D01*
Y-668105D01*
Y-666172D01*
X1385126Y-663272D01*
X1384159Y-659405D01*
X1383193Y-655539D01*
X1381259Y-651189D01*
X1378360Y-647322D01*
X1374976Y-643939D01*
X1374493Y-643456D01*
X1372560Y-642489D01*
X1369660Y-641523D01*
X1365793Y-639590D01*
X1359994Y-638140D01*
X1352744Y-637173D01*
X1343561Y-636206D01*
X1332928Y-635723D01*
D02*
G37*
G36*
X918731Y-606241D02*
X915347D01*
X911964Y-607208D01*
X907131Y-608174D01*
X902298Y-610108D01*
X896982Y-613007D01*
X891665Y-616874D01*
X887315Y-622190D01*
X886832Y-622674D01*
X885865Y-625090D01*
X883932Y-628473D01*
X881999Y-632823D01*
X880066Y-638140D01*
X878132Y-644906D01*
X877166Y-652156D01*
X876683Y-660372D01*
Y-661339D01*
Y-663755D01*
X877166Y-667622D01*
X878132Y-672938D01*
X879099Y-678254D01*
X881032Y-684538D01*
X883932Y-690337D01*
X887315Y-696137D01*
X887799Y-696620D01*
X889249Y-698070D01*
X891665Y-700487D01*
X895532Y-702903D01*
X899881Y-705803D01*
X905198Y-707736D01*
X911481Y-709670D01*
X918247Y-710153D01*
X919214D01*
X921630Y-709670D01*
X925497Y-709186D01*
X930330Y-708220D01*
X935163Y-706770D01*
X940480Y-703870D01*
X945313Y-700487D01*
X949662Y-695654D01*
X950146Y-695170D01*
X951112Y-693237D01*
X953046Y-689854D01*
X954979Y-685987D01*
X956912Y-680671D01*
X958845Y-674871D01*
X959812Y-667622D01*
X960295Y-659889D01*
Y-659405D01*
Y-658922D01*
Y-656022D01*
X959812Y-651672D01*
X958845Y-646356D01*
X957395Y-640073D01*
X955462Y-633790D01*
X953046Y-627024D01*
X949179Y-621224D01*
X948696Y-620740D01*
X947246Y-618807D01*
X944346Y-616391D01*
X940963Y-613491D01*
X936613Y-611074D01*
X931297Y-608658D01*
X925497Y-606724D01*
X918731Y-606241D01*
D02*
G37*
G36*
X2101207Y-2226876D02*
X2099332D01*
X2098291Y-2227085D01*
X2096624Y-2227293D01*
X2094958Y-2228126D01*
X2094749Y-2228335D01*
X2094541Y-2228543D01*
X2094124D01*
X2093916Y-2228751D01*
X2093083Y-2229376D01*
X2092249Y-2230418D01*
X2091416Y-2231668D01*
Y-2231876D01*
X2024958Y-2346667D01*
Y-2346875D01*
Y-2347083D01*
X2024750Y-2347292D01*
X2024333Y-2348125D01*
X2024125Y-2348542D01*
Y-2348958D01*
X2023917Y-2349583D01*
Y-2349792D01*
Y-2350208D01*
Y-2350833D01*
Y-2351666D01*
X2024125Y-2353958D01*
X2024542Y-2355000D01*
X2024958Y-2356250D01*
X2025167Y-2356666D01*
X2025792Y-2357500D01*
X2026000Y-2357708D01*
X2026833Y-2358541D01*
X2027042D01*
X2027250Y-2358958D01*
X2027875Y-2359375D01*
X2028708Y-2359791D01*
X2030792Y-2360625D01*
X2032042Y-2360833D01*
X2033500Y-2361041D01*
X2167873D01*
X2168290Y-2360833D01*
X2168707Y-2360625D01*
X2169123D01*
X2169540Y-2360416D01*
X2170165Y-2360208D01*
X2170998Y-2359583D01*
X2172873Y-2358333D01*
X2173707Y-2357291D01*
X2174540Y-2356250D01*
X2174748Y-2355833D01*
X2175165Y-2354791D01*
X2175582Y-2353333D01*
X2175790Y-2351458D01*
Y-2351250D01*
Y-2351041D01*
Y-2350625D01*
Y-2350417D01*
Y-2350208D01*
X2175582Y-2349167D01*
X2175165Y-2347917D01*
X2174540Y-2346458D01*
X2108082Y-2231668D01*
Y-2231460D01*
X2107874Y-2231251D01*
X2107249Y-2230418D01*
Y-2230210D01*
X2106832Y-2230001D01*
X2106207Y-2229376D01*
X2105999Y-2229168D01*
X2105791Y-2228960D01*
X2105166Y-2228543D01*
X2104332Y-2228126D01*
X2102249Y-2227293D01*
X2101207Y-2226876D01*
D02*
G37*
%LPD*%
G36*
X2138499Y-2339167D02*
X2061000D01*
Y-2332708D01*
X2138499D01*
Y-2339167D01*
D02*
G37*
G36*
X2115166Y-2264792D02*
X2117041Y-2267292D01*
X2116832Y-2267501D01*
X2116207Y-2267917D01*
X2115166Y-2268751D01*
X2114124Y-2269792D01*
X2113916Y-2270001D01*
X2113291Y-2270834D01*
X2112457Y-2271876D01*
X2111416Y-2273126D01*
Y-2273334D01*
X2111207Y-2273542D01*
X2110791Y-2274167D01*
X2110374Y-2275001D01*
X2109541Y-2277084D01*
X2108707Y-2279792D01*
X2108082Y-2282917D01*
X2107874Y-2286667D01*
X2108082Y-2288542D01*
X2108499Y-2290417D01*
X2109124Y-2292292D01*
X2109957Y-2294375D01*
X2110166Y-2294584D01*
X2110582Y-2295417D01*
X2111416Y-2296875D01*
X2112874Y-2298959D01*
Y-2299167D01*
X2113291Y-2299375D01*
X2113916Y-2300625D01*
X2115166Y-2302292D01*
X2116207Y-2304167D01*
Y-2304375D01*
X2116416Y-2304584D01*
X2116624Y-2305209D01*
X2117041Y-2305834D01*
X2117666Y-2308125D01*
X2118082Y-2310834D01*
Y-2311042D01*
Y-2311667D01*
Y-2312500D01*
Y-2313334D01*
Y-2313542D01*
Y-2314167D01*
X2117874Y-2315833D01*
Y-2316250D01*
X2117666Y-2317292D01*
X2117041Y-2318750D01*
X2116416Y-2320625D01*
X2115582Y-2322500D01*
X2114541Y-2324167D01*
X2113082Y-2325625D01*
X2111207Y-2326667D01*
X2109541Y-2321875D01*
X2109957Y-2321667D01*
X2110166Y-2321250D01*
X2110791Y-2320833D01*
X2111207Y-2320000D01*
X2111832Y-2318750D01*
X2112249Y-2317292D01*
X2112666Y-2315209D01*
Y-2315000D01*
X2112874Y-2314375D01*
Y-2313750D01*
Y-2313125D01*
Y-2312917D01*
Y-2312500D01*
Y-2311459D01*
Y-2311250D01*
X2112666Y-2310625D01*
X2112457Y-2309792D01*
X2112249Y-2308542D01*
X2111624Y-2307084D01*
X2110999Y-2305625D01*
X2109957Y-2303959D01*
X2108707Y-2302084D01*
Y-2301875D01*
X2108291Y-2301459D01*
X2107457Y-2300209D01*
X2106207Y-2298542D01*
X2105166Y-2296667D01*
X2104957Y-2296250D01*
X2104749Y-2295417D01*
X2104124Y-2293959D01*
X2103707Y-2292292D01*
X2103082Y-2290209D01*
X2102666Y-2287709D01*
X2102457Y-2285209D01*
X2102666Y-2282709D01*
Y-2282292D01*
X2102874Y-2281459D01*
X2103291Y-2280209D01*
X2103707Y-2278542D01*
X2104332Y-2276667D01*
X2104957Y-2274584D01*
X2105999Y-2272292D01*
X2107249Y-2270209D01*
X2107457Y-2269792D01*
X2108082Y-2268959D01*
X2108916Y-2267917D01*
X2110166Y-2266459D01*
X2110582Y-2266042D01*
X2111416Y-2265417D01*
X2112457Y-2264167D01*
X2113916Y-2263126D01*
X2115166Y-2264792D01*
D02*
G37*
G36*
X2102249D02*
X2104124Y-2267292D01*
X2103916Y-2267501D01*
X2103082Y-2267917D01*
X2102249Y-2268751D01*
X2101207Y-2269792D01*
X2100999Y-2270001D01*
X2100374Y-2270834D01*
X2099541Y-2271876D01*
X2098707Y-2273126D01*
Y-2273334D01*
X2098499Y-2273542D01*
X2098082Y-2274167D01*
X2097666Y-2275001D01*
X2096833Y-2277084D01*
X2095791Y-2279792D01*
X2095166Y-2282917D01*
X2094958Y-2286667D01*
X2095166Y-2288542D01*
X2095583Y-2290417D01*
X2096208Y-2292292D01*
X2097041Y-2294375D01*
X2097249Y-2294584D01*
X2097666Y-2295625D01*
X2098707Y-2297084D01*
X2099957Y-2298959D01*
Y-2299167D01*
X2100374Y-2299375D01*
X2100999Y-2300625D01*
X2102249Y-2302292D01*
X2103291Y-2304167D01*
Y-2304375D01*
X2103499Y-2304584D01*
X2103707Y-2305209D01*
X2104124Y-2305834D01*
X2104749Y-2308125D01*
X2105166Y-2310834D01*
Y-2311042D01*
Y-2311459D01*
Y-2312292D01*
Y-2313334D01*
Y-2313542D01*
Y-2314375D01*
X2104957Y-2315209D01*
Y-2315833D01*
Y-2316250D01*
X2104749Y-2317292D01*
X2104332Y-2318750D01*
X2103707Y-2320625D01*
X2102874Y-2322500D01*
X2101624Y-2324167D01*
X2100166Y-2325625D01*
X2098291Y-2326667D01*
X2096624Y-2321875D01*
X2096833D01*
X2097041Y-2321667D01*
X2097458Y-2321250D01*
X2097874Y-2320833D01*
X2098499Y-2320000D01*
X2098916Y-2318750D01*
X2099332Y-2317292D01*
X2099749Y-2315209D01*
Y-2315000D01*
X2099957Y-2314584D01*
Y-2313125D01*
Y-2312917D01*
Y-2312500D01*
Y-2311459D01*
Y-2311250D01*
X2099749Y-2310625D01*
X2099541Y-2309792D01*
X2099332Y-2308542D01*
X2098707Y-2307292D01*
X2098082Y-2305625D01*
X2097041Y-2303959D01*
X2095791Y-2302084D01*
Y-2301875D01*
X2095374Y-2301459D01*
X2094958Y-2300834D01*
X2094541Y-2300000D01*
X2093291Y-2298334D01*
X2092458Y-2296667D01*
X2092249Y-2296250D01*
X2091833Y-2295417D01*
X2091416Y-2293959D01*
X2090791Y-2292292D01*
X2090166Y-2290209D01*
X2089749Y-2287709D01*
X2089541Y-2285209D01*
X2089749Y-2282709D01*
Y-2282292D01*
X2089958Y-2281459D01*
X2090374Y-2280209D01*
X2090791Y-2278542D01*
X2091416Y-2276667D01*
X2092041Y-2274584D01*
X2093083Y-2272292D01*
X2094333Y-2270209D01*
X2094541Y-2269792D01*
X2095166Y-2268959D01*
X2096208Y-2267917D01*
X2097458Y-2266459D01*
X2097874Y-2266042D01*
X2098707Y-2265209D01*
X2099749Y-2264167D01*
X2100999Y-2263126D01*
X2102249Y-2264792D01*
D02*
G37*
G36*
X2089333D02*
X2091208Y-2267292D01*
X2090999Y-2267501D01*
X2090166Y-2268126D01*
X2089333Y-2268959D01*
X2088291Y-2269792D01*
X2088083Y-2270001D01*
X2087458Y-2270834D01*
X2086624Y-2271876D01*
X2085791Y-2273126D01*
Y-2273334D01*
X2085583Y-2273542D01*
X2085166Y-2274167D01*
X2084749Y-2275001D01*
X2083916Y-2277084D01*
X2082874Y-2279792D01*
X2082249Y-2282917D01*
X2082041Y-2286667D01*
X2082249Y-2288542D01*
X2082666Y-2290417D01*
X2083291Y-2292292D01*
X2084124Y-2294375D01*
X2084333Y-2294584D01*
X2084749Y-2295625D01*
X2085791Y-2297084D01*
X2087249Y-2298959D01*
Y-2299167D01*
X2087458Y-2299375D01*
X2088291Y-2300625D01*
X2089333Y-2302292D01*
X2090374Y-2304167D01*
Y-2304375D01*
X2090583Y-2304584D01*
X2090791Y-2305209D01*
X2091208Y-2305834D01*
X2091833Y-2308125D01*
X2092249Y-2310834D01*
Y-2311042D01*
Y-2311667D01*
Y-2312500D01*
Y-2313334D01*
Y-2313542D01*
Y-2314375D01*
Y-2315209D01*
X2092041Y-2315833D01*
Y-2316250D01*
X2091833Y-2317292D01*
X2091208Y-2318750D01*
X2090583Y-2320625D01*
X2089749Y-2322500D01*
X2088708Y-2324167D01*
X2087249Y-2325625D01*
X2085374Y-2326667D01*
X2083708Y-2321875D01*
X2083916D01*
X2084124Y-2321667D01*
X2084541Y-2321250D01*
X2084958Y-2320625D01*
X2085583Y-2319792D01*
X2085999Y-2318750D01*
X2086416Y-2317083D01*
X2086833Y-2315209D01*
Y-2315000D01*
X2087041Y-2314584D01*
Y-2313125D01*
Y-2312709D01*
Y-2312292D01*
Y-2311459D01*
Y-2311250D01*
X2086833Y-2310625D01*
Y-2309792D01*
X2086416Y-2308542D01*
X2085999Y-2307292D01*
X2085166Y-2305625D01*
X2084333Y-2303959D01*
X2083083Y-2302084D01*
Y-2301875D01*
X2082666Y-2301459D01*
X2081624Y-2300209D01*
X2080583Y-2298334D01*
X2079541Y-2296667D01*
X2079333Y-2296250D01*
X2078916Y-2295417D01*
X2078499Y-2293959D01*
X2077874Y-2292292D01*
X2077249Y-2290209D01*
X2076833Y-2287709D01*
X2076624Y-2285209D01*
X2076833Y-2282709D01*
Y-2282292D01*
X2077041Y-2281459D01*
X2077458Y-2280209D01*
X2077874Y-2278542D01*
X2078499Y-2276667D01*
X2079124Y-2274584D01*
X2080166Y-2272292D01*
X2081416Y-2270209D01*
X2081624Y-2269792D01*
X2082249Y-2268959D01*
X2083291Y-2267917D01*
X2084541Y-2266459D01*
X2084958Y-2266042D01*
X2085791Y-2265209D01*
X2086833Y-2264167D01*
X2088083Y-2263126D01*
X2089333Y-2264792D01*
D02*
G37*
%LPC*%
G36*
X320875Y-513929D02*
X290426D01*
Y-574826D01*
X324258D01*
X329091Y-574342D01*
X334891Y-573859D01*
X341657Y-572893D01*
X347940Y-571443D01*
X353256Y-569509D01*
X357606Y-566610D01*
X358090Y-566126D01*
X359056Y-565160D01*
X360506Y-563226D01*
X361956Y-560810D01*
X363406Y-557427D01*
X364856Y-553560D01*
X365823Y-549210D01*
X366306Y-544377D01*
Y-543894D01*
Y-542444D01*
X365823Y-540027D01*
X365339Y-537611D01*
X364373Y-534228D01*
X362923Y-530844D01*
X360989Y-526978D01*
X358573Y-523595D01*
X358090Y-523112D01*
X356640Y-522145D01*
X354223Y-520695D01*
X349873Y-518762D01*
X344074Y-516828D01*
X340690Y-516345D01*
X336341Y-515379D01*
X331991Y-514895D01*
X326674Y-514412D01*
X320875Y-513929D01*
D02*
G37*
G36*
X319425Y-635723D02*
X290426D01*
Y-701937D01*
X324258D01*
X329574Y-701453D01*
X335374Y-700970D01*
X342140Y-700004D01*
X348907Y-699037D01*
X354706Y-697104D01*
X360023Y-694687D01*
X360506Y-694204D01*
X361956Y-693237D01*
X363889Y-691304D01*
X366306Y-688887D01*
X368239Y-685021D01*
X370172Y-680671D01*
X371622Y-675355D01*
X372106Y-669072D01*
Y-668105D01*
Y-666172D01*
X371622Y-663272D01*
X370656Y-659405D01*
X369689Y-655539D01*
X367756Y-651189D01*
X364856Y-647322D01*
X361473Y-643939D01*
X360989Y-643456D01*
X359056Y-642489D01*
X356156Y-641523D01*
X352290Y-639590D01*
X346490Y-638140D01*
X339240Y-637173D01*
X330057Y-636206D01*
X319425Y-635723D01*
D02*
G37*
G36*
X1719577Y-587875D02*
X1716677D01*
X1713777Y-588359D01*
X1710394Y-589325D01*
X1706044Y-591258D01*
X1702178Y-593675D01*
X1697828Y-597058D01*
X1694445Y-601408D01*
X1693962Y-601891D01*
X1692995Y-603825D01*
X1691545Y-606724D01*
X1690095Y-611074D01*
X1688645Y-615907D01*
X1687195Y-621707D01*
X1686229Y-627990D01*
X1685745Y-635240D01*
Y-635723D01*
Y-636690D01*
Y-640073D01*
X1754376D01*
Y-639590D01*
Y-639106D01*
X1754859Y-636206D01*
Y-633307D01*
Y-632340D01*
Y-631857D01*
Y-630890D01*
Y-628473D01*
X1754376Y-625090D01*
X1753892Y-620740D01*
X1752442Y-615907D01*
X1750992Y-610591D01*
X1748576Y-605275D01*
X1745193Y-600441D01*
X1744709Y-599958D01*
X1743259Y-598508D01*
X1741326Y-596575D01*
X1738426Y-594158D01*
X1734560Y-591742D01*
X1730210Y-589809D01*
X1725377Y-588359D01*
X1719577Y-587875D01*
D02*
G37*
%LPD*%
D23*
X1205000Y-1199999D02*
G03*
X1205000Y-1199999I-5000J0D01*
G01*
D24*
X2430000Y55001D02*
G03*
X2430000Y55001I-20000J0D01*
G01*
Y-2465000D02*
G03*
X2430000Y-2465000I-20000J0D01*
G01*
X1220000Y-2465000D02*
G03*
X1220000Y-2465000I-20000J0D01*
G01*
X10000Y-2465000D02*
G03*
X10000Y-2465000I-20000J0D01*
G01*
X10000Y55000D02*
G03*
X10000Y55000I-20000J0D01*
G01*
X1308329Y162001D02*
X1295000D01*
X1308329Y175330D01*
Y178662D01*
X1304996Y181994D01*
X1298332D01*
X1295000Y178662D01*
X1324990Y162001D02*
Y181994D01*
X1314993Y171998D01*
X1328322D01*
X1334987Y181994D02*
Y168665D01*
X1341651Y162001D01*
X1348316Y168665D01*
Y181994D01*
X1057000Y162001D02*
X1063664D01*
X1060332D01*
Y181994D01*
X1057000Y178662D01*
X1086990Y162001D02*
X1073661D01*
X1086990Y175330D01*
Y178662D01*
X1083658Y181994D01*
X1076993D01*
X1073661Y178662D01*
X1093655Y181994D02*
Y168665D01*
X1100319Y162001D01*
X1106984Y168665D01*
Y181994D01*
X1003000Y95000D02*
Y104997D01*
Y99998D01*
X973010D01*
X978008Y95000D01*
X1003000Y139986D02*
Y119992D01*
X983007Y139986D01*
X978008D01*
X973010Y134987D01*
Y124990D01*
X978008Y119992D01*
X973010Y149982D02*
X993003D01*
X1003000Y159979D01*
X993003Y169976D01*
X973010D01*
X1428000Y114993D02*
Y95000D01*
X1408007Y114993D01*
X1403008D01*
X1398010Y109995D01*
Y99998D01*
X1403008Y95000D01*
X1428000Y139985D02*
X1398010D01*
X1413005Y124990D01*
Y144984D01*
X1398010Y154981D02*
X1418003D01*
X1428000Y164977D01*
X1418003Y174974D01*
X1398010D01*
D25*
X2439000Y55001D02*
G03*
X2439000Y55001I-29000J0D01*
G01*
Y-2465000D02*
G03*
X2439000Y-2465000I-29000J0D01*
G01*
X1229000Y-2465000D02*
G03*
X1229000Y-2465000I-29000J0D01*
G01*
X19000Y-2465000D02*
G03*
X19000Y-2465000I-29000J0D01*
G01*
X19000Y55000D02*
G03*
X19000Y55000I-29000J0D01*
G01*
X2330000Y87497D02*
Y80832D01*
X2333332Y77500D01*
X2336664Y80832D01*
Y87497D01*
X2339997Y85831D02*
X2341663Y87497D01*
X2344995D01*
X2346661Y85831D01*
Y79166D01*
X2344995Y77500D01*
X2341663D01*
X2339997Y79166D01*
Y85831D01*
X2349993Y77500D02*
Y79166D01*
X2351660D01*
Y77500D01*
X2349993D01*
X2358324Y85831D02*
X2359990Y87497D01*
X2363323D01*
X2364989Y85831D01*
Y84164D01*
X2363323Y82498D01*
X2361656D01*
X2363323D01*
X2364989Y80832D01*
Y79166D01*
X2363323Y77500D01*
X2359990D01*
X2358324Y79166D01*
X2368321Y77500D02*
Y84164D01*
X2371653Y87497D01*
X2374986Y84164D01*
Y77500D01*
Y82498D01*
X2368321D01*
D26*
X1174600Y118301D02*
X1225400D01*
X1174600Y92901D02*
Y118301D01*
Y92901D02*
X1225400D01*
Y118301D01*
X100000Y-2399999D02*
Y1D01*
X2300000Y-2199999D02*
Y1D01*
X0Y-99999D02*
X2400000D01*
X0Y-199999D02*
X2400000D01*
X0Y-299999D02*
X2400000D01*
X0Y-399999D02*
X2400000D01*
X0Y-999999D02*
X2400000D01*
X0Y-1099999D02*
X2400000D01*
X0Y-1199999D02*
X2400000D01*
X0Y-1299999D02*
X2400000D01*
X0Y-1399999D02*
X2400000D01*
X0Y-1499999D02*
X2400000D01*
X0Y-1599999D02*
X2400000D01*
X0Y-1699999D02*
X2400000D01*
X0Y-1799999D02*
X2400000D01*
X0Y-1999999D02*
X2400000D01*
X0Y-1899999D02*
X2400000D01*
X0Y-2099999D02*
X2400000D01*
X0Y-2299999D02*
X2000000D01*
X0Y-2199999D02*
X2400000D01*
X0Y-499999D02*
X100000D01*
X0Y-599999D02*
X100000D01*
X0Y-699999D02*
X100000D01*
X0Y-799999D02*
X700000D01*
X2300000Y-499999D02*
X2400000D01*
X2300000Y-599999D02*
X2400000D01*
X2300000Y-699999D02*
X2400000D01*
X300000Y-399999D02*
Y1D01*
X400000Y-399999D02*
Y1D01*
X500000Y-399999D02*
Y1D01*
X600000Y-399999D02*
Y1D01*
X700000Y-399999D02*
Y1D01*
X800000Y-399999D02*
Y1D01*
X900000Y-399999D02*
Y1D01*
X1000000Y-399999D02*
Y1D01*
X1100000Y-399999D02*
Y1D01*
X1200000Y-399999D02*
Y1D01*
X1300000Y-399999D02*
Y1D01*
X1400000Y-399999D02*
Y1D01*
X1500000Y-399999D02*
Y1D01*
X1600000Y-499999D02*
Y1D01*
X1700000Y-499999D02*
Y1D01*
X1800000Y-499999D02*
Y1D01*
X1900000Y-499999D02*
Y1D01*
X2000000Y-499999D02*
Y1D01*
X2100000Y-399999D02*
Y1D01*
X300000Y-2399999D02*
Y-799999D01*
X400000Y-2399999D02*
Y-799999D01*
X500000Y-2399999D02*
Y-799999D01*
X600000Y-2399999D02*
Y-799999D01*
X700000Y-2399999D02*
Y-799999D01*
X900000Y-2399999D02*
Y-899999D01*
X1000000Y-2399999D02*
Y-899999D01*
X1100000Y-2399999D02*
Y-799999D01*
X1300000Y-2399999D02*
Y-799999D01*
X1400000Y-2399999D02*
Y-799999D01*
X1500000Y-2399999D02*
Y-799999D01*
X1600000Y-2399999D02*
Y-799999D01*
X1700000Y-2399999D02*
Y-799999D01*
X1800000Y-2399999D02*
Y-799999D01*
X1900000Y-2399999D02*
Y-799999D01*
X2000000Y-2399999D02*
Y-799999D01*
X2100000Y-2199999D02*
Y-799999D01*
X200000Y-2399999D02*
Y-799999D01*
X0Y-899999D02*
X2400000D01*
X1100000Y-799999D02*
X2400000D01*
X800000Y-2399999D02*
Y-899999D01*
X1200000Y-2399999D02*
Y-799999D01*
X1600000Y-499999D02*
X2000000D01*
X2200000Y-399999D02*
Y1D01*
Y-2399999D02*
Y-799999D01*
X200000Y-399999D02*
Y1D01*
X1247994Y112501D02*
Y100505D01*
Y106503D01*
X1230000D01*
X720000Y131001D02*
X725998D01*
X722999D01*
Y148995D01*
X720000Y145996D01*
X1681996Y151001D02*
X1670000D01*
X1681996Y162997D01*
Y165996D01*
X1678997Y168995D01*
X1672999D01*
X1670000Y165996D01*
X1671000Y125996D02*
X1673999Y128995D01*
X1679997D01*
X1682996Y125996D01*
Y122997D01*
X1679997Y119998D01*
X1676998D01*
X1679997D01*
X1682996Y116999D01*
Y114000D01*
X1679997Y111001D01*
X1673999D01*
X1671000Y114000D01*
D27*
X0Y-2400000D02*
Y-0D01*
Y-2400000D02*
X2400000D01*
Y-0D01*
X0D02*
X2400000D01*
M02*
