M48
;Layer_Color=9474304
;FILE_FORMAT=4:4
METRIC
;TYPE=PLATED
T1F00S00C0.5000
T2F00S00C0.9000
T3F00S00C1.0000
T4F00S00C2.0000
T5F00S00C3.0000
T6F00S00C3.2000
T7F00S00C3.5000
%
T01
X-00035000Y-02390000
Y-02370000
Y-02350000
Y-02330000
Y-02310000
Y-02290000
Y-02270000
Y-02250000
Y-02230000
Y-02210000
Y-02190000
Y-02170000
Y-02150000
Y-02130000
Y-02110000
Y-02090000
Y-02070000
Y-02050000
Y-02030000
Y-02010000
Y-01990000
Y-01970000
Y-01950000
Y-01930000
Y-01910000
Y-01890000
Y-01870000
Y-01850000
Y-01830000
Y-01810000
Y-01790000
Y-01770000
Y-01750000
Y-01730000
Y-01710000
Y-01690000
Y-01670000
Y-01650000
Y-01630000
Y-01610000
Y-01590000
Y-01570000
Y-01550000
Y-01530000
X02435000Y-01530000
Y-01550000
Y-01570000
Y-01590000
Y-01610000
Y-01630000
Y-01650000
Y-01670000
Y-01690000
Y-01710000
Y-01730000
Y-01750000
Y-01770000
Y-01790000
Y-01510000
Y-01490000
Y-01470000
Y-01450000
Y-01430000
Y-01410000
Y-01390000
Y-01370000
Y-01350000
Y-01330000
Y-01310000
Y-01290000
Y-01270000
Y-01250000
Y-01230000
Y-01210000
Y-01190000
Y-01170000
Y-01150000
Y-01130000
X-00035000Y-01130000
Y-01150000
Y-01170000
Y-01190000
Y-01210000
Y-01230000
Y-01250000
Y-01270000
Y-01290000
Y-01310000
Y-01330000
Y-01350000
Y-01370000
Y-01390000
Y-01410000
Y-01430000
Y-01450000
Y-01470000
Y-01490000
Y-01510000
Y-01110000
Y-01090000
Y-01070000
Y-01050000
Y-01030000
Y-01010000
Y-00990000
Y-00970000
Y-00950000
Y-00930000
Y-00910000
Y-00890000
Y-00870000
Y-00850000
Y-00830000
Y-00810000
Y-00790000
Y-00770000
Y-00750000
Y-00730000
X02435000Y-00730000
Y-00750000
Y-00770000
Y-00790000
Y-00810000
Y-00830000
Y-00850000
Y-00870000
Y-00890000
Y-00910000
Y-00930000
Y-00950000
Y-00970000
Y-00990000
Y-01010000
Y-01030000
Y-01050000
Y-01070000
Y-01090000
Y-01110000
Y-00710000
Y-00690000
Y-00670000
Y-00650000
Y-00630000
Y-00610000
Y-00570000
Y-00550000
Y-00530000
Y-00510000
Y-00490000
Y-00470000
Y-00450000
Y-00430000
Y-00410000
Y-00390000
Y-00370000
Y-00350000
Y-00330000
X-00035000
Y-00350000
Y-00370000
Y-00390000
Y-00410000
Y-00430000
Y-00450000
Y-00470000
Y-00490000
Y-00510000
Y-00530000
Y-00550000
Y-00570000
Y-00590000
Y-00610000
Y-00630000
Y-00650000
Y-00670000
Y-00690000
Y-00710000
Y-00310000
Y-00290000
Y-00270000
Y-00250000
Y-00230000
Y-00210000
Y-00190000
Y-00170000
Y-00150000
Y-00130000
Y-00110000
Y-00090000
Y-00070000
Y-00050000
X00217500Y00032500
X00237500
X00257500
X00277500
X00297500
X00317500
X00337500
X00357500
X00377500
X00397500
X00417500
X00437500
X00457500
X00477500
X00497500
X00517500
X00537500
X00557500
X00577500
X00597500
X00617500
X00637500
X00657500
X00677500
X00697500
X00717500
X00737500
X00757500
X00777500
X00797500
X00817500
X00837500
X00857500
X00877500
X00897500
X01117000Y00031001
X01175000Y00022500
X01195000
X01215000
X01235000
X01255000
X01275000
X01295000
X01315000
X01335000
X01355000
X01375000
X01395000
X01415000
X01495000Y00022500
X01515000
X01535000
X01555000
X01575000
X01595000
X01615000
X01635000
X01655000
X01675000
X01695000
X01715000
X01735000
X01755000
X01775000
X01795000
X01815000
X01835000
X01855000
X01875000
X01895000
X01915000
X02435000Y-00010000
Y-00030000
Y-00050000
Y-00070000
Y-00090000
Y-00110000
Y-00130000
Y-00150000
Y-00170000
Y-00190000
Y-00210000
Y-00230000
Y-00250000
Y-00270000
Y-00290000
Y-00310000
X01487500Y00177500
X01467500
X01447500
X01427500
X01407500
T02
X01187300Y00105601
X01212700
T03
X01050000Y00075001
X01080000
X01110000
X01290000
X01320000
X01350000
Y00105001
X01320000
X01290000
X01110000
X01080000
X01050000
T04
X01590000Y00120000
Y00160000
X00810000Y00140000
T05
X01320000Y00148201
X01080000
T06
X-00010000Y-02465000
X01200000Y-02465000
X02410000Y-02465000
X-00010000Y00055000
X02410000Y00055001
T07
X01480000Y00140000
X00920000
M30
