G04 Layer_Color=32896*
%FSLAX44Y44*%
%MOMM*%
G71*
G01*
G75*
%ADD24C,0.3000*%
%ADD25C,0.1500*%
%ADD26C,0.2000*%
%ADD27C,0.5000*%
%ADD35C,0.1270*%
G36*
X1481115Y-447871D02*
X1483315Y-448005D01*
X1484381Y-448138D01*
X1485381Y-448271D01*
X1486247Y-448405D01*
X1487114Y-448471D01*
X1487847Y-448605D01*
X1488513Y-448738D01*
X1489113Y-448871D01*
X1489580Y-449005D01*
X1489980Y-449071D01*
X1490246Y-449138D01*
X1490446Y-449204D01*
X1490513D01*
X1492379Y-449804D01*
X1494045Y-450471D01*
X1495512Y-451204D01*
X1496778Y-451937D01*
X1497778Y-452537D01*
X1498178Y-452803D01*
X1498511Y-453070D01*
X1498844Y-453270D01*
X1499044Y-453403D01*
X1499111Y-453470D01*
X1499177Y-453537D01*
X1500444Y-454670D01*
X1501510Y-455803D01*
X1502377Y-456936D01*
X1503110Y-458002D01*
X1503710Y-458935D01*
X1504109Y-459668D01*
X1504243Y-459935D01*
X1504376Y-460135D01*
X1504443Y-460268D01*
Y-460335D01*
X1505043Y-461801D01*
X1505442Y-463334D01*
X1505776Y-464800D01*
X1505976Y-466200D01*
X1506109Y-467333D01*
Y-467866D01*
X1506176Y-468266D01*
Y-468666D01*
Y-468933D01*
Y-469066D01*
Y-469133D01*
X1506109Y-470466D01*
X1506042Y-471665D01*
X1505842Y-472732D01*
X1505642Y-473731D01*
X1505509Y-474531D01*
X1505309Y-475065D01*
X1505242Y-475464D01*
X1505176Y-475531D01*
Y-475598D01*
X1504709Y-476664D01*
X1504243Y-477664D01*
X1503710Y-478530D01*
X1503176Y-479263D01*
X1502710Y-479863D01*
X1502310Y-480330D01*
X1502043Y-480596D01*
X1501977Y-480730D01*
X1501177Y-481530D01*
X1500244Y-482263D01*
X1499377Y-482929D01*
X1498511Y-483529D01*
X1497711Y-484062D01*
X1497111Y-484462D01*
X1496711Y-484729D01*
X1496645Y-484795D01*
X1496578D01*
X1495245Y-485528D01*
X1493912Y-486195D01*
X1492579Y-486861D01*
X1491313Y-487395D01*
X1490246Y-487794D01*
X1489780Y-487994D01*
X1489380Y-488194D01*
X1489113Y-488261D01*
X1488847Y-488394D01*
X1488713Y-488461D01*
X1488647D01*
X1488114Y-488661D01*
X1487647Y-488861D01*
X1487380Y-488928D01*
X1487247Y-488994D01*
X1487114Y-489061D01*
X1487047Y-489128D01*
X1486914D01*
X1486647Y-489261D01*
X1486114Y-489461D01*
X1485448Y-489727D01*
X1484781Y-489927D01*
X1484181Y-490194D01*
X1483715Y-490327D01*
X1483648Y-490394D01*
X1483581D01*
X1482582Y-490727D01*
X1481715Y-490994D01*
X1481315Y-491060D01*
X1481049Y-491194D01*
X1480915Y-491260D01*
X1480849D01*
X1479916Y-491594D01*
X1479116Y-491860D01*
X1478849Y-491927D01*
X1478583Y-492060D01*
X1478449Y-492127D01*
X1478383D01*
X1477516Y-492527D01*
X1476850Y-492860D01*
X1476583Y-492993D01*
X1476383Y-493126D01*
X1476317Y-493193D01*
X1476250D01*
X1475517Y-493660D01*
X1474850Y-493993D01*
X1474584Y-494193D01*
X1474384Y-494259D01*
X1474317Y-494393D01*
X1474250D01*
X1473584Y-494926D01*
X1473117Y-495393D01*
X1472784Y-495726D01*
X1472651Y-495793D01*
Y-495859D01*
X1472118Y-496459D01*
X1471718Y-496992D01*
X1471451Y-497459D01*
X1471384Y-497525D01*
Y-497592D01*
X1470985Y-498259D01*
X1470718Y-498925D01*
X1470651Y-499258D01*
X1470585Y-499458D01*
X1470518Y-499591D01*
Y-499658D01*
X1470385Y-500591D01*
X1470318Y-501458D01*
Y-501858D01*
Y-502124D01*
Y-502324D01*
Y-502391D01*
X1470385Y-503324D01*
X1470451Y-504124D01*
X1470518Y-504390D01*
Y-504657D01*
X1470585Y-504790D01*
Y-504857D01*
X1470918Y-505723D01*
X1471251Y-506390D01*
X1471384Y-506656D01*
X1471518Y-506790D01*
X1471584Y-506923D01*
X1471651Y-506990D01*
X1472184Y-507723D01*
X1472717Y-508389D01*
X1472917Y-508656D01*
X1473117Y-508856D01*
X1473184Y-508923D01*
X1473251Y-508989D01*
X1473917Y-509656D01*
X1474584Y-510122D01*
X1474850Y-510322D01*
X1475050Y-510455D01*
X1475184Y-510589D01*
X1475250D01*
X1476117Y-511055D01*
X1476916Y-511455D01*
X1477250Y-511588D01*
X1477516Y-511722D01*
X1477650Y-511788D01*
X1477716D01*
X1478716Y-512188D01*
X1479582Y-512455D01*
X1479982Y-512588D01*
X1480249Y-512655D01*
X1480449Y-512721D01*
X1480515D01*
X1481649Y-512988D01*
X1482182Y-513055D01*
X1482648Y-513121D01*
X1483048Y-513188D01*
X1483381Y-513255D01*
X1483648D01*
X1484781Y-513321D01*
X1485314D01*
X1485847Y-513388D01*
X1486847D01*
X1488580Y-513321D01*
X1489313D01*
X1490046Y-513255D01*
X1490646D01*
X1491113Y-513188D01*
X1491513D01*
X1493246Y-512988D01*
X1493979Y-512855D01*
X1494712Y-512788D01*
X1495312Y-512655D01*
X1495778Y-512588D01*
X1496045Y-512522D01*
X1496178D01*
X1497844Y-512122D01*
X1498644Y-511922D01*
X1499311Y-511788D01*
X1499844Y-511655D01*
X1500244Y-511522D01*
X1500577Y-511455D01*
X1500644D01*
X1502177Y-510922D01*
X1502910Y-510722D01*
X1503510Y-510455D01*
X1504043Y-510255D01*
X1504443Y-510122D01*
X1504709Y-510056D01*
X1504776Y-509989D01*
X1505176Y-511055D01*
X1505376Y-511588D01*
X1505509Y-511988D01*
X1505642Y-512388D01*
X1505776Y-512655D01*
X1505842Y-512855D01*
Y-512921D01*
X1506242Y-513988D01*
X1506375Y-514454D01*
X1506509Y-514921D01*
X1506642Y-515254D01*
X1506775Y-515521D01*
X1506842Y-515721D01*
Y-515787D01*
X1507175Y-516920D01*
X1507309Y-517387D01*
X1507442Y-517854D01*
X1507509Y-518253D01*
X1507575Y-518520D01*
X1507642Y-518720D01*
Y-518787D01*
X1507842Y-519853D01*
X1507908Y-520719D01*
X1507975Y-521119D01*
X1508042Y-521386D01*
Y-521586D01*
Y-521652D01*
X1506375Y-522252D01*
X1505576Y-522452D01*
X1504909Y-522652D01*
X1504243Y-522852D01*
X1503776Y-522985D01*
X1503510Y-523052D01*
X1503376D01*
X1501577Y-523519D01*
X1500777Y-523719D01*
X1499977Y-523852D01*
X1499311Y-523985D01*
X1498844Y-524119D01*
X1498511Y-524185D01*
X1498378D01*
X1496378Y-524519D01*
X1495445Y-524652D01*
X1494579Y-524718D01*
X1493845Y-524852D01*
X1493312D01*
X1492912Y-524918D01*
X1492779D01*
X1490446Y-525052D01*
X1489380D01*
X1488380Y-525118D01*
X1485048D01*
X1483848Y-525052D01*
X1482715Y-524985D01*
X1481782Y-524918D01*
X1480982Y-524852D01*
X1480382Y-524785D01*
X1479982Y-524718D01*
X1479849D01*
X1478716Y-524519D01*
X1477583Y-524319D01*
X1476583Y-524119D01*
X1475717Y-523852D01*
X1474984Y-523652D01*
X1474384Y-523519D01*
X1474050Y-523452D01*
X1473917Y-523385D01*
X1472851Y-523052D01*
X1471918Y-522719D01*
X1470985Y-522319D01*
X1470251Y-522052D01*
X1469585Y-521719D01*
X1469118Y-521519D01*
X1468852Y-521386D01*
X1468719Y-521319D01*
X1467852Y-520853D01*
X1466986Y-520386D01*
X1466252Y-519920D01*
X1465586Y-519520D01*
X1465053Y-519120D01*
X1464653Y-518853D01*
X1464386Y-518653D01*
X1464320Y-518587D01*
X1463586Y-517987D01*
X1462853Y-517387D01*
X1462254Y-516787D01*
X1461720Y-516254D01*
X1461320Y-515854D01*
X1460987Y-515521D01*
X1460787Y-515254D01*
X1460721Y-515187D01*
X1459721Y-513721D01*
X1459254Y-513055D01*
X1458854Y-512455D01*
X1458588Y-511922D01*
X1458321Y-511455D01*
X1458188Y-511189D01*
X1458121Y-511122D01*
X1457388Y-509456D01*
X1457121Y-508656D01*
X1456922Y-507923D01*
X1456721Y-507323D01*
X1456588Y-506856D01*
X1456522Y-506590D01*
Y-506456D01*
X1456188Y-504590D01*
X1456122Y-503724D01*
X1456055Y-502991D01*
X1455988Y-502324D01*
Y-501791D01*
Y-501458D01*
Y-501324D01*
Y-500458D01*
X1456055Y-499658D01*
X1456122Y-498925D01*
X1456188Y-498259D01*
X1456255Y-497725D01*
X1456322Y-497259D01*
X1456388Y-496992D01*
Y-496926D01*
X1456655Y-495526D01*
X1456788Y-494859D01*
X1456922Y-494326D01*
X1457121Y-493860D01*
X1457188Y-493460D01*
X1457321Y-493260D01*
Y-493193D01*
X1457921Y-491993D01*
X1458188Y-491460D01*
X1458454Y-490994D01*
X1458654Y-490594D01*
X1458854Y-490327D01*
X1458921Y-490127D01*
X1458988Y-490061D01*
X1459654Y-489061D01*
X1460254Y-488261D01*
X1460521Y-487928D01*
X1460721Y-487661D01*
X1460854Y-487528D01*
X1460921Y-487461D01*
X1461787Y-486595D01*
X1462587Y-485928D01*
X1462920Y-485662D01*
X1463187Y-485462D01*
X1463320Y-485328D01*
X1463387Y-485262D01*
X1464386Y-484529D01*
X1465319Y-483929D01*
X1465719Y-483729D01*
X1466053Y-483529D01*
X1466252Y-483462D01*
X1466319Y-483396D01*
X1467452Y-482863D01*
X1467985Y-482596D01*
X1468519Y-482396D01*
X1468918Y-482196D01*
X1469252Y-482063D01*
X1469452Y-481929D01*
X1469518D01*
X1470718Y-481463D01*
X1471318Y-481263D01*
X1471784Y-481130D01*
X1472251Y-480930D01*
X1472584Y-480863D01*
X1472784Y-480730D01*
X1472851D01*
X1473517Y-480463D01*
X1474050Y-480330D01*
X1474384Y-480196D01*
X1474584Y-480130D01*
X1474717D01*
X1474850Y-480063D01*
X1475050Y-479996D01*
X1475317Y-479930D01*
X1475983Y-479663D01*
X1476850Y-479330D01*
X1477716Y-479063D01*
X1478449Y-478797D01*
X1478716Y-478663D01*
X1478983Y-478597D01*
X1479116Y-478530D01*
X1479182D01*
X1480116Y-478264D01*
X1480915Y-477997D01*
X1481249Y-477864D01*
X1481515Y-477797D01*
X1481649Y-477730D01*
X1481715D01*
X1482582Y-477331D01*
X1483315Y-477064D01*
X1483648Y-476931D01*
X1483848Y-476864D01*
X1483981Y-476797D01*
X1484048D01*
X1484848Y-476464D01*
X1485514Y-476198D01*
X1485781Y-476064D01*
X1485981Y-475931D01*
X1486114Y-475864D01*
X1486181D01*
X1486847Y-475464D01*
X1487447Y-475065D01*
X1487847Y-474798D01*
X1487914Y-474731D01*
X1487980D01*
X1488647Y-474265D01*
X1489113Y-473865D01*
X1489447Y-473531D01*
X1489580Y-473398D01*
X1490046Y-472865D01*
X1490380Y-472332D01*
X1490646Y-471932D01*
X1490713Y-471865D01*
Y-471799D01*
X1491046Y-471132D01*
X1491313Y-470532D01*
X1491446Y-470066D01*
X1491513Y-469999D01*
Y-469932D01*
X1491646Y-469133D01*
X1491713Y-468400D01*
X1491779Y-468133D01*
Y-467866D01*
Y-467733D01*
Y-467666D01*
X1491713Y-466800D01*
X1491579Y-466000D01*
X1491446Y-465334D01*
X1491246Y-464734D01*
X1491046Y-464267D01*
X1490846Y-463867D01*
X1490780Y-463667D01*
X1490713Y-463601D01*
X1490246Y-463001D01*
X1489780Y-462468D01*
X1489247Y-462068D01*
X1488780Y-461668D01*
X1488313Y-461401D01*
X1487980Y-461201D01*
X1487714Y-461068D01*
X1487647Y-461001D01*
X1486047Y-460401D01*
X1485314Y-460202D01*
X1484648Y-460002D01*
X1484048Y-459802D01*
X1483581Y-459668D01*
X1483315Y-459602D01*
X1483181D01*
X1481382Y-459335D01*
X1480582Y-459268D01*
X1479782Y-459202D01*
X1479116Y-459135D01*
X1477250D01*
X1476383Y-459202D01*
X1475517D01*
X1474784Y-459268D01*
X1474184Y-459335D01*
X1473717D01*
X1473451Y-459402D01*
X1473317D01*
X1471651Y-459668D01*
X1470851Y-459802D01*
X1470185Y-459935D01*
X1469585Y-460068D01*
X1469185Y-460135D01*
X1468852Y-460268D01*
X1468785D01*
X1467186Y-460602D01*
X1466519Y-460801D01*
X1465919Y-460935D01*
X1465386Y-461068D01*
X1464986Y-461201D01*
X1464720Y-461268D01*
X1464653D01*
X1463320Y-461668D01*
X1462720Y-461868D01*
X1462187Y-462068D01*
X1461720Y-462201D01*
X1461387Y-462334D01*
X1461187Y-462401D01*
X1461120D01*
X1460721Y-461468D01*
X1460387Y-460668D01*
X1460321Y-460335D01*
X1460187Y-460068D01*
X1460121Y-459935D01*
Y-459868D01*
X1459787Y-458869D01*
X1459454Y-458002D01*
X1459388Y-457669D01*
X1459321Y-457402D01*
X1459254Y-457202D01*
Y-457136D01*
X1458988Y-456069D01*
X1458854Y-455603D01*
X1458788Y-455136D01*
X1458721Y-454803D01*
X1458654Y-454536D01*
X1458588Y-454336D01*
Y-454270D01*
X1458388Y-453203D01*
X1458255Y-452270D01*
X1458188Y-451870D01*
X1458121Y-451604D01*
Y-451404D01*
Y-451337D01*
X1459721Y-450871D01*
X1460454Y-450604D01*
X1461120Y-450404D01*
X1461720Y-450271D01*
X1462187Y-450137D01*
X1462453Y-450004D01*
X1462587D01*
X1464320Y-449538D01*
X1465186Y-449338D01*
X1465986Y-449204D01*
X1466652Y-449005D01*
X1467186Y-448938D01*
X1467519Y-448805D01*
X1467652D01*
X1469585Y-448471D01*
X1470518Y-448338D01*
X1471318Y-448205D01*
X1472051Y-448138D01*
X1472584Y-448071D01*
X1472917Y-448005D01*
X1473051D01*
X1475050Y-447871D01*
X1476050D01*
X1476850Y-447805D01*
X1478649D01*
X1481115Y-447871D01*
D02*
G37*
G36*
X1629611Y-419279D02*
X1631543D01*
X1631810Y-419345D01*
X1632210D01*
X1633010Y-419412D01*
X1633676D01*
X1633943Y-419479D01*
X1634343D01*
X1635076Y-419545D01*
X1635676Y-419679D01*
X1636142Y-419745D01*
X1636276D01*
X1636676Y-420945D01*
X1637009Y-422078D01*
X1637342Y-423078D01*
X1637609Y-423944D01*
X1637875Y-424611D01*
X1638075Y-425144D01*
X1638142Y-425477D01*
X1638208Y-425611D01*
X1638475Y-426544D01*
X1638742Y-427343D01*
X1639008Y-428143D01*
X1639208Y-428810D01*
X1639341Y-429343D01*
X1639475Y-429743D01*
X1639608Y-430009D01*
Y-430076D01*
X1640141Y-431742D01*
X1640608Y-433142D01*
X1641008Y-434342D01*
X1641341Y-435341D01*
X1641608Y-436141D01*
X1641808Y-436674D01*
X1641874Y-437007D01*
X1641941Y-437141D01*
X1642274Y-438074D01*
X1642541Y-439007D01*
X1642874Y-439940D01*
X1643141Y-440807D01*
X1643407Y-441606D01*
X1643540Y-442206D01*
X1643674Y-442606D01*
X1643740Y-442673D01*
Y-442739D01*
X1644007Y-443473D01*
X1644274Y-444206D01*
X1644340Y-444472D01*
X1644407Y-444739D01*
X1644474Y-444872D01*
Y-444939D01*
X1644807Y-445939D01*
X1645073Y-446872D01*
X1645207Y-447205D01*
X1645340Y-447538D01*
X1645407Y-447738D01*
Y-447805D01*
X1645806Y-449005D01*
X1645940Y-449538D01*
X1646140Y-450071D01*
X1646273Y-450537D01*
X1646406Y-450871D01*
X1646540Y-451137D01*
Y-451204D01*
X1647006Y-452670D01*
X1647273Y-453403D01*
X1647473Y-454070D01*
X1647673Y-454670D01*
X1647806Y-455136D01*
X1647873Y-455403D01*
X1647939Y-455536D01*
X1648406Y-457002D01*
X1648872Y-458469D01*
X1649339Y-459935D01*
X1649805Y-461335D01*
X1650205Y-462534D01*
X1650405Y-463068D01*
X1650539Y-463467D01*
X1650672Y-463867D01*
X1650739Y-464134D01*
X1650805Y-464267D01*
Y-464334D01*
X1651405Y-466267D01*
X1652072Y-468333D01*
X1652738Y-470266D01*
X1653271Y-472065D01*
X1653604Y-472932D01*
X1653804Y-473665D01*
X1654071Y-474331D01*
X1654204Y-474931D01*
X1654404Y-475398D01*
X1654538Y-475798D01*
X1654604Y-475998D01*
Y-476064D01*
X1655137Y-477664D01*
X1655671Y-479397D01*
X1656804Y-482796D01*
X1657870Y-486195D01*
X1658403Y-487794D01*
X1658936Y-489328D01*
X1659403Y-490794D01*
X1659803Y-492127D01*
X1660203Y-493260D01*
X1660536Y-494326D01*
X1660803Y-495126D01*
X1660936Y-495726D01*
X1661069Y-496126D01*
X1661136Y-496192D01*
Y-496259D01*
X1661869Y-498459D01*
X1662602Y-500725D01*
X1664135Y-505390D01*
X1664868Y-507656D01*
X1665601Y-509922D01*
X1666335Y-512122D01*
X1667001Y-514188D01*
X1667601Y-516121D01*
X1668201Y-517854D01*
X1668734Y-519453D01*
X1669134Y-520786D01*
X1669334Y-521386D01*
X1669534Y-521852D01*
X1669667Y-522319D01*
X1669800Y-522719D01*
X1669867Y-522985D01*
X1669934Y-523186D01*
X1670000Y-523319D01*
Y-523385D01*
X1669400Y-523519D01*
X1668867Y-523652D01*
X1668467Y-523719D01*
X1668334D01*
X1667668Y-523785D01*
X1667134D01*
X1666668Y-523852D01*
X1666534D01*
X1665801Y-523919D01*
X1664535D01*
X1663802Y-523985D01*
X1661869D01*
X1661269Y-523919D01*
X1659936D01*
X1659336Y-523852D01*
X1658737D01*
X1658070Y-523785D01*
X1657537D01*
X1657070Y-523719D01*
X1656937D01*
X1656204Y-523585D01*
X1655604Y-523519D01*
X1655337Y-523452D01*
X1655137Y-523385D01*
X1655004D01*
X1654138Y-520519D01*
X1653338Y-517787D01*
X1652605Y-515254D01*
X1651938Y-512921D01*
X1651338Y-510789D01*
X1650739Y-508789D01*
X1650205Y-507056D01*
X1649739Y-505457D01*
X1649339Y-504057D01*
X1649006Y-502857D01*
X1648672Y-501791D01*
X1648472Y-500924D01*
X1648273Y-500325D01*
X1648139Y-499858D01*
X1648006Y-499525D01*
Y-499458D01*
X1608616D01*
X1608416Y-500125D01*
X1608216Y-500725D01*
X1608016Y-501258D01*
X1607883Y-501724D01*
X1607683Y-502524D01*
X1607483Y-503057D01*
X1607416Y-503391D01*
X1607350Y-503657D01*
X1607283Y-503790D01*
X1607216Y-503924D01*
Y-504124D01*
X1607016Y-504590D01*
X1606816Y-505257D01*
X1606617Y-505923D01*
X1606416Y-506590D01*
X1606217Y-507190D01*
X1606150Y-507589D01*
X1606083Y-507656D01*
Y-507723D01*
X1605883Y-508389D01*
X1605750Y-509056D01*
X1605683Y-509389D01*
X1605617Y-509589D01*
X1605550Y-509722D01*
Y-509789D01*
X1605217Y-510655D01*
X1604950Y-511522D01*
X1604817Y-511922D01*
X1604750Y-512255D01*
X1604684Y-512455D01*
Y-512522D01*
X1604417Y-513255D01*
X1604151Y-514054D01*
X1603951Y-514854D01*
X1603751Y-515521D01*
X1603551Y-516187D01*
X1603417Y-516654D01*
X1603284Y-516987D01*
Y-517120D01*
X1602951Y-518187D01*
X1602617Y-519253D01*
X1602284Y-520320D01*
X1602018Y-521253D01*
X1601751Y-522119D01*
X1601551Y-522786D01*
X1601485Y-523052D01*
X1601418Y-523252D01*
X1601351Y-523319D01*
Y-523385D01*
X1600751Y-523519D01*
X1600152Y-523652D01*
X1599752Y-523719D01*
X1599618D01*
X1598952Y-523785D01*
X1598285D01*
X1598019Y-523852D01*
X1597686D01*
X1597019Y-523919D01*
X1595753D01*
X1595086Y-523985D01*
X1593087D01*
X1592420Y-523919D01*
X1591087D01*
X1590354Y-523852D01*
X1589688D01*
X1588888Y-523785D01*
X1588221D01*
X1588021Y-523719D01*
X1587621D01*
X1586888Y-523585D01*
X1586355Y-523519D01*
X1585955Y-523385D01*
X1585822D01*
X1586222Y-522186D01*
X1586555Y-521119D01*
X1586888Y-520120D01*
X1587155Y-519253D01*
X1587355Y-518587D01*
X1587555Y-518053D01*
X1587621Y-517720D01*
X1587688Y-517587D01*
X1587955Y-516654D01*
X1588221Y-515787D01*
X1588488Y-515054D01*
X1588688Y-514388D01*
X1588821Y-513788D01*
X1588954Y-513388D01*
X1589088Y-513121D01*
Y-513055D01*
X1589621Y-511389D01*
X1590154Y-509989D01*
X1590554Y-508789D01*
X1590820Y-507789D01*
X1591087Y-507056D01*
X1591287Y-506523D01*
X1591354Y-506190D01*
X1591420Y-506057D01*
X1591754Y-505123D01*
X1592020Y-504190D01*
X1592354Y-503257D01*
X1592620Y-502324D01*
X1592887Y-501591D01*
X1593087Y-500991D01*
X1593220Y-500591D01*
X1593287Y-500525D01*
Y-500458D01*
X1593486Y-499658D01*
X1593687Y-498925D01*
X1593820Y-498658D01*
X1593886Y-498392D01*
X1593953Y-498259D01*
Y-498192D01*
X1594286Y-497192D01*
X1594620Y-496326D01*
X1594686Y-495926D01*
X1594819Y-495659D01*
X1594886Y-495459D01*
Y-495393D01*
X1595286Y-494193D01*
X1595419Y-493593D01*
X1595619Y-493060D01*
X1595753Y-492593D01*
X1595886Y-492260D01*
X1596019Y-491993D01*
Y-491927D01*
X1596486Y-490461D01*
X1596752Y-489727D01*
X1596952Y-489061D01*
X1597152Y-488528D01*
X1597286Y-488061D01*
X1597352Y-487794D01*
X1597419Y-487661D01*
X1597885Y-486195D01*
X1598352Y-484729D01*
X1598819Y-483262D01*
X1599285Y-481863D01*
X1599618Y-480663D01*
X1599818Y-480130D01*
X1599951Y-479730D01*
X1600085Y-479330D01*
X1600152Y-479063D01*
X1600218Y-478930D01*
Y-478863D01*
X1600885Y-476931D01*
X1601551Y-474865D01*
X1602151Y-472932D01*
X1602751Y-471065D01*
X1603017Y-470199D01*
X1603284Y-469466D01*
X1603551Y-468799D01*
X1603684Y-468200D01*
X1603884Y-467733D01*
X1604017Y-467333D01*
X1604084Y-467133D01*
Y-467066D01*
X1604617Y-465400D01*
X1605150Y-463734D01*
X1606283Y-460335D01*
X1607350Y-456936D01*
X1607883Y-455336D01*
X1608416Y-453803D01*
X1608883Y-452337D01*
X1609283Y-451071D01*
X1609682Y-449871D01*
X1610016Y-448871D01*
X1610282Y-448071D01*
X1610415Y-447472D01*
X1610549Y-447072D01*
X1610616Y-446938D01*
X1611349Y-444739D01*
X1612082Y-442406D01*
X1613615Y-437807D01*
X1614348Y-435475D01*
X1615081Y-433209D01*
X1615748Y-431076D01*
X1616414Y-429010D01*
X1617081Y-427077D01*
X1617614Y-425277D01*
X1618147Y-423744D01*
X1618547Y-422345D01*
X1618747Y-421745D01*
X1618947Y-421278D01*
X1619080Y-420812D01*
X1619213Y-420412D01*
X1619280Y-420145D01*
X1619347Y-419945D01*
X1619413Y-419812D01*
Y-419745D01*
X1620146Y-419612D01*
X1620813Y-419545D01*
X1621080D01*
X1621279Y-419479D01*
X1621413D01*
X1622213Y-419412D01*
X1622879D01*
X1623212Y-419345D01*
X1623612D01*
X1624412Y-419279D01*
X1625745D01*
X1626478Y-419212D01*
X1629277D01*
X1629611Y-419279D01*
D02*
G37*
G36*
X1573891Y-448938D02*
X1574291Y-449005D01*
X1575624D01*
X1575891Y-449071D01*
X1576291D01*
X1577157Y-449138D01*
X1577890Y-449271D01*
X1578490Y-449338D01*
X1578957D01*
X1579357Y-449404D01*
X1579690Y-449471D01*
X1579890D01*
Y-450404D01*
Y-451137D01*
Y-451404D01*
Y-451604D01*
Y-451737D01*
Y-451804D01*
Y-452470D01*
Y-453070D01*
Y-453403D01*
Y-453470D01*
Y-453537D01*
Y-454603D01*
Y-455536D01*
Y-456269D01*
Y-456869D01*
Y-457269D01*
Y-457602D01*
Y-457736D01*
Y-457802D01*
Y-458069D01*
Y-458402D01*
Y-459202D01*
Y-460135D01*
Y-461135D01*
Y-462134D01*
Y-462934D01*
Y-463201D01*
Y-463467D01*
Y-463601D01*
Y-463667D01*
Y-464867D01*
Y-465467D01*
Y-466000D01*
Y-466467D01*
Y-466800D01*
Y-467066D01*
Y-467133D01*
Y-468733D01*
Y-469533D01*
Y-470266D01*
Y-470866D01*
Y-471332D01*
Y-471665D01*
Y-471799D01*
Y-473132D01*
Y-474465D01*
Y-475798D01*
Y-477064D01*
Y-478130D01*
Y-478597D01*
Y-478997D01*
Y-479263D01*
Y-479530D01*
Y-479663D01*
Y-479730D01*
Y-481530D01*
Y-483329D01*
Y-485195D01*
Y-486861D01*
Y-487595D01*
Y-488328D01*
Y-488928D01*
Y-489461D01*
Y-489927D01*
Y-490261D01*
Y-490461D01*
Y-490527D01*
X1579823Y-492593D01*
X1579757Y-494459D01*
X1579623Y-496126D01*
X1579490Y-497592D01*
X1579424Y-498259D01*
X1579357Y-498858D01*
Y-499325D01*
X1579290Y-499725D01*
X1579223Y-500058D01*
X1579157Y-500325D01*
Y-500458D01*
Y-500525D01*
X1578890Y-502124D01*
X1578557Y-503657D01*
X1578224Y-504990D01*
X1577890Y-506123D01*
X1577624Y-507056D01*
X1577357Y-507789D01*
X1577291Y-508056D01*
X1577224Y-508256D01*
X1577157Y-508323D01*
Y-508389D01*
X1576624Y-509589D01*
X1576091Y-510789D01*
X1575558Y-511788D01*
X1575025Y-512655D01*
X1574558Y-513388D01*
X1574225Y-513921D01*
X1573958Y-514254D01*
X1573891Y-514388D01*
X1573158Y-515321D01*
X1572425Y-516187D01*
X1571759Y-516987D01*
X1571092Y-517654D01*
X1570559Y-518187D01*
X1570092Y-518587D01*
X1569826Y-518853D01*
X1569693Y-518920D01*
X1568759Y-519586D01*
X1567893Y-520186D01*
X1567027Y-520719D01*
X1566227Y-521186D01*
X1565560Y-521519D01*
X1565027Y-521852D01*
X1564694Y-521986D01*
X1564561Y-522052D01*
X1562428Y-522852D01*
X1561428Y-523186D01*
X1560495Y-523452D01*
X1559762Y-523652D01*
X1559162Y-523785D01*
X1558762Y-523919D01*
X1558629D01*
X1557429Y-524119D01*
X1556296Y-524319D01*
X1555163Y-524452D01*
X1554163Y-524585D01*
X1553363Y-524718D01*
X1552697Y-524785D01*
X1552497D01*
X1552297Y-524852D01*
X1552164D01*
X1550897Y-524918D01*
X1549631Y-524985D01*
X1548498Y-525052D01*
X1547432D01*
X1546499Y-525118D01*
X1543833D01*
X1542500Y-525052D01*
X1541300D01*
X1540167Y-524985D01*
X1539234Y-524918D01*
X1538501D01*
X1538234Y-524852D01*
X1537901D01*
X1536568Y-524718D01*
X1535301Y-524519D01*
X1534102Y-524385D01*
X1533035Y-524185D01*
X1532102Y-524052D01*
X1531436Y-523919D01*
X1531169D01*
X1530969Y-523852D01*
X1530836D01*
X1529503Y-523585D01*
X1528303Y-523385D01*
X1527170Y-523119D01*
X1526237Y-522919D01*
X1525371Y-522786D01*
X1524771Y-522652D01*
X1524371Y-522519D01*
X1524238D01*
X1523171Y-522252D01*
X1522171Y-521986D01*
X1521238Y-521719D01*
X1520372Y-521519D01*
X1519705Y-521386D01*
X1519239Y-521253D01*
X1518906Y-521119D01*
X1518772D01*
Y-520320D01*
Y-519520D01*
Y-518853D01*
Y-518253D01*
Y-517720D01*
Y-517387D01*
Y-517120D01*
Y-517054D01*
Y-515854D01*
Y-515321D01*
Y-514854D01*
Y-514521D01*
Y-514188D01*
Y-514054D01*
Y-513988D01*
Y-512855D01*
Y-511855D01*
Y-510989D01*
Y-510322D01*
Y-509722D01*
Y-509389D01*
Y-509122D01*
Y-509056D01*
Y-507789D01*
Y-507123D01*
Y-506523D01*
Y-506057D01*
Y-505590D01*
Y-505323D01*
Y-505257D01*
Y-504657D01*
Y-504124D01*
Y-503790D01*
Y-503724D01*
Y-503657D01*
Y-502991D01*
Y-502391D01*
Y-502124D01*
Y-501924D01*
Y-501791D01*
Y-501724D01*
Y-500924D01*
Y-500125D01*
Y-499791D01*
Y-499525D01*
Y-499392D01*
Y-499325D01*
Y-498325D01*
Y-497325D01*
Y-496992D01*
Y-496659D01*
Y-496459D01*
Y-496392D01*
Y-495393D01*
Y-494326D01*
Y-493326D01*
Y-492393D01*
Y-491527D01*
Y-490927D01*
Y-490661D01*
Y-490461D01*
Y-490394D01*
Y-490327D01*
Y-488928D01*
Y-487528D01*
Y-486128D01*
Y-484862D01*
Y-483729D01*
Y-483262D01*
Y-482863D01*
Y-482529D01*
Y-482263D01*
Y-482129D01*
Y-482063D01*
Y-479797D01*
Y-477464D01*
Y-475131D01*
Y-474065D01*
Y-472998D01*
Y-471999D01*
Y-471132D01*
Y-470266D01*
Y-469599D01*
Y-469066D01*
Y-468599D01*
Y-468333D01*
Y-468266D01*
Y-465134D01*
Y-461935D01*
Y-458802D01*
Y-457269D01*
Y-455869D01*
Y-454536D01*
Y-453337D01*
Y-452204D01*
Y-451270D01*
Y-450537D01*
Y-449938D01*
Y-449604D01*
Y-449471D01*
X1519372Y-449338D01*
X1519905Y-449271D01*
X1520305Y-449204D01*
X1520439D01*
X1521105Y-449138D01*
X1521705D01*
X1521971Y-449071D01*
X1522305D01*
X1522971Y-449005D01*
X1524104D01*
X1524704Y-448938D01*
X1525237Y-448871D01*
X1526437D01*
X1526970Y-448938D01*
X1527370Y-449005D01*
X1528703D01*
X1529170Y-449071D01*
X1529303D01*
X1530036Y-449138D01*
X1530636D01*
X1531036Y-449204D01*
X1531169D01*
X1531836Y-449271D01*
X1532369Y-449404D01*
X1532702Y-449471D01*
X1532835D01*
Y-450204D01*
Y-450871D01*
Y-451470D01*
Y-452004D01*
Y-452404D01*
Y-452737D01*
Y-452937D01*
Y-453003D01*
Y-454003D01*
Y-454470D01*
Y-454870D01*
Y-455203D01*
Y-455470D01*
Y-455603D01*
Y-455669D01*
Y-456936D01*
Y-458069D01*
Y-459002D01*
Y-459668D01*
Y-460268D01*
Y-460602D01*
Y-460868D01*
Y-460935D01*
Y-461601D01*
Y-462468D01*
Y-463334D01*
Y-464201D01*
Y-465000D01*
Y-465667D01*
Y-465933D01*
Y-466133D01*
Y-466200D01*
Y-466267D01*
Y-467000D01*
Y-467666D01*
Y-467933D01*
Y-468133D01*
Y-468266D01*
Y-468333D01*
Y-469199D01*
Y-469999D01*
Y-470332D01*
Y-470599D01*
Y-470799D01*
Y-470866D01*
Y-471732D01*
Y-472598D01*
Y-473465D01*
Y-474265D01*
Y-474998D01*
Y-475531D01*
Y-475931D01*
Y-475998D01*
Y-476064D01*
Y-477264D01*
Y-478464D01*
Y-479663D01*
Y-480796D01*
Y-481729D01*
Y-482529D01*
Y-482796D01*
Y-482996D01*
Y-483129D01*
Y-483196D01*
Y-485195D01*
Y-487261D01*
Y-489261D01*
Y-491194D01*
Y-492060D01*
Y-492860D01*
Y-493526D01*
Y-494126D01*
Y-494659D01*
Y-494993D01*
Y-495259D01*
Y-495326D01*
Y-498059D01*
Y-500791D01*
Y-503524D01*
Y-504857D01*
Y-506057D01*
Y-507256D01*
Y-508256D01*
Y-509256D01*
Y-510056D01*
Y-510655D01*
Y-511189D01*
Y-511455D01*
Y-511588D01*
X1534835Y-512122D01*
X1535835Y-512322D01*
X1536701Y-512455D01*
X1537501Y-512588D01*
X1538101Y-512721D01*
X1538501Y-512788D01*
X1538634D01*
X1540967Y-512988D01*
X1542100Y-513055D01*
X1543166D01*
X1544099Y-513121D01*
X1545432D01*
X1547165Y-513055D01*
X1547965D01*
X1548631Y-512988D01*
X1549231D01*
X1549631Y-512921D01*
X1550031D01*
X1550831Y-512788D01*
X1551564Y-512655D01*
X1552230Y-512522D01*
X1552830Y-512388D01*
X1553363Y-512322D01*
X1553697Y-512188D01*
X1553963Y-512122D01*
X1554030D01*
X1555363Y-511722D01*
X1555963Y-511455D01*
X1556496Y-511255D01*
X1556962Y-511055D01*
X1557296Y-510855D01*
X1557496Y-510789D01*
X1557562Y-510722D01*
X1558629Y-509989D01*
X1559162Y-509656D01*
X1559562Y-509322D01*
X1559895Y-509056D01*
X1560162Y-508789D01*
X1560362Y-508656D01*
X1560428Y-508589D01*
X1561295Y-507523D01*
X1562028Y-506523D01*
X1562294Y-506057D01*
X1562495Y-505723D01*
X1562628Y-505523D01*
X1562694Y-505457D01*
X1563361Y-504057D01*
X1563627Y-503391D01*
X1563894Y-502791D01*
X1564027Y-502191D01*
X1564161Y-501791D01*
X1564294Y-501524D01*
Y-501391D01*
X1564760Y-499658D01*
X1564894Y-498792D01*
X1565027Y-497992D01*
X1565160Y-497325D01*
X1565227Y-496792D01*
X1565294Y-496459D01*
Y-496326D01*
X1565427Y-494126D01*
X1565494Y-493060D01*
Y-492060D01*
X1565560Y-491194D01*
Y-490594D01*
Y-490327D01*
Y-490127D01*
Y-490061D01*
Y-489994D01*
Y-489061D01*
Y-488328D01*
Y-488061D01*
Y-487861D01*
Y-487728D01*
Y-487661D01*
Y-486928D01*
Y-486395D01*
Y-485995D01*
Y-485928D01*
Y-485862D01*
Y-484795D01*
Y-483929D01*
Y-483262D01*
Y-482663D01*
Y-482263D01*
Y-481929D01*
Y-481796D01*
Y-481729D01*
Y-481463D01*
Y-481130D01*
Y-480330D01*
Y-479397D01*
Y-478397D01*
Y-477464D01*
Y-476664D01*
Y-476397D01*
Y-476131D01*
Y-475998D01*
Y-475931D01*
Y-474798D01*
Y-474198D01*
Y-473665D01*
Y-473198D01*
Y-472865D01*
Y-472598D01*
Y-472532D01*
Y-470999D01*
Y-470199D01*
Y-469533D01*
Y-468933D01*
Y-468400D01*
Y-468133D01*
Y-468000D01*
Y-466667D01*
Y-465334D01*
Y-464001D01*
Y-462801D01*
Y-461735D01*
Y-461268D01*
Y-460868D01*
Y-460535D01*
Y-460335D01*
Y-460202D01*
Y-460135D01*
Y-458335D01*
Y-456536D01*
Y-454736D01*
Y-453070D01*
Y-452337D01*
Y-451604D01*
Y-451004D01*
Y-450471D01*
Y-450071D01*
Y-449738D01*
Y-449538D01*
Y-449471D01*
X1566227Y-449338D01*
X1566760Y-449271D01*
X1567160Y-449204D01*
X1567293D01*
X1567960Y-449138D01*
X1568560D01*
X1569026Y-449071D01*
X1569159D01*
X1569893Y-449005D01*
X1571159D01*
X1571759Y-448938D01*
X1572292Y-448871D01*
X1573358D01*
X1573891Y-448938D01*
D02*
G37*
G36*
X111335Y-2221340D02*
Y-2221673D01*
Y-2222007D01*
X115002Y-2241673D01*
Y-2242340D01*
X115335Y-2242673D01*
X116002D01*
X129335Y-2248340D01*
X130668D01*
X147001Y-2236340D01*
X148334Y-2236673D01*
X148668Y-2237006D01*
X162667Y-2250673D01*
Y-2251006D01*
Y-2251339D01*
Y-2251673D01*
Y-2252006D01*
X151334Y-2268672D01*
Y-2269006D01*
Y-2269339D01*
Y-2269672D01*
Y-2270005D01*
X157001Y-2283672D01*
X157668Y-2284339D01*
X158001Y-2284672D01*
X158334D01*
X177334Y-2288005D01*
X178000D01*
X178334Y-2288338D01*
Y-2288672D01*
Y-2289005D01*
Y-2308671D01*
X178000Y-2309338D01*
X177667Y-2309671D01*
X177334D01*
X159001Y-2313671D01*
X158334D01*
X158001Y-2314004D01*
Y-2314338D01*
X152001Y-2329004D01*
Y-2329671D01*
Y-2330004D01*
Y-2330337D01*
X162667Y-2346004D01*
Y-2346337D01*
Y-2346670D01*
Y-2347003D01*
X148668Y-2361003D01*
X148001Y-2361336D01*
X147668D01*
X147001Y-2361003D01*
X132001Y-2350670D01*
X130668D01*
X124002Y-2354670D01*
X123002Y-2354337D01*
X122669Y-2354003D01*
X109002Y-2320671D01*
Y-2319337D01*
X109335Y-2319004D01*
X111335Y-2318338D01*
Y-2318004D01*
X111669D01*
X112002Y-2317671D01*
X112335Y-2317338D01*
X115669Y-2314671D01*
X118002Y-2312004D01*
X119669Y-2309005D01*
X120668Y-2306005D01*
X121335Y-2303338D01*
X122002Y-2301338D01*
Y-2300005D01*
Y-2299338D01*
X121669Y-2296005D01*
X121002Y-2293005D01*
X120002Y-2290338D01*
X118669Y-2288005D01*
X117669Y-2286005D01*
X116669Y-2284672D01*
X116002Y-2284005D01*
X115669Y-2283672D01*
X113335Y-2281339D01*
X110669Y-2279672D01*
X108002Y-2278672D01*
X105669Y-2277672D01*
X103669Y-2277339D01*
X101669Y-2277005D01*
X100336D01*
X97002Y-2277339D01*
X94003Y-2278005D01*
X91336Y-2279005D01*
X89003Y-2280339D01*
X87336Y-2281672D01*
X86003Y-2282672D01*
X85336Y-2283338D01*
X85003Y-2283672D01*
X83003Y-2286005D01*
X81336Y-2288672D01*
X80336Y-2291338D01*
X79336Y-2294005D01*
X79003Y-2296005D01*
X78670Y-2297672D01*
Y-2299005D01*
Y-2299338D01*
X79003Y-2303671D01*
X80336Y-2307338D01*
X81670Y-2310338D01*
X83670Y-2312671D01*
X85336Y-2314671D01*
X87003Y-2316338D01*
X88336Y-2317004D01*
X88669Y-2317338D01*
X89003Y-2317671D01*
X89336Y-2318004D01*
X89669Y-2318338D01*
X91336Y-2319004D01*
X92003Y-2320004D01*
Y-2320338D01*
Y-2320671D01*
X77670Y-2354003D01*
X77336Y-2354337D01*
X77003Y-2354670D01*
X76670D01*
X70337Y-2350670D01*
X68670D01*
X53670Y-2361003D01*
X53004Y-2361336D01*
X52670D01*
X52337Y-2361003D01*
X38004Y-2347003D01*
Y-2346670D01*
Y-2346004D01*
X49004Y-2330337D01*
Y-2330004D01*
Y-2329337D01*
Y-2329004D01*
X42671Y-2314338D01*
X42337Y-2314004D01*
X42004Y-2313671D01*
X41671D01*
X23338Y-2309671D01*
X22671Y-2309338D01*
X22338Y-2309005D01*
Y-2308671D01*
Y-2289005D01*
Y-2288338D01*
X22671Y-2288005D01*
X23338D01*
X42337Y-2284672D01*
X43004Y-2284339D01*
X43337Y-2284005D01*
Y-2283672D01*
X49337Y-2270005D01*
Y-2269672D01*
Y-2269339D01*
Y-2268672D01*
X38004Y-2252006D01*
Y-2251673D01*
Y-2251339D01*
Y-2251006D01*
Y-2250673D01*
X52337Y-2237006D01*
X53004Y-2236340D01*
X53670D01*
X70337Y-2248340D01*
X71670D01*
X84670Y-2242673D01*
X85336Y-2242340D01*
X85669Y-2242006D01*
Y-2241673D01*
X89669Y-2222007D01*
Y-2221340D01*
X90003Y-2221007D01*
X111002D01*
X111335Y-2221340D01*
D02*
G37*
G36*
X303585Y-2215418D02*
X305251Y-2215626D01*
X306501Y-2216043D01*
X307543Y-2216460D01*
X308376Y-2216876D01*
X309001Y-2217085D01*
X309210Y-2217293D01*
X309835Y-2217710D01*
X310251Y-2218126D01*
X310668Y-2218335D01*
X310460D01*
X312751Y-2220210D01*
X314418Y-2222085D01*
X315043Y-2222918D01*
X315459Y-2223543D01*
X315876Y-2223960D01*
Y-2224168D01*
X385667Y-2345000D01*
Y-2345208D01*
X385875Y-2345417D01*
X386292Y-2346458D01*
X386709Y-2347083D01*
X386917Y-2347500D01*
Y-2347708D01*
X387125Y-2348333D01*
X387334Y-2349167D01*
X387542Y-2350000D01*
Y-2350208D01*
X387959Y-2352708D01*
Y-2355000D01*
X387542Y-2357083D01*
X387125Y-2358958D01*
X386709Y-2360416D01*
X386084Y-2361666D01*
X385875Y-2362500D01*
X385667Y-2362708D01*
X385459D01*
X385042Y-2363541D01*
X384625Y-2364375D01*
X384209Y-2364791D01*
X384000Y-2365000D01*
X382959Y-2366250D01*
X382542Y-2366666D01*
X382334Y-2366875D01*
X380250Y-2368541D01*
X378167Y-2369791D01*
X376084Y-2370625D01*
X374000Y-2371041D01*
X372334Y-2371458D01*
X371084Y-2371666D01*
X229002D01*
X227961Y-2371458D01*
X227336D01*
X226711Y-2371250D01*
X225877Y-2371041D01*
X225044Y-2370833D01*
X224836D01*
X222544Y-2369791D01*
X220461Y-2368750D01*
X218794Y-2367291D01*
X217336Y-2366041D01*
X216294Y-2364791D01*
X215461Y-2363750D01*
X215044Y-2362916D01*
X214836Y-2362708D01*
X214211Y-2361666D01*
X214002Y-2360833D01*
X213794Y-2360416D01*
Y-2360208D01*
X213377Y-2359166D01*
X213169Y-2358333D01*
X212961Y-2357916D01*
Y-2357708D01*
X212544Y-2355208D01*
X212752Y-2352708D01*
X212961Y-2350625D01*
X213377Y-2348750D01*
X214002Y-2347083D01*
X214419Y-2345833D01*
X214836Y-2345000D01*
X215044Y-2344792D01*
X284835Y-2223751D01*
X285877Y-2222293D01*
X286085Y-2221876D01*
X286293Y-2221668D01*
X286918Y-2221043D01*
X287543Y-2220418D01*
X287960Y-2220001D01*
X288168Y-2219793D01*
X290252Y-2218126D01*
X292335Y-2217085D01*
X294210Y-2216251D01*
X296085Y-2215626D01*
X297751Y-2215210D01*
X299001Y-2215001D01*
X301918D01*
X303585Y-2215418D01*
D02*
G37*
G36*
X1351682Y-418279D02*
X1352881D01*
X1354148Y-418346D01*
X1355414Y-418412D01*
X1356614Y-418479D01*
X1357614Y-418546D01*
X1358547Y-418612D01*
X1359213D01*
X1359480Y-418679D01*
X1359813D01*
X1361013Y-418745D01*
X1362146Y-418879D01*
X1363145Y-418946D01*
X1364012Y-419012D01*
X1364678Y-419079D01*
X1365212Y-419145D01*
X1365545Y-419212D01*
X1365678D01*
X1367611Y-419412D01*
X1368477Y-419479D01*
X1369344Y-419545D01*
X1370010Y-419612D01*
X1370544Y-419679D01*
X1370877Y-419745D01*
X1371677D01*
Y-420945D01*
Y-422078D01*
Y-423078D01*
Y-423944D01*
Y-424677D01*
Y-425144D01*
Y-425477D01*
Y-425611D01*
Y-426544D01*
Y-427343D01*
Y-428143D01*
Y-428810D01*
Y-429343D01*
Y-429743D01*
Y-430009D01*
Y-430076D01*
Y-431742D01*
Y-433142D01*
Y-434342D01*
Y-435341D01*
Y-436141D01*
Y-436674D01*
Y-437007D01*
Y-437141D01*
Y-438074D01*
Y-439007D01*
Y-439940D01*
Y-440807D01*
Y-441606D01*
Y-442206D01*
Y-442606D01*
Y-442673D01*
Y-442739D01*
Y-443539D01*
Y-444272D01*
Y-444539D01*
Y-444805D01*
Y-444939D01*
Y-445005D01*
Y-445939D01*
Y-446872D01*
Y-447205D01*
Y-447538D01*
Y-447738D01*
Y-447805D01*
Y-449005D01*
Y-449538D01*
Y-450071D01*
Y-450537D01*
Y-450871D01*
Y-451137D01*
Y-451204D01*
Y-452670D01*
Y-453403D01*
Y-454070D01*
Y-454670D01*
Y-455136D01*
Y-455403D01*
Y-455536D01*
Y-457002D01*
Y-458469D01*
Y-459935D01*
Y-461335D01*
Y-462534D01*
Y-463068D01*
Y-463467D01*
Y-463867D01*
Y-464134D01*
Y-464267D01*
Y-464334D01*
Y-466267D01*
Y-468333D01*
Y-470266D01*
Y-472065D01*
Y-472932D01*
Y-473665D01*
Y-474331D01*
Y-474931D01*
Y-475398D01*
Y-475798D01*
Y-475998D01*
Y-476064D01*
Y-477664D01*
Y-479397D01*
Y-482796D01*
Y-486195D01*
Y-487794D01*
Y-489328D01*
Y-490794D01*
Y-492127D01*
Y-493260D01*
Y-494326D01*
Y-495126D01*
Y-495726D01*
Y-496126D01*
Y-496192D01*
Y-496259D01*
Y-498459D01*
Y-500725D01*
Y-505390D01*
Y-507656D01*
Y-509922D01*
Y-512122D01*
Y-514188D01*
Y-516121D01*
Y-517854D01*
Y-519453D01*
Y-520786D01*
Y-521386D01*
Y-521852D01*
Y-522319D01*
Y-522719D01*
Y-522985D01*
Y-523186D01*
Y-523319D01*
Y-523385D01*
X1369810Y-523652D01*
X1368944Y-523785D01*
X1368078Y-523852D01*
X1367411Y-523919D01*
X1366811Y-523985D01*
X1366478Y-524052D01*
X1366345D01*
X1364212Y-524252D01*
X1363145Y-524319D01*
X1362212Y-524385D01*
X1361413Y-524452D01*
X1360746Y-524519D01*
X1360546Y-524585D01*
X1360213D01*
X1359013Y-524718D01*
X1357814Y-524785D01*
X1356680Y-524852D01*
X1355681Y-524918D01*
X1354814Y-524985D01*
X1354148Y-525052D01*
X1352282D01*
X1351082Y-525118D01*
X1346816D01*
X1344284Y-525052D01*
X1341884Y-524985D01*
X1339552Y-524785D01*
X1337352Y-524585D01*
X1335219Y-524385D01*
X1333286Y-524052D01*
X1331420Y-523785D01*
X1329754Y-523452D01*
X1328221Y-523186D01*
X1326888Y-522852D01*
X1325688Y-522586D01*
X1324689Y-522386D01*
X1323956Y-522119D01*
X1323356Y-521986D01*
X1323022Y-521919D01*
X1322889Y-521852D01*
X1321023Y-521186D01*
X1319223Y-520519D01*
X1317491Y-519720D01*
X1315891Y-518920D01*
X1314358Y-518120D01*
X1312958Y-517320D01*
X1311692Y-516454D01*
X1310492Y-515721D01*
X1309426Y-514921D01*
X1308493Y-514254D01*
X1307693Y-513588D01*
X1307027Y-513055D01*
X1306493Y-512588D01*
X1306160Y-512255D01*
X1305894Y-512055D01*
X1305827Y-511988D01*
X1304561Y-510722D01*
X1303361Y-509389D01*
X1302294Y-508056D01*
X1301295Y-506656D01*
X1300362Y-505257D01*
X1299495Y-503857D01*
X1298695Y-502524D01*
X1298029Y-501258D01*
X1297429Y-500058D01*
X1296896Y-498925D01*
X1296429Y-497925D01*
X1296096Y-497059D01*
X1295763Y-496392D01*
X1295563Y-495859D01*
X1295496Y-495526D01*
X1295430Y-495393D01*
X1294830Y-493460D01*
X1294297Y-491460D01*
X1293830Y-489461D01*
X1293430Y-487461D01*
X1293097Y-485462D01*
X1292830Y-483529D01*
X1292564Y-481596D01*
X1292364Y-479797D01*
X1292230Y-478130D01*
X1292164Y-476597D01*
X1292097Y-475264D01*
X1292030Y-474065D01*
X1291964Y-473132D01*
Y-472732D01*
Y-472398D01*
Y-472132D01*
Y-471932D01*
Y-471865D01*
Y-471799D01*
X1292030Y-469399D01*
X1292097Y-467066D01*
X1292297Y-464867D01*
X1292497Y-462734D01*
X1292764Y-460735D01*
X1293030Y-458802D01*
X1293363Y-457069D01*
X1293630Y-455470D01*
X1293963Y-454003D01*
X1294297Y-452670D01*
X1294563Y-451537D01*
X1294830Y-450604D01*
X1295030Y-449871D01*
X1295230Y-449338D01*
X1295296Y-449005D01*
X1295363Y-448871D01*
X1296029Y-447072D01*
X1296763Y-445339D01*
X1297562Y-443672D01*
X1298362Y-442073D01*
X1299229Y-440607D01*
X1300028Y-439207D01*
X1300895Y-437941D01*
X1301695Y-436741D01*
X1302494Y-435675D01*
X1303161Y-434741D01*
X1303827Y-433942D01*
X1304361Y-433275D01*
X1304827Y-432742D01*
X1305227Y-432342D01*
X1305427Y-432076D01*
X1305494Y-432009D01*
X1306827Y-430742D01*
X1308160Y-429543D01*
X1309559Y-428476D01*
X1311026Y-427477D01*
X1312425Y-426544D01*
X1313825Y-425677D01*
X1315224Y-424944D01*
X1316491Y-424211D01*
X1317757Y-423611D01*
X1318824Y-423144D01*
X1319890Y-422678D01*
X1320756Y-422345D01*
X1321423Y-422011D01*
X1321956Y-421811D01*
X1322289Y-421745D01*
X1322423Y-421678D01*
X1324355Y-421078D01*
X1326355Y-420545D01*
X1328421Y-420079D01*
X1330421Y-419679D01*
X1332487Y-419345D01*
X1334420Y-419079D01*
X1336352Y-418812D01*
X1338152Y-418612D01*
X1339818Y-418479D01*
X1341351Y-418412D01*
X1342751Y-418346D01*
X1343950Y-418279D01*
X1344884Y-418212D01*
X1350815D01*
X1351682Y-418279D01*
D02*
G37*
G36*
X1254597Y-520695D02*
X1225598D01*
Y-695654D01*
X1254597D01*
Y-775400D01*
X1052090D01*
X1039523Y-774917D01*
X1028407D01*
X1017775Y-774433D01*
X1008108Y-773467D01*
X998925Y-772983D01*
X990709Y-772500D01*
X983459Y-771534D01*
X977176Y-771050D01*
X971377Y-770567D01*
X966544Y-769600D01*
X962677Y-769117D01*
X959777Y-768634D01*
X957844D01*
X956394Y-768150D01*
X955911D01*
X942378Y-764767D01*
X930295Y-760417D01*
X920146Y-755101D01*
X911446Y-750268D01*
X904680Y-745435D01*
X899847Y-741568D01*
X898397Y-739635D01*
X896947Y-738668D01*
X895980Y-738185D01*
Y-737702D01*
X892114Y-733352D01*
X888730Y-728519D01*
X883414Y-718853D01*
X879548Y-709186D01*
X877131Y-700004D01*
X875198Y-692271D01*
X874714Y-688887D01*
Y-685987D01*
X874231Y-683571D01*
Y-681638D01*
Y-680671D01*
Y-680188D01*
X875198Y-670038D01*
X877131Y-660372D01*
X880514Y-651672D01*
X883897Y-644423D01*
X887281Y-638140D01*
X890664Y-633307D01*
X892597Y-630407D01*
X893564Y-629923D01*
Y-629440D01*
X901296Y-621707D01*
X909996Y-614941D01*
X919179Y-609141D01*
X927879Y-604791D01*
X936095Y-600925D01*
X939478Y-599475D01*
X942378Y-598508D01*
X944794Y-597542D01*
X946728Y-597058D01*
X947694Y-596575D01*
X948178D01*
X938995Y-593675D01*
X930295Y-589809D01*
X923046Y-585942D01*
X916762Y-582076D01*
X911446Y-578209D01*
X907580Y-575309D01*
X905163Y-573376D01*
X904196Y-572409D01*
X898397Y-565643D01*
X894047Y-558393D01*
X891147Y-550660D01*
X888730Y-543411D01*
X887764Y-536644D01*
X887281Y-531811D01*
X886797Y-529878D01*
Y-528428D01*
Y-527461D01*
Y-526978D01*
X887764Y-516345D01*
X889697Y-506679D01*
X892597Y-497979D01*
X895980Y-490730D01*
X899363Y-484447D01*
X902263Y-480097D01*
X904196Y-477197D01*
X905163Y-476230D01*
X912896Y-468497D01*
X921112Y-462698D01*
X929812Y-457381D01*
X938028Y-453515D01*
X945278Y-450615D01*
X948178Y-449648D01*
X951078Y-448682D01*
X953494Y-448198D01*
X954944Y-447715D01*
X955911Y-447232D01*
X956394D01*
X963160Y-445782D01*
X969927Y-444815D01*
X984909Y-442882D01*
X1000375Y-441915D01*
X1015358Y-440949D01*
X1022608Y-440465D01*
X1028891D01*
X1034690Y-439982D01*
X1254597D01*
Y-520695D01*
D02*
G37*
G36*
X312140Y-513929D02*
X282658D01*
Y-556460D01*
X294741Y-550177D01*
X306824Y-545344D01*
X319390Y-541961D01*
X330989Y-539544D01*
X336306Y-538577D01*
X341139Y-538094D01*
X345489Y-537611D01*
X349355D01*
X352255Y-537128D01*
X356605D01*
X367238Y-537611D01*
X377870Y-538577D01*
X387537Y-540027D01*
X396236Y-542444D01*
X404936Y-544861D01*
X412669Y-547277D01*
X419919Y-550660D01*
X426202Y-553560D01*
X432001Y-556460D01*
X436834Y-559360D01*
X441184Y-562260D01*
X445051Y-564676D01*
X447467Y-567093D01*
X449884Y-568543D01*
X450850Y-569509D01*
X451334Y-569993D01*
X457617Y-576276D01*
X462933Y-583526D01*
X467283Y-590775D01*
X471633Y-598508D01*
X475016Y-606241D01*
X477433Y-613974D01*
X479849Y-621707D01*
X481782Y-628957D01*
X483232Y-635723D01*
X484199Y-642489D01*
X485166Y-648289D01*
X485649Y-653122D01*
Y-657472D01*
X486132Y-660372D01*
Y-662788D01*
Y-663272D01*
X485649Y-673421D01*
X484682Y-683088D01*
X482749Y-692271D01*
X480332Y-700487D01*
X477433Y-708220D01*
X474049Y-715469D01*
X470666Y-721752D01*
X467283Y-727552D01*
X463900Y-732869D01*
X460517Y-737218D01*
X457133Y-741085D01*
X454234Y-743985D01*
X451817Y-746401D01*
X449884Y-748335D01*
X448917Y-749301D01*
X448434Y-749784D01*
X441184Y-755101D01*
X433451Y-759451D01*
X426202Y-763801D01*
X418469Y-767184D01*
X411219Y-770084D01*
X403969Y-772500D01*
X389953Y-775883D01*
X383670Y-777333D01*
X378354Y-778300D01*
X373037Y-778783D01*
X368688Y-779267D01*
X365304Y-779750D01*
X360471D01*
X344522Y-778783D01*
X329539Y-776850D01*
X316490Y-773467D01*
X310207Y-771534D01*
X304890Y-769600D01*
X300057Y-768150D01*
X295708Y-766217D01*
X291841Y-764284D01*
X288458Y-762834D01*
X286041Y-761867D01*
X284108Y-760901D01*
X283141Y-759934D01*
X282658D01*
Y-775400D01*
X130415D01*
Y-701937D01*
X160864D01*
Y-439982D01*
X312140D01*
Y-513929D01*
D02*
G37*
G36*
X1444858Y-431009D02*
X1444925Y-431542D01*
X1444991Y-431942D01*
X1445058Y-432009D01*
Y-432076D01*
X1445125Y-432675D01*
Y-433209D01*
X1445191Y-433608D01*
Y-433675D01*
Y-433742D01*
X1445258Y-434408D01*
Y-434941D01*
X1445325Y-435341D01*
Y-435408D01*
Y-435475D01*
Y-436074D01*
Y-436541D01*
Y-436941D01*
Y-437007D01*
Y-437074D01*
Y-438274D01*
X1445258Y-438807D01*
Y-439340D01*
Y-439740D01*
X1445191Y-440073D01*
Y-440273D01*
Y-440340D01*
X1445058Y-441406D01*
X1444991Y-441940D01*
X1444925Y-442340D01*
X1444858Y-442739D01*
X1444791Y-443006D01*
X1444725Y-443206D01*
Y-443273D01*
X1407734D01*
X1409200Y-445605D01*
X1410667Y-447871D01*
X1412000Y-450071D01*
X1413333Y-452137D01*
X1414666Y-454203D01*
X1415865Y-456136D01*
X1417065Y-458069D01*
X1418265Y-459868D01*
X1419331Y-461601D01*
X1420397Y-463268D01*
X1421397Y-464867D01*
X1422397Y-466400D01*
X1423263Y-467800D01*
X1424130Y-469199D01*
X1424996Y-470466D01*
X1425730Y-471732D01*
X1426463Y-472865D01*
X1427196Y-473931D01*
X1427796Y-474931D01*
X1428396Y-475864D01*
X1428929Y-476731D01*
X1429462Y-477464D01*
X1429862Y-478197D01*
X1430262Y-478797D01*
X1430662Y-479397D01*
X1430928Y-479863D01*
X1431195Y-480263D01*
X1431395Y-480596D01*
X1431595Y-480863D01*
X1431728Y-481063D01*
X1431795Y-481130D01*
Y-481196D01*
X1431595Y-481530D01*
X1431461Y-481663D01*
Y-481729D01*
Y-481796D01*
X1431328Y-481929D01*
X1431195Y-482129D01*
X1431062Y-482396D01*
X1430862Y-482663D01*
X1430728Y-482929D01*
X1430662Y-483062D01*
X1430595Y-483129D01*
X1429529Y-482929D01*
X1428662Y-482729D01*
X1428262Y-482663D01*
X1427996D01*
X1427796Y-482596D01*
X1427729D01*
X1426596Y-482396D01*
X1426129Y-482329D01*
X1425663Y-482263D01*
X1425263D01*
X1424996Y-482196D01*
X1424730D01*
X1423663Y-482129D01*
X1422797D01*
X1422397Y-482063D01*
X1421864D01*
X1420797Y-481996D01*
X1418931D01*
X1417198Y-482063D01*
X1415599Y-482129D01*
X1414133Y-482329D01*
X1412866Y-482529D01*
X1411800Y-482729D01*
X1411400Y-482796D01*
X1411000Y-482863D01*
X1410733Y-482929D01*
X1410533Y-482996D01*
X1410400Y-483062D01*
X1410333D01*
X1408934Y-483529D01*
X1407667Y-484062D01*
X1406468Y-484595D01*
X1405468Y-485129D01*
X1404668Y-485595D01*
X1404002Y-485995D01*
X1403602Y-486262D01*
X1403468Y-486328D01*
X1402402Y-487195D01*
X1401536Y-488061D01*
X1400802Y-488994D01*
X1400136Y-489861D01*
X1399669Y-490594D01*
X1399336Y-491260D01*
X1399136Y-491660D01*
X1399070Y-491727D01*
Y-491794D01*
X1398536Y-493060D01*
X1398203Y-494393D01*
X1397937Y-495726D01*
X1397737Y-496926D01*
X1397603Y-497992D01*
Y-498459D01*
X1397537Y-498858D01*
Y-499125D01*
Y-499392D01*
Y-499525D01*
Y-499591D01*
Y-500658D01*
X1397603Y-501724D01*
X1397737Y-502657D01*
X1397803Y-503457D01*
X1397937Y-504190D01*
X1398070Y-504657D01*
X1398136Y-504990D01*
Y-505123D01*
X1398336Y-505990D01*
X1398603Y-506856D01*
X1398803Y-507589D01*
X1399070Y-508256D01*
X1399336Y-508856D01*
X1399469Y-509256D01*
X1399603Y-509522D01*
X1399669Y-509589D01*
X1400069Y-510322D01*
X1400469Y-511055D01*
X1400936Y-511655D01*
X1401269Y-512255D01*
X1401602Y-512655D01*
X1401869Y-513055D01*
X1402069Y-513255D01*
X1402135Y-513321D01*
X1403202Y-514521D01*
X1403735Y-515054D01*
X1404268Y-515454D01*
X1404668Y-515854D01*
X1405002Y-516121D01*
X1405268Y-516254D01*
X1405335Y-516321D01*
X1406668Y-517254D01*
X1407334Y-517654D01*
X1407934Y-517920D01*
X1408401Y-518187D01*
X1408867Y-518387D01*
X1409134Y-518520D01*
X1409200Y-518587D01*
X1410733Y-519187D01*
X1411467Y-519453D01*
X1412200Y-519653D01*
X1412800Y-519853D01*
X1413266Y-519986D01*
X1413533Y-520120D01*
X1413666D01*
X1415465Y-520453D01*
X1416332Y-520653D01*
X1417065Y-520719D01*
X1417731Y-520853D01*
X1418198Y-520919D01*
X1418531Y-520986D01*
X1418665D01*
X1420531Y-521119D01*
X1421464Y-521186D01*
X1422264D01*
X1422997Y-521253D01*
X1425196D01*
X1426329Y-521186D01*
X1427329D01*
X1428262Y-521119D01*
X1429062Y-521053D01*
X1429595D01*
X1429995Y-520986D01*
X1430128D01*
X1431195Y-520853D01*
X1432195Y-520719D01*
X1433061Y-520586D01*
X1433927Y-520453D01*
X1434594Y-520320D01*
X1435060Y-520186D01*
X1435394Y-520120D01*
X1435527D01*
X1437393Y-519586D01*
X1438193Y-519386D01*
X1438926Y-519187D01*
X1439593Y-518987D01*
X1440059Y-518853D01*
X1440326Y-518720D01*
X1440459D01*
X1442192Y-518120D01*
X1442992Y-517854D01*
X1443725Y-517587D01*
X1444325Y-517387D01*
X1444791Y-517187D01*
X1445058Y-517120D01*
X1445191Y-517054D01*
X1445791Y-518120D01*
X1446058Y-518653D01*
X1446258Y-519053D01*
X1446458Y-519453D01*
X1446591Y-519720D01*
X1446658Y-519920D01*
X1446724Y-519986D01*
X1447191Y-521053D01*
X1447391Y-521586D01*
X1447591Y-522052D01*
X1447791Y-522452D01*
X1447857Y-522719D01*
X1447990Y-522919D01*
Y-522985D01*
X1448390Y-524052D01*
X1448590Y-524585D01*
X1448724Y-525052D01*
X1448857Y-525452D01*
X1448990Y-525785D01*
X1449057Y-525985D01*
Y-526051D01*
X1449323Y-527184D01*
X1449390Y-527718D01*
X1449523Y-528184D01*
X1449590Y-528584D01*
Y-528917D01*
X1449657Y-529117D01*
Y-529184D01*
X1447391Y-530050D01*
X1446324Y-530384D01*
X1445391Y-530717D01*
X1444591Y-530984D01*
X1443925Y-531117D01*
X1443525Y-531250D01*
X1443458Y-531317D01*
X1443392D01*
X1441125Y-531917D01*
X1440059Y-532183D01*
X1439059Y-532383D01*
X1438260Y-532516D01*
X1437593Y-532650D01*
X1437193Y-532783D01*
X1437060D01*
X1434727Y-533116D01*
X1433594Y-533316D01*
X1432594Y-533383D01*
X1431795Y-533516D01*
X1431128Y-533583D01*
X1430862D01*
X1430662Y-533649D01*
X1430528D01*
X1429262Y-533716D01*
X1427996Y-533783D01*
X1426796Y-533849D01*
X1425730D01*
X1424863Y-533916D01*
X1421997D01*
X1420531Y-533849D01*
X1419131Y-533783D01*
X1417932Y-533649D01*
X1416932Y-533583D01*
X1416532D01*
X1416132Y-533516D01*
X1415865D01*
X1415665Y-533450D01*
X1415465D01*
X1413999Y-533183D01*
X1412599Y-532916D01*
X1411333Y-532650D01*
X1410200Y-532450D01*
X1409200Y-532183D01*
X1408467Y-531983D01*
X1408201Y-531917D01*
X1408001D01*
X1407934Y-531850D01*
X1407867D01*
X1406534Y-531450D01*
X1405268Y-530984D01*
X1404068Y-530517D01*
X1403002Y-530117D01*
X1402135Y-529717D01*
X1401469Y-529450D01*
X1401269Y-529317D01*
X1401069Y-529251D01*
X1401003Y-529184D01*
X1400936D01*
X1399803Y-528584D01*
X1398670Y-527918D01*
X1397670Y-527251D01*
X1396737Y-526651D01*
X1396004Y-526118D01*
X1395404Y-525718D01*
X1395071Y-525385D01*
X1394937Y-525318D01*
X1393938Y-524452D01*
X1393004Y-523585D01*
X1392205Y-522786D01*
X1391472Y-522052D01*
X1390872Y-521386D01*
X1390405Y-520853D01*
X1390072Y-520519D01*
X1390005Y-520386D01*
X1389272Y-519320D01*
X1388539Y-518253D01*
X1387939Y-517187D01*
X1387339Y-516254D01*
X1386939Y-515454D01*
X1386539Y-514788D01*
X1386406Y-514588D01*
X1386340Y-514388D01*
X1386273Y-514321D01*
Y-514254D01*
X1385673Y-512988D01*
X1385206Y-511655D01*
X1384807Y-510389D01*
X1384407Y-509256D01*
X1384140Y-508323D01*
X1384073Y-507856D01*
X1383940Y-507523D01*
X1383873Y-507256D01*
Y-507056D01*
X1383807Y-506923D01*
Y-506856D01*
X1383540Y-505323D01*
X1383340Y-503857D01*
X1383207Y-502391D01*
X1383074Y-501058D01*
Y-499925D01*
X1383007Y-499458D01*
Y-499058D01*
Y-498725D01*
Y-498459D01*
Y-498325D01*
Y-498259D01*
X1383074Y-496526D01*
X1383140Y-495793D01*
X1383207Y-495059D01*
X1383274Y-494526D01*
X1383340Y-494060D01*
X1383407Y-493726D01*
Y-493660D01*
X1383740Y-491927D01*
X1383940Y-491127D01*
X1384140Y-490461D01*
X1384340Y-489861D01*
X1384473Y-489394D01*
X1384540Y-489128D01*
X1384607Y-488994D01*
X1385273Y-487328D01*
X1385606Y-486528D01*
X1385940Y-485862D01*
X1386273Y-485328D01*
X1386473Y-484929D01*
X1386606Y-484595D01*
X1386673Y-484529D01*
X1387139Y-483729D01*
X1387606Y-482996D01*
X1388073Y-482263D01*
X1388539Y-481729D01*
X1388872Y-481196D01*
X1389205Y-480863D01*
X1389406Y-480596D01*
X1389472Y-480530D01*
X1390738Y-479130D01*
X1391338Y-478530D01*
X1391871Y-478064D01*
X1392405Y-477597D01*
X1392805Y-477264D01*
X1393071Y-477064D01*
X1393138Y-476997D01*
X1394671Y-475931D01*
X1395404Y-475464D01*
X1396137Y-475065D01*
X1396737Y-474731D01*
X1397204Y-474465D01*
X1397470Y-474331D01*
X1397603Y-474265D01*
X1399536Y-473531D01*
X1400469Y-473198D01*
X1401269Y-472998D01*
X1402002Y-472798D01*
X1402535Y-472665D01*
X1402935Y-472532D01*
X1403069D01*
X1405268Y-472198D01*
X1406334Y-472065D01*
X1407334Y-471999D01*
X1408201Y-471932D01*
X1411067D01*
X1411400Y-471999D01*
X1411533Y-472065D01*
X1411600D01*
X1410000Y-469599D01*
X1408401Y-467200D01*
X1406868Y-464934D01*
X1405401Y-462734D01*
X1404002Y-460602D01*
X1402669Y-458535D01*
X1401336Y-456536D01*
X1400069Y-454603D01*
X1398870Y-452803D01*
X1397737Y-451004D01*
X1396604Y-449338D01*
X1395537Y-447738D01*
X1394538Y-446205D01*
X1393604Y-444805D01*
X1392738Y-443406D01*
X1391871Y-442140D01*
X1391072Y-440940D01*
X1390338Y-439807D01*
X1389605Y-438740D01*
X1389006Y-437741D01*
X1388406Y-436874D01*
X1387872Y-436074D01*
X1387339Y-435275D01*
X1386939Y-434608D01*
X1386539Y-434075D01*
X1386206Y-433542D01*
X1385940Y-433142D01*
X1385673Y-432742D01*
X1385473Y-432475D01*
X1385406Y-432275D01*
X1385273Y-432209D01*
Y-432142D01*
X1385740Y-431409D01*
X1386073Y-430876D01*
X1386273Y-430542D01*
X1386340Y-430476D01*
X1444725D01*
X1444858Y-431009D01*
D02*
G37*
G36*
X695406Y-535194D02*
X707489Y-536161D01*
X718605Y-538094D01*
X729238Y-540511D01*
X738904Y-542927D01*
X747604Y-545827D01*
X755820Y-549210D01*
X763553Y-552593D01*
X769836Y-555977D01*
X775636Y-559360D01*
X780469Y-562260D01*
X784818Y-564676D01*
X787718Y-567093D01*
X790135Y-569026D01*
X791585Y-569993D01*
X792068Y-570476D01*
X799318Y-577242D01*
X805601Y-584492D01*
X810917Y-592225D01*
X815750Y-599475D01*
X819617Y-607208D01*
X822517Y-614457D01*
X825417Y-621707D01*
X827350Y-628473D01*
X829283Y-635240D01*
X830733Y-641040D01*
X831216Y-646356D01*
X832183Y-650706D01*
Y-654572D01*
X832666Y-657472D01*
Y-659405D01*
Y-659889D01*
X832183Y-670038D01*
X830733Y-679221D01*
X828800Y-688404D01*
X826383Y-696620D01*
X823000Y-704353D01*
X819617Y-712086D01*
X815750Y-718369D01*
X811884Y-724652D01*
X808501Y-729969D01*
X804634Y-734802D01*
X801251Y-738668D01*
X797868Y-742051D01*
X795451Y-744951D01*
X793518Y-746885D01*
X792068Y-747851D01*
X791585Y-748335D01*
X783369Y-754134D01*
X774669Y-759451D01*
X765003Y-763801D01*
X754853Y-767667D01*
X744704Y-771050D01*
X734554Y-773950D01*
X724405Y-776367D01*
X714738Y-777817D01*
X705555Y-779267D01*
X696856Y-780233D01*
X689123Y-781200D01*
X682356Y-781683D01*
X676557Y-782166D01*
X668824D01*
X651425Y-781200D01*
X634992Y-779267D01*
X627742Y-777817D01*
X620976Y-776367D01*
X614693Y-774917D01*
X608893Y-772983D01*
X603577Y-771050D01*
X598744Y-769600D01*
X594877Y-768150D01*
X591494Y-766700D01*
X588594Y-765250D01*
X586661Y-764767D01*
X585694Y-763801D01*
X585211D01*
X578928Y-760417D01*
X573128Y-756551D01*
X568295Y-752684D01*
X563945Y-749301D01*
X560562Y-746401D01*
X557662Y-743985D01*
X556212Y-742535D01*
X555729Y-742051D01*
X551379Y-737218D01*
X547513Y-732385D01*
X544613Y-727552D01*
X541713Y-723202D01*
X539780Y-719336D01*
X538330Y-716436D01*
X537363Y-714503D01*
X536880Y-714019D01*
X636925Y-701453D01*
X639342Y-705803D01*
X641758Y-710153D01*
X644175Y-713536D01*
X647075Y-716436D01*
X653358Y-721269D01*
X659158Y-724169D01*
X664474Y-726102D01*
X668824Y-727069D01*
X672207Y-727552D01*
X673174D01*
X680423Y-727069D01*
X686706Y-725136D01*
X692506Y-722236D01*
X697339Y-718853D01*
X701206Y-714503D01*
X705072Y-709670D01*
X707489Y-704353D01*
X709905Y-699037D01*
X711839Y-694204D01*
X713288Y-688887D01*
X714255Y-684054D01*
X714738Y-679704D01*
X715222Y-676321D01*
X715705Y-673421D01*
Y-671488D01*
Y-671005D01*
X531080D01*
X532047Y-658439D01*
X533980Y-646839D01*
X536397Y-636206D01*
X539296Y-626057D01*
X542680Y-616874D01*
X546063Y-608174D01*
X549929Y-600925D01*
X554279Y-594158D01*
X558146Y-587875D01*
X562012Y-583042D01*
X565395Y-578692D01*
X568778Y-574826D01*
X571195Y-571926D01*
X573128Y-569993D01*
X574578Y-569026D01*
X575061Y-568543D01*
X583278Y-562743D01*
X591494Y-557427D01*
X600194Y-553077D01*
X609377Y-548727D01*
X618559Y-545827D01*
X627259Y-542927D01*
X635959Y-540511D01*
X644658Y-539061D01*
X652391Y-537611D01*
X659641Y-536644D01*
X666407Y-535678D01*
X671724Y-535194D01*
X676557Y-534711D01*
X682840D01*
X695406Y-535194D01*
D02*
G37*
G36*
X2268101Y-520695D02*
X2239102D01*
Y-695654D01*
X2268101D01*
Y-775400D01*
X2065593D01*
X2053027Y-774917D01*
X2041911D01*
X2031278Y-774433D01*
X2021612Y-773467D01*
X2012429Y-772983D01*
X2004213Y-772500D01*
X1996963Y-771534D01*
X1990680Y-771050D01*
X1984880Y-770567D01*
X1980047Y-769600D01*
X1976181Y-769117D01*
X1973281Y-768634D01*
X1971348D01*
X1969898Y-768150D01*
X1969414D01*
X1955882Y-764767D01*
X1943799Y-760417D01*
X1933649Y-755101D01*
X1924950Y-750268D01*
X1918183Y-745435D01*
X1913350Y-741568D01*
X1911900Y-739635D01*
X1910450Y-738668D01*
X1909484Y-738185D01*
Y-737702D01*
X1905617Y-733352D01*
X1902234Y-728519D01*
X1896918Y-718853D01*
X1893051Y-709186D01*
X1890634Y-700004D01*
X1888701Y-692271D01*
X1888218Y-688887D01*
Y-685987D01*
X1887735Y-683571D01*
Y-681638D01*
Y-680671D01*
Y-680188D01*
X1888701Y-670038D01*
X1890634Y-660372D01*
X1894018Y-651672D01*
X1897401Y-644423D01*
X1900784Y-638140D01*
X1904167Y-633307D01*
X1906100Y-630407D01*
X1907067Y-629923D01*
Y-629440D01*
X1914800Y-621707D01*
X1923500Y-614941D01*
X1932683Y-609141D01*
X1941382Y-604791D01*
X1949599Y-600925D01*
X1952982Y-599475D01*
X1955882Y-598508D01*
X1958298Y-597542D01*
X1960231Y-597058D01*
X1961198Y-596575D01*
X1961681D01*
X1952498Y-593675D01*
X1943799Y-589809D01*
X1936549Y-585942D01*
X1930266Y-582076D01*
X1924950Y-578209D01*
X1921083Y-575309D01*
X1918667Y-573376D01*
X1917700Y-572409D01*
X1911900Y-565643D01*
X1907550Y-558393D01*
X1904651Y-550660D01*
X1902234Y-543411D01*
X1901267Y-536644D01*
X1900784Y-531811D01*
X1900301Y-529878D01*
Y-528428D01*
Y-527461D01*
Y-526978D01*
X1901267Y-516345D01*
X1903201Y-506679D01*
X1906100Y-497979D01*
X1909484Y-490730D01*
X1912867Y-484447D01*
X1915767Y-480097D01*
X1917700Y-477197D01*
X1918667Y-476230D01*
X1926400Y-468497D01*
X1934616Y-462698D01*
X1943315Y-457381D01*
X1951532Y-453515D01*
X1958781Y-450615D01*
X1961681Y-449648D01*
X1964581Y-448682D01*
X1966998Y-448198D01*
X1968448Y-447715D01*
X1969414Y-447232D01*
X1969898D01*
X1976664Y-445782D01*
X1983430Y-444815D01*
X1998413Y-442882D01*
X2013879Y-441915D01*
X2028862Y-440949D01*
X2036111Y-440465D01*
X2042394D01*
X2048194Y-439982D01*
X2268101D01*
Y-520695D01*
D02*
G37*
G36*
X1850520Y-615424D02*
X1826354D01*
Y-701937D01*
X1850520D01*
Y-775400D01*
X1685227D01*
Y-701937D01*
X1705043D01*
Y-541477D01*
X1850520D01*
Y-615424D01*
D02*
G37*
G36*
X-30150Y51750D02*
X-28850Y50450D01*
Y46550D01*
X-24950Y42650D01*
Y42000D01*
X-20400Y37450D01*
X-19100D01*
X-17150Y35500D01*
X-10500D01*
X-10000Y35000D01*
Y26000D01*
X-14800D01*
X-17150Y27050D01*
X-21050Y27700D01*
X-23000Y29650D01*
X-24950D01*
X-29500Y34200D01*
X-30150D01*
X-34700Y38750D01*
Y40700D01*
X-36650Y42650D01*
Y45250D01*
X-38600Y47200D01*
Y51750D01*
X-39250Y52400D01*
Y55000D01*
X-30150D01*
Y51750D01*
D02*
G37*
G36*
X2417150Y-2437050D02*
X2421050Y-2437700D01*
X2423000Y-2439650D01*
X2424950D01*
X2429500Y-2444200D01*
X2430150D01*
X2434700Y-2448750D01*
Y-2450700D01*
X2436650Y-2452650D01*
Y-2455250D01*
X2438600Y-2457200D01*
Y-2461750D01*
X2439250Y-2462400D01*
Y-2465000D01*
X2430150D01*
Y-2461750D01*
X2428850Y-2460450D01*
Y-2456550D01*
X2424950Y-2452650D01*
Y-2452000D01*
X2420400Y-2447450D01*
X2419100D01*
X2417150Y-2445500D01*
X2410500D01*
X2410000Y-2445000D01*
Y-2436000D01*
X2414800D01*
X2417150Y-2437050D01*
D02*
G37*
G36*
X-2850D02*
X1050Y-2437700D01*
X3000Y-2439650D01*
X4950D01*
X9500Y-2444200D01*
X10150D01*
X14700Y-2448750D01*
Y-2450700D01*
X16650Y-2452650D01*
Y-2455250D01*
X18600Y-2457200D01*
Y-2461750D01*
X19250Y-2462400D01*
Y-2465000D01*
X10150D01*
Y-2461750D01*
X8850Y-2460450D01*
Y-2456550D01*
X4950Y-2452650D01*
Y-2452000D01*
X400Y-2447450D01*
X-900D01*
X-2850Y-2445500D01*
X-9500D01*
X-10000Y-2445000D01*
Y-2436000D01*
X-5200D01*
X-2850Y-2437050D01*
D02*
G37*
G36*
X2417150Y82951D02*
X2421050Y82301D01*
X2423000Y80351D01*
X2424950D01*
X2429500Y75801D01*
X2430150D01*
X2434700Y71251D01*
Y69301D01*
X2436650Y67351D01*
Y64751D01*
X2438600Y62801D01*
Y58251D01*
X2439250Y57601D01*
Y55001D01*
X2430150D01*
Y58251D01*
X2428850Y59551D01*
Y63451D01*
X2424950Y67351D01*
Y68001D01*
X2420400Y72551D01*
X2419100D01*
X2417150Y74501D01*
X2410500D01*
X2410000Y75001D01*
Y84001D01*
X2414800D01*
X2417150Y82951D01*
D02*
G37*
G36*
X-2850Y82950D02*
X1050Y82300D01*
X3000Y80350D01*
X4950D01*
X9500Y75800D01*
X10150D01*
X14700Y71250D01*
Y69300D01*
X16650Y67350D01*
Y64750D01*
X18600Y62800D01*
Y58250D01*
X19250Y57600D01*
Y55000D01*
X10150D01*
Y58250D01*
X8850Y59550D01*
Y63450D01*
X4950Y67350D01*
Y68000D01*
X400Y72550D01*
X-900D01*
X-2850Y74500D01*
X-9500D01*
X-10000Y75000D01*
Y84000D01*
X-5200D01*
X-2850Y82950D01*
D02*
G37*
G36*
X2389850Y51751D02*
X2391150Y50451D01*
Y46551D01*
X2395050Y42651D01*
Y42001D01*
X2399600Y37451D01*
X2400900D01*
X2402850Y35501D01*
X2409500D01*
X2410000Y35001D01*
Y26001D01*
X2405200D01*
X2402850Y27051D01*
X2398950Y27701D01*
X2397000Y29651D01*
X2395050D01*
X2390500Y34201D01*
X2389850D01*
X2385300Y38751D01*
Y40701D01*
X2383350Y42651D01*
Y45251D01*
X2381400Y47201D01*
Y51751D01*
X2380750Y52401D01*
Y55001D01*
X2389850D01*
Y51751D01*
D02*
G37*
G36*
X1207150Y-2437050D02*
X1211050Y-2437700D01*
X1213000Y-2439650D01*
X1214950D01*
X1219500Y-2444200D01*
X1220150D01*
X1224700Y-2448750D01*
Y-2450700D01*
X1226650Y-2452650D01*
Y-2455250D01*
X1228600Y-2457200D01*
Y-2461750D01*
X1229250Y-2462400D01*
Y-2465000D01*
X1220150D01*
Y-2461750D01*
X1218850Y-2460450D01*
Y-2456550D01*
X1214950Y-2452650D01*
Y-2452000D01*
X1210400Y-2447450D01*
X1209100D01*
X1207150Y-2445500D01*
X1200500D01*
X1200000Y-2445000D01*
Y-2436000D01*
X1204800D01*
X1207150Y-2437050D01*
D02*
G37*
G36*
X1779473Y-433699D02*
X1788656Y-435149D01*
X1796872Y-437082D01*
X1804122Y-439015D01*
X1809438Y-440949D01*
X1813788Y-442882D01*
X1816205Y-444332D01*
X1817171Y-444815D01*
X1823454Y-449648D01*
X1828287Y-454481D01*
X1831671Y-459798D01*
X1834087Y-464631D01*
X1835537Y-468981D01*
X1836020Y-472364D01*
X1836504Y-474780D01*
Y-475747D01*
X1835537Y-482997D01*
X1833604Y-489280D01*
X1830704Y-494596D01*
X1826837Y-498946D01*
X1823454Y-502329D01*
X1820554Y-504746D01*
X1818621Y-506196D01*
X1817655Y-506679D01*
X1810405Y-510062D01*
X1802189Y-512479D01*
X1794456Y-514412D01*
X1786723Y-515379D01*
X1779956Y-516345D01*
X1774640Y-516828D01*
X1769807D01*
X1759657Y-516345D01*
X1750474Y-514895D01*
X1742741Y-513445D01*
X1735975Y-511029D01*
X1730175Y-509095D01*
X1726309Y-507646D01*
X1723892Y-506196D01*
X1722926Y-505712D01*
X1716642Y-501362D01*
X1712293Y-496046D01*
X1708909Y-491213D01*
X1706976Y-486380D01*
X1705526Y-482030D01*
X1705043Y-478647D01*
X1704560Y-476230D01*
Y-475264D01*
X1705526Y-468981D01*
X1707460Y-463181D01*
X1710359Y-458348D01*
X1713259Y-453515D01*
X1716642Y-450132D01*
X1719542Y-447715D01*
X1721476Y-445782D01*
X1722442Y-445298D01*
X1729692Y-441432D01*
X1737425Y-438532D01*
X1745158Y-436115D01*
X1752408Y-434666D01*
X1759174Y-433699D01*
X1764490Y-433216D01*
X1769323D01*
X1779473Y-433699D01*
D02*
G37*
G36*
X1526701Y-537611D02*
X1536367Y-538577D01*
X1545550Y-540027D01*
X1553767Y-542444D01*
X1561983Y-544861D01*
X1569716Y-547277D01*
X1576482Y-550660D01*
X1582765Y-553560D01*
X1588565Y-556460D01*
X1593398Y-559360D01*
X1597748Y-562260D01*
X1601614Y-564676D01*
X1604514Y-567093D01*
X1606448Y-568543D01*
X1607897Y-569509D01*
X1608381Y-569993D01*
X1615147Y-576276D01*
X1620947Y-583042D01*
X1625780Y-590292D01*
X1630130Y-597542D01*
X1633996Y-604791D01*
X1636896Y-612041D01*
X1639313Y-619291D01*
X1641246Y-626057D01*
X1642696Y-632823D01*
X1644146Y-638623D01*
X1645112Y-643939D01*
X1645596Y-648773D01*
Y-652639D01*
X1646079Y-655539D01*
Y-657472D01*
Y-657955D01*
X1645596Y-667622D01*
X1644629Y-676805D01*
X1642696Y-685021D01*
X1640279Y-693237D01*
X1637863Y-700487D01*
X1634480Y-707253D01*
X1631096Y-713053D01*
X1627713Y-718853D01*
X1624330Y-723686D01*
X1621430Y-728036D01*
X1618047Y-731419D01*
X1615630Y-734802D01*
X1613214Y-737218D01*
X1611281Y-738668D01*
X1610314Y-739635D01*
X1609831Y-740118D01*
X1603064Y-745435D01*
X1595815Y-749784D01*
X1588565Y-754134D01*
X1580832Y-757517D01*
X1573582Y-760417D01*
X1566333Y-762834D01*
X1552317Y-766217D01*
X1545550Y-767667D01*
X1539751Y-768634D01*
X1534917Y-769117D01*
X1530084Y-769600D01*
X1526701Y-770084D01*
X1521385D01*
X1504952Y-769117D01*
X1489486Y-767184D01*
X1475954Y-764284D01*
X1469671Y-762834D01*
X1463871Y-760901D01*
X1458554Y-758967D01*
X1454205Y-757517D01*
X1449855Y-756068D01*
X1446472Y-754618D01*
X1444055Y-753168D01*
X1441638Y-752684D01*
X1440672Y-751718D01*
X1440188D01*
Y-759451D01*
X1441155Y-766217D01*
X1441638Y-772017D01*
X1442605Y-776367D01*
X1443572Y-780233D01*
X1444055Y-783133D01*
X1445022Y-784583D01*
Y-785066D01*
X1447438Y-789416D01*
X1450821Y-793282D01*
X1454688Y-796666D01*
X1458554Y-799566D01*
X1461938Y-801982D01*
X1464837Y-803915D01*
X1466771Y-804882D01*
X1467737Y-805365D01*
X1474987Y-808265D01*
X1483203Y-810682D01*
X1491420Y-812132D01*
X1499153Y-813582D01*
X1505919Y-814065D01*
X1511719Y-814548D01*
X1517035D01*
X1533951Y-814065D01*
X1541684Y-813582D01*
X1548934Y-812615D01*
X1555700Y-811648D01*
X1561983Y-810682D01*
X1567783Y-809715D01*
X1572616Y-808265D01*
X1577449Y-807299D01*
X1581315Y-806332D01*
X1584699Y-805365D01*
X1587598Y-804399D01*
X1590015Y-803432D01*
X1591465Y-802949D01*
X1592431Y-802465D01*
X1592915D01*
X1626263Y-861913D01*
X1622880Y-863363D01*
X1618530Y-864329D01*
X1609831Y-867229D01*
X1600164Y-869162D01*
X1590982Y-871579D01*
X1582765Y-873029D01*
X1578899Y-873512D01*
X1575516Y-874479D01*
X1573099Y-874962D01*
X1571166D01*
X1569716Y-875445D01*
X1569233D01*
X1561016Y-876412D01*
X1553283Y-877379D01*
X1546517Y-878345D01*
X1540234Y-879312D01*
X1535401Y-879795D01*
X1531534D01*
X1529601Y-880278D01*
X1528634D01*
X1514618Y-881245D01*
X1507852D01*
X1501569Y-881729D01*
X1478853D01*
X1470154Y-881245D01*
X1461938Y-880762D01*
X1454205Y-880278D01*
X1446955Y-879795D01*
X1440188Y-879312D01*
X1433905Y-878345D01*
X1428589Y-877379D01*
X1423756Y-876895D01*
X1419406Y-875929D01*
X1415540Y-875445D01*
X1412640Y-874962D01*
X1410223Y-874479D01*
X1408290Y-873996D01*
X1407323Y-873512D01*
X1406840D01*
X1395724Y-870129D01*
X1385574Y-866746D01*
X1376875Y-862396D01*
X1369625Y-858530D01*
X1363825Y-854663D01*
X1359476Y-851763D01*
X1356576Y-849830D01*
X1355609Y-848863D01*
X1348359Y-842580D01*
X1342560Y-835814D01*
X1337243Y-829047D01*
X1333377Y-822765D01*
X1330477Y-817448D01*
X1328544Y-813098D01*
X1327577Y-810198D01*
X1327094Y-809715D01*
Y-809232D01*
X1324677Y-799566D01*
X1322744Y-788933D01*
X1321294Y-778300D01*
X1320327Y-767667D01*
X1319844Y-758001D01*
X1319361Y-754134D01*
Y-750268D01*
Y-747368D01*
Y-745435D01*
Y-743985D01*
Y-743502D01*
Y-615424D01*
X1289879D01*
Y-541477D01*
X1440188D01*
Y-556460D01*
X1452755Y-550177D01*
X1465804Y-545344D01*
X1478853Y-541961D01*
X1490936Y-539544D01*
X1496253Y-538577D01*
X1501569Y-538094D01*
X1505919Y-537611D01*
X1509785D01*
X1512685Y-537128D01*
X1517035D01*
X1526701Y-537611D01*
D02*
G37*
G36*
X1179850Y-2468250D02*
X1181150Y-2469550D01*
Y-2473450D01*
X1185050Y-2477350D01*
Y-2478000D01*
X1189600Y-2482550D01*
X1190900D01*
X1192850Y-2484500D01*
X1199500D01*
X1200000Y-2485000D01*
Y-2494000D01*
X1195200D01*
X1192850Y-2492950D01*
X1188950Y-2492300D01*
X1187000Y-2490350D01*
X1185050D01*
X1180500Y-2485800D01*
X1179850D01*
X1175300Y-2481250D01*
Y-2479300D01*
X1173350Y-2477350D01*
Y-2474750D01*
X1171400Y-2472800D01*
Y-2468250D01*
X1170750Y-2467600D01*
Y-2465000D01*
X1179850D01*
Y-2468250D01*
D02*
G37*
G36*
X2389850Y-2468250D02*
X2391150Y-2469550D01*
Y-2473450D01*
X2395050Y-2477350D01*
Y-2478000D01*
X2399600Y-2482550D01*
X2400900D01*
X2402850Y-2484500D01*
X2409500D01*
X2410000Y-2485000D01*
Y-2494000D01*
X2405200D01*
X2402850Y-2492950D01*
X2398950Y-2492300D01*
X2397000Y-2490350D01*
X2395050D01*
X2390500Y-2485800D01*
X2389850D01*
X2385300Y-2481250D01*
Y-2479300D01*
X2383350Y-2477350D01*
Y-2474750D01*
X2381400Y-2472800D01*
Y-2468250D01*
X2380750Y-2467600D01*
Y-2465000D01*
X2389850D01*
Y-2468250D01*
D02*
G37*
G36*
X-30150D02*
X-28850Y-2469550D01*
Y-2473450D01*
X-24950Y-2477350D01*
Y-2478000D01*
X-20400Y-2482550D01*
X-19100D01*
X-17150Y-2484500D01*
X-10500D01*
X-10000Y-2485000D01*
Y-2494000D01*
X-14800D01*
X-17150Y-2492950D01*
X-21050Y-2492300D01*
X-23000Y-2490350D01*
X-24950D01*
X-29500Y-2485800D01*
X-30150D01*
X-34700Y-2481250D01*
Y-2479300D01*
X-36650Y-2477350D01*
Y-2474750D01*
X-38600Y-2472800D01*
Y-2468250D01*
X-39250Y-2467600D01*
Y-2465000D01*
X-30150D01*
Y-2468250D01*
D02*
G37*
%LPC*%
G36*
X1628344Y-433742D02*
X1627345Y-437007D01*
X1626411Y-440140D01*
X1625478Y-443206D01*
X1624612Y-446138D01*
X1623745Y-449005D01*
X1622946Y-451737D01*
X1622146Y-454403D01*
X1621413Y-456936D01*
X1620680Y-459335D01*
X1619946Y-461668D01*
X1619280Y-463867D01*
X1618680Y-466000D01*
X1618080Y-468000D01*
X1617480Y-469932D01*
X1616947Y-471732D01*
X1616414Y-473465D01*
X1615947Y-475065D01*
X1615481Y-476531D01*
X1615081Y-477930D01*
X1614681Y-479197D01*
X1614348Y-480396D01*
X1614015Y-481530D01*
X1613748Y-482463D01*
X1613481Y-483329D01*
X1613215Y-484129D01*
X1613015Y-484795D01*
X1612882Y-485395D01*
X1612748Y-485862D01*
X1612615Y-486195D01*
X1612548Y-486461D01*
X1612482Y-486595D01*
Y-486661D01*
X1644074D01*
X1643074Y-483396D01*
X1642141Y-480263D01*
X1641274Y-477197D01*
X1640408Y-474265D01*
X1639541Y-471399D01*
X1638742Y-468666D01*
X1637942Y-466000D01*
X1637209Y-463467D01*
X1636476Y-461068D01*
X1635809Y-458735D01*
X1635143Y-456536D01*
X1634476Y-454403D01*
X1633876Y-452404D01*
X1633343Y-450471D01*
X1632810Y-448671D01*
X1632277Y-446938D01*
X1631810Y-445339D01*
X1631344Y-443872D01*
X1630944Y-442473D01*
X1630544Y-441140D01*
X1630211Y-440007D01*
X1629877Y-438874D01*
X1629611Y-437941D01*
X1629344Y-437007D01*
X1629077Y-436274D01*
X1628878Y-435608D01*
X1628744Y-435008D01*
X1628611Y-434542D01*
X1628478Y-434208D01*
X1628411Y-433942D01*
X1628344Y-433808D01*
Y-433742D01*
D02*
G37*
G36*
X300668Y-2226876D02*
X298793D01*
X297751Y-2227293D01*
X295668Y-2228126D01*
X294835Y-2228543D01*
X294210Y-2228960D01*
X294001Y-2229168D01*
X293793Y-2229376D01*
X293168Y-2230001D01*
X292751Y-2230210D01*
Y-2230418D01*
X292126Y-2231251D01*
X291918Y-2231460D01*
Y-2231668D01*
X225461Y-2346458D01*
X224836Y-2347917D01*
X224419Y-2349167D01*
X224211Y-2350208D01*
Y-2350417D01*
Y-2350625D01*
Y-2351041D01*
Y-2351250D01*
Y-2351458D01*
X224419Y-2353333D01*
X224836Y-2354791D01*
X225252Y-2355833D01*
X225461Y-2356250D01*
X226294Y-2357291D01*
X227127Y-2358333D01*
X229002Y-2359583D01*
X229835Y-2360208D01*
X230460Y-2360416D01*
X230877Y-2360625D01*
X231294D01*
X231710Y-2360833D01*
X232127Y-2361041D01*
X366501D01*
X367959Y-2360833D01*
X369209Y-2360625D01*
X371292Y-2359791D01*
X372126Y-2359375D01*
X372751Y-2358958D01*
X372959Y-2358541D01*
X373167D01*
X374000Y-2357708D01*
X374209Y-2357500D01*
X374834Y-2356666D01*
X375042Y-2356250D01*
X375459Y-2355000D01*
X375875Y-2353958D01*
X376084Y-2351666D01*
Y-2350833D01*
Y-2350208D01*
Y-2349792D01*
Y-2349583D01*
X375875Y-2348958D01*
Y-2348542D01*
X375667Y-2348125D01*
X375250Y-2347292D01*
X375042Y-2347083D01*
Y-2346875D01*
Y-2346667D01*
X308585Y-2231876D01*
Y-2231668D01*
X307751Y-2230418D01*
X306918Y-2229376D01*
X306085Y-2228751D01*
X305876Y-2228543D01*
X305460D01*
X305251Y-2228335D01*
X305043Y-2228126D01*
X303376Y-2227293D01*
X301710Y-2227085D01*
X300668Y-2226876D01*
D02*
G37*
%LPD*%
G36*
X339001Y-2339167D02*
X261502D01*
Y-2332708D01*
X339001D01*
Y-2339167D01*
D02*
G37*
G36*
X313168Y-2264167D02*
X314209Y-2265209D01*
X315043Y-2266042D01*
X315459Y-2266459D01*
X316709Y-2267917D01*
X317751Y-2268959D01*
X318376Y-2269792D01*
X318584Y-2270209D01*
X319834Y-2272292D01*
X320876Y-2274584D01*
X321501Y-2276667D01*
X322126Y-2278542D01*
X322543Y-2280209D01*
X322959Y-2281459D01*
X323168Y-2282292D01*
Y-2282709D01*
X323376Y-2285209D01*
X323168Y-2287709D01*
X322751Y-2290209D01*
X322126Y-2292292D01*
X321501Y-2293959D01*
X321084Y-2295417D01*
X320668Y-2296250D01*
X320459Y-2296667D01*
X319418Y-2298334D01*
X318376Y-2300209D01*
X317334Y-2301459D01*
X316918Y-2301875D01*
Y-2302084D01*
X315668Y-2303959D01*
X314834Y-2305625D01*
X314001Y-2307292D01*
X313584Y-2308542D01*
X313168Y-2309792D01*
Y-2310625D01*
X312959Y-2311250D01*
Y-2311459D01*
Y-2312292D01*
Y-2312709D01*
Y-2313125D01*
Y-2314584D01*
X313168Y-2315000D01*
Y-2315209D01*
X313584Y-2317083D01*
X314001Y-2318750D01*
X314418Y-2319792D01*
X315043Y-2320625D01*
X315459Y-2321250D01*
X315876Y-2321667D01*
X316084Y-2321875D01*
X316293D01*
X314626Y-2326667D01*
X312751Y-2325625D01*
X311293Y-2324167D01*
X310251Y-2322500D01*
X309418Y-2320625D01*
X308793Y-2318750D01*
X308168Y-2317292D01*
X307960Y-2316250D01*
Y-2315833D01*
X307751Y-2315209D01*
Y-2314375D01*
Y-2313542D01*
Y-2313334D01*
Y-2312500D01*
Y-2311667D01*
Y-2311042D01*
Y-2310834D01*
X308168Y-2308125D01*
X308793Y-2305834D01*
X309210Y-2305209D01*
X309418Y-2304584D01*
X309626Y-2304375D01*
Y-2304167D01*
X310668Y-2302292D01*
X311709Y-2300625D01*
X312543Y-2299375D01*
X312751Y-2299167D01*
Y-2298959D01*
X314209Y-2297084D01*
X315251Y-2295625D01*
X315668Y-2294584D01*
X315876Y-2294375D01*
X316709Y-2292292D01*
X317334Y-2290417D01*
X317751Y-2288542D01*
X317959Y-2286667D01*
X317751Y-2282917D01*
X317126Y-2279792D01*
X316084Y-2277084D01*
X315251Y-2275001D01*
X314834Y-2274167D01*
X314418Y-2273542D01*
X314209Y-2273334D01*
Y-2273126D01*
X313376Y-2271876D01*
X312543Y-2270834D01*
X311918Y-2270001D01*
X311709Y-2269792D01*
X310668Y-2268959D01*
X309835Y-2268126D01*
X309001Y-2267501D01*
X308793Y-2267292D01*
X310668Y-2264792D01*
X311918Y-2263126D01*
X313168Y-2264167D01*
D02*
G37*
G36*
X300251D02*
X301293Y-2265209D01*
X302126Y-2266042D01*
X302543Y-2266459D01*
X303793Y-2267917D01*
X304835Y-2268959D01*
X305460Y-2269792D01*
X305668Y-2270209D01*
X306918Y-2272292D01*
X307960Y-2274584D01*
X308585Y-2276667D01*
X309210Y-2278542D01*
X309626Y-2280209D01*
X310043Y-2281459D01*
X310251Y-2282292D01*
Y-2282709D01*
X310460Y-2285209D01*
X310251Y-2287709D01*
X309835Y-2290209D01*
X309210Y-2292292D01*
X308585Y-2293959D01*
X308168Y-2295417D01*
X307751Y-2296250D01*
X307543Y-2296667D01*
X306710Y-2298334D01*
X305460Y-2300000D01*
X305043Y-2300834D01*
X304626Y-2301459D01*
X304210Y-2301875D01*
Y-2302084D01*
X302960Y-2303959D01*
X301918Y-2305625D01*
X301293Y-2307292D01*
X300668Y-2308542D01*
X300460Y-2309792D01*
X300251Y-2310625D01*
X300043Y-2311250D01*
Y-2311459D01*
Y-2312500D01*
Y-2312917D01*
Y-2313125D01*
Y-2314584D01*
X300251Y-2315000D01*
Y-2315209D01*
X300668Y-2317292D01*
X301085Y-2318750D01*
X301501Y-2320000D01*
X302126Y-2320833D01*
X302543Y-2321250D01*
X302960Y-2321667D01*
X303168Y-2321875D01*
X303376D01*
X301710Y-2326667D01*
X299835Y-2325625D01*
X298376Y-2324167D01*
X297126Y-2322500D01*
X296293Y-2320625D01*
X295668Y-2318750D01*
X295251Y-2317292D01*
X295043Y-2316250D01*
Y-2315833D01*
Y-2315209D01*
X294835Y-2314375D01*
Y-2313542D01*
Y-2313334D01*
Y-2312292D01*
Y-2311459D01*
Y-2311042D01*
Y-2310834D01*
X295251Y-2308125D01*
X295876Y-2305834D01*
X296293Y-2305209D01*
X296501Y-2304584D01*
X296710Y-2304375D01*
Y-2304167D01*
X297751Y-2302292D01*
X299001Y-2300625D01*
X299626Y-2299375D01*
X300043Y-2299167D01*
Y-2298959D01*
X301293Y-2297084D01*
X302335Y-2295625D01*
X302751Y-2294584D01*
X302960Y-2294375D01*
X303793Y-2292292D01*
X304418Y-2290417D01*
X304835Y-2288542D01*
X305043Y-2286667D01*
X304835Y-2282917D01*
X304210Y-2279792D01*
X303168Y-2277084D01*
X302335Y-2275001D01*
X301918Y-2274167D01*
X301501Y-2273542D01*
X301293Y-2273334D01*
Y-2273126D01*
X300460Y-2271876D01*
X299626Y-2270834D01*
X299001Y-2270001D01*
X298793Y-2269792D01*
X297751Y-2268751D01*
X296918Y-2267917D01*
X296085Y-2267501D01*
X295876Y-2267292D01*
X297751Y-2264792D01*
X299001Y-2263126D01*
X300251Y-2264167D01*
D02*
G37*
G36*
X287543D02*
X288585Y-2265417D01*
X289418Y-2266042D01*
X289835Y-2266459D01*
X291085Y-2267917D01*
X291918Y-2268959D01*
X292543Y-2269792D01*
X292751Y-2270209D01*
X294001Y-2272292D01*
X295043Y-2274584D01*
X295668Y-2276667D01*
X296293Y-2278542D01*
X296710Y-2280209D01*
X297126Y-2281459D01*
X297335Y-2282292D01*
Y-2282709D01*
X297543Y-2285209D01*
X297335Y-2287709D01*
X296918Y-2290209D01*
X296293Y-2292292D01*
X295876Y-2293959D01*
X295251Y-2295417D01*
X295043Y-2296250D01*
X294835Y-2296667D01*
X293793Y-2298542D01*
X292543Y-2300209D01*
X291710Y-2301459D01*
X291293Y-2301875D01*
Y-2302084D01*
X290043Y-2303959D01*
X289002Y-2305625D01*
X288377Y-2307084D01*
X287752Y-2308542D01*
X287543Y-2309792D01*
X287335Y-2310625D01*
X287127Y-2311250D01*
Y-2311459D01*
Y-2312500D01*
Y-2312917D01*
Y-2313125D01*
Y-2313750D01*
Y-2314375D01*
X287335Y-2315000D01*
Y-2315209D01*
X287752Y-2317292D01*
X288168Y-2318750D01*
X288793Y-2320000D01*
X289210Y-2320833D01*
X289835Y-2321250D01*
X290043Y-2321667D01*
X290460Y-2321875D01*
X288793Y-2326667D01*
X286918Y-2325625D01*
X285460Y-2324167D01*
X284418Y-2322500D01*
X283585Y-2320625D01*
X282960Y-2318750D01*
X282335Y-2317292D01*
X282127Y-2316250D01*
Y-2315833D01*
X281918Y-2314167D01*
Y-2313542D01*
Y-2313334D01*
Y-2312500D01*
Y-2311667D01*
Y-2311042D01*
Y-2310834D01*
X282335Y-2308125D01*
X282960Y-2305834D01*
X283377Y-2305209D01*
X283585Y-2304584D01*
X283793Y-2304375D01*
Y-2304167D01*
X284835Y-2302292D01*
X286085Y-2300625D01*
X286710Y-2299375D01*
X287127Y-2299167D01*
Y-2298959D01*
X288585Y-2296875D01*
X289418Y-2295417D01*
X289835Y-2294584D01*
X290043Y-2294375D01*
X290877Y-2292292D01*
X291501Y-2290417D01*
X291918Y-2288542D01*
X292126Y-2286667D01*
X291918Y-2282917D01*
X291293Y-2279792D01*
X290460Y-2277084D01*
X289627Y-2275001D01*
X289210Y-2274167D01*
X288793Y-2273542D01*
X288585Y-2273334D01*
Y-2273126D01*
X287543Y-2271876D01*
X286710Y-2270834D01*
X286085Y-2270001D01*
X285877Y-2269792D01*
X284835Y-2268751D01*
X283793Y-2267917D01*
X283168Y-2267501D01*
X282960Y-2267292D01*
X284835Y-2264792D01*
X286085Y-2263126D01*
X287543Y-2264167D01*
D02*
G37*
%LPC*%
G36*
X1350016Y-431276D02*
X1343684D01*
X1342218Y-431342D01*
X1340885Y-431476D01*
X1339685Y-431542D01*
X1338685Y-431676D01*
X1338219Y-431742D01*
X1337885Y-431809D01*
X1337619D01*
X1337419Y-431875D01*
X1337219D01*
X1335819Y-432076D01*
X1334486Y-432342D01*
X1333220Y-432609D01*
X1332153Y-432875D01*
X1331220Y-433075D01*
X1330554Y-433275D01*
X1330287Y-433342D01*
X1330087Y-433409D01*
X1330021Y-433475D01*
X1329954D01*
X1328688Y-433875D01*
X1327488Y-434342D01*
X1326355Y-434808D01*
X1325422Y-435275D01*
X1324622Y-435675D01*
X1324022Y-436008D01*
X1323622Y-436208D01*
X1323489Y-436274D01*
X1322423Y-436941D01*
X1321356Y-437674D01*
X1320423Y-438407D01*
X1319623Y-439074D01*
X1318957Y-439607D01*
X1318424Y-440073D01*
X1318157Y-440340D01*
X1318024Y-440473D01*
X1317157Y-441406D01*
X1316291Y-442406D01*
X1315558Y-443273D01*
X1314891Y-444139D01*
X1314358Y-444872D01*
X1313958Y-445472D01*
X1313692Y-445872D01*
X1313625Y-445939D01*
Y-446005D01*
X1312892Y-447205D01*
X1312225Y-448405D01*
X1311692Y-449604D01*
X1311225Y-450671D01*
X1310826Y-451537D01*
X1310559Y-452270D01*
X1310426Y-452537D01*
X1310359Y-452737D01*
X1310292Y-452870D01*
Y-452937D01*
X1309826Y-454403D01*
X1309426Y-455869D01*
X1309093Y-457336D01*
X1308759Y-458602D01*
X1308560Y-459735D01*
X1308493Y-460202D01*
X1308426Y-460602D01*
X1308360Y-460935D01*
X1308293Y-461201D01*
Y-461335D01*
Y-461401D01*
X1308026Y-463134D01*
X1307893Y-464867D01*
X1307760Y-466533D01*
X1307626Y-468066D01*
Y-468799D01*
Y-469399D01*
X1307560Y-469932D01*
Y-470399D01*
Y-470799D01*
Y-471065D01*
Y-471265D01*
Y-471332D01*
Y-473465D01*
X1307693Y-475464D01*
X1307760Y-477331D01*
X1307826Y-478130D01*
X1307893Y-478930D01*
X1307960Y-479663D01*
X1308026Y-480263D01*
X1308093Y-480796D01*
X1308160Y-481263D01*
X1308226Y-481663D01*
Y-481929D01*
X1308293Y-482063D01*
Y-482129D01*
X1308560Y-483929D01*
X1308893Y-485595D01*
X1309226Y-487128D01*
X1309559Y-488394D01*
X1309826Y-489461D01*
X1309959Y-489927D01*
X1310092Y-490327D01*
X1310159Y-490594D01*
X1310226Y-490794D01*
X1310292Y-490927D01*
Y-490994D01*
X1310826Y-492460D01*
X1311359Y-493793D01*
X1311959Y-494993D01*
X1312425Y-495992D01*
X1312892Y-496859D01*
X1313292Y-497525D01*
X1313558Y-497925D01*
X1313625Y-497992D01*
Y-498059D01*
X1314358Y-499192D01*
X1315158Y-500191D01*
X1315891Y-501124D01*
X1316557Y-501924D01*
X1317157Y-502591D01*
X1317690Y-503057D01*
X1317957Y-503324D01*
X1318090Y-503457D01*
X1319023Y-504324D01*
X1320023Y-505057D01*
X1320956Y-505723D01*
X1321823Y-506323D01*
X1322556Y-506790D01*
X1323089Y-507190D01*
X1323489Y-507389D01*
X1323556Y-507456D01*
X1323622D01*
X1324755Y-508056D01*
X1325888Y-508589D01*
X1327021Y-508989D01*
X1328021Y-509389D01*
X1328888Y-509656D01*
X1329554Y-509855D01*
X1329821Y-509989D01*
X1330021D01*
X1330087Y-510056D01*
X1330154D01*
X1331487Y-510389D01*
X1332820Y-510722D01*
X1334020Y-510989D01*
X1335153Y-511189D01*
X1336152Y-511322D01*
X1336886Y-511455D01*
X1337152D01*
X1337352Y-511522D01*
X1337552D01*
X1340418Y-511788D01*
X1341818Y-511855D01*
X1343017Y-511922D01*
X1344084Y-511988D01*
X1347416D01*
X1347883Y-511922D01*
X1348882D01*
X1350016Y-511855D01*
X1351015D01*
X1351349Y-511788D01*
X1351948D01*
X1353081Y-511655D01*
X1354081Y-511588D01*
X1354948Y-511522D01*
X1355681Y-511455D01*
X1356214Y-511389D01*
X1356614Y-511322D01*
X1356947D01*
Y-510389D01*
Y-509522D01*
Y-508789D01*
Y-508123D01*
Y-507523D01*
Y-507123D01*
Y-506856D01*
Y-506790D01*
Y-505457D01*
Y-504924D01*
Y-504390D01*
Y-503990D01*
Y-503657D01*
Y-503457D01*
Y-503391D01*
Y-502124D01*
Y-501058D01*
Y-500125D01*
Y-499392D01*
Y-498792D01*
Y-498325D01*
Y-498059D01*
Y-497992D01*
Y-496526D01*
Y-495793D01*
Y-495126D01*
Y-494593D01*
Y-494126D01*
Y-493860D01*
Y-493726D01*
Y-493126D01*
Y-492527D01*
Y-492060D01*
Y-491993D01*
Y-491927D01*
Y-491194D01*
Y-490527D01*
Y-490194D01*
Y-489994D01*
Y-489861D01*
Y-489794D01*
Y-488928D01*
Y-488061D01*
Y-487661D01*
Y-487395D01*
Y-487195D01*
Y-487128D01*
Y-485995D01*
Y-485462D01*
Y-484929D01*
Y-484529D01*
Y-484196D01*
Y-483929D01*
Y-483862D01*
Y-482729D01*
Y-481596D01*
Y-480463D01*
Y-479397D01*
Y-478530D01*
Y-477797D01*
Y-477531D01*
Y-477331D01*
Y-477197D01*
Y-477131D01*
Y-475664D01*
Y-474065D01*
Y-472598D01*
Y-471199D01*
Y-469932D01*
Y-469466D01*
Y-468999D01*
Y-468599D01*
Y-468333D01*
Y-468200D01*
Y-468133D01*
Y-465600D01*
Y-463001D01*
Y-460401D01*
Y-459135D01*
Y-458002D01*
Y-456869D01*
Y-455869D01*
Y-455003D01*
Y-454203D01*
Y-453603D01*
Y-453137D01*
Y-452803D01*
Y-452737D01*
Y-451004D01*
Y-449271D01*
Y-445672D01*
Y-442206D01*
Y-440540D01*
Y-438940D01*
Y-437474D01*
Y-436074D01*
Y-434875D01*
Y-433875D01*
Y-433009D01*
Y-432409D01*
Y-432009D01*
Y-431875D01*
X1356014Y-431742D01*
X1355148Y-431676D01*
X1354814Y-431609D01*
X1354281D01*
X1353148Y-431476D01*
X1352681Y-431409D01*
X1352215D01*
X1351815Y-431342D01*
X1351215D01*
X1350016Y-431276D01*
D02*
G37*
G36*
X1096071Y-513929D02*
X1065622D01*
X1059823Y-514412D01*
X1054506Y-514895D01*
X1050156Y-515379D01*
X1045807Y-516345D01*
X1042423Y-516828D01*
X1036624Y-518762D01*
X1032274Y-520695D01*
X1029857Y-522145D01*
X1028407Y-523112D01*
X1027924Y-523595D01*
X1025508Y-526978D01*
X1023574Y-530844D01*
X1022124Y-534228D01*
X1021158Y-537611D01*
X1020674Y-540027D01*
X1020191Y-542444D01*
Y-543894D01*
Y-544377D01*
X1020674Y-549210D01*
X1021641Y-553560D01*
X1023091Y-557427D01*
X1024541Y-560810D01*
X1025991Y-563226D01*
X1027441Y-565160D01*
X1028407Y-566126D01*
X1028891Y-566610D01*
X1033241Y-569509D01*
X1038557Y-571443D01*
X1044840Y-572893D01*
X1051606Y-573859D01*
X1057406Y-574342D01*
X1062239Y-574826D01*
X1096071D01*
Y-513929D01*
D02*
G37*
G36*
Y-635723D02*
X1067072D01*
X1056439Y-636206D01*
X1047256Y-637173D01*
X1040007Y-638140D01*
X1034207Y-639590D01*
X1030341Y-641523D01*
X1027441Y-642489D01*
X1025508Y-643456D01*
X1025024Y-643939D01*
X1021641Y-647322D01*
X1018741Y-651189D01*
X1016808Y-655539D01*
X1015841Y-659405D01*
X1014875Y-663272D01*
X1014391Y-666172D01*
Y-668105D01*
Y-669072D01*
X1014875Y-675355D01*
X1016325Y-680671D01*
X1018258Y-685021D01*
X1020191Y-688887D01*
X1022608Y-691304D01*
X1024541Y-693237D01*
X1025991Y-694204D01*
X1026474Y-694687D01*
X1031790Y-697104D01*
X1037590Y-699037D01*
X1044357Y-700004D01*
X1051123Y-700970D01*
X1056923Y-701453D01*
X1062239Y-701937D01*
X1096071D01*
Y-635723D01*
D02*
G37*
G36*
X323740Y-606241D02*
X321806D01*
X315040Y-606724D01*
X308757Y-608658D01*
X303441Y-610591D01*
X299574Y-613491D01*
X296191Y-615907D01*
X293774Y-618324D01*
X292324Y-620257D01*
X291841Y-620740D01*
X288458Y-626540D01*
X286041Y-632823D01*
X284108Y-639106D01*
X283141Y-644906D01*
X282175Y-649739D01*
X281692Y-653606D01*
Y-656505D01*
Y-656989D01*
Y-657472D01*
X282175Y-667138D01*
X283625Y-675355D01*
X285558Y-682121D01*
X287491Y-687921D01*
X289424Y-692271D01*
X291358Y-695170D01*
X292808Y-697104D01*
X293291Y-697587D01*
X297641Y-701937D01*
X302957Y-704837D01*
X307790Y-707253D01*
X312140Y-708703D01*
X316490Y-709670D01*
X319873Y-710153D01*
X322773D01*
X330023Y-709670D01*
X336306Y-707736D01*
X341139Y-705803D01*
X345489Y-702903D01*
X348872Y-700487D01*
X351288Y-698070D01*
X352738Y-696620D01*
X353222Y-696137D01*
X356605Y-690337D01*
X359021Y-684538D01*
X360955Y-678254D01*
X361921Y-672455D01*
X362888Y-667622D01*
X363371Y-663272D01*
Y-660855D01*
Y-659889D01*
X362888Y-650222D01*
X361438Y-642006D01*
X359505Y-635240D01*
X357088Y-628957D01*
X353705Y-623640D01*
X350322Y-619291D01*
X346455Y-615907D01*
X342589Y-613007D01*
X338722Y-610591D01*
X334856Y-609141D01*
X331473Y-607691D01*
X328089Y-607208D01*
X325673Y-606724D01*
X323740Y-606241D01*
D02*
G37*
G36*
X683323Y-587875D02*
X680423D01*
X674624Y-588359D01*
X669790Y-589809D01*
X665441Y-591742D01*
X661574Y-594158D01*
X658674Y-596575D01*
X656741Y-598508D01*
X655291Y-599958D01*
X654808Y-600441D01*
X651425Y-605275D01*
X649008Y-610591D01*
X647558Y-615907D01*
X646108Y-620740D01*
X645625Y-625090D01*
X645142Y-628473D01*
Y-630890D01*
Y-631857D01*
Y-632340D01*
Y-633307D01*
Y-636206D01*
X645625Y-639106D01*
Y-639590D01*
Y-640073D01*
X714255D01*
Y-636690D01*
Y-635723D01*
Y-635240D01*
X713772Y-627990D01*
X712805Y-621707D01*
X711355Y-615907D01*
X709905Y-611074D01*
X708455Y-606724D01*
X707005Y-603825D01*
X706039Y-601891D01*
X705555Y-601408D01*
X702172Y-597058D01*
X697822Y-593675D01*
X693956Y-591258D01*
X689606Y-589325D01*
X686223Y-588359D01*
X683323Y-587875D01*
D02*
G37*
G36*
X2109574Y-513929D02*
X2079126D01*
X2073326Y-514412D01*
X2068010Y-514895D01*
X2063660Y-515379D01*
X2059310Y-516345D01*
X2055927Y-516828D01*
X2050127Y-518762D01*
X2045777Y-520695D01*
X2043361Y-522145D01*
X2041911Y-523112D01*
X2041428Y-523595D01*
X2039011Y-526978D01*
X2037078Y-530844D01*
X2035628Y-534228D01*
X2034661Y-537611D01*
X2034178Y-540027D01*
X2033695Y-542444D01*
Y-543894D01*
Y-544377D01*
X2034178Y-549210D01*
X2035145Y-553560D01*
X2036595Y-557427D01*
X2038044Y-560810D01*
X2039494Y-563226D01*
X2040944Y-565160D01*
X2041911Y-566126D01*
X2042394Y-566610D01*
X2046744Y-569509D01*
X2052061Y-571443D01*
X2058344Y-572893D01*
X2065110Y-573859D01*
X2070910Y-574342D01*
X2075743Y-574826D01*
X2109574D01*
Y-513929D01*
D02*
G37*
G36*
Y-635723D02*
X2080576D01*
X2069943Y-636206D01*
X2060760Y-637173D01*
X2053510Y-638140D01*
X2047711Y-639590D01*
X2043844Y-641523D01*
X2040944Y-642489D01*
X2039011Y-643456D01*
X2038528Y-643939D01*
X2035145Y-647322D01*
X2032245Y-651189D01*
X2030311Y-655539D01*
X2029345Y-659405D01*
X2028378Y-663272D01*
X2027895Y-666172D01*
Y-668105D01*
Y-669072D01*
X2028378Y-675355D01*
X2029828Y-680671D01*
X2031761Y-685021D01*
X2033695Y-688887D01*
X2036111Y-691304D01*
X2038044Y-693237D01*
X2039494Y-694204D01*
X2039978Y-694687D01*
X2045294Y-697104D01*
X2051094Y-699037D01*
X2057860Y-700004D01*
X2064627Y-700970D01*
X2070426Y-701453D01*
X2075743Y-701937D01*
X2109574D01*
Y-635723D01*
D02*
G37*
G36*
X1484653Y-606241D02*
X1481270D01*
X1474504Y-606724D01*
X1468704Y-608658D01*
X1463387Y-611074D01*
X1459038Y-613491D01*
X1455654Y-616391D01*
X1452755Y-618807D01*
X1451305Y-620740D01*
X1450821Y-621224D01*
X1446955Y-627024D01*
X1444538Y-633790D01*
X1442605Y-640073D01*
X1441155Y-646356D01*
X1440188Y-651672D01*
X1439705Y-656022D01*
Y-658922D01*
Y-659405D01*
Y-659889D01*
X1440188Y-667622D01*
X1441155Y-674871D01*
X1443088Y-680671D01*
X1445022Y-685987D01*
X1446955Y-689854D01*
X1448888Y-693237D01*
X1449855Y-695170D01*
X1450338Y-695654D01*
X1454688Y-700487D01*
X1459521Y-703870D01*
X1464837Y-706770D01*
X1469671Y-708220D01*
X1474504Y-709186D01*
X1478370Y-709670D01*
X1480787Y-710153D01*
X1481753D01*
X1488520Y-709670D01*
X1494803Y-707736D01*
X1500119Y-705803D01*
X1504469Y-702903D01*
X1508335Y-700487D01*
X1510752Y-698070D01*
X1512202Y-696620D01*
X1512685Y-696137D01*
X1516068Y-690337D01*
X1518968Y-684538D01*
X1520901Y-678254D01*
X1521868Y-672938D01*
X1522835Y-667622D01*
X1523318Y-663755D01*
Y-661339D01*
Y-660372D01*
X1522835Y-652156D01*
X1521868Y-644906D01*
X1519935Y-638140D01*
X1518002Y-632823D01*
X1516068Y-628473D01*
X1514135Y-625090D01*
X1513168Y-622674D01*
X1512685Y-622190D01*
X1508335Y-616874D01*
X1503019Y-613007D01*
X1497702Y-610108D01*
X1492869Y-608174D01*
X1488036Y-607208D01*
X1484653Y-606241D01*
D02*
G37*
%LPD*%
D24*
X2430000Y55001D02*
G03*
X2430000Y55001I-20000J0D01*
G01*
Y-2465000D02*
G03*
X2430000Y-2465000I-20000J0D01*
G01*
X1220000Y-2465000D02*
G03*
X1220000Y-2465000I-20000J0D01*
G01*
X10000Y-2465000D02*
G03*
X10000Y-2465000I-20000J0D01*
G01*
X10000Y55000D02*
G03*
X10000Y55000I-20000J0D01*
G01*
X1428000Y155006D02*
Y175000D01*
X1408007Y155006D01*
X1403008D01*
X1398010Y160005D01*
Y170002D01*
X1403008Y175000D01*
X1428000Y130014D02*
X1398010D01*
X1413005Y145010D01*
Y125016D01*
X1398010Y115019D02*
X1418003D01*
X1428000Y105023D01*
X1418003Y95026D01*
X1398010D01*
X1003000Y175000D02*
Y165003D01*
Y170002D01*
X973010D01*
X978008Y175000D01*
X1003000Y130014D02*
Y150008D01*
X983007Y130014D01*
X978008D01*
X973010Y135013D01*
Y145010D01*
X978008Y150008D01*
X973010Y120018D02*
X993003D01*
X1003000Y110021D01*
X993003Y100024D01*
X973010D01*
X1103000Y162001D02*
X1096336D01*
X1099668D01*
Y181994D01*
X1103000Y178662D01*
X1073010Y162001D02*
X1086339D01*
X1073010Y175330D01*
Y178662D01*
X1076342Y181994D01*
X1083007D01*
X1086339Y178662D01*
X1066345Y181994D02*
Y168665D01*
X1059681Y162001D01*
X1053016Y168665D01*
Y181994D01*
X1331671Y162001D02*
X1345000D01*
X1331671Y175330D01*
Y178662D01*
X1335004Y181994D01*
X1341668D01*
X1345000Y178662D01*
X1315010Y162001D02*
Y181994D01*
X1325007Y171998D01*
X1311678D01*
X1305013Y181994D02*
Y168665D01*
X1298349Y162001D01*
X1291684Y168665D01*
Y181994D01*
D25*
X2439000Y55001D02*
G03*
X2439000Y55001I-29000J0D01*
G01*
Y-2465000D02*
G03*
X2439000Y-2465000I-29000J0D01*
G01*
X1229000Y-2465000D02*
G03*
X1229000Y-2465000I-29000J0D01*
G01*
X19000Y-2465000D02*
G03*
X19000Y-2465000I-29000J0D01*
G01*
X19000Y55000D02*
G03*
X19000Y55000I-29000J0D01*
G01*
D26*
X200000Y-2399999D02*
Y-799999D01*
Y-399999D02*
Y1D01*
X400000Y-499999D02*
X800000D01*
X1200000Y-2399999D02*
Y-799999D01*
X1600000Y-2399999D02*
Y-899999D01*
X0Y-799999D02*
X1300000D01*
X0Y-899999D02*
X2400000D01*
X2200000Y-2399999D02*
Y-799999D01*
X300000Y-2199999D02*
Y-799999D01*
X400000Y-2399999D02*
Y-799999D01*
X500000Y-2399999D02*
Y-799999D01*
X600000Y-2399999D02*
Y-799999D01*
X700000Y-2399999D02*
Y-799999D01*
X800000Y-2399999D02*
Y-799999D01*
X900000Y-2399999D02*
Y-799999D01*
X1000000Y-2399999D02*
Y-799999D01*
X1100000Y-2399999D02*
Y-799999D01*
X1300000Y-2399999D02*
Y-799999D01*
X1400000Y-2399999D02*
Y-899999D01*
X1500000Y-2399999D02*
Y-899999D01*
X1700000Y-2399999D02*
Y-799999D01*
X1800000Y-2399999D02*
Y-799999D01*
X1900000Y-2399999D02*
Y-799999D01*
X2000000Y-2399999D02*
Y-799999D01*
X2100000Y-2399999D02*
Y-799999D01*
X300000Y-399999D02*
Y1D01*
X400000Y-499999D02*
Y1D01*
X500000Y-499999D02*
Y1D01*
X600000Y-499999D02*
Y1D01*
X700000Y-499999D02*
Y1D01*
X800000Y-499999D02*
Y1D01*
X900000Y-399999D02*
Y1D01*
X1000000Y-399999D02*
Y1D01*
X1100000Y-399999D02*
Y1D01*
X1200000Y-399999D02*
Y1D01*
X1300000Y-399999D02*
Y1D01*
X1400000Y-399999D02*
Y1D01*
X1500000Y-399999D02*
Y1D01*
X1600000Y-399999D02*
Y1D01*
X1700000Y-399999D02*
Y1D01*
X1800000Y-399999D02*
Y1D01*
X1900000Y-399999D02*
Y1D01*
X2000000Y-399999D02*
Y1D01*
X2100000Y-399999D02*
Y1D01*
X0Y-699999D02*
X100000D01*
X0Y-599999D02*
X100000D01*
X0Y-499999D02*
X100000D01*
X1700000Y-799999D02*
X2400000D01*
X2300000Y-699999D02*
X2400000D01*
X2300000Y-599999D02*
X2400000D01*
X2300000Y-499999D02*
X2400000D01*
X0Y-2199999D02*
X2400000D01*
X400000Y-2299999D02*
X2400000D01*
X0Y-2099999D02*
X2400000D01*
X0Y-1899999D02*
X2400000D01*
X0Y-1999999D02*
X2400000D01*
X0Y-1799999D02*
X2400000D01*
X0Y-1699999D02*
X2400000D01*
X0Y-1599999D02*
X2400000D01*
X0Y-1499999D02*
X2400000D01*
X0Y-1399999D02*
X2400000D01*
X0Y-1299999D02*
X2400000D01*
X0Y-1199999D02*
X2400000D01*
X0Y-1099999D02*
X2400000D01*
X0Y-999999D02*
X2400000D01*
X0Y-399999D02*
X2400000D01*
X0Y-299999D02*
X2400000D01*
X0Y-199999D02*
X2400000D01*
X0Y-99999D02*
X2400000D01*
X100000Y-2199999D02*
Y1D01*
X2300000Y-2399999D02*
Y1D01*
X2200000Y-399999D02*
Y1D01*
X1152006Y112501D02*
Y100505D01*
Y106503D01*
X1170000D01*
X725000Y131001D02*
X719002D01*
X722001D01*
Y148995D01*
X725000Y145996D01*
X1670004Y151001D02*
X1682000D01*
X1670004Y162997D01*
Y165996D01*
X1673003Y168995D01*
X1679001D01*
X1682000Y165996D01*
X1683000Y125996D02*
X1680001Y128995D01*
X1674003D01*
X1671004Y125996D01*
Y122997D01*
X1674003Y119998D01*
X1677002D01*
X1674003D01*
X1671004Y116999D01*
Y114000D01*
X1674003Y111001D01*
X1680001D01*
X1683000Y114000D01*
D27*
X1Y-0D02*
X2400000D01*
X1Y-2400000D02*
Y-0D01*
Y-2400000D02*
X2400000D01*
Y-0D01*
D35*
X1198476Y-1195936D02*
X1201524D01*
X1198476Y-1204064D02*
X1201524D01*
M02*
