G04 Layer_Color=32896*
%FSLAX44Y44*%
%MOMM*%
G71*
G01*
G75*
%ADD30C,0.2000*%
%ADD31C,0.3000*%
%ADD32C,0.1500*%
%ADD33C,0.5000*%
%ADD34C,0.1270*%
%ADD44C,1.0000*%
G36*
X1704611Y2055721D02*
X1706543D01*
X1706810Y2055655D01*
X1707210D01*
X1708010Y2055588D01*
X1708676D01*
X1708943Y2055521D01*
X1709343D01*
X1710076Y2055455D01*
X1710676Y2055321D01*
X1711142Y2055255D01*
X1711276D01*
X1711676Y2054055D01*
X1712009Y2052922D01*
X1712342Y2051922D01*
X1712609Y2051056D01*
X1712875Y2050389D01*
X1713075Y2049856D01*
X1713142Y2049523D01*
X1713208Y2049390D01*
X1713475Y2048457D01*
X1713742Y2047657D01*
X1714008Y2046857D01*
X1714208Y2046190D01*
X1714341Y2045657D01*
X1714475Y2045257D01*
X1714608Y2044991D01*
Y2044924D01*
X1715141Y2043258D01*
X1715608Y2041858D01*
X1716008Y2040659D01*
X1716341Y2039659D01*
X1716608Y2038859D01*
X1716808Y2038326D01*
X1716874Y2037993D01*
X1716941Y2037859D01*
X1717274Y2036926D01*
X1717541Y2035993D01*
X1717874Y2035060D01*
X1718141Y2034193D01*
X1718407Y2033394D01*
X1718540Y2032794D01*
X1718674Y2032394D01*
X1718740Y2032327D01*
Y2032261D01*
X1719007Y2031528D01*
X1719274Y2030794D01*
X1719340Y2030528D01*
X1719407Y2030261D01*
X1719474Y2030128D01*
Y2030061D01*
X1719807Y2029061D01*
X1720073Y2028128D01*
X1720207Y2027795D01*
X1720340Y2027462D01*
X1720407Y2027262D01*
Y2027195D01*
X1720806Y2025995D01*
X1720940Y2025462D01*
X1721140Y2024929D01*
X1721273Y2024463D01*
X1721406Y2024129D01*
X1721540Y2023863D01*
Y2023796D01*
X1722006Y2022330D01*
X1722273Y2021597D01*
X1722473Y2020930D01*
X1722673Y2020330D01*
X1722806Y2019864D01*
X1722873Y2019597D01*
X1722939Y2019464D01*
X1723406Y2017998D01*
X1723872Y2016531D01*
X1724339Y2015065D01*
X1724805Y2013665D01*
X1725205Y2012466D01*
X1725405Y2011933D01*
X1725539Y2011533D01*
X1725672Y2011133D01*
X1725739Y2010866D01*
X1725805Y2010733D01*
Y2010666D01*
X1726405Y2008733D01*
X1727072Y2006667D01*
X1727738Y2004734D01*
X1728271Y2002935D01*
X1728604Y2002068D01*
X1728804Y2001335D01*
X1729071Y2000669D01*
X1729204Y2000069D01*
X1729404Y1999602D01*
X1729538Y1999202D01*
X1729604Y1999003D01*
Y1998936D01*
X1730137Y1997336D01*
X1730671Y1995603D01*
X1731804Y1992204D01*
X1732870Y1988805D01*
X1733403Y1987206D01*
X1733936Y1985672D01*
X1734403Y1984206D01*
X1734803Y1982873D01*
X1735203Y1981740D01*
X1735536Y1980674D01*
X1735803Y1979874D01*
X1735936Y1979274D01*
X1736069Y1978874D01*
X1736136Y1978808D01*
Y1978741D01*
X1736869Y1976541D01*
X1737602Y1974276D01*
X1739135Y1969610D01*
X1739868Y1967344D01*
X1740601Y1965078D01*
X1741335Y1962878D01*
X1742001Y1960812D01*
X1742601Y1958879D01*
X1743201Y1957146D01*
X1743734Y1955547D01*
X1744134Y1954214D01*
X1744334Y1953614D01*
X1744534Y1953147D01*
X1744667Y1952681D01*
X1744800Y1952281D01*
X1744867Y1952014D01*
X1744934Y1951815D01*
X1745000Y1951681D01*
Y1951615D01*
X1744400Y1951481D01*
X1743867Y1951348D01*
X1743467Y1951281D01*
X1743334D01*
X1742668Y1951215D01*
X1742134D01*
X1741668Y1951148D01*
X1741534D01*
X1740801Y1951081D01*
X1739535D01*
X1738802Y1951015D01*
X1736869D01*
X1736269Y1951081D01*
X1734936D01*
X1734336Y1951148D01*
X1733737D01*
X1733070Y1951215D01*
X1732537D01*
X1732070Y1951281D01*
X1731937D01*
X1731204Y1951415D01*
X1730604Y1951481D01*
X1730337Y1951548D01*
X1730137Y1951615D01*
X1730004D01*
X1729138Y1954480D01*
X1728338Y1957213D01*
X1727605Y1959746D01*
X1726938Y1962079D01*
X1726338Y1964211D01*
X1725739Y1966211D01*
X1725205Y1967944D01*
X1724739Y1969543D01*
X1724339Y1970943D01*
X1724006Y1972143D01*
X1723672Y1973209D01*
X1723472Y1974075D01*
X1723273Y1974675D01*
X1723139Y1975142D01*
X1723006Y1975475D01*
Y1975542D01*
X1683616D01*
X1683416Y1974875D01*
X1683216Y1974276D01*
X1683016Y1973742D01*
X1682883Y1973276D01*
X1682683Y1972476D01*
X1682483Y1971943D01*
X1682416Y1971609D01*
X1682350Y1971343D01*
X1682283Y1971210D01*
X1682216Y1971076D01*
Y1970876D01*
X1682016Y1970410D01*
X1681816Y1969743D01*
X1681617Y1969077D01*
X1681417Y1968410D01*
X1681217Y1967810D01*
X1681150Y1967410D01*
X1681083Y1967344D01*
Y1967277D01*
X1680883Y1966611D01*
X1680750Y1965944D01*
X1680683Y1965611D01*
X1680617Y1965411D01*
X1680550Y1965278D01*
Y1965211D01*
X1680217Y1964345D01*
X1679950Y1963478D01*
X1679817Y1963078D01*
X1679750Y1962745D01*
X1679684Y1962545D01*
Y1962478D01*
X1679417Y1961745D01*
X1679151Y1960945D01*
X1678951Y1960146D01*
X1678751Y1959479D01*
X1678551Y1958813D01*
X1678417Y1958346D01*
X1678284Y1958013D01*
Y1957880D01*
X1677951Y1956813D01*
X1677617Y1955747D01*
X1677284Y1954680D01*
X1677018Y1953747D01*
X1676751Y1952881D01*
X1676551Y1952214D01*
X1676485Y1951948D01*
X1676418Y1951748D01*
X1676351Y1951681D01*
Y1951615D01*
X1675751Y1951481D01*
X1675152Y1951348D01*
X1674752Y1951281D01*
X1674618D01*
X1673952Y1951215D01*
X1673285D01*
X1673019Y1951148D01*
X1672686D01*
X1672019Y1951081D01*
X1670753D01*
X1670086Y1951015D01*
X1668087D01*
X1667420Y1951081D01*
X1666087D01*
X1665354Y1951148D01*
X1664688D01*
X1663888Y1951215D01*
X1663221D01*
X1663021Y1951281D01*
X1662621D01*
X1661888Y1951415D01*
X1661355Y1951481D01*
X1660955Y1951615D01*
X1660822D01*
X1661222Y1952814D01*
X1661555Y1953881D01*
X1661888Y1954880D01*
X1662155Y1955747D01*
X1662355Y1956413D01*
X1662555Y1956947D01*
X1662621Y1957280D01*
X1662688Y1957413D01*
X1662955Y1958346D01*
X1663221Y1959213D01*
X1663488Y1959946D01*
X1663688Y1960612D01*
X1663821Y1961212D01*
X1663954Y1961612D01*
X1664088Y1961879D01*
Y1961945D01*
X1664621Y1963611D01*
X1665154Y1965011D01*
X1665554Y1966211D01*
X1665820Y1967211D01*
X1666087Y1967944D01*
X1666287Y1968477D01*
X1666354Y1968810D01*
X1666420Y1968943D01*
X1666754Y1969877D01*
X1667020Y1970810D01*
X1667354Y1971743D01*
X1667620Y1972676D01*
X1667887Y1973409D01*
X1668087Y1974009D01*
X1668220Y1974409D01*
X1668287Y1974475D01*
Y1974542D01*
X1668486Y1975342D01*
X1668687Y1976075D01*
X1668820Y1976342D01*
X1668886Y1976608D01*
X1668953Y1976741D01*
Y1976808D01*
X1669286Y1977808D01*
X1669620Y1978674D01*
X1669686Y1979074D01*
X1669819Y1979341D01*
X1669886Y1979541D01*
Y1979607D01*
X1670286Y1980807D01*
X1670419Y1981407D01*
X1670619Y1981940D01*
X1670753Y1982407D01*
X1670886Y1982740D01*
X1671019Y1983006D01*
Y1983073D01*
X1671486Y1984539D01*
X1671752Y1985273D01*
X1671952Y1985939D01*
X1672152Y1986472D01*
X1672286Y1986939D01*
X1672352Y1987206D01*
X1672419Y1987339D01*
X1672885Y1988805D01*
X1673352Y1990271D01*
X1673819Y1991738D01*
X1674285Y1993137D01*
X1674618Y1994337D01*
X1674818Y1994870D01*
X1674951Y1995270D01*
X1675085Y1995670D01*
X1675152Y1995937D01*
X1675218Y1996070D01*
Y1996136D01*
X1675885Y1998069D01*
X1676551Y2000135D01*
X1677151Y2002068D01*
X1677751Y2003934D01*
X1678017Y2004801D01*
X1678284Y2005534D01*
X1678551Y2006201D01*
X1678684Y2006801D01*
X1678884Y2007267D01*
X1679017Y2007667D01*
X1679084Y2007867D01*
Y2007934D01*
X1679617Y2009600D01*
X1680150Y2011266D01*
X1681283Y2014665D01*
X1682350Y2018064D01*
X1682883Y2019664D01*
X1683416Y2021197D01*
X1683883Y2022663D01*
X1684283Y2023929D01*
X1684682Y2025129D01*
X1685016Y2026129D01*
X1685282Y2026929D01*
X1685415Y2027529D01*
X1685549Y2027928D01*
X1685616Y2028062D01*
X1686349Y2030261D01*
X1687082Y2032594D01*
X1688615Y2037193D01*
X1689348Y2039525D01*
X1690081Y2041792D01*
X1690748Y2043924D01*
X1691414Y2045990D01*
X1692081Y2047923D01*
X1692614Y2049723D01*
X1693147Y2051256D01*
X1693547Y2052655D01*
X1693747Y2053255D01*
X1693947Y2053722D01*
X1694080Y2054188D01*
X1694213Y2054588D01*
X1694280Y2054855D01*
X1694347Y2055055D01*
X1694413Y2055188D01*
Y2055255D01*
X1695146Y2055388D01*
X1695813Y2055455D01*
X1696080D01*
X1696279Y2055521D01*
X1696413D01*
X1697213Y2055588D01*
X1697879D01*
X1698212Y2055655D01*
X1698612D01*
X1699412Y2055721D01*
X1700745D01*
X1701478Y2055788D01*
X1704277D01*
X1704611Y2055721D01*
D02*
G37*
G36*
X1556115Y2027129D02*
X1558315Y2026995D01*
X1559381Y2026862D01*
X1560381Y2026729D01*
X1561247Y2026595D01*
X1562114Y2026529D01*
X1562847Y2026395D01*
X1563513Y2026262D01*
X1564113Y2026129D01*
X1564580Y2025995D01*
X1564980Y2025929D01*
X1565246Y2025862D01*
X1565446Y2025796D01*
X1565513D01*
X1567379Y2025196D01*
X1569045Y2024529D01*
X1570512Y2023796D01*
X1571778Y2023063D01*
X1572778Y2022463D01*
X1573178Y2022197D01*
X1573511Y2021930D01*
X1573844Y2021730D01*
X1574044Y2021597D01*
X1574111Y2021530D01*
X1574177Y2021463D01*
X1575444Y2020330D01*
X1576510Y2019197D01*
X1577377Y2018064D01*
X1578110Y2016998D01*
X1578710Y2016065D01*
X1579109Y2015332D01*
X1579243Y2015065D01*
X1579376Y2014865D01*
X1579443Y2014732D01*
Y2014665D01*
X1580043Y2013199D01*
X1580442Y2011666D01*
X1580776Y2010200D01*
X1580976Y2008800D01*
X1581109Y2007667D01*
Y2007134D01*
X1581176Y2006734D01*
Y2006334D01*
Y2006067D01*
Y2005934D01*
Y2005867D01*
X1581109Y2004534D01*
X1581042Y2003335D01*
X1580842Y2002268D01*
X1580642Y2001268D01*
X1580509Y2000469D01*
X1580309Y1999935D01*
X1580242Y1999536D01*
X1580176Y1999469D01*
Y1999402D01*
X1579709Y1998336D01*
X1579243Y1997336D01*
X1578710Y1996470D01*
X1578176Y1995737D01*
X1577710Y1995137D01*
X1577310Y1994670D01*
X1577043Y1994404D01*
X1576977Y1994270D01*
X1576177Y1993470D01*
X1575244Y1992737D01*
X1574377Y1992071D01*
X1573511Y1991471D01*
X1572711Y1990938D01*
X1572111Y1990538D01*
X1571711Y1990271D01*
X1571645Y1990205D01*
X1571578D01*
X1570245Y1989472D01*
X1568912Y1988805D01*
X1567579Y1988139D01*
X1566313Y1987605D01*
X1565246Y1987206D01*
X1564780Y1987005D01*
X1564380Y1986806D01*
X1564113Y1986739D01*
X1563847Y1986606D01*
X1563713Y1986539D01*
X1563647D01*
X1563114Y1986339D01*
X1562647Y1986139D01*
X1562380Y1986072D01*
X1562247Y1986006D01*
X1562114Y1985939D01*
X1562047Y1985872D01*
X1561914D01*
X1561647Y1985739D01*
X1561114Y1985539D01*
X1560448Y1985273D01*
X1559781Y1985073D01*
X1559181Y1984806D01*
X1558715Y1984673D01*
X1558648Y1984606D01*
X1558581D01*
X1557582Y1984273D01*
X1556715Y1984006D01*
X1556315Y1983940D01*
X1556049Y1983806D01*
X1555915Y1983740D01*
X1555849D01*
X1554916Y1983406D01*
X1554116Y1983140D01*
X1553849Y1983073D01*
X1553583Y1982940D01*
X1553449Y1982873D01*
X1553383D01*
X1552516Y1982473D01*
X1551850Y1982140D01*
X1551583Y1982007D01*
X1551383Y1981873D01*
X1551317Y1981807D01*
X1551250D01*
X1550517Y1981340D01*
X1549850Y1981007D01*
X1549584Y1980807D01*
X1549384Y1980741D01*
X1549317Y1980607D01*
X1549250D01*
X1548584Y1980074D01*
X1548117Y1979607D01*
X1547784Y1979274D01*
X1547651Y1979207D01*
Y1979141D01*
X1547118Y1978541D01*
X1546718Y1978008D01*
X1546451Y1977541D01*
X1546384Y1977475D01*
Y1977408D01*
X1545985Y1976741D01*
X1545718Y1976075D01*
X1545651Y1975742D01*
X1545585Y1975542D01*
X1545518Y1975408D01*
Y1975342D01*
X1545385Y1974409D01*
X1545318Y1973542D01*
Y1973142D01*
Y1972876D01*
Y1972676D01*
Y1972609D01*
X1545385Y1971676D01*
X1545451Y1970876D01*
X1545518Y1970610D01*
Y1970343D01*
X1545585Y1970210D01*
Y1970143D01*
X1545918Y1969277D01*
X1546251Y1968610D01*
X1546384Y1968344D01*
X1546518Y1968210D01*
X1546584Y1968077D01*
X1546651Y1968010D01*
X1547184Y1967277D01*
X1547717Y1966611D01*
X1547917Y1966344D01*
X1548117Y1966144D01*
X1548184Y1966078D01*
X1548251Y1966011D01*
X1548917Y1965344D01*
X1549584Y1964878D01*
X1549850Y1964678D01*
X1550050Y1964545D01*
X1550184Y1964411D01*
X1550250D01*
X1551117Y1963945D01*
X1551916Y1963545D01*
X1552250Y1963412D01*
X1552516Y1963278D01*
X1552650Y1963212D01*
X1552716D01*
X1553716Y1962812D01*
X1554582Y1962545D01*
X1554982Y1962412D01*
X1555249Y1962345D01*
X1555449Y1962278D01*
X1555515D01*
X1556649Y1962012D01*
X1557182Y1961945D01*
X1557648Y1961879D01*
X1558048Y1961812D01*
X1558381Y1961745D01*
X1558648D01*
X1559781Y1961679D01*
X1560314D01*
X1560847Y1961612D01*
X1561847D01*
X1563580Y1961679D01*
X1564313D01*
X1565046Y1961745D01*
X1565646D01*
X1566113Y1961812D01*
X1566513D01*
X1568246Y1962012D01*
X1568979Y1962145D01*
X1569712Y1962212D01*
X1570312Y1962345D01*
X1570778Y1962412D01*
X1571045Y1962478D01*
X1571178D01*
X1572844Y1962878D01*
X1573644Y1963078D01*
X1574311Y1963212D01*
X1574844Y1963345D01*
X1575244Y1963478D01*
X1575577Y1963545D01*
X1575644D01*
X1577177Y1964078D01*
X1577910Y1964278D01*
X1578510Y1964545D01*
X1579043Y1964745D01*
X1579443Y1964878D01*
X1579709Y1964944D01*
X1579776Y1965011D01*
X1580176Y1963945D01*
X1580376Y1963412D01*
X1580509Y1963012D01*
X1580642Y1962612D01*
X1580776Y1962345D01*
X1580842Y1962145D01*
Y1962079D01*
X1581242Y1961012D01*
X1581375Y1960546D01*
X1581509Y1960079D01*
X1581642Y1959746D01*
X1581775Y1959479D01*
X1581842Y1959279D01*
Y1959213D01*
X1582175Y1958080D01*
X1582309Y1957613D01*
X1582442Y1957146D01*
X1582509Y1956747D01*
X1582575Y1956480D01*
X1582642Y1956280D01*
Y1956213D01*
X1582842Y1955147D01*
X1582908Y1954281D01*
X1582975Y1953881D01*
X1583042Y1953614D01*
Y1953414D01*
Y1953347D01*
X1581375Y1952748D01*
X1580576Y1952548D01*
X1579909Y1952348D01*
X1579243Y1952148D01*
X1578776Y1952014D01*
X1578510Y1951948D01*
X1578376D01*
X1576577Y1951481D01*
X1575777Y1951281D01*
X1574977Y1951148D01*
X1574311Y1951015D01*
X1573844Y1950881D01*
X1573511Y1950815D01*
X1573378D01*
X1571378Y1950482D01*
X1570445Y1950348D01*
X1569579Y1950282D01*
X1568845Y1950148D01*
X1568312D01*
X1567912Y1950082D01*
X1567779D01*
X1565446Y1949948D01*
X1564380D01*
X1563380Y1949882D01*
X1560048D01*
X1558848Y1949948D01*
X1557715Y1950015D01*
X1556782Y1950082D01*
X1555982Y1950148D01*
X1555382Y1950215D01*
X1554982Y1950282D01*
X1554849D01*
X1553716Y1950482D01*
X1552583Y1950681D01*
X1551583Y1950881D01*
X1550717Y1951148D01*
X1549984Y1951348D01*
X1549384Y1951481D01*
X1549050Y1951548D01*
X1548917Y1951615D01*
X1547851Y1951948D01*
X1546918Y1952281D01*
X1545985Y1952681D01*
X1545251Y1952948D01*
X1544585Y1953281D01*
X1544118Y1953481D01*
X1543852Y1953614D01*
X1543719Y1953681D01*
X1542852Y1954147D01*
X1541986Y1954614D01*
X1541252Y1955080D01*
X1540586Y1955480D01*
X1540053Y1955880D01*
X1539653Y1956147D01*
X1539386Y1956347D01*
X1539320Y1956413D01*
X1538586Y1957013D01*
X1537853Y1957613D01*
X1537254Y1958213D01*
X1536720Y1958746D01*
X1536320Y1959146D01*
X1535987Y1959479D01*
X1535787Y1959746D01*
X1535721Y1959812D01*
X1534721Y1961279D01*
X1534254Y1961945D01*
X1533854Y1962545D01*
X1533588Y1963078D01*
X1533321Y1963545D01*
X1533188Y1963811D01*
X1533121Y1963878D01*
X1532388Y1965544D01*
X1532121Y1966344D01*
X1531922Y1967077D01*
X1531721Y1967677D01*
X1531588Y1968144D01*
X1531522Y1968410D01*
Y1968544D01*
X1531188Y1970410D01*
X1531122Y1971276D01*
X1531055Y1972009D01*
X1530988Y1972676D01*
Y1973209D01*
Y1973542D01*
Y1973676D01*
Y1974542D01*
X1531055Y1975342D01*
X1531122Y1976075D01*
X1531188Y1976741D01*
X1531255Y1977275D01*
X1531322Y1977741D01*
X1531388Y1978008D01*
Y1978074D01*
X1531655Y1979474D01*
X1531788Y1980141D01*
X1531922Y1980674D01*
X1532121Y1981140D01*
X1532188Y1981540D01*
X1532321Y1981740D01*
Y1981807D01*
X1532921Y1983006D01*
X1533188Y1983540D01*
X1533454Y1984006D01*
X1533654Y1984406D01*
X1533854Y1984673D01*
X1533921Y1984873D01*
X1533988Y1984939D01*
X1534654Y1985939D01*
X1535254Y1986739D01*
X1535521Y1987072D01*
X1535721Y1987339D01*
X1535854Y1987472D01*
X1535921Y1987539D01*
X1536787Y1988405D01*
X1537587Y1989072D01*
X1537920Y1989338D01*
X1538187Y1989538D01*
X1538320Y1989671D01*
X1538387Y1989738D01*
X1539386Y1990471D01*
X1540319Y1991071D01*
X1540719Y1991271D01*
X1541053Y1991471D01*
X1541252Y1991538D01*
X1541319Y1991604D01*
X1542452Y1992137D01*
X1542985Y1992404D01*
X1543519Y1992604D01*
X1543918Y1992804D01*
X1544252Y1992937D01*
X1544452Y1993071D01*
X1544518D01*
X1545718Y1993537D01*
X1546318Y1993737D01*
X1546784Y1993870D01*
X1547251Y1994070D01*
X1547584Y1994137D01*
X1547784Y1994270D01*
X1547851D01*
X1548517Y1994537D01*
X1549050Y1994670D01*
X1549384Y1994803D01*
X1549584Y1994870D01*
X1549717D01*
X1549850Y1994937D01*
X1550050Y1995004D01*
X1550317Y1995070D01*
X1550983Y1995337D01*
X1551850Y1995670D01*
X1552716Y1995937D01*
X1553449Y1996203D01*
X1553716Y1996337D01*
X1553983Y1996403D01*
X1554116Y1996470D01*
X1554182D01*
X1555116Y1996736D01*
X1555915Y1997003D01*
X1556249Y1997136D01*
X1556515Y1997203D01*
X1556649Y1997270D01*
X1556715D01*
X1557582Y1997670D01*
X1558315Y1997936D01*
X1558648Y1998069D01*
X1558848Y1998136D01*
X1558981Y1998203D01*
X1559048D01*
X1559848Y1998536D01*
X1560514Y1998802D01*
X1560781Y1998936D01*
X1560981Y1999069D01*
X1561114Y1999136D01*
X1561181D01*
X1561847Y1999536D01*
X1562447Y1999935D01*
X1562847Y2000202D01*
X1562914Y2000269D01*
X1562980D01*
X1563647Y2000735D01*
X1564113Y2001135D01*
X1564447Y2001469D01*
X1564580Y2001602D01*
X1565046Y2002135D01*
X1565380Y2002668D01*
X1565646Y2003068D01*
X1565713Y2003135D01*
Y2003201D01*
X1566046Y2003868D01*
X1566313Y2004468D01*
X1566446Y2004934D01*
X1566513Y2005001D01*
Y2005068D01*
X1566646Y2005867D01*
X1566713Y2006600D01*
X1566779Y2006867D01*
Y2007134D01*
Y2007267D01*
Y2007334D01*
X1566713Y2008200D01*
X1566579Y2009000D01*
X1566446Y2009666D01*
X1566246Y2010266D01*
X1566046Y2010733D01*
X1565846Y2011133D01*
X1565780Y2011333D01*
X1565713Y2011399D01*
X1565246Y2011999D01*
X1564780Y2012532D01*
X1564247Y2012932D01*
X1563780Y2013332D01*
X1563313Y2013599D01*
X1562980Y2013799D01*
X1562714Y2013932D01*
X1562647Y2013999D01*
X1561047Y2014599D01*
X1560314Y2014798D01*
X1559648Y2014998D01*
X1559048Y2015198D01*
X1558581Y2015332D01*
X1558315Y2015398D01*
X1558181D01*
X1556382Y2015665D01*
X1555582Y2015732D01*
X1554782Y2015798D01*
X1554116Y2015865D01*
X1552250D01*
X1551383Y2015798D01*
X1550517D01*
X1549784Y2015732D01*
X1549184Y2015665D01*
X1548717D01*
X1548451Y2015598D01*
X1548317D01*
X1546651Y2015332D01*
X1545851Y2015198D01*
X1545185Y2015065D01*
X1544585Y2014932D01*
X1544185Y2014865D01*
X1543852Y2014732D01*
X1543785D01*
X1542186Y2014398D01*
X1541519Y2014199D01*
X1540919Y2014065D01*
X1540386Y2013932D01*
X1539986Y2013799D01*
X1539720Y2013732D01*
X1539653D01*
X1538320Y2013332D01*
X1537720Y2013132D01*
X1537187Y2012932D01*
X1536720Y2012799D01*
X1536387Y2012666D01*
X1536187Y2012599D01*
X1536120D01*
X1535721Y2013532D01*
X1535387Y2014332D01*
X1535321Y2014665D01*
X1535187Y2014932D01*
X1535121Y2015065D01*
Y2015132D01*
X1534787Y2016131D01*
X1534454Y2016998D01*
X1534388Y2017331D01*
X1534321Y2017598D01*
X1534254Y2017798D01*
Y2017864D01*
X1533988Y2018931D01*
X1533854Y2019397D01*
X1533788Y2019864D01*
X1533721Y2020197D01*
X1533654Y2020464D01*
X1533588Y2020664D01*
Y2020730D01*
X1533388Y2021797D01*
X1533255Y2022730D01*
X1533188Y2023130D01*
X1533121Y2023396D01*
Y2023596D01*
Y2023663D01*
X1534721Y2024129D01*
X1535454Y2024396D01*
X1536120Y2024596D01*
X1536720Y2024729D01*
X1537187Y2024863D01*
X1537453Y2024996D01*
X1537587D01*
X1539320Y2025462D01*
X1540186Y2025662D01*
X1540986Y2025796D01*
X1541652Y2025995D01*
X1542186Y2026062D01*
X1542519Y2026196D01*
X1542652D01*
X1544585Y2026529D01*
X1545518Y2026662D01*
X1546318Y2026795D01*
X1547051Y2026862D01*
X1547584Y2026929D01*
X1547917Y2026995D01*
X1548051D01*
X1550050Y2027129D01*
X1551050D01*
X1551850Y2027195D01*
X1553649D01*
X1556115Y2027129D01*
D02*
G37*
G36*
X1426682Y2056721D02*
X1427881D01*
X1429148Y2056654D01*
X1430414Y2056588D01*
X1431614Y2056521D01*
X1432614Y2056454D01*
X1433547Y2056388D01*
X1434213D01*
X1434480Y2056321D01*
X1434813D01*
X1436013Y2056254D01*
X1437146Y2056121D01*
X1438145Y2056055D01*
X1439012Y2055988D01*
X1439678Y2055921D01*
X1440212Y2055855D01*
X1440545Y2055788D01*
X1440678D01*
X1442611Y2055588D01*
X1443477Y2055521D01*
X1444344Y2055455D01*
X1445010Y2055388D01*
X1445544Y2055321D01*
X1445877Y2055255D01*
X1446677D01*
Y2054055D01*
Y2052922D01*
Y2051922D01*
Y2051056D01*
Y2050323D01*
Y2049856D01*
Y2049523D01*
Y2049390D01*
Y2048457D01*
Y2047657D01*
Y2046857D01*
Y2046190D01*
Y2045657D01*
Y2045257D01*
Y2044991D01*
Y2044924D01*
Y2043258D01*
Y2041858D01*
Y2040659D01*
Y2039659D01*
Y2038859D01*
Y2038326D01*
Y2037993D01*
Y2037859D01*
Y2036926D01*
Y2035993D01*
Y2035060D01*
Y2034193D01*
Y2033394D01*
Y2032794D01*
Y2032394D01*
Y2032327D01*
Y2032261D01*
Y2031461D01*
Y2030728D01*
Y2030461D01*
Y2030195D01*
Y2030061D01*
Y2029995D01*
Y2029061D01*
Y2028128D01*
Y2027795D01*
Y2027462D01*
Y2027262D01*
Y2027195D01*
Y2025995D01*
Y2025462D01*
Y2024929D01*
Y2024463D01*
Y2024129D01*
Y2023863D01*
Y2023796D01*
Y2022330D01*
Y2021597D01*
Y2020930D01*
Y2020330D01*
Y2019864D01*
Y2019597D01*
Y2019464D01*
Y2017998D01*
Y2016531D01*
Y2015065D01*
Y2013665D01*
Y2012466D01*
Y2011933D01*
Y2011533D01*
Y2011133D01*
Y2010866D01*
Y2010733D01*
Y2010666D01*
Y2008733D01*
Y2006667D01*
Y2004734D01*
Y2002935D01*
Y2002068D01*
Y2001335D01*
Y2000669D01*
Y2000069D01*
Y1999602D01*
Y1999202D01*
Y1999003D01*
Y1998936D01*
Y1997336D01*
Y1995603D01*
Y1992204D01*
Y1988805D01*
Y1987206D01*
Y1985672D01*
Y1984206D01*
Y1982873D01*
Y1981740D01*
Y1980674D01*
Y1979874D01*
Y1979274D01*
Y1978874D01*
Y1978808D01*
Y1978741D01*
Y1976541D01*
Y1974276D01*
Y1969610D01*
Y1967344D01*
Y1965078D01*
Y1962878D01*
Y1960812D01*
Y1958879D01*
Y1957146D01*
Y1955547D01*
Y1954214D01*
Y1953614D01*
Y1953147D01*
Y1952681D01*
Y1952281D01*
Y1952014D01*
Y1951815D01*
Y1951681D01*
Y1951615D01*
X1444810Y1951348D01*
X1443944Y1951215D01*
X1443078Y1951148D01*
X1442411Y1951081D01*
X1441811Y1951015D01*
X1441478Y1950948D01*
X1441345D01*
X1439212Y1950748D01*
X1438145Y1950681D01*
X1437212Y1950615D01*
X1436413Y1950548D01*
X1435746Y1950482D01*
X1435546Y1950415D01*
X1435213D01*
X1434013Y1950282D01*
X1432814Y1950215D01*
X1431680Y1950148D01*
X1430681Y1950082D01*
X1429814Y1950015D01*
X1429148Y1949948D01*
X1427282D01*
X1426082Y1949882D01*
X1421816D01*
X1419284Y1949948D01*
X1416884Y1950015D01*
X1414552Y1950215D01*
X1412352Y1950415D01*
X1410219Y1950615D01*
X1408286Y1950948D01*
X1406420Y1951215D01*
X1404754Y1951548D01*
X1403221Y1951815D01*
X1401888Y1952148D01*
X1400688Y1952414D01*
X1399689Y1952614D01*
X1398956Y1952881D01*
X1398356Y1953014D01*
X1398022Y1953081D01*
X1397889Y1953147D01*
X1396023Y1953814D01*
X1394223Y1954480D01*
X1392491Y1955280D01*
X1390891Y1956080D01*
X1389358Y1956880D01*
X1387958Y1957680D01*
X1386692Y1958546D01*
X1385492Y1959279D01*
X1384426Y1960079D01*
X1383493Y1960746D01*
X1382693Y1961412D01*
X1382027Y1961945D01*
X1381493Y1962412D01*
X1381160Y1962745D01*
X1380894Y1962945D01*
X1380827Y1963012D01*
X1379561Y1964278D01*
X1378361Y1965611D01*
X1377294Y1966944D01*
X1376295Y1968344D01*
X1375362Y1969743D01*
X1374495Y1971143D01*
X1373695Y1972476D01*
X1373029Y1973742D01*
X1372429Y1974942D01*
X1371896Y1976075D01*
X1371429Y1977075D01*
X1371096Y1977941D01*
X1370763Y1978608D01*
X1370563Y1979141D01*
X1370496Y1979474D01*
X1370430Y1979607D01*
X1369830Y1981540D01*
X1369297Y1983540D01*
X1368830Y1985539D01*
X1368430Y1987539D01*
X1368097Y1989538D01*
X1367830Y1991471D01*
X1367564Y1993404D01*
X1367364Y1995203D01*
X1367230Y1996870D01*
X1367164Y1998403D01*
X1367097Y1999736D01*
X1367030Y2000935D01*
X1366964Y2001868D01*
Y2002268D01*
Y2002601D01*
Y2002868D01*
Y2003068D01*
Y2003135D01*
Y2003201D01*
X1367030Y2005601D01*
X1367097Y2007934D01*
X1367297Y2010133D01*
X1367497Y2012266D01*
X1367764Y2014265D01*
X1368030Y2016198D01*
X1368363Y2017931D01*
X1368630Y2019530D01*
X1368963Y2020997D01*
X1369297Y2022330D01*
X1369563Y2023463D01*
X1369830Y2024396D01*
X1370030Y2025129D01*
X1370230Y2025662D01*
X1370296Y2025995D01*
X1370363Y2026129D01*
X1371029Y2027928D01*
X1371763Y2029661D01*
X1372562Y2031328D01*
X1373362Y2032927D01*
X1374229Y2034393D01*
X1375028Y2035793D01*
X1375895Y2037059D01*
X1376695Y2038259D01*
X1377494Y2039326D01*
X1378161Y2040259D01*
X1378827Y2041058D01*
X1379361Y2041725D01*
X1379827Y2042258D01*
X1380227Y2042658D01*
X1380427Y2042924D01*
X1380494Y2042991D01*
X1381827Y2044258D01*
X1383160Y2045457D01*
X1384559Y2046524D01*
X1386026Y2047523D01*
X1387425Y2048457D01*
X1388825Y2049323D01*
X1390224Y2050056D01*
X1391491Y2050789D01*
X1392757Y2051389D01*
X1393824Y2051856D01*
X1394890Y2052322D01*
X1395756Y2052655D01*
X1396423Y2052989D01*
X1396956Y2053189D01*
X1397289Y2053255D01*
X1397423Y2053322D01*
X1399355Y2053922D01*
X1401355Y2054455D01*
X1403421Y2054922D01*
X1405421Y2055321D01*
X1407487Y2055655D01*
X1409420Y2055921D01*
X1411352Y2056188D01*
X1413152Y2056388D01*
X1414818Y2056521D01*
X1416351Y2056588D01*
X1417751Y2056654D01*
X1418950Y2056721D01*
X1419884Y2056788D01*
X1425815D01*
X1426682Y2056721D01*
D02*
G37*
G36*
X378585Y259582D02*
X380251Y259374D01*
X381501Y258957D01*
X382543Y258540D01*
X383376Y258124D01*
X384001Y257915D01*
X384210Y257707D01*
X384835Y257290D01*
X385251Y256874D01*
X385668Y256665D01*
X385460D01*
X387751Y254790D01*
X389418Y252915D01*
X390043Y252082D01*
X390460Y251457D01*
X390876Y251040D01*
Y250832D01*
X460667Y130000D01*
Y129792D01*
X460875Y129584D01*
X461292Y128542D01*
X461709Y127917D01*
X461917Y127500D01*
Y127292D01*
X462125Y126667D01*
X462334Y125834D01*
X462542Y125000D01*
Y124792D01*
X462959Y122292D01*
Y120000D01*
X462542Y117917D01*
X462125Y116042D01*
X461709Y114584D01*
X461084Y113334D01*
X460875Y112500D01*
X460667Y112292D01*
X460459D01*
X460042Y111459D01*
X459625Y110625D01*
X459209Y110209D01*
X459000Y110000D01*
X457959Y108750D01*
X457542Y108334D01*
X457334Y108125D01*
X455250Y106459D01*
X453167Y105209D01*
X451084Y104375D01*
X449000Y103959D01*
X447334Y103542D01*
X446084Y103334D01*
X304002D01*
X302961Y103542D01*
X302336D01*
X301711Y103750D01*
X300877Y103959D01*
X300044Y104167D01*
X299836D01*
X297544Y105209D01*
X295461Y106250D01*
X293794Y107709D01*
X292336Y108959D01*
X291294Y110209D01*
X290461Y111250D01*
X290044Y112084D01*
X289836Y112292D01*
X289211Y113334D01*
X289002Y114167D01*
X288794Y114584D01*
Y114792D01*
X288377Y115834D01*
X288169Y116667D01*
X287961Y117084D01*
Y117292D01*
X287544Y119792D01*
X287752Y122292D01*
X287961Y124375D01*
X288377Y126250D01*
X289002Y127917D01*
X289419Y129167D01*
X289836Y130000D01*
X290044Y130209D01*
X359835Y251249D01*
X360877Y252707D01*
X361085Y253124D01*
X361293Y253332D01*
X361918Y253957D01*
X362543Y254582D01*
X362960Y254999D01*
X363168Y255207D01*
X365252Y256874D01*
X367335Y257915D01*
X369210Y258749D01*
X371085Y259374D01*
X372751Y259790D01*
X374001Y259999D01*
X376918D01*
X378585Y259582D01*
D02*
G37*
G36*
X1519858Y2043991D02*
X1519925Y2043458D01*
X1519991Y2043058D01*
X1520058Y2042991D01*
Y2042924D01*
X1520125Y2042325D01*
Y2041792D01*
X1520191Y2041392D01*
Y2041325D01*
Y2041258D01*
X1520258Y2040592D01*
Y2040059D01*
X1520325Y2039659D01*
Y2039592D01*
Y2039525D01*
Y2038926D01*
Y2038459D01*
Y2038059D01*
Y2037993D01*
Y2037926D01*
Y2036726D01*
X1520258Y2036193D01*
Y2035660D01*
Y2035260D01*
X1520191Y2034927D01*
Y2034727D01*
Y2034660D01*
X1520058Y2033594D01*
X1519991Y2033060D01*
X1519925Y2032661D01*
X1519858Y2032261D01*
X1519791Y2031994D01*
X1519725Y2031794D01*
Y2031727D01*
X1482734D01*
X1484200Y2029395D01*
X1485667Y2027129D01*
X1487000Y2024929D01*
X1488333Y2022863D01*
X1489666Y2020797D01*
X1490865Y2018864D01*
X1492065Y2016931D01*
X1493265Y2015132D01*
X1494331Y2013399D01*
X1495397Y2011732D01*
X1496397Y2010133D01*
X1497397Y2008600D01*
X1498264Y2007200D01*
X1499130Y2005801D01*
X1499996Y2004534D01*
X1500730Y2003268D01*
X1501463Y2002135D01*
X1502196Y2001069D01*
X1502796Y2000069D01*
X1503396Y1999136D01*
X1503929Y1998269D01*
X1504462Y1997536D01*
X1504862Y1996803D01*
X1505262Y1996203D01*
X1505662Y1995603D01*
X1505928Y1995137D01*
X1506195Y1994737D01*
X1506395Y1994404D01*
X1506595Y1994137D01*
X1506728Y1993937D01*
X1506795Y1993870D01*
Y1993804D01*
X1506595Y1993470D01*
X1506461Y1993337D01*
Y1993271D01*
Y1993204D01*
X1506328Y1993071D01*
X1506195Y1992871D01*
X1506062Y1992604D01*
X1505862Y1992337D01*
X1505728Y1992071D01*
X1505662Y1991938D01*
X1505595Y1991871D01*
X1504529Y1992071D01*
X1503662Y1992271D01*
X1503262Y1992337D01*
X1502996D01*
X1502796Y1992404D01*
X1502729D01*
X1501596Y1992604D01*
X1501129Y1992671D01*
X1500663Y1992737D01*
X1500263D01*
X1499996Y1992804D01*
X1499730D01*
X1498663Y1992871D01*
X1497797D01*
X1497397Y1992937D01*
X1496864D01*
X1495797Y1993004D01*
X1493931D01*
X1492198Y1992937D01*
X1490599Y1992871D01*
X1489133Y1992671D01*
X1487866Y1992471D01*
X1486800Y1992271D01*
X1486400Y1992204D01*
X1486000Y1992137D01*
X1485733Y1992071D01*
X1485533Y1992004D01*
X1485400Y1991938D01*
X1485333D01*
X1483934Y1991471D01*
X1482667Y1990938D01*
X1481468Y1990405D01*
X1480468Y1989872D01*
X1479668Y1989405D01*
X1479002Y1989005D01*
X1478602Y1988738D01*
X1478468Y1988672D01*
X1477402Y1987805D01*
X1476536Y1986939D01*
X1475802Y1986006D01*
X1475136Y1985139D01*
X1474669Y1984406D01*
X1474336Y1983740D01*
X1474136Y1983340D01*
X1474070Y1983273D01*
Y1983206D01*
X1473536Y1981940D01*
X1473203Y1980607D01*
X1472937Y1979274D01*
X1472737Y1978074D01*
X1472603Y1977008D01*
Y1976541D01*
X1472537Y1976142D01*
Y1975875D01*
Y1975608D01*
Y1975475D01*
Y1975408D01*
Y1974342D01*
X1472603Y1973276D01*
X1472737Y1972343D01*
X1472803Y1971543D01*
X1472937Y1970810D01*
X1473070Y1970343D01*
X1473137Y1970010D01*
Y1969877D01*
X1473336Y1969010D01*
X1473603Y1968144D01*
X1473803Y1967410D01*
X1474070Y1966744D01*
X1474336Y1966144D01*
X1474469Y1965744D01*
X1474603Y1965478D01*
X1474669Y1965411D01*
X1475069Y1964678D01*
X1475469Y1963945D01*
X1475936Y1963345D01*
X1476269Y1962745D01*
X1476602Y1962345D01*
X1476869Y1961945D01*
X1477069Y1961745D01*
X1477135Y1961679D01*
X1478202Y1960479D01*
X1478735Y1959946D01*
X1479268Y1959546D01*
X1479668Y1959146D01*
X1480002Y1958879D01*
X1480268Y1958746D01*
X1480335Y1958679D01*
X1481668Y1957746D01*
X1482334Y1957346D01*
X1482934Y1957080D01*
X1483401Y1956813D01*
X1483867Y1956613D01*
X1484134Y1956480D01*
X1484200Y1956413D01*
X1485733Y1955813D01*
X1486467Y1955547D01*
X1487200Y1955347D01*
X1487800Y1955147D01*
X1488266Y1955014D01*
X1488533Y1954880D01*
X1488666D01*
X1490465Y1954547D01*
X1491332Y1954347D01*
X1492065Y1954281D01*
X1492731Y1954147D01*
X1493198Y1954081D01*
X1493531Y1954014D01*
X1493665D01*
X1495531Y1953881D01*
X1496464Y1953814D01*
X1497264D01*
X1497997Y1953747D01*
X1500196D01*
X1501329Y1953814D01*
X1502329D01*
X1503262Y1953881D01*
X1504062Y1953947D01*
X1504595D01*
X1504995Y1954014D01*
X1505128D01*
X1506195Y1954147D01*
X1507195Y1954281D01*
X1508061Y1954414D01*
X1508927Y1954547D01*
X1509594Y1954680D01*
X1510060Y1954814D01*
X1510394Y1954880D01*
X1510527D01*
X1512393Y1955414D01*
X1513193Y1955614D01*
X1513926Y1955813D01*
X1514593Y1956013D01*
X1515059Y1956147D01*
X1515326Y1956280D01*
X1515459D01*
X1517192Y1956880D01*
X1517992Y1957146D01*
X1518725Y1957413D01*
X1519325Y1957613D01*
X1519791Y1957813D01*
X1520058Y1957880D01*
X1520191Y1957946D01*
X1520791Y1956880D01*
X1521058Y1956347D01*
X1521258Y1955947D01*
X1521458Y1955547D01*
X1521591Y1955280D01*
X1521658Y1955080D01*
X1521724Y1955014D01*
X1522191Y1953947D01*
X1522391Y1953414D01*
X1522591Y1952948D01*
X1522791Y1952548D01*
X1522857Y1952281D01*
X1522991Y1952081D01*
Y1952014D01*
X1523390Y1950948D01*
X1523590Y1950415D01*
X1523724Y1949948D01*
X1523857Y1949548D01*
X1523990Y1949215D01*
X1524057Y1949015D01*
Y1948949D01*
X1524323Y1947816D01*
X1524390Y1947282D01*
X1524523Y1946816D01*
X1524590Y1946416D01*
Y1946083D01*
X1524657Y1945883D01*
Y1945816D01*
X1522391Y1944950D01*
X1521324Y1944616D01*
X1520391Y1944283D01*
X1519591Y1944017D01*
X1518925Y1943883D01*
X1518525Y1943750D01*
X1518458Y1943683D01*
X1518392D01*
X1516125Y1943083D01*
X1515059Y1942817D01*
X1514059Y1942617D01*
X1513260Y1942484D01*
X1512593Y1942350D01*
X1512193Y1942217D01*
X1512060D01*
X1509727Y1941884D01*
X1508594Y1941684D01*
X1507594Y1941617D01*
X1506795Y1941484D01*
X1506128Y1941417D01*
X1505862D01*
X1505662Y1941351D01*
X1505528D01*
X1504262Y1941284D01*
X1502996Y1941217D01*
X1501796Y1941151D01*
X1500730D01*
X1499863Y1941084D01*
X1496997D01*
X1495531Y1941151D01*
X1494131Y1941217D01*
X1492932Y1941351D01*
X1491932Y1941417D01*
X1491532D01*
X1491132Y1941484D01*
X1490865D01*
X1490665Y1941550D01*
X1490465D01*
X1488999Y1941817D01*
X1487599Y1942084D01*
X1486333Y1942350D01*
X1485200Y1942550D01*
X1484200Y1942817D01*
X1483467Y1943017D01*
X1483201Y1943083D01*
X1483001D01*
X1482934Y1943150D01*
X1482867D01*
X1481534Y1943550D01*
X1480268Y1944017D01*
X1479068Y1944483D01*
X1478002Y1944883D01*
X1477135Y1945283D01*
X1476469Y1945549D01*
X1476269Y1945683D01*
X1476069Y1945749D01*
X1476003Y1945816D01*
X1475936D01*
X1474803Y1946416D01*
X1473670Y1947082D01*
X1472670Y1947749D01*
X1471737Y1948349D01*
X1471004Y1948882D01*
X1470404Y1949282D01*
X1470071Y1949615D01*
X1469937Y1949682D01*
X1468938Y1950548D01*
X1468004Y1951415D01*
X1467205Y1952214D01*
X1466472Y1952948D01*
X1465872Y1953614D01*
X1465405Y1954147D01*
X1465072Y1954480D01*
X1465005Y1954614D01*
X1464272Y1955680D01*
X1463539Y1956747D01*
X1462939Y1957813D01*
X1462339Y1958746D01*
X1461939Y1959546D01*
X1461539Y1960212D01*
X1461406Y1960412D01*
X1461340Y1960612D01*
X1461273Y1960679D01*
Y1960746D01*
X1460673Y1962012D01*
X1460206Y1963345D01*
X1459807Y1964611D01*
X1459407Y1965744D01*
X1459140Y1966677D01*
X1459073Y1967144D01*
X1458940Y1967477D01*
X1458873Y1967744D01*
Y1967944D01*
X1458807Y1968077D01*
Y1968144D01*
X1458540Y1969677D01*
X1458340Y1971143D01*
X1458207Y1972609D01*
X1458074Y1973942D01*
Y1975075D01*
X1458007Y1975542D01*
Y1975942D01*
Y1976275D01*
Y1976541D01*
Y1976675D01*
Y1976741D01*
X1458074Y1978474D01*
X1458140Y1979207D01*
X1458207Y1979941D01*
X1458274Y1980474D01*
X1458340Y1980940D01*
X1458407Y1981274D01*
Y1981340D01*
X1458740Y1983073D01*
X1458940Y1983873D01*
X1459140Y1984539D01*
X1459340Y1985139D01*
X1459473Y1985606D01*
X1459540Y1985872D01*
X1459607Y1986006D01*
X1460273Y1987672D01*
X1460606Y1988472D01*
X1460940Y1989138D01*
X1461273Y1989671D01*
X1461473Y1990071D01*
X1461606Y1990405D01*
X1461673Y1990471D01*
X1462139Y1991271D01*
X1462606Y1992004D01*
X1463073Y1992737D01*
X1463539Y1993271D01*
X1463872Y1993804D01*
X1464205Y1994137D01*
X1464406Y1994404D01*
X1464472Y1994470D01*
X1465738Y1995870D01*
X1466338Y1996470D01*
X1466871Y1996936D01*
X1467405Y1997403D01*
X1467805Y1997736D01*
X1468071Y1997936D01*
X1468138Y1998003D01*
X1469671Y1999069D01*
X1470404Y1999536D01*
X1471137Y1999935D01*
X1471737Y2000269D01*
X1472204Y2000535D01*
X1472470Y2000669D01*
X1472603Y2000735D01*
X1474536Y2001469D01*
X1475469Y2001802D01*
X1476269Y2002002D01*
X1477002Y2002202D01*
X1477535Y2002335D01*
X1477935Y2002468D01*
X1478069D01*
X1480268Y2002802D01*
X1481335Y2002935D01*
X1482334Y2003001D01*
X1483201Y2003068D01*
X1486067D01*
X1486400Y2003001D01*
X1486533Y2002935D01*
X1486600D01*
X1485000Y2005401D01*
X1483401Y2007800D01*
X1481868Y2010066D01*
X1480401Y2012266D01*
X1479002Y2014398D01*
X1477669Y2016465D01*
X1476336Y2018464D01*
X1475069Y2020397D01*
X1473870Y2022197D01*
X1472737Y2023996D01*
X1471604Y2025662D01*
X1470537Y2027262D01*
X1469538Y2028795D01*
X1468604Y2030195D01*
X1467738Y2031594D01*
X1466871Y2032861D01*
X1466072Y2034060D01*
X1465338Y2035193D01*
X1464605Y2036260D01*
X1464006Y2037259D01*
X1463406Y2038126D01*
X1462872Y2038926D01*
X1462339Y2039725D01*
X1461939Y2040392D01*
X1461539Y2040925D01*
X1461206Y2041458D01*
X1460940Y2041858D01*
X1460673Y2042258D01*
X1460473Y2042525D01*
X1460406Y2042725D01*
X1460273Y2042791D01*
Y2042858D01*
X1460740Y2043591D01*
X1461073Y2044124D01*
X1461273Y2044458D01*
X1461340Y2044524D01*
X1519725D01*
X1519858Y2043991D01*
D02*
G37*
G36*
X1648891Y2026062D02*
X1649291Y2025995D01*
X1650624D01*
X1650891Y2025929D01*
X1651291D01*
X1652157Y2025862D01*
X1652890Y2025729D01*
X1653490Y2025662D01*
X1653957D01*
X1654357Y2025596D01*
X1654690Y2025529D01*
X1654890D01*
Y2024596D01*
Y2023863D01*
Y2023596D01*
Y2023396D01*
Y2023263D01*
Y2023196D01*
Y2022530D01*
Y2021930D01*
Y2021597D01*
Y2021530D01*
Y2021463D01*
Y2020397D01*
Y2019464D01*
Y2018731D01*
Y2018131D01*
Y2017731D01*
Y2017398D01*
Y2017264D01*
Y2017198D01*
Y2016931D01*
Y2016598D01*
Y2015798D01*
Y2014865D01*
Y2013865D01*
Y2012866D01*
Y2012066D01*
Y2011799D01*
Y2011533D01*
Y2011399D01*
Y2011333D01*
Y2010133D01*
Y2009533D01*
Y2009000D01*
Y2008533D01*
Y2008200D01*
Y2007934D01*
Y2007867D01*
Y2006267D01*
Y2005468D01*
Y2004734D01*
Y2004135D01*
Y2003668D01*
Y2003335D01*
Y2003201D01*
Y2001868D01*
Y2000535D01*
Y1999202D01*
Y1997936D01*
Y1996870D01*
Y1996403D01*
Y1996003D01*
Y1995737D01*
Y1995470D01*
Y1995337D01*
Y1995270D01*
Y1993470D01*
Y1991671D01*
Y1989805D01*
Y1988139D01*
Y1987405D01*
Y1986672D01*
Y1986072D01*
Y1985539D01*
Y1985073D01*
Y1984739D01*
Y1984539D01*
Y1984473D01*
X1654823Y1982407D01*
X1654757Y1980540D01*
X1654623Y1978874D01*
X1654490Y1977408D01*
X1654424Y1976741D01*
X1654357Y1976142D01*
Y1975675D01*
X1654290Y1975275D01*
X1654223Y1974942D01*
X1654157Y1974675D01*
Y1974542D01*
Y1974475D01*
X1653890Y1972876D01*
X1653557Y1971343D01*
X1653224Y1970010D01*
X1652890Y1968877D01*
X1652624Y1967944D01*
X1652357Y1967211D01*
X1652291Y1966944D01*
X1652224Y1966744D01*
X1652157Y1966677D01*
Y1966611D01*
X1651624Y1965411D01*
X1651091Y1964211D01*
X1650558Y1963212D01*
X1650025Y1962345D01*
X1649558Y1961612D01*
X1649225Y1961079D01*
X1648958Y1960746D01*
X1648891Y1960612D01*
X1648158Y1959679D01*
X1647425Y1958813D01*
X1646759Y1958013D01*
X1646092Y1957346D01*
X1645559Y1956813D01*
X1645092Y1956413D01*
X1644826Y1956147D01*
X1644693Y1956080D01*
X1643759Y1955414D01*
X1642893Y1954814D01*
X1642027Y1954281D01*
X1641227Y1953814D01*
X1640560Y1953481D01*
X1640027Y1953147D01*
X1639694Y1953014D01*
X1639561Y1952948D01*
X1637428Y1952148D01*
X1636428Y1951815D01*
X1635495Y1951548D01*
X1634762Y1951348D01*
X1634162Y1951215D01*
X1633762Y1951081D01*
X1633629D01*
X1632429Y1950881D01*
X1631296Y1950681D01*
X1630163Y1950548D01*
X1629163Y1950415D01*
X1628363Y1950282D01*
X1627697Y1950215D01*
X1627497D01*
X1627297Y1950148D01*
X1627164D01*
X1625897Y1950082D01*
X1624631Y1950015D01*
X1623498Y1949948D01*
X1622432D01*
X1621499Y1949882D01*
X1618833D01*
X1617500Y1949948D01*
X1616300D01*
X1615167Y1950015D01*
X1614234Y1950082D01*
X1613501D01*
X1613234Y1950148D01*
X1612901D01*
X1611568Y1950282D01*
X1610301Y1950482D01*
X1609102Y1950615D01*
X1608035Y1950815D01*
X1607102Y1950948D01*
X1606436Y1951081D01*
X1606169D01*
X1605969Y1951148D01*
X1605836D01*
X1604503Y1951415D01*
X1603303Y1951615D01*
X1602170Y1951881D01*
X1601237Y1952081D01*
X1600371Y1952214D01*
X1599771Y1952348D01*
X1599371Y1952481D01*
X1599238D01*
X1598171Y1952748D01*
X1597171Y1953014D01*
X1596238Y1953281D01*
X1595372Y1953481D01*
X1594705Y1953614D01*
X1594239Y1953747D01*
X1593906Y1953881D01*
X1593772D01*
Y1954680D01*
Y1955480D01*
Y1956147D01*
Y1956747D01*
Y1957280D01*
Y1957613D01*
Y1957880D01*
Y1957946D01*
Y1959146D01*
Y1959679D01*
Y1960146D01*
Y1960479D01*
Y1960812D01*
Y1960945D01*
Y1961012D01*
Y1962145D01*
Y1963145D01*
Y1964011D01*
Y1964678D01*
Y1965278D01*
Y1965611D01*
Y1965878D01*
Y1965944D01*
Y1967211D01*
Y1967877D01*
Y1968477D01*
Y1968943D01*
Y1969410D01*
Y1969677D01*
Y1969743D01*
Y1970343D01*
Y1970876D01*
Y1971210D01*
Y1971276D01*
Y1971343D01*
Y1972009D01*
Y1972609D01*
Y1972876D01*
Y1973076D01*
Y1973209D01*
Y1973276D01*
Y1974075D01*
Y1974875D01*
Y1975208D01*
Y1975475D01*
Y1975608D01*
Y1975675D01*
Y1976675D01*
Y1977675D01*
Y1978008D01*
Y1978341D01*
Y1978541D01*
Y1978608D01*
Y1979607D01*
Y1980674D01*
Y1981674D01*
Y1982607D01*
Y1983473D01*
Y1984073D01*
Y1984339D01*
Y1984539D01*
Y1984606D01*
Y1984673D01*
Y1986072D01*
Y1987472D01*
Y1988872D01*
Y1990138D01*
Y1991271D01*
Y1991738D01*
Y1992137D01*
Y1992471D01*
Y1992737D01*
Y1992871D01*
Y1992937D01*
Y1995203D01*
Y1997536D01*
Y1999869D01*
Y2000935D01*
Y2002002D01*
Y2003001D01*
Y2003868D01*
Y2004734D01*
Y2005401D01*
Y2005934D01*
Y2006401D01*
Y2006667D01*
Y2006734D01*
Y2009866D01*
Y2013065D01*
Y2016198D01*
Y2017731D01*
Y2019131D01*
Y2020464D01*
Y2021663D01*
Y2022796D01*
Y2023730D01*
Y2024463D01*
Y2025062D01*
Y2025396D01*
Y2025529D01*
X1594372Y2025662D01*
X1594905Y2025729D01*
X1595305Y2025796D01*
X1595439D01*
X1596105Y2025862D01*
X1596705D01*
X1596971Y2025929D01*
X1597305D01*
X1597971Y2025995D01*
X1599104D01*
X1599704Y2026062D01*
X1600237Y2026129D01*
X1601437D01*
X1601970Y2026062D01*
X1602370Y2025995D01*
X1603703D01*
X1604170Y2025929D01*
X1604303D01*
X1605036Y2025862D01*
X1605636D01*
X1606036Y2025796D01*
X1606169D01*
X1606836Y2025729D01*
X1607369Y2025596D01*
X1607702Y2025529D01*
X1607835D01*
Y2024796D01*
Y2024129D01*
Y2023530D01*
Y2022996D01*
Y2022596D01*
Y2022263D01*
Y2022063D01*
Y2021997D01*
Y2020997D01*
Y2020530D01*
Y2020130D01*
Y2019797D01*
Y2019530D01*
Y2019397D01*
Y2019331D01*
Y2018064D01*
Y2016931D01*
Y2015998D01*
Y2015332D01*
Y2014732D01*
Y2014398D01*
Y2014132D01*
Y2014065D01*
Y2013399D01*
Y2012532D01*
Y2011666D01*
Y2010799D01*
Y2010000D01*
Y2009333D01*
Y2009066D01*
Y2008867D01*
Y2008800D01*
Y2008733D01*
Y2008000D01*
Y2007334D01*
Y2007067D01*
Y2006867D01*
Y2006734D01*
Y2006667D01*
Y2005801D01*
Y2005001D01*
Y2004668D01*
Y2004401D01*
Y2004201D01*
Y2004135D01*
Y2003268D01*
Y2002402D01*
Y2001535D01*
Y2000735D01*
Y2000002D01*
Y1999469D01*
Y1999069D01*
Y1999003D01*
Y1998936D01*
Y1997736D01*
Y1996536D01*
Y1995337D01*
Y1994204D01*
Y1993271D01*
Y1992471D01*
Y1992204D01*
Y1992004D01*
Y1991871D01*
Y1991804D01*
Y1989805D01*
Y1987739D01*
Y1985739D01*
Y1983806D01*
Y1982940D01*
Y1982140D01*
Y1981474D01*
Y1980874D01*
Y1980341D01*
Y1980007D01*
Y1979741D01*
Y1979674D01*
Y1976941D01*
Y1974209D01*
Y1971476D01*
Y1970143D01*
Y1968943D01*
Y1967744D01*
Y1966744D01*
Y1965744D01*
Y1964944D01*
Y1964345D01*
Y1963811D01*
Y1963545D01*
Y1963412D01*
X1609835Y1962878D01*
X1610835Y1962678D01*
X1611701Y1962545D01*
X1612501Y1962412D01*
X1613101Y1962278D01*
X1613501Y1962212D01*
X1613634D01*
X1615967Y1962012D01*
X1617100Y1961945D01*
X1618166D01*
X1619099Y1961879D01*
X1620432D01*
X1622165Y1961945D01*
X1622965D01*
X1623631Y1962012D01*
X1624231D01*
X1624631Y1962079D01*
X1625031D01*
X1625831Y1962212D01*
X1626564Y1962345D01*
X1627230Y1962478D01*
X1627830Y1962612D01*
X1628363Y1962678D01*
X1628697Y1962812D01*
X1628963Y1962878D01*
X1629030D01*
X1630363Y1963278D01*
X1630963Y1963545D01*
X1631496Y1963745D01*
X1631962Y1963945D01*
X1632296Y1964145D01*
X1632496Y1964211D01*
X1632562Y1964278D01*
X1633629Y1965011D01*
X1634162Y1965344D01*
X1634562Y1965678D01*
X1634895Y1965944D01*
X1635162Y1966211D01*
X1635362Y1966344D01*
X1635428Y1966411D01*
X1636295Y1967477D01*
X1637028Y1968477D01*
X1637294Y1968943D01*
X1637495Y1969277D01*
X1637628Y1969477D01*
X1637694Y1969543D01*
X1638361Y1970943D01*
X1638627Y1971609D01*
X1638894Y1972209D01*
X1639027Y1972809D01*
X1639161Y1973209D01*
X1639294Y1973476D01*
Y1973609D01*
X1639761Y1975342D01*
X1639894Y1976208D01*
X1640027Y1977008D01*
X1640160Y1977675D01*
X1640227Y1978208D01*
X1640294Y1978541D01*
Y1978674D01*
X1640427Y1980874D01*
X1640494Y1981940D01*
Y1982940D01*
X1640560Y1983806D01*
Y1984406D01*
Y1984673D01*
Y1984873D01*
Y1984939D01*
Y1985006D01*
Y1985939D01*
Y1986672D01*
Y1986939D01*
Y1987139D01*
Y1987272D01*
Y1987339D01*
Y1988072D01*
Y1988605D01*
Y1989005D01*
Y1989072D01*
Y1989138D01*
Y1990205D01*
Y1991071D01*
Y1991738D01*
Y1992337D01*
Y1992737D01*
Y1993071D01*
Y1993204D01*
Y1993271D01*
Y1993537D01*
Y1993870D01*
Y1994670D01*
Y1995603D01*
Y1996603D01*
Y1997536D01*
Y1998336D01*
Y1998603D01*
Y1998869D01*
Y1999003D01*
Y1999069D01*
Y2000202D01*
Y2000802D01*
Y2001335D01*
Y2001802D01*
Y2002135D01*
Y2002402D01*
Y2002468D01*
Y2004001D01*
Y2004801D01*
Y2005468D01*
Y2006067D01*
Y2006600D01*
Y2006867D01*
Y2007000D01*
Y2008333D01*
Y2009666D01*
Y2010999D01*
Y2012199D01*
Y2013266D01*
Y2013732D01*
Y2014132D01*
Y2014465D01*
Y2014665D01*
Y2014798D01*
Y2014865D01*
Y2016665D01*
Y2018464D01*
Y2020264D01*
Y2021930D01*
Y2022663D01*
Y2023396D01*
Y2023996D01*
Y2024529D01*
Y2024929D01*
Y2025262D01*
Y2025462D01*
Y2025529D01*
X1641227Y2025662D01*
X1641760Y2025729D01*
X1642160Y2025796D01*
X1642293D01*
X1642960Y2025862D01*
X1643560D01*
X1644026Y2025929D01*
X1644159D01*
X1644893Y2025995D01*
X1646159D01*
X1646759Y2026062D01*
X1647292Y2026129D01*
X1648358D01*
X1648891Y2026062D01*
D02*
G37*
G36*
X1854473Y2041301D02*
X1863656Y2039851D01*
X1871872Y2037918D01*
X1879122Y2035985D01*
X1884438Y2034051D01*
X1888788Y2032118D01*
X1891205Y2030668D01*
X1892171Y2030185D01*
X1898454Y2025352D01*
X1903287Y2020519D01*
X1906671Y2015202D01*
X1909087Y2010369D01*
X1910537Y2006019D01*
X1911020Y2002636D01*
X1911504Y2000220D01*
Y1999253D01*
X1910537Y1992003D01*
X1908604Y1985720D01*
X1905704Y1980404D01*
X1901837Y1976054D01*
X1898454Y1972671D01*
X1895554Y1970254D01*
X1893621Y1968804D01*
X1892655Y1968321D01*
X1885405Y1964938D01*
X1877189Y1962521D01*
X1869456Y1960588D01*
X1861723Y1959621D01*
X1854956Y1958655D01*
X1849640Y1958172D01*
X1844807D01*
X1834657Y1958655D01*
X1825474Y1960105D01*
X1817741Y1961555D01*
X1810975Y1963971D01*
X1805175Y1965905D01*
X1801309Y1967354D01*
X1798892Y1968804D01*
X1797926Y1969288D01*
X1791642Y1973638D01*
X1787293Y1978954D01*
X1783909Y1983787D01*
X1781976Y1988620D01*
X1780526Y1992970D01*
X1780043Y1996353D01*
X1779560Y1998770D01*
Y1999736D01*
X1780526Y2006019D01*
X1782460Y2011819D01*
X1785359Y2016652D01*
X1788259Y2021485D01*
X1791642Y2024868D01*
X1794542Y2027285D01*
X1796476Y2029218D01*
X1797442Y2029702D01*
X1804692Y2033568D01*
X1812425Y2036468D01*
X1820158Y2038884D01*
X1827408Y2040334D01*
X1834174Y2041301D01*
X1839490Y2041784D01*
X1844323D01*
X1854473Y2041301D01*
D02*
G37*
G36*
X1925520Y1859576D02*
X1901354D01*
Y1773063D01*
X1925520D01*
Y1699600D01*
X1760227D01*
Y1773063D01*
X1780043D01*
Y1933523D01*
X1925520D01*
Y1859576D01*
D02*
G37*
G36*
X1329597Y1954305D02*
X1300598D01*
Y1779346D01*
X1329597D01*
Y1699600D01*
X1127090D01*
X1114523Y1700083D01*
X1103407D01*
X1092775Y1700567D01*
X1083108Y1701533D01*
X1073925Y1702017D01*
X1065709Y1702500D01*
X1058459Y1703466D01*
X1052176Y1703950D01*
X1046377Y1704433D01*
X1041544Y1705400D01*
X1037677Y1705883D01*
X1034777Y1706366D01*
X1032844D01*
X1031394Y1706850D01*
X1030911D01*
X1017378Y1710233D01*
X1005295Y1714583D01*
X995146Y1719899D01*
X986446Y1724732D01*
X979680Y1729565D01*
X974847Y1733432D01*
X973397Y1735365D01*
X971947Y1736332D01*
X970980Y1736815D01*
Y1737298D01*
X967114Y1741648D01*
X963730Y1746481D01*
X958414Y1756147D01*
X954548Y1765814D01*
X952131Y1774997D01*
X950198Y1782729D01*
X949714Y1786113D01*
Y1789013D01*
X949231Y1791429D01*
Y1793362D01*
Y1794329D01*
Y1794812D01*
X950198Y1804962D01*
X952131Y1814628D01*
X955514Y1823328D01*
X958897Y1830577D01*
X962281Y1836860D01*
X965664Y1841694D01*
X967597Y1844593D01*
X968564Y1845077D01*
Y1845560D01*
X976296Y1853293D01*
X984996Y1860059D01*
X994179Y1865859D01*
X1002879Y1870209D01*
X1011095Y1874075D01*
X1014478Y1875525D01*
X1017378Y1876492D01*
X1019794Y1877458D01*
X1021728Y1877942D01*
X1022694Y1878425D01*
X1023178D01*
X1013995Y1881325D01*
X1005295Y1885191D01*
X998046Y1889058D01*
X991762Y1892924D01*
X986446Y1896791D01*
X982580Y1899691D01*
X980163Y1901624D01*
X979196Y1902591D01*
X973397Y1909357D01*
X969047Y1916607D01*
X966147Y1924340D01*
X963730Y1931589D01*
X962764Y1938356D01*
X962281Y1943189D01*
X961797Y1945122D01*
Y1946572D01*
Y1947539D01*
Y1948022D01*
X962764Y1958655D01*
X964697Y1968321D01*
X967597Y1977021D01*
X970980Y1984270D01*
X974363Y1990553D01*
X977263Y1994903D01*
X979196Y1997803D01*
X980163Y1998770D01*
X987896Y2006503D01*
X996112Y2012302D01*
X1004812Y2017619D01*
X1013028Y2021485D01*
X1020278Y2024385D01*
X1023178Y2025352D01*
X1026078Y2026318D01*
X1028494Y2026802D01*
X1029944Y2027285D01*
X1030911Y2027768D01*
X1031394D01*
X1038160Y2029218D01*
X1044927Y2030185D01*
X1059909Y2032118D01*
X1075375Y2033085D01*
X1090358Y2034051D01*
X1097608Y2034535D01*
X1103891D01*
X1109690Y2035018D01*
X1329597D01*
Y1954305D01*
D02*
G37*
G36*
X387140Y1961071D02*
X357658D01*
Y1918540D01*
X369741Y1924823D01*
X381824Y1929656D01*
X394390Y1933039D01*
X405989Y1935456D01*
X411306Y1936422D01*
X416139Y1936906D01*
X420489Y1937389D01*
X424355D01*
X427255Y1937872D01*
X431605D01*
X442238Y1937389D01*
X452870Y1936422D01*
X462537Y1934973D01*
X471236Y1932556D01*
X479936Y1930139D01*
X487669Y1927723D01*
X494919Y1924340D01*
X501202Y1921440D01*
X507001Y1918540D01*
X511834Y1915640D01*
X516184Y1912740D01*
X520051Y1910324D01*
X522467Y1907907D01*
X524884Y1906457D01*
X525850Y1905491D01*
X526334Y1905007D01*
X532617Y1898724D01*
X537933Y1891475D01*
X542283Y1884225D01*
X546633Y1876492D01*
X550016Y1868759D01*
X552433Y1861026D01*
X554849Y1853293D01*
X556782Y1846043D01*
X558232Y1839277D01*
X559199Y1832511D01*
X560166Y1826711D01*
X560649Y1821878D01*
Y1817528D01*
X561132Y1814628D01*
Y1812211D01*
Y1811728D01*
X560649Y1801579D01*
X559682Y1791912D01*
X557749Y1782729D01*
X555332Y1774513D01*
X552433Y1766780D01*
X549049Y1759531D01*
X545666Y1753248D01*
X542283Y1747448D01*
X538900Y1742131D01*
X535517Y1737782D01*
X532133Y1733915D01*
X529234Y1731015D01*
X526817Y1728599D01*
X524884Y1726665D01*
X523917Y1725699D01*
X523434Y1725215D01*
X516184Y1719899D01*
X508451Y1715549D01*
X501202Y1711199D01*
X493469Y1707816D01*
X486219Y1704916D01*
X478969Y1702500D01*
X464953Y1699117D01*
X458670Y1697667D01*
X453354Y1696700D01*
X448037Y1696217D01*
X443688Y1695733D01*
X440304Y1695250D01*
X435471D01*
X419522Y1696217D01*
X404539Y1698150D01*
X391490Y1701533D01*
X385207Y1703466D01*
X379891Y1705400D01*
X375057Y1706850D01*
X370708Y1708783D01*
X366841Y1710716D01*
X363458Y1712166D01*
X361041Y1713133D01*
X359108Y1714099D01*
X358142Y1715066D01*
X357658D01*
Y1699600D01*
X205415D01*
Y1773063D01*
X235864D01*
Y2035018D01*
X387140D01*
Y1961071D01*
D02*
G37*
G36*
X1601701Y1937389D02*
X1611367Y1936422D01*
X1620550Y1934973D01*
X1628767Y1932556D01*
X1636983Y1930139D01*
X1644716Y1927723D01*
X1651482Y1924340D01*
X1657765Y1921440D01*
X1663565Y1918540D01*
X1668398Y1915640D01*
X1672748Y1912740D01*
X1676615Y1910324D01*
X1679514Y1907907D01*
X1681448Y1906457D01*
X1682897Y1905491D01*
X1683381Y1905007D01*
X1690147Y1898724D01*
X1695947Y1891958D01*
X1700780Y1884708D01*
X1705130Y1877458D01*
X1708996Y1870209D01*
X1711896Y1862959D01*
X1714313Y1855710D01*
X1716246Y1848943D01*
X1717696Y1842177D01*
X1719146Y1836377D01*
X1720112Y1831061D01*
X1720596Y1826228D01*
Y1822361D01*
X1721079Y1819461D01*
Y1817528D01*
Y1817045D01*
X1720596Y1807378D01*
X1719629Y1798195D01*
X1717696Y1789979D01*
X1715279Y1781763D01*
X1712863Y1774513D01*
X1709480Y1767747D01*
X1706096Y1761947D01*
X1702713Y1756147D01*
X1699330Y1751314D01*
X1696430Y1746965D01*
X1693047Y1743581D01*
X1690630Y1740198D01*
X1688214Y1737782D01*
X1686281Y1736332D01*
X1685314Y1735365D01*
X1684831Y1734882D01*
X1678064Y1729565D01*
X1670815Y1725215D01*
X1663565Y1720866D01*
X1655832Y1717482D01*
X1648582Y1714583D01*
X1641333Y1712166D01*
X1627317Y1708783D01*
X1620550Y1707333D01*
X1614751Y1706366D01*
X1609917Y1705883D01*
X1605084Y1705400D01*
X1601701Y1704916D01*
X1596385D01*
X1579952Y1705883D01*
X1564486Y1707816D01*
X1550954Y1710716D01*
X1544671Y1712166D01*
X1538871Y1714099D01*
X1533554Y1716033D01*
X1529205Y1717482D01*
X1524855Y1718932D01*
X1521472Y1720382D01*
X1519055Y1721832D01*
X1516638Y1722316D01*
X1515672Y1723282D01*
X1515188D01*
Y1715549D01*
X1516155Y1708783D01*
X1516638Y1702983D01*
X1517605Y1698633D01*
X1518572Y1694767D01*
X1519055Y1691867D01*
X1520022Y1690417D01*
Y1689934D01*
X1522438Y1685584D01*
X1525821Y1681718D01*
X1529688Y1678334D01*
X1533554Y1675434D01*
X1536938Y1673018D01*
X1539837Y1671085D01*
X1541771Y1670118D01*
X1542737Y1669635D01*
X1549987Y1666735D01*
X1558203Y1664318D01*
X1566420Y1662868D01*
X1574153Y1661418D01*
X1580919Y1660935D01*
X1586719Y1660452D01*
X1592035D01*
X1608951Y1660935D01*
X1616684Y1661418D01*
X1623934Y1662385D01*
X1630700Y1663352D01*
X1636983Y1664318D01*
X1642783Y1665285D01*
X1647616Y1666735D01*
X1652449Y1667702D01*
X1656315Y1668668D01*
X1659699Y1669635D01*
X1662598Y1670601D01*
X1665015Y1671568D01*
X1666465Y1672051D01*
X1667431Y1672535D01*
X1667915D01*
X1701263Y1613087D01*
X1697880Y1611637D01*
X1693530Y1610671D01*
X1684831Y1607771D01*
X1675164Y1605838D01*
X1665982Y1603421D01*
X1657765Y1601971D01*
X1653899Y1601488D01*
X1650516Y1600521D01*
X1648099Y1600038D01*
X1646166D01*
X1644716Y1599555D01*
X1644233D01*
X1636016Y1598588D01*
X1628283Y1597621D01*
X1621517Y1596655D01*
X1615234Y1595688D01*
X1610401Y1595205D01*
X1606534D01*
X1604601Y1594722D01*
X1603634D01*
X1589618Y1593755D01*
X1582852D01*
X1576569Y1593271D01*
X1553853D01*
X1545154Y1593755D01*
X1536938Y1594238D01*
X1529205Y1594722D01*
X1521955Y1595205D01*
X1515188Y1595688D01*
X1508905Y1596655D01*
X1503589Y1597621D01*
X1498756Y1598105D01*
X1494406Y1599071D01*
X1490540Y1599555D01*
X1487640Y1600038D01*
X1485223Y1600521D01*
X1483290Y1601004D01*
X1482323Y1601488D01*
X1481840D01*
X1470724Y1604871D01*
X1460574Y1608254D01*
X1451875Y1612604D01*
X1444625Y1616470D01*
X1438825Y1620337D01*
X1434476Y1623237D01*
X1431576Y1625170D01*
X1430609Y1626137D01*
X1423359Y1632420D01*
X1417560Y1639186D01*
X1412243Y1645952D01*
X1408377Y1652236D01*
X1405477Y1657552D01*
X1403544Y1661902D01*
X1402577Y1664802D01*
X1402094Y1665285D01*
Y1665768D01*
X1399677Y1675434D01*
X1397744Y1686067D01*
X1396294Y1696700D01*
X1395327Y1707333D01*
X1394844Y1716999D01*
X1394361Y1720866D01*
Y1724732D01*
Y1727632D01*
Y1729565D01*
Y1731015D01*
Y1731499D01*
Y1859576D01*
X1364879D01*
Y1933523D01*
X1515188D01*
Y1918540D01*
X1527755Y1924823D01*
X1540804Y1929656D01*
X1553853Y1933039D01*
X1565936Y1935456D01*
X1571253Y1936422D01*
X1576569Y1936906D01*
X1580919Y1937389D01*
X1584785D01*
X1587685Y1937872D01*
X1592035D01*
X1601701Y1937389D01*
D02*
G37*
G36*
X770406Y1939806D02*
X782489Y1938839D01*
X793605Y1936906D01*
X804238Y1934489D01*
X813904Y1932073D01*
X822604Y1929173D01*
X830820Y1925790D01*
X838553Y1922406D01*
X844836Y1919023D01*
X850636Y1915640D01*
X855469Y1912740D01*
X859818Y1910324D01*
X862718Y1907907D01*
X865135Y1905974D01*
X866585Y1905007D01*
X867068Y1904524D01*
X874318Y1897758D01*
X880601Y1890508D01*
X885917Y1882775D01*
X890750Y1875525D01*
X894617Y1867792D01*
X897517Y1860543D01*
X900417Y1853293D01*
X902350Y1846527D01*
X904283Y1839760D01*
X905733Y1833961D01*
X906216Y1828644D01*
X907183Y1824294D01*
Y1820428D01*
X907666Y1817528D01*
Y1815595D01*
Y1815111D01*
X907183Y1804962D01*
X905733Y1795779D01*
X903800Y1786596D01*
X901383Y1778380D01*
X898000Y1770647D01*
X894617Y1762914D01*
X890750Y1756631D01*
X886884Y1750348D01*
X883501Y1745031D01*
X879634Y1740198D01*
X876251Y1736332D01*
X872868Y1732948D01*
X870451Y1730049D01*
X868518Y1728115D01*
X867068Y1727149D01*
X866585Y1726665D01*
X858369Y1720866D01*
X849669Y1715549D01*
X840003Y1711199D01*
X829853Y1707333D01*
X819704Y1703950D01*
X809554Y1701050D01*
X799405Y1698633D01*
X789738Y1697183D01*
X780555Y1695733D01*
X771856Y1694767D01*
X764123Y1693800D01*
X757356Y1693317D01*
X751557Y1692834D01*
X743824D01*
X726425Y1693800D01*
X709992Y1695733D01*
X702742Y1697183D01*
X695976Y1698633D01*
X689693Y1700083D01*
X683893Y1702017D01*
X678577Y1703950D01*
X673744Y1705400D01*
X669877Y1706850D01*
X666494Y1708300D01*
X663594Y1709749D01*
X661661Y1710233D01*
X660694Y1711199D01*
X660211D01*
X653928Y1714583D01*
X648128Y1718449D01*
X643295Y1722316D01*
X638945Y1725699D01*
X635562Y1728599D01*
X632662Y1731015D01*
X631212Y1732465D01*
X630729Y1732948D01*
X626379Y1737782D01*
X622513Y1742615D01*
X619613Y1747448D01*
X616713Y1751798D01*
X614780Y1755664D01*
X613330Y1758564D01*
X612363Y1760497D01*
X611880Y1760981D01*
X711925Y1773547D01*
X714342Y1769197D01*
X716758Y1764847D01*
X719175Y1761464D01*
X722075Y1758564D01*
X728358Y1753731D01*
X734158Y1750831D01*
X739474Y1748898D01*
X743824Y1747931D01*
X747207Y1747448D01*
X748174D01*
X755423Y1747931D01*
X761706Y1749864D01*
X767506Y1752764D01*
X772339Y1756147D01*
X776206Y1760497D01*
X780072Y1765330D01*
X782489Y1770647D01*
X784905Y1775963D01*
X786839Y1780796D01*
X788288Y1786113D01*
X789255Y1790946D01*
X789738Y1795296D01*
X790222Y1798679D01*
X790705Y1801579D01*
Y1803512D01*
Y1803995D01*
X606080D01*
X607047Y1816561D01*
X608980Y1828161D01*
X611397Y1838794D01*
X614296Y1848943D01*
X617680Y1858126D01*
X621063Y1866826D01*
X624929Y1874075D01*
X629279Y1880842D01*
X633146Y1887125D01*
X637012Y1891958D01*
X640395Y1896308D01*
X643778Y1900174D01*
X646195Y1903074D01*
X648128Y1905007D01*
X649578Y1905974D01*
X650061Y1906457D01*
X658278Y1912257D01*
X666494Y1917573D01*
X675194Y1921923D01*
X684377Y1926273D01*
X693559Y1929173D01*
X702259Y1932073D01*
X710959Y1934489D01*
X719658Y1935939D01*
X727391Y1937389D01*
X734641Y1938356D01*
X741407Y1939322D01*
X746724Y1939806D01*
X751557Y1940289D01*
X757840D01*
X770406Y1939806D01*
D02*
G37*
G36*
X2343101Y1954305D02*
X2314102D01*
Y1779346D01*
X2343101D01*
Y1699600D01*
X2140593D01*
X2128027Y1700083D01*
X2116911D01*
X2106278Y1700567D01*
X2096612Y1701533D01*
X2087429Y1702017D01*
X2079213Y1702500D01*
X2071963Y1703466D01*
X2065680Y1703950D01*
X2059880Y1704433D01*
X2055047Y1705400D01*
X2051181Y1705883D01*
X2048281Y1706366D01*
X2046348D01*
X2044898Y1706850D01*
X2044414D01*
X2030882Y1710233D01*
X2018799Y1714583D01*
X2008649Y1719899D01*
X1999950Y1724732D01*
X1993183Y1729565D01*
X1988350Y1733432D01*
X1986900Y1735365D01*
X1985450Y1736332D01*
X1984484Y1736815D01*
Y1737298D01*
X1980617Y1741648D01*
X1977234Y1746481D01*
X1971918Y1756147D01*
X1968051Y1765814D01*
X1965634Y1774997D01*
X1963701Y1782729D01*
X1963218Y1786113D01*
Y1789013D01*
X1962735Y1791429D01*
Y1793362D01*
Y1794329D01*
Y1794812D01*
X1963701Y1804962D01*
X1965634Y1814628D01*
X1969018Y1823328D01*
X1972401Y1830577D01*
X1975784Y1836860D01*
X1979167Y1841694D01*
X1981100Y1844593D01*
X1982067Y1845077D01*
Y1845560D01*
X1989800Y1853293D01*
X1998500Y1860059D01*
X2007683Y1865859D01*
X2016382Y1870209D01*
X2024599Y1874075D01*
X2027982Y1875525D01*
X2030882Y1876492D01*
X2033298Y1877458D01*
X2035231Y1877942D01*
X2036198Y1878425D01*
X2036681D01*
X2027498Y1881325D01*
X2018799Y1885191D01*
X2011549Y1889058D01*
X2005266Y1892924D01*
X1999950Y1896791D01*
X1996083Y1899691D01*
X1993667Y1901624D01*
X1992700Y1902591D01*
X1986900Y1909357D01*
X1982550Y1916607D01*
X1979651Y1924340D01*
X1977234Y1931589D01*
X1976267Y1938356D01*
X1975784Y1943189D01*
X1975301Y1945122D01*
Y1946572D01*
Y1947539D01*
Y1948022D01*
X1976267Y1958655D01*
X1978201Y1968321D01*
X1981100Y1977021D01*
X1984484Y1984270D01*
X1987867Y1990553D01*
X1990767Y1994903D01*
X1992700Y1997803D01*
X1993667Y1998770D01*
X2001400Y2006503D01*
X2009616Y2012302D01*
X2018315Y2017619D01*
X2026532Y2021485D01*
X2033781Y2024385D01*
X2036681Y2025352D01*
X2039581Y2026318D01*
X2041998Y2026802D01*
X2043448Y2027285D01*
X2044414Y2027768D01*
X2044898D01*
X2051664Y2029218D01*
X2058430Y2030185D01*
X2073413Y2032118D01*
X2088879Y2033085D01*
X2103862Y2034051D01*
X2111111Y2034535D01*
X2117394D01*
X2123194Y2035018D01*
X2343101D01*
Y1954305D01*
D02*
G37*
G36*
X2492150Y67950D02*
X2496050Y67300D01*
X2498000Y65350D01*
X2499950D01*
X2504500Y60800D01*
X2505150D01*
X2509700Y56250D01*
Y54300D01*
X2511650Y52350D01*
Y49750D01*
X2513600Y47800D01*
Y43250D01*
X2514250Y42600D01*
Y40000D01*
X2505150D01*
Y43250D01*
X2503850Y44550D01*
Y48450D01*
X2499950Y52350D01*
Y53000D01*
X2495400Y57550D01*
X2494100D01*
X2492150Y59500D01*
X2485500D01*
X2485000Y60000D01*
Y69000D01*
X2489800D01*
X2492150Y67950D01*
D02*
G37*
G36*
X44850Y2526750D02*
X46150Y2525450D01*
Y2521550D01*
X50050Y2517650D01*
Y2517000D01*
X54600Y2512450D01*
X55900D01*
X57850Y2510500D01*
X64500D01*
X65000Y2510000D01*
Y2501000D01*
X60200D01*
X57850Y2502050D01*
X53950Y2502700D01*
X52000Y2504650D01*
X50050D01*
X45500Y2509200D01*
X44850D01*
X40300Y2513750D01*
Y2515700D01*
X38350Y2517650D01*
Y2520250D01*
X36400Y2522200D01*
Y2526750D01*
X35750Y2527400D01*
Y2530000D01*
X44850D01*
Y2526750D01*
D02*
G37*
G36*
X72150Y67950D02*
X76050Y67300D01*
X78000Y65350D01*
X79950D01*
X84500Y60800D01*
X85150D01*
X89700Y56250D01*
Y54300D01*
X91650Y52350D01*
Y49750D01*
X93600Y47800D01*
Y43250D01*
X94250Y42600D01*
Y40000D01*
X85150D01*
Y43250D01*
X83850Y44550D01*
Y48450D01*
X79950Y52350D01*
Y53000D01*
X75400Y57550D01*
X74100D01*
X72150Y59500D01*
X65500D01*
X65000Y60000D01*
Y69000D01*
X69800D01*
X72150Y67950D01*
D02*
G37*
G36*
X2464850Y36750D02*
X2466150Y35450D01*
Y31550D01*
X2470050Y27650D01*
Y27000D01*
X2474600Y22450D01*
X2475900D01*
X2477850Y20500D01*
X2484500D01*
X2485000Y20000D01*
Y11000D01*
X2480200D01*
X2477850Y12050D01*
X2473950Y12700D01*
X2472000Y14650D01*
X2470050D01*
X2465500Y19200D01*
X2464850D01*
X2460300Y23750D01*
Y25700D01*
X2458350Y27650D01*
Y30250D01*
X2456400Y32200D01*
Y36750D01*
X2455750Y37400D01*
Y40000D01*
X2464850D01*
Y36750D01*
D02*
G37*
G36*
X1282150Y67950D02*
X1286050Y67300D01*
X1288000Y65350D01*
X1289950D01*
X1294500Y60800D01*
X1295150D01*
X1299700Y56250D01*
Y54300D01*
X1301650Y52350D01*
Y49750D01*
X1303600Y47800D01*
Y43250D01*
X1304250Y42600D01*
Y40000D01*
X1295150D01*
Y43250D01*
X1293850Y44550D01*
Y48450D01*
X1289950Y52350D01*
Y53000D01*
X1285400Y57550D01*
X1284100D01*
X1282150Y59500D01*
X1275500D01*
X1275000Y60000D01*
Y69000D01*
X1279800D01*
X1282150Y67950D01*
D02*
G37*
G36*
X1282150Y2557950D02*
X1286050Y2557300D01*
X1288000Y2555350D01*
X1289950D01*
X1294500Y2550800D01*
X1295150D01*
X1299700Y2546250D01*
Y2544300D01*
X1301650Y2542350D01*
Y2539750D01*
X1303600Y2537800D01*
Y2533250D01*
X1304250Y2532600D01*
Y2530000D01*
X1295150D01*
Y2533250D01*
X1293850Y2534550D01*
Y2538450D01*
X1289950Y2542350D01*
Y2543000D01*
X1285400Y2547550D01*
X1284100D01*
X1282150Y2549500D01*
X1275500D01*
X1275000Y2550000D01*
Y2559000D01*
X1279800D01*
X1282150Y2557950D01*
D02*
G37*
G36*
X2492150Y2557951D02*
X2496050Y2557301D01*
X2498000Y2555351D01*
X2499950D01*
X2504500Y2550801D01*
X2505150D01*
X2509700Y2546251D01*
Y2544301D01*
X2511650Y2542351D01*
Y2539751D01*
X2513600Y2537801D01*
Y2533251D01*
X2514250Y2532601D01*
Y2530001D01*
X2505150D01*
Y2533251D01*
X2503850Y2534551D01*
Y2538451D01*
X2499950Y2542351D01*
Y2543001D01*
X2495400Y2547551D01*
X2494100D01*
X2492150Y2549501D01*
X2485500D01*
X2485000Y2550001D01*
Y2559001D01*
X2489800D01*
X2492150Y2557951D01*
D02*
G37*
G36*
X72150Y2557950D02*
X76050Y2557300D01*
X78000Y2555350D01*
X79950D01*
X84500Y2550800D01*
X85150D01*
X89700Y2546250D01*
Y2544300D01*
X91650Y2542350D01*
Y2539750D01*
X93600Y2537800D01*
Y2533250D01*
X94250Y2532600D01*
Y2530000D01*
X85150D01*
Y2533250D01*
X83850Y2534550D01*
Y2538450D01*
X79950Y2542350D01*
Y2543000D01*
X75400Y2547550D01*
X74100D01*
X72150Y2549500D01*
X65500D01*
X65000Y2550000D01*
Y2559000D01*
X69800D01*
X72150Y2557950D01*
D02*
G37*
G36*
X1254850Y2526750D02*
X1256150Y2525450D01*
Y2521550D01*
X1260050Y2517650D01*
Y2517000D01*
X1264600Y2512450D01*
X1265900D01*
X1267850Y2510500D01*
X1274500D01*
X1275000Y2510000D01*
Y2501000D01*
X1270200D01*
X1267850Y2502050D01*
X1263950Y2502700D01*
X1262000Y2504650D01*
X1260050D01*
X1255500Y2509200D01*
X1254850D01*
X1250300Y2513750D01*
Y2515700D01*
X1248350Y2517650D01*
Y2520250D01*
X1246400Y2522200D01*
Y2526750D01*
X1245750Y2527400D01*
Y2530000D01*
X1254850D01*
Y2526750D01*
D02*
G37*
G36*
X2464850Y2526751D02*
X2466150Y2525451D01*
Y2521551D01*
X2470050Y2517651D01*
Y2517001D01*
X2474600Y2512451D01*
X2475900D01*
X2477850Y2510501D01*
X2484500D01*
X2485000Y2510001D01*
Y2501001D01*
X2480200D01*
X2477850Y2502051D01*
X2473950Y2502701D01*
X2472000Y2504651D01*
X2470050D01*
X2465500Y2509201D01*
X2464850D01*
X2460300Y2513751D01*
Y2515701D01*
X2458350Y2517651D01*
Y2520251D01*
X2456400Y2522201D01*
Y2526751D01*
X2455750Y2527401D01*
Y2530001D01*
X2464850D01*
Y2526751D01*
D02*
G37*
G36*
X1254850Y36750D02*
X1256150Y35450D01*
Y31550D01*
X1260050Y27650D01*
Y27000D01*
X1264600Y22450D01*
X1265900D01*
X1267850Y20500D01*
X1274500D01*
X1275000Y20000D01*
Y11000D01*
X1270200D01*
X1267850Y12050D01*
X1263950Y12700D01*
X1262000Y14650D01*
X1260050D01*
X1255500Y19200D01*
X1254850D01*
X1250300Y23750D01*
Y25700D01*
X1248350Y27650D01*
Y30250D01*
X1246400Y32200D01*
Y36750D01*
X1245750Y37400D01*
Y40000D01*
X1254850D01*
Y36750D01*
D02*
G37*
G36*
X186335Y253660D02*
Y253326D01*
Y252993D01*
X190002Y233327D01*
Y232660D01*
X190335Y232327D01*
X191002D01*
X204335Y226660D01*
X205668D01*
X222001Y238660D01*
X223334Y238327D01*
X223668Y237994D01*
X237667Y224327D01*
Y223994D01*
Y223661D01*
Y223327D01*
Y222994D01*
X226334Y206328D01*
Y205994D01*
Y205661D01*
Y205328D01*
Y204995D01*
X232001Y191328D01*
X232668Y190662D01*
X233001Y190328D01*
X233334D01*
X252334Y186995D01*
X253000D01*
X253334Y186662D01*
Y186328D01*
Y185995D01*
Y166329D01*
X253000Y165662D01*
X252667Y165329D01*
X252334D01*
X234001Y161329D01*
X233334D01*
X233001Y160996D01*
Y160662D01*
X227001Y145996D01*
Y145329D01*
Y144996D01*
Y144663D01*
X237667Y128996D01*
Y128663D01*
Y128330D01*
Y127997D01*
X223668Y113997D01*
X223001Y113664D01*
X222668D01*
X222001Y113997D01*
X207001Y124330D01*
X205668D01*
X199002Y120330D01*
X198002Y120663D01*
X197668Y120997D01*
X184002Y154329D01*
Y155662D01*
X184335Y155996D01*
X186335Y156663D01*
Y156996D01*
X186669D01*
X187002Y157329D01*
X187335Y157662D01*
X190669Y160329D01*
X193002Y162996D01*
X194669Y165996D01*
X195669Y168995D01*
X196335Y171662D01*
X197002Y173662D01*
Y174995D01*
Y175662D01*
X196668Y178995D01*
X196002Y181995D01*
X195002Y184662D01*
X193669Y186995D01*
X192669Y188995D01*
X191669Y190328D01*
X191002Y190995D01*
X190669Y191328D01*
X188335Y193661D01*
X185669Y195328D01*
X183002Y196328D01*
X180669Y197328D01*
X178669Y197661D01*
X176669Y197995D01*
X175336D01*
X172003Y197661D01*
X169003Y196995D01*
X166336Y195995D01*
X164003Y194661D01*
X162336Y193328D01*
X161003Y192328D01*
X160336Y191661D01*
X160003Y191328D01*
X158003Y188995D01*
X156336Y186328D01*
X155336Y183662D01*
X154336Y180995D01*
X154003Y178995D01*
X153670Y177329D01*
Y175995D01*
Y175662D01*
X154003Y171329D01*
X155336Y167662D01*
X156670Y164662D01*
X158670Y162329D01*
X160336Y160329D01*
X162003Y158662D01*
X163336Y157996D01*
X163669Y157662D01*
X164003Y157329D01*
X164336Y156996D01*
X164669Y156663D01*
X166336Y155996D01*
X167003Y154996D01*
Y154663D01*
Y154329D01*
X152670Y120997D01*
X152336Y120663D01*
X152003Y120330D01*
X151670D01*
X145337Y124330D01*
X143670D01*
X128670Y113997D01*
X128004Y113664D01*
X127670D01*
X127337Y113997D01*
X113004Y127997D01*
Y128330D01*
Y128996D01*
X124004Y144663D01*
Y144996D01*
Y145663D01*
Y145996D01*
X117671Y160662D01*
X117337Y160996D01*
X117004Y161329D01*
X116671D01*
X98338Y165329D01*
X97671Y165662D01*
X97338Y165996D01*
Y166329D01*
Y185995D01*
Y186662D01*
X97671Y186995D01*
X98338D01*
X117337Y190328D01*
X118004Y190662D01*
X118337Y190995D01*
Y191328D01*
X124337Y204995D01*
Y205328D01*
Y205661D01*
Y206328D01*
X113004Y222994D01*
Y223327D01*
Y223661D01*
Y223994D01*
Y224327D01*
X127337Y237994D01*
X128004Y238660D01*
X128670D01*
X145337Y226660D01*
X146670D01*
X159670Y232327D01*
X160336Y232660D01*
X160669Y232994D01*
Y233327D01*
X164669Y252993D01*
Y253660D01*
X165003Y253993D01*
X186002D01*
X186335Y253660D01*
D02*
G37*
G36*
X44850Y36750D02*
X46150Y35450D01*
Y31550D01*
X50050Y27650D01*
Y27000D01*
X54600Y22450D01*
X55900D01*
X57850Y20500D01*
X64500D01*
X65000Y20000D01*
Y11000D01*
X60200D01*
X57850Y12050D01*
X53950Y12700D01*
X52000Y14650D01*
X50050D01*
X45500Y19200D01*
X44850D01*
X40300Y23750D01*
Y25700D01*
X38350Y27650D01*
Y30250D01*
X36400Y32200D01*
Y36750D01*
X35750Y37400D01*
Y40000D01*
X44850D01*
Y36750D01*
D02*
G37*
%LPC*%
G36*
X1703344Y2041258D02*
X1702345Y2037993D01*
X1701411Y2034860D01*
X1700478Y2031794D01*
X1699612Y2028862D01*
X1698745Y2025995D01*
X1697946Y2023263D01*
X1697146Y2020597D01*
X1696413Y2018064D01*
X1695680Y2015665D01*
X1694946Y2013332D01*
X1694280Y2011133D01*
X1693680Y2009000D01*
X1693080Y2007000D01*
X1692480Y2005068D01*
X1691947Y2003268D01*
X1691414Y2001535D01*
X1690947Y1999935D01*
X1690481Y1998469D01*
X1690081Y1997070D01*
X1689681Y1995803D01*
X1689348Y1994604D01*
X1689015Y1993470D01*
X1688748Y1992537D01*
X1688481Y1991671D01*
X1688215Y1990871D01*
X1688015Y1990205D01*
X1687882Y1989605D01*
X1687748Y1989138D01*
X1687615Y1988805D01*
X1687548Y1988539D01*
X1687482Y1988405D01*
Y1988338D01*
X1719074D01*
X1718074Y1991604D01*
X1717141Y1994737D01*
X1716274Y1997803D01*
X1715408Y2000735D01*
X1714541Y2003601D01*
X1713742Y2006334D01*
X1712942Y2009000D01*
X1712209Y2011533D01*
X1711476Y2013932D01*
X1710809Y2016265D01*
X1710143Y2018464D01*
X1709476Y2020597D01*
X1708876Y2022596D01*
X1708343Y2024529D01*
X1707810Y2026329D01*
X1707277Y2028062D01*
X1706810Y2029661D01*
X1706344Y2031128D01*
X1705944Y2032527D01*
X1705544Y2033860D01*
X1705211Y2034993D01*
X1704877Y2036126D01*
X1704611Y2037059D01*
X1704344Y2037993D01*
X1704077Y2038726D01*
X1703878Y2039392D01*
X1703744Y2039992D01*
X1703611Y2040459D01*
X1703478Y2040792D01*
X1703411Y2041058D01*
X1703344Y2041192D01*
Y2041258D01*
D02*
G37*
G36*
X1425016Y2043724D02*
X1418684D01*
X1417218Y2043658D01*
X1415885Y2043524D01*
X1414685Y2043458D01*
X1413685Y2043324D01*
X1413219Y2043258D01*
X1412885Y2043191D01*
X1412619D01*
X1412419Y2043125D01*
X1412219D01*
X1410819Y2042924D01*
X1409486Y2042658D01*
X1408220Y2042391D01*
X1407153Y2042125D01*
X1406220Y2041925D01*
X1405554Y2041725D01*
X1405287Y2041658D01*
X1405087Y2041591D01*
X1405021Y2041525D01*
X1404954D01*
X1403688Y2041125D01*
X1402488Y2040659D01*
X1401355Y2040192D01*
X1400422Y2039725D01*
X1399622Y2039326D01*
X1399022Y2038992D01*
X1398622Y2038792D01*
X1398489Y2038726D01*
X1397423Y2038059D01*
X1396356Y2037326D01*
X1395423Y2036593D01*
X1394623Y2035926D01*
X1393957Y2035393D01*
X1393424Y2034927D01*
X1393157Y2034660D01*
X1393024Y2034527D01*
X1392157Y2033594D01*
X1391291Y2032594D01*
X1390558Y2031727D01*
X1389891Y2030861D01*
X1389358Y2030128D01*
X1388958Y2029528D01*
X1388692Y2029128D01*
X1388625Y2029061D01*
Y2028995D01*
X1387892Y2027795D01*
X1387225Y2026595D01*
X1386692Y2025396D01*
X1386225Y2024329D01*
X1385826Y2023463D01*
X1385559Y2022730D01*
X1385426Y2022463D01*
X1385359Y2022263D01*
X1385292Y2022130D01*
Y2022063D01*
X1384826Y2020597D01*
X1384426Y2019131D01*
X1384093Y2017664D01*
X1383759Y2016398D01*
X1383560Y2015265D01*
X1383493Y2014798D01*
X1383426Y2014398D01*
X1383360Y2014065D01*
X1383293Y2013799D01*
Y2013665D01*
Y2013599D01*
X1383026Y2011866D01*
X1382893Y2010133D01*
X1382760Y2008467D01*
X1382626Y2006934D01*
Y2006201D01*
Y2005601D01*
X1382560Y2005068D01*
Y2004601D01*
Y2004201D01*
Y2003934D01*
Y2003735D01*
Y2003668D01*
Y2001535D01*
X1382693Y1999536D01*
X1382760Y1997670D01*
X1382826Y1996870D01*
X1382893Y1996070D01*
X1382960Y1995337D01*
X1383026Y1994737D01*
X1383093Y1994204D01*
X1383160Y1993737D01*
X1383226Y1993337D01*
Y1993071D01*
X1383293Y1992937D01*
Y1992871D01*
X1383560Y1991071D01*
X1383893Y1989405D01*
X1384226Y1987872D01*
X1384559Y1986606D01*
X1384826Y1985539D01*
X1384959Y1985073D01*
X1385092Y1984673D01*
X1385159Y1984406D01*
X1385226Y1984206D01*
X1385292Y1984073D01*
Y1984006D01*
X1385826Y1982540D01*
X1386359Y1981207D01*
X1386959Y1980007D01*
X1387425Y1979008D01*
X1387892Y1978141D01*
X1388292Y1977475D01*
X1388558Y1977075D01*
X1388625Y1977008D01*
Y1976941D01*
X1389358Y1975808D01*
X1390158Y1974809D01*
X1390891Y1973876D01*
X1391557Y1973076D01*
X1392157Y1972409D01*
X1392690Y1971943D01*
X1392957Y1971676D01*
X1393090Y1971543D01*
X1394023Y1970676D01*
X1395023Y1969943D01*
X1395956Y1969277D01*
X1396823Y1968677D01*
X1397556Y1968210D01*
X1398089Y1967810D01*
X1398489Y1967610D01*
X1398556Y1967544D01*
X1398622D01*
X1399755Y1966944D01*
X1400888Y1966411D01*
X1402021Y1966011D01*
X1403021Y1965611D01*
X1403888Y1965344D01*
X1404554Y1965145D01*
X1404821Y1965011D01*
X1405021D01*
X1405087Y1964944D01*
X1405154D01*
X1406487Y1964611D01*
X1407820Y1964278D01*
X1409020Y1964011D01*
X1410153Y1963811D01*
X1411152Y1963678D01*
X1411886Y1963545D01*
X1412152D01*
X1412352Y1963478D01*
X1412552D01*
X1415418Y1963212D01*
X1416818Y1963145D01*
X1418017Y1963078D01*
X1419084Y1963012D01*
X1422416D01*
X1422883Y1963078D01*
X1423882D01*
X1425016Y1963145D01*
X1426015D01*
X1426349Y1963212D01*
X1426948D01*
X1428081Y1963345D01*
X1429081Y1963412D01*
X1429948Y1963478D01*
X1430681Y1963545D01*
X1431214Y1963611D01*
X1431614Y1963678D01*
X1431947D01*
Y1964611D01*
Y1965478D01*
Y1966211D01*
Y1966877D01*
Y1967477D01*
Y1967877D01*
Y1968144D01*
Y1968210D01*
Y1969543D01*
Y1970076D01*
Y1970610D01*
Y1971010D01*
Y1971343D01*
Y1971543D01*
Y1971609D01*
Y1972876D01*
Y1973942D01*
Y1974875D01*
Y1975608D01*
Y1976208D01*
Y1976675D01*
Y1976941D01*
Y1977008D01*
Y1978474D01*
Y1979207D01*
Y1979874D01*
Y1980407D01*
Y1980874D01*
Y1981140D01*
Y1981274D01*
Y1981873D01*
Y1982473D01*
Y1982940D01*
Y1983006D01*
Y1983073D01*
Y1983806D01*
Y1984473D01*
Y1984806D01*
Y1985006D01*
Y1985139D01*
Y1985206D01*
Y1986072D01*
Y1986939D01*
Y1987339D01*
Y1987605D01*
Y1987805D01*
Y1987872D01*
Y1989005D01*
Y1989538D01*
Y1990071D01*
Y1990471D01*
Y1990805D01*
Y1991071D01*
Y1991138D01*
Y1992271D01*
Y1993404D01*
Y1994537D01*
Y1995603D01*
Y1996470D01*
Y1997203D01*
Y1997469D01*
Y1997670D01*
Y1997803D01*
Y1997869D01*
Y1999336D01*
Y2000935D01*
Y2002402D01*
Y2003801D01*
Y2005068D01*
Y2005534D01*
Y2006001D01*
Y2006401D01*
Y2006667D01*
Y2006801D01*
Y2006867D01*
Y2009400D01*
Y2011999D01*
Y2014599D01*
Y2015865D01*
Y2016998D01*
Y2018131D01*
Y2019131D01*
Y2019997D01*
Y2020797D01*
Y2021397D01*
Y2021863D01*
Y2022197D01*
Y2022263D01*
Y2023996D01*
Y2025729D01*
Y2029328D01*
Y2032794D01*
Y2034460D01*
Y2036060D01*
Y2037526D01*
Y2038926D01*
Y2040125D01*
Y2041125D01*
Y2041991D01*
Y2042591D01*
Y2042991D01*
Y2043125D01*
X1431014Y2043258D01*
X1430148Y2043324D01*
X1429814Y2043391D01*
X1429281D01*
X1428148Y2043524D01*
X1427681Y2043591D01*
X1427215D01*
X1426815Y2043658D01*
X1426215D01*
X1425016Y2043724D01*
D02*
G37*
G36*
X375668Y248124D02*
X373793D01*
X372751Y247707D01*
X370668Y246874D01*
X369835Y246457D01*
X369210Y246040D01*
X369001Y245832D01*
X368793Y245624D01*
X368168Y244999D01*
X367751Y244790D01*
Y244582D01*
X367126Y243749D01*
X366918Y243540D01*
Y243332D01*
X300461Y128542D01*
X299836Y127084D01*
X299419Y125834D01*
X299211Y124792D01*
Y124584D01*
Y124375D01*
Y123959D01*
Y123750D01*
Y123542D01*
X299419Y121667D01*
X299836Y120209D01*
X300252Y119167D01*
X300461Y118750D01*
X301294Y117709D01*
X302127Y116667D01*
X304002Y115417D01*
X304835Y114792D01*
X305460Y114584D01*
X305877Y114375D01*
X306294D01*
X306710Y114167D01*
X307127Y113959D01*
X441501D01*
X442959Y114167D01*
X444209Y114375D01*
X446292Y115209D01*
X447126Y115625D01*
X447751Y116042D01*
X447959Y116459D01*
X448167D01*
X449000Y117292D01*
X449209Y117500D01*
X449834Y118334D01*
X450042Y118750D01*
X450459Y120000D01*
X450875Y121042D01*
X451084Y123334D01*
Y124167D01*
Y124792D01*
Y125209D01*
Y125417D01*
X450875Y126042D01*
Y126459D01*
X450667Y126875D01*
X450250Y127709D01*
X450042Y127917D01*
Y128125D01*
Y128334D01*
X383585Y243124D01*
Y243332D01*
X382751Y244582D01*
X381918Y245624D01*
X381085Y246249D01*
X380876Y246457D01*
X380460D01*
X380251Y246665D01*
X380043Y246874D01*
X378376Y247707D01*
X376710Y247915D01*
X375668Y248124D01*
D02*
G37*
%LPD*%
G36*
X375251Y210833D02*
X376293Y209791D01*
X377126Y208958D01*
X377543Y208541D01*
X378793Y207083D01*
X379835Y206041D01*
X380460Y205208D01*
X380668Y204791D01*
X381918Y202708D01*
X382960Y200416D01*
X383585Y198333D01*
X384210Y196458D01*
X384626Y194791D01*
X385043Y193541D01*
X385251Y192708D01*
Y192291D01*
X385460Y189791D01*
X385251Y187291D01*
X384835Y184791D01*
X384210Y182708D01*
X383585Y181041D01*
X383168Y179583D01*
X382751Y178750D01*
X382543Y178333D01*
X381710Y176666D01*
X380460Y175000D01*
X380043Y174166D01*
X379626Y173541D01*
X379210Y173125D01*
Y172916D01*
X377960Y171041D01*
X376918Y169375D01*
X376293Y167708D01*
X375668Y166458D01*
X375460Y165208D01*
X375251Y164375D01*
X375043Y163750D01*
Y163541D01*
Y162500D01*
Y162083D01*
Y161875D01*
Y160416D01*
X375251Y160000D01*
Y159791D01*
X375668Y157708D01*
X376085Y156250D01*
X376501Y155000D01*
X377126Y154166D01*
X377543Y153750D01*
X377960Y153333D01*
X378168Y153125D01*
X378376D01*
X376710Y148333D01*
X374835Y149375D01*
X373376Y150833D01*
X372126Y152500D01*
X371293Y154375D01*
X370668Y156250D01*
X370251Y157708D01*
X370043Y158750D01*
Y159166D01*
Y159791D01*
X369835Y160625D01*
Y161458D01*
Y161666D01*
Y162708D01*
Y163541D01*
Y163958D01*
Y164166D01*
X370251Y166875D01*
X370876Y169166D01*
X371293Y169791D01*
X371501Y170416D01*
X371710Y170625D01*
Y170833D01*
X372751Y172708D01*
X374001Y174375D01*
X374626Y175625D01*
X375043Y175833D01*
Y176041D01*
X376293Y177916D01*
X377335Y179375D01*
X377751Y180416D01*
X377960Y180625D01*
X378793Y182708D01*
X379418Y184583D01*
X379835Y186458D01*
X380043Y188333D01*
X379835Y192083D01*
X379210Y195208D01*
X378168Y197916D01*
X377335Y199999D01*
X376918Y200833D01*
X376501Y201458D01*
X376293Y201666D01*
Y201874D01*
X375460Y203124D01*
X374626Y204166D01*
X374001Y204999D01*
X373793Y205208D01*
X372751Y206249D01*
X371918Y207083D01*
X371085Y207499D01*
X370876Y207708D01*
X372751Y210208D01*
X374001Y211874D01*
X375251Y210833D01*
D02*
G37*
G36*
X388168D02*
X389210Y209791D01*
X390043Y208958D01*
X390460Y208541D01*
X391710Y207083D01*
X392751Y206041D01*
X393376Y205208D01*
X393585Y204791D01*
X394834Y202708D01*
X395876Y200416D01*
X396501Y198333D01*
X397126Y196458D01*
X397543Y194791D01*
X397959Y193541D01*
X398168Y192708D01*
Y192291D01*
X398376Y189791D01*
X398168Y187291D01*
X397751Y184791D01*
X397126Y182708D01*
X396501Y181041D01*
X396084Y179583D01*
X395668Y178750D01*
X395459Y178333D01*
X394418Y176666D01*
X393376Y174791D01*
X392335Y173541D01*
X391918Y173125D01*
Y172916D01*
X390668Y171041D01*
X389835Y169375D01*
X389001Y167708D01*
X388585Y166458D01*
X388168Y165208D01*
Y164375D01*
X387960Y163750D01*
Y163541D01*
Y162708D01*
Y162291D01*
Y161875D01*
Y160416D01*
X388168Y160000D01*
Y159791D01*
X388585Y157916D01*
X389001Y156250D01*
X389418Y155208D01*
X390043Y154375D01*
X390460Y153750D01*
X390876Y153333D01*
X391085Y153125D01*
X391293D01*
X389626Y148333D01*
X387751Y149375D01*
X386293Y150833D01*
X385251Y152500D01*
X384418Y154375D01*
X383793Y156250D01*
X383168Y157708D01*
X382960Y158750D01*
Y159166D01*
X382751Y159791D01*
Y160625D01*
Y161458D01*
Y161666D01*
Y162500D01*
Y163333D01*
Y163958D01*
Y164166D01*
X383168Y166875D01*
X383793Y169166D01*
X384210Y169791D01*
X384418Y170416D01*
X384626Y170625D01*
Y170833D01*
X385668Y172708D01*
X386710Y174375D01*
X387543Y175625D01*
X387751Y175833D01*
Y176041D01*
X389210Y177916D01*
X390251Y179375D01*
X390668Y180416D01*
X390876Y180625D01*
X391710Y182708D01*
X392335Y184583D01*
X392751Y186458D01*
X392960Y188333D01*
X392751Y192083D01*
X392126Y195208D01*
X391085Y197916D01*
X390251Y199999D01*
X389835Y200833D01*
X389418Y201458D01*
X389210Y201666D01*
Y201874D01*
X388376Y203124D01*
X387543Y204166D01*
X386918Y204999D01*
X386710Y205208D01*
X385668Y206041D01*
X384835Y206874D01*
X384001Y207499D01*
X383793Y207708D01*
X385668Y210208D01*
X386918Y211874D01*
X388168Y210833D01*
D02*
G37*
G36*
X414001Y135833D02*
X336502D01*
Y142292D01*
X414001D01*
Y135833D01*
D02*
G37*
G36*
X362543Y210833D02*
X363585Y209583D01*
X364418Y208958D01*
X364835Y208541D01*
X366085Y207083D01*
X366918Y206041D01*
X367543Y205208D01*
X367751Y204791D01*
X369001Y202708D01*
X370043Y200416D01*
X370668Y198333D01*
X371293Y196458D01*
X371710Y194791D01*
X372126Y193541D01*
X372335Y192708D01*
Y192291D01*
X372543Y189791D01*
X372335Y187291D01*
X371918Y184791D01*
X371293Y182708D01*
X370876Y181041D01*
X370251Y179583D01*
X370043Y178750D01*
X369835Y178333D01*
X368793Y176458D01*
X367543Y174791D01*
X366710Y173541D01*
X366293Y173125D01*
Y172916D01*
X365043Y171041D01*
X364002Y169375D01*
X363377Y167916D01*
X362752Y166458D01*
X362543Y165208D01*
X362335Y164375D01*
X362127Y163750D01*
Y163541D01*
Y162500D01*
Y162083D01*
Y161875D01*
Y161250D01*
Y160625D01*
X362335Y160000D01*
Y159791D01*
X362752Y157708D01*
X363168Y156250D01*
X363793Y155000D01*
X364210Y154166D01*
X364835Y153750D01*
X365043Y153333D01*
X365460Y153125D01*
X363793Y148333D01*
X361918Y149375D01*
X360460Y150833D01*
X359418Y152500D01*
X358585Y154375D01*
X357960Y156250D01*
X357335Y157708D01*
X357127Y158750D01*
Y159166D01*
X356918Y160833D01*
Y161458D01*
Y161666D01*
Y162500D01*
Y163333D01*
Y163958D01*
Y164166D01*
X357335Y166875D01*
X357960Y169166D01*
X358377Y169791D01*
X358585Y170416D01*
X358793Y170625D01*
Y170833D01*
X359835Y172708D01*
X361085Y174375D01*
X361710Y175625D01*
X362127Y175833D01*
Y176041D01*
X363585Y178125D01*
X364418Y179583D01*
X364835Y180416D01*
X365043Y180625D01*
X365877Y182708D01*
X366502Y184583D01*
X366918Y186458D01*
X367126Y188333D01*
X366918Y192083D01*
X366293Y195208D01*
X365460Y197916D01*
X364627Y199999D01*
X364210Y200833D01*
X363793Y201458D01*
X363585Y201666D01*
Y201874D01*
X362543Y203124D01*
X361710Y204166D01*
X361085Y204999D01*
X360877Y205208D01*
X359835Y206249D01*
X358793Y207083D01*
X358168Y207499D01*
X357960Y207708D01*
X359835Y210208D01*
X361085Y211874D01*
X362543Y210833D01*
D02*
G37*
%LPC*%
G36*
X1171071Y1839277D02*
X1142072D01*
X1131439Y1838794D01*
X1122256Y1837827D01*
X1115007Y1836860D01*
X1109207Y1835410D01*
X1105341Y1833477D01*
X1102441Y1832511D01*
X1100508Y1831544D01*
X1100024Y1831061D01*
X1096641Y1827677D01*
X1093741Y1823811D01*
X1091808Y1819461D01*
X1090841Y1815595D01*
X1089875Y1811728D01*
X1089391Y1808828D01*
Y1806895D01*
Y1805928D01*
X1089875Y1799645D01*
X1091325Y1794329D01*
X1093258Y1789979D01*
X1095191Y1786113D01*
X1097608Y1783696D01*
X1099541Y1781763D01*
X1100991Y1780796D01*
X1101474Y1780313D01*
X1106790Y1777896D01*
X1112590Y1775963D01*
X1119357Y1774997D01*
X1126123Y1774030D01*
X1131923Y1773547D01*
X1137239Y1773063D01*
X1171071D01*
Y1839277D01*
D02*
G37*
G36*
Y1961071D02*
X1140622D01*
X1134823Y1960588D01*
X1129506Y1960105D01*
X1125156Y1959621D01*
X1120807Y1958655D01*
X1117423Y1958172D01*
X1111624Y1956238D01*
X1107274Y1954305D01*
X1104857Y1952855D01*
X1103407Y1951888D01*
X1102924Y1951405D01*
X1100508Y1948022D01*
X1098574Y1944155D01*
X1097124Y1940772D01*
X1096158Y1937389D01*
X1095674Y1934973D01*
X1095191Y1932556D01*
Y1931106D01*
Y1930623D01*
X1095674Y1925790D01*
X1096641Y1921440D01*
X1098091Y1917573D01*
X1099541Y1914190D01*
X1100991Y1911774D01*
X1102441Y1909840D01*
X1103407Y1908874D01*
X1103891Y1908390D01*
X1108241Y1905491D01*
X1113557Y1903557D01*
X1119840Y1902107D01*
X1126606Y1901141D01*
X1132406Y1900658D01*
X1137239Y1900174D01*
X1171071D01*
Y1961071D01*
D02*
G37*
G36*
X398740Y1868759D02*
X396806D01*
X390040Y1868276D01*
X383757Y1866342D01*
X378441Y1864409D01*
X374574Y1861509D01*
X371191Y1859093D01*
X368774Y1856676D01*
X367324Y1854743D01*
X366841Y1854260D01*
X363458Y1848460D01*
X361041Y1842177D01*
X359108Y1835894D01*
X358142Y1830094D01*
X357175Y1825261D01*
X356692Y1821394D01*
Y1818495D01*
Y1818011D01*
Y1817528D01*
X357175Y1807862D01*
X358625Y1799645D01*
X360558Y1792879D01*
X362491Y1787079D01*
X364425Y1782729D01*
X366358Y1779830D01*
X367808Y1777896D01*
X368291Y1777413D01*
X372641Y1773063D01*
X377957Y1770163D01*
X382790Y1767747D01*
X387140Y1766297D01*
X391490Y1765330D01*
X394873Y1764847D01*
X397773D01*
X405023Y1765330D01*
X411306Y1767264D01*
X416139Y1769197D01*
X420489Y1772097D01*
X423872Y1774513D01*
X426288Y1776930D01*
X427738Y1778380D01*
X428222Y1778863D01*
X431605Y1784663D01*
X434021Y1790462D01*
X435955Y1796746D01*
X436921Y1802545D01*
X437888Y1807378D01*
X438371Y1811728D01*
Y1814145D01*
Y1815111D01*
X437888Y1824778D01*
X436438Y1832994D01*
X434505Y1839760D01*
X432088Y1846043D01*
X428705Y1851360D01*
X425322Y1855710D01*
X421455Y1859093D01*
X417589Y1861993D01*
X413722Y1864409D01*
X409856Y1865859D01*
X406473Y1867309D01*
X403089Y1867792D01*
X400673Y1868276D01*
X398740Y1868759D01*
D02*
G37*
G36*
X1559653D02*
X1556270D01*
X1549504Y1868276D01*
X1543704Y1866342D01*
X1538387Y1863926D01*
X1534038Y1861509D01*
X1530654Y1858609D01*
X1527755Y1856193D01*
X1526305Y1854260D01*
X1525821Y1853776D01*
X1521955Y1847977D01*
X1519538Y1841210D01*
X1517605Y1834927D01*
X1516155Y1828644D01*
X1515188Y1823328D01*
X1514705Y1818978D01*
Y1816078D01*
Y1815595D01*
Y1815111D01*
X1515188Y1807378D01*
X1516155Y1800129D01*
X1518088Y1794329D01*
X1520022Y1789013D01*
X1521955Y1785146D01*
X1523888Y1781763D01*
X1524855Y1779830D01*
X1525338Y1779346D01*
X1529688Y1774513D01*
X1534521Y1771130D01*
X1539837Y1768230D01*
X1544671Y1766780D01*
X1549504Y1765814D01*
X1553370Y1765330D01*
X1555787Y1764847D01*
X1556753D01*
X1563520Y1765330D01*
X1569803Y1767264D01*
X1575119Y1769197D01*
X1579469Y1772097D01*
X1583335Y1774513D01*
X1585752Y1776930D01*
X1587202Y1778380D01*
X1587685Y1778863D01*
X1591068Y1784663D01*
X1593968Y1790462D01*
X1595901Y1796746D01*
X1596868Y1802062D01*
X1597835Y1807378D01*
X1598318Y1811245D01*
Y1813661D01*
Y1814628D01*
X1597835Y1822844D01*
X1596868Y1830094D01*
X1594935Y1836860D01*
X1593002Y1842177D01*
X1591068Y1846527D01*
X1589135Y1849910D01*
X1588168Y1852326D01*
X1587685Y1852810D01*
X1583335Y1858126D01*
X1578019Y1861993D01*
X1572702Y1864892D01*
X1567869Y1866826D01*
X1563036Y1867792D01*
X1559653Y1868759D01*
D02*
G37*
G36*
X758323Y1887125D02*
X755423D01*
X749624Y1886641D01*
X744790Y1885191D01*
X740441Y1883258D01*
X736574Y1880842D01*
X733674Y1878425D01*
X731741Y1876492D01*
X730291Y1875042D01*
X729808Y1874559D01*
X726425Y1869725D01*
X724008Y1864409D01*
X722558Y1859093D01*
X721108Y1854260D01*
X720625Y1849910D01*
X720142Y1846527D01*
Y1844110D01*
Y1843143D01*
Y1842660D01*
Y1841694D01*
Y1838794D01*
X720625Y1835894D01*
Y1835410D01*
Y1834927D01*
X789255D01*
Y1838310D01*
Y1839277D01*
Y1839760D01*
X788772Y1847010D01*
X787805Y1853293D01*
X786355Y1859093D01*
X784905Y1863926D01*
X783455Y1868276D01*
X782005Y1871176D01*
X781039Y1873109D01*
X780555Y1873592D01*
X777172Y1877942D01*
X772822Y1881325D01*
X768956Y1883742D01*
X764606Y1885675D01*
X761223Y1886641D01*
X758323Y1887125D01*
D02*
G37*
G36*
X2184574Y1839277D02*
X2155576D01*
X2144943Y1838794D01*
X2135760Y1837827D01*
X2128510Y1836860D01*
X2122711Y1835410D01*
X2118844Y1833477D01*
X2115944Y1832511D01*
X2114011Y1831544D01*
X2113528Y1831061D01*
X2110145Y1827677D01*
X2107245Y1823811D01*
X2105311Y1819461D01*
X2104345Y1815595D01*
X2103378Y1811728D01*
X2102895Y1808828D01*
Y1806895D01*
Y1805928D01*
X2103378Y1799645D01*
X2104828Y1794329D01*
X2106761Y1789979D01*
X2108695Y1786113D01*
X2111111Y1783696D01*
X2113044Y1781763D01*
X2114494Y1780796D01*
X2114978Y1780313D01*
X2120294Y1777896D01*
X2126094Y1775963D01*
X2132860Y1774997D01*
X2139627Y1774030D01*
X2145426Y1773547D01*
X2150743Y1773063D01*
X2184574D01*
Y1839277D01*
D02*
G37*
G36*
Y1961071D02*
X2154126D01*
X2148326Y1960588D01*
X2143010Y1960105D01*
X2138660Y1959621D01*
X2134310Y1958655D01*
X2130927Y1958172D01*
X2125127Y1956238D01*
X2120777Y1954305D01*
X2118361Y1952855D01*
X2116911Y1951888D01*
X2116428Y1951405D01*
X2114011Y1948022D01*
X2112078Y1944155D01*
X2110628Y1940772D01*
X2109661Y1937389D01*
X2109178Y1934973D01*
X2108695Y1932556D01*
Y1931106D01*
Y1930623D01*
X2109178Y1925790D01*
X2110145Y1921440D01*
X2111595Y1917573D01*
X2113044Y1914190D01*
X2114494Y1911774D01*
X2115944Y1909840D01*
X2116911Y1908874D01*
X2117394Y1908390D01*
X2121744Y1905491D01*
X2127061Y1903557D01*
X2133344Y1902107D01*
X2140110Y1901141D01*
X2145910Y1900658D01*
X2150743Y1900174D01*
X2184574D01*
Y1961071D01*
D02*
G37*
%LPD*%
D30*
X2275000Y2075001D02*
Y2475001D01*
X2375000Y75001D02*
Y2475001D01*
X175000Y275001D02*
Y2475001D01*
X75000Y2375001D02*
X2475000D01*
X75000Y2275001D02*
X2475000D01*
X75000Y2175001D02*
X2475000D01*
X75000Y2075001D02*
X2475000D01*
X75000Y1475001D02*
X2475000D01*
X75000Y1375001D02*
X2475000D01*
X75000Y1275001D02*
X2475000D01*
X75000Y1175001D02*
X2475000D01*
X75000Y1075001D02*
X2475000D01*
X75000Y975001D02*
X2475000D01*
X75000Y875001D02*
X2475000D01*
X75000Y775001D02*
X2475000D01*
X75000Y675001D02*
X2475000D01*
X75000Y475001D02*
X2475000D01*
X75000Y575001D02*
X2475000D01*
X75000Y375001D02*
X2475000D01*
X475000Y175001D02*
X2475000D01*
X75000Y275001D02*
X2475000D01*
X2375000Y1975001D02*
X2475000D01*
X2375000Y1875001D02*
X2475000D01*
X2375000Y1775001D02*
X2475000D01*
X1775000Y1675001D02*
X2475000D01*
X75000Y1975001D02*
X175000D01*
X75000Y1875001D02*
X175000D01*
X75000Y1775001D02*
X175000D01*
X2175000Y2075001D02*
Y2475001D01*
X2075000Y2075001D02*
Y2475001D01*
X1975000Y2075001D02*
Y2475001D01*
X1875000Y2075001D02*
Y2475001D01*
X1775000Y2075001D02*
Y2475001D01*
X1675000Y2075001D02*
Y2475001D01*
X1575000Y2075001D02*
Y2475001D01*
X1475000Y2075001D02*
Y2475001D01*
X1375000Y2075001D02*
Y2475001D01*
X1275000Y2075001D02*
Y2475001D01*
X1175000Y2075001D02*
Y2475001D01*
X1075000Y2075001D02*
Y2475001D01*
X975000Y2075001D02*
Y2475001D01*
X875000Y1975001D02*
Y2475001D01*
X775000Y1975001D02*
Y2475001D01*
X675000Y1975001D02*
Y2475001D01*
X575000Y1975001D02*
Y2475001D01*
X475000Y1975001D02*
Y2475001D01*
X375000Y2075001D02*
Y2475001D01*
X2175000Y75001D02*
Y1675001D01*
X2075000Y75001D02*
Y1675001D01*
X1975000Y75001D02*
Y1675001D01*
X1875000Y75001D02*
Y1675001D01*
X1775000Y75001D02*
Y1675001D01*
X1575000Y75001D02*
Y1575001D01*
X1475000Y75001D02*
Y1575001D01*
X1375000Y75001D02*
Y1675001D01*
X1175000Y75001D02*
Y1675001D01*
X1075000Y75001D02*
Y1675001D01*
X975000Y75001D02*
Y1675001D01*
X875000Y75001D02*
Y1675001D01*
X775000Y75001D02*
Y1675001D01*
X675000Y75001D02*
Y1675001D01*
X575000Y75001D02*
Y1675001D01*
X475000Y75001D02*
Y1675001D01*
X375000Y275001D02*
Y1675001D01*
X2275000Y75001D02*
Y1675001D01*
X75000Y1575001D02*
X2475000D01*
X75000Y1675001D02*
X1375000D01*
X1675000Y75001D02*
Y1575001D01*
X1275000Y75001D02*
Y1675001D01*
X475000Y1975001D02*
X875000D01*
X275000Y2075001D02*
Y2475001D01*
Y75001D02*
Y1675001D01*
X1613000Y2545996D02*
X1610001Y2548995D01*
X1604003D01*
X1601004Y2545996D01*
Y2542997D01*
X1604003Y2539998D01*
X1607002D01*
X1604003D01*
X1601004Y2536999D01*
Y2534000D01*
X1604003Y2531001D01*
X1610001D01*
X1613000Y2534000D01*
X1465004Y2531001D02*
X1477000D01*
X1465004Y2542997D01*
Y2545996D01*
X1468003Y2548995D01*
X1474001D01*
X1477000Y2545996D01*
X815000Y2531001D02*
X809002D01*
X812001D01*
Y2548995D01*
X815000Y2545996D01*
X1227006Y2590001D02*
Y2578005D01*
Y2584003D01*
X1245000D01*
D31*
X85000Y2530000D02*
G03*
X85000Y2530000I-20000J0D01*
G01*
X1295000D02*
G03*
X1295000Y2530000I-20000J0D01*
G01*
X85000Y40000D02*
G03*
X85000Y40000I-20000J0D01*
G01*
X1295000Y40000D02*
G03*
X1295000Y40000I-20000J0D01*
G01*
X2505000Y40000D02*
G03*
X2505000Y40000I-20000J0D01*
G01*
Y2530001D02*
G03*
X2505000Y2530001I-20000J0D01*
G01*
X1406671Y2637001D02*
X1420000D01*
X1406671Y2650330D01*
Y2653662D01*
X1410004Y2656995D01*
X1416668D01*
X1420000Y2653662D01*
X1390010Y2637001D02*
Y2656995D01*
X1400007Y2646998D01*
X1386678D01*
X1380013Y2656995D02*
Y2643665D01*
X1373349Y2637001D01*
X1366684Y2643665D01*
Y2656995D01*
X40000Y105001D02*
X56662D01*
X64992Y113332D01*
X56662Y121662D01*
X40000D01*
X52496D01*
Y105001D01*
X56662Y129993D02*
X44166D01*
X40000Y134158D01*
Y146654D01*
X56662D01*
X40000Y154985D02*
Y167481D01*
X44166Y171646D01*
X48331Y167481D01*
Y159150D01*
X52496Y154985D01*
X56662Y159150D01*
Y171646D01*
X60827Y179977D02*
X64992Y184142D01*
Y192473D01*
X60827Y196638D01*
X56662D01*
X52496Y192473D01*
Y188307D01*
Y192473D01*
X48331Y196638D01*
X44166D01*
X40000Y192473D01*
Y184142D01*
X44166Y179977D01*
X64992Y204969D02*
X40000D01*
Y217465D01*
X44166Y221630D01*
X60827D01*
X64992Y217465D01*
Y204969D01*
Y254953D02*
X40000D01*
Y267448D01*
X44166Y271614D01*
X48331D01*
X52496Y267448D01*
Y254953D01*
Y267448D01*
X56662Y271614D01*
X60827D01*
X64992Y267448D01*
Y254953D01*
X40000Y279944D02*
Y288275D01*
Y284110D01*
X56662D01*
Y279944D01*
X31670Y309102D02*
Y313267D01*
X35835Y317432D01*
X56662D01*
Y304936D01*
X52496Y300771D01*
X44166D01*
X40000Y304936D01*
Y317432D01*
X64992Y325763D02*
X40000D01*
Y338259D01*
X44166Y342424D01*
X48331D01*
X52496Y338259D01*
Y325763D01*
Y338259D01*
X56662Y342424D01*
X60827D01*
X64992Y338259D01*
Y325763D01*
X40000Y363251D02*
Y354920D01*
X44166Y350755D01*
X52496D01*
X56662Y354920D01*
Y363251D01*
X52496Y367416D01*
X48331D01*
Y350755D01*
X64992Y392408D02*
X40000D01*
Y379912D01*
X44166Y375747D01*
X52496D01*
X56662Y379912D01*
Y392408D01*
X64992Y425731D02*
X48331D01*
X40000Y434061D01*
X48331Y442392D01*
X64992D01*
X60827Y450723D02*
X64992Y454888D01*
Y463218D01*
X60827Y467384D01*
X44166D01*
X40000Y463218D01*
Y454888D01*
X44166Y450723D01*
X60827D01*
X40000Y475714D02*
X44166D01*
Y479880D01*
X40000D01*
Y475714D01*
Y496541D02*
Y504872D01*
Y500706D01*
X64992D01*
X60827Y496541D01*
X40000Y517368D02*
X56662D01*
X64992Y525698D01*
X56662Y534029D01*
X40000D01*
X52496D01*
Y517368D01*
X35835Y546525D02*
X40000Y550690D01*
X44166D01*
Y546525D01*
X40000D01*
Y550690D01*
X35835Y546525D01*
X31670Y542360D01*
X64992Y609005D02*
X40000D01*
Y596509D01*
X44166Y592343D01*
X52496D01*
X56662Y596509D01*
Y609005D01*
X40000Y629831D02*
Y621501D01*
X44166Y617335D01*
X52496D01*
X56662Y621501D01*
Y629831D01*
X52496Y633997D01*
X48331D01*
Y617335D01*
X40000Y642327D02*
Y654823D01*
X44166Y658989D01*
X48331Y654823D01*
Y646493D01*
X52496Y642327D01*
X56662Y646493D01*
Y658989D01*
X40000Y667319D02*
Y675650D01*
Y671485D01*
X56662D01*
Y667319D01*
X31670Y696477D02*
Y700642D01*
X35835Y704807D01*
X56662D01*
Y692311D01*
X52496Y688146D01*
X44166D01*
X40000Y692311D01*
Y704807D01*
Y713138D02*
X56662D01*
Y725634D01*
X52496Y729799D01*
X40000D01*
X64992Y763122D02*
X40000D01*
Y775618D01*
X44166Y779783D01*
X48331D01*
X52496D01*
X56662Y775618D01*
Y763122D01*
Y788113D02*
X44166D01*
X40000Y792279D01*
Y804775D01*
X35835D01*
X31670Y800610D01*
Y796444D01*
X40000Y804775D02*
X56662D01*
X60827Y854759D02*
X64992Y850593D01*
Y842263D01*
X60827Y838097D01*
X44166D01*
X40000Y842263D01*
Y850593D01*
X44166Y854759D01*
X64992Y863089D02*
X40000D01*
X52496D01*
X56662Y867255D01*
Y875585D01*
X52496Y879751D01*
X40000D01*
X56662Y888081D02*
X40000D01*
X48331D01*
X52496Y892246D01*
X56662Y896412D01*
Y900577D01*
X40000Y913073D02*
Y921404D01*
Y917238D01*
X56662D01*
Y913073D01*
X40000Y933900D02*
Y946396D01*
X44166Y950561D01*
X48331Y946396D01*
Y938065D01*
X52496Y933900D01*
X56662Y938065D01*
Y950561D01*
X64992Y983884D02*
X40000D01*
Y996379D01*
X44166Y1000545D01*
X48331D01*
X52496Y996379D01*
Y983884D01*
Y996379D01*
X56662Y1000545D01*
X60827D01*
X64992Y996379D01*
Y983884D01*
X56662Y1013041D02*
Y1021372D01*
X52496Y1025537D01*
X40000D01*
Y1013041D01*
X44166Y1008876D01*
X48331Y1013041D01*
Y1025537D01*
X56662Y1033867D02*
X40000D01*
X48331D01*
X52496Y1038033D01*
X56662Y1042198D01*
Y1046363D01*
Y1058859D02*
X40000D01*
X48331D01*
X52496Y1063025D01*
X56662Y1067190D01*
Y1071355D01*
X40000Y1083851D02*
X44166D01*
Y1088017D01*
X40000D01*
Y1083851D01*
X60827Y1146331D02*
X64992Y1142166D01*
Y1133835D01*
X60827Y1129670D01*
X56662D01*
X52496Y1133835D01*
Y1142166D01*
X48331Y1146331D01*
X44166D01*
X40000Y1142166D01*
Y1133835D01*
X44166Y1129670D01*
X40000Y1167158D02*
Y1158827D01*
X44166Y1154662D01*
X52496D01*
X56662Y1158827D01*
Y1167158D01*
X52496Y1171323D01*
X48331D01*
Y1154662D01*
X40000Y1192150D02*
Y1183819D01*
X44166Y1179654D01*
X52496D01*
X56662Y1183819D01*
Y1192150D01*
X52496Y1196315D01*
X48331D01*
Y1179654D01*
X31670Y1237968D02*
Y1242133D01*
X35835Y1246299D01*
X56662D01*
Y1233803D01*
X52496Y1229638D01*
X44166D01*
X40000Y1233803D01*
Y1246299D01*
Y1254629D02*
Y1262960D01*
Y1258795D01*
X56662D01*
Y1254629D01*
X60827Y1279621D02*
X56662D01*
Y1275456D01*
Y1283787D01*
Y1279621D01*
X44166D01*
X40000Y1283787D01*
X64992Y1296283D02*
X40000D01*
X52496D01*
X56662Y1300448D01*
Y1308779D01*
X52496Y1312944D01*
X40000D01*
X56662Y1321275D02*
X44166D01*
X40000Y1325440D01*
Y1337936D01*
X56662D01*
X64992Y1346266D02*
X40000D01*
Y1358762D01*
X44166Y1362928D01*
X48331D01*
X52496D01*
X56662Y1358762D01*
Y1346266D01*
X40000Y1371258D02*
X44166D01*
Y1375424D01*
X40000D01*
Y1371258D01*
X56662Y1408746D02*
Y1396250D01*
X52496Y1392085D01*
X44166D01*
X40000Y1396250D01*
Y1408746D01*
Y1421242D02*
Y1429573D01*
X44166Y1433738D01*
X52496D01*
X56662Y1429573D01*
Y1421242D01*
X52496Y1417077D01*
X44166D01*
X40000Y1421242D01*
Y1442069D02*
X56662D01*
Y1446234D01*
X52496Y1450399D01*
X40000D01*
X52496D01*
X56662Y1454565D01*
X52496Y1458730D01*
X40000D01*
Y1467061D02*
X56662Y1483722D01*
X40000Y1492053D02*
X56662D01*
X64992Y1500383D01*
X56662Y1508714D01*
X40000D01*
X52496D01*
Y1492053D01*
X56662Y1517045D02*
X44166D01*
X40000Y1521210D01*
Y1533706D01*
X56662D01*
X40000Y1542036D02*
Y1554532D01*
X44166Y1558698D01*
X48331Y1554532D01*
Y1546202D01*
X52496Y1542036D01*
X56662Y1546202D01*
Y1558698D01*
X60827Y1567029D02*
X64992Y1571194D01*
Y1579524D01*
X60827Y1583690D01*
X56662D01*
X52496Y1579524D01*
Y1575359D01*
Y1579524D01*
X48331Y1583690D01*
X44166D01*
X40000Y1579524D01*
Y1571194D01*
X44166Y1567029D01*
X64992Y1592020D02*
X40000D01*
Y1604516D01*
X44166Y1608682D01*
X60827D01*
X64992Y1604516D01*
Y1592020D01*
X40000Y1617012D02*
X56662Y1633674D01*
X64992Y1642004D02*
X40000D01*
Y1654500D01*
X44166Y1658665D01*
X48331D01*
X52496Y1654500D01*
Y1642004D01*
Y1654500D01*
X56662Y1658665D01*
X60827D01*
X64992Y1654500D01*
Y1642004D01*
X40000Y1666996D02*
Y1675327D01*
Y1671161D01*
X56662D01*
Y1666996D01*
X31670Y1696153D02*
Y1700319D01*
X35835Y1704484D01*
X56662D01*
Y1691988D01*
X52496Y1687823D01*
X44166D01*
X40000Y1691988D01*
Y1704484D01*
X64992Y1712815D02*
X40000D01*
Y1725311D01*
X44166Y1729476D01*
X48331D01*
X52496Y1725311D01*
Y1712815D01*
Y1725311D01*
X56662Y1729476D01*
X60827D01*
X64992Y1725311D01*
Y1712815D01*
X40000Y1750303D02*
Y1741972D01*
X44166Y1737807D01*
X52496D01*
X56662Y1741972D01*
Y1750303D01*
X52496Y1754468D01*
X48331D01*
Y1737807D01*
X64992Y1779460D02*
X40000D01*
Y1766964D01*
X44166Y1762798D01*
X52496D01*
X56662Y1766964D01*
Y1779460D01*
X40000Y1816948D02*
X60827D01*
X52496D01*
Y1812782D01*
Y1821113D01*
Y1816948D01*
X60827D01*
X64992Y1821113D01*
X40000Y1837774D02*
Y1846105D01*
X44166Y1850270D01*
X52496D01*
X56662Y1846105D01*
Y1837774D01*
X52496Y1833609D01*
X44166D01*
X40000Y1837774D01*
X56662Y1858601D02*
X40000D01*
X48331D01*
X52496Y1862766D01*
X56662Y1866931D01*
Y1871097D01*
X40000Y1908585D02*
Y1916915D01*
Y1912750D01*
X56662D01*
Y1908585D01*
X40000Y1929411D02*
X56662D01*
Y1941907D01*
X52496Y1946073D01*
X40000D01*
Y1958569D02*
X60827D01*
X52496D01*
Y1954403D01*
Y1962734D01*
Y1958569D01*
X60827D01*
X64992Y1962734D01*
X40000Y1979395D02*
Y1987726D01*
X44166Y1991891D01*
X52496D01*
X56662Y1987726D01*
Y1979395D01*
X52496Y1975230D01*
X44166D01*
X40000Y1979395D01*
X56662Y2000222D02*
X40000D01*
X48331D01*
X52496Y2004387D01*
X56662Y2008552D01*
Y2012718D01*
X40000Y2025214D02*
X56662D01*
Y2029379D01*
X52496Y2033544D01*
X40000D01*
X52496D01*
X56662Y2037710D01*
X52496Y2041875D01*
X40000D01*
X56662Y2054371D02*
Y2062702D01*
X52496Y2066867D01*
X40000D01*
Y2054371D01*
X44166Y2050206D01*
X48331Y2054371D01*
Y2066867D01*
X60827Y2079363D02*
X56662D01*
Y2075198D01*
Y2083528D01*
Y2079363D01*
X44166D01*
X40000Y2083528D01*
Y2096024D02*
Y2104355D01*
Y2100190D01*
X56662D01*
Y2096024D01*
X40000Y2121016D02*
Y2129347D01*
X44166Y2133512D01*
X52496D01*
X56662Y2129347D01*
Y2121016D01*
X52496Y2116851D01*
X44166D01*
X40000Y2121016D01*
Y2141843D02*
X56662D01*
Y2154339D01*
X52496Y2158504D01*
X40000D01*
X56662Y2195992D02*
Y2204323D01*
X52496Y2208488D01*
X40000D01*
Y2195992D01*
X44166Y2191827D01*
X48331Y2195992D01*
Y2208488D01*
X40000Y2216819D02*
X56662D01*
Y2229314D01*
X52496Y2233480D01*
X40000D01*
X64992Y2258472D02*
X40000D01*
Y2245976D01*
X44166Y2241810D01*
X52496D01*
X56662Y2245976D01*
Y2258472D01*
X40000Y2291794D02*
Y2304290D01*
X44166Y2308456D01*
X48331Y2304290D01*
Y2295960D01*
X52496Y2291794D01*
X56662Y2295960D01*
Y2308456D01*
X40000Y2320952D02*
Y2329282D01*
X44166Y2333448D01*
X52496D01*
X56662Y2329282D01*
Y2320952D01*
X52496Y2316786D01*
X44166D01*
X40000Y2320952D01*
X56662Y2341778D02*
X44166D01*
X40000Y2345943D01*
Y2358439D01*
X56662D01*
Y2366770D02*
X40000D01*
X48331D01*
X52496Y2370935D01*
X56662Y2375101D01*
Y2379266D01*
Y2408423D02*
Y2395927D01*
X52496Y2391762D01*
X44166D01*
X40000Y2395927D01*
Y2408423D01*
Y2429250D02*
Y2420919D01*
X44166Y2416754D01*
X52496D01*
X56662Y2420919D01*
Y2429250D01*
X52496Y2433415D01*
X48331D01*
Y2416754D01*
X2514992Y145001D02*
X2490000D01*
Y157497D01*
X2494166Y161662D01*
X2498331D01*
X2502496Y157497D01*
Y145001D01*
Y157497D01*
X2506662Y161662D01*
X2510827D01*
X2514992Y157497D01*
Y145001D01*
X2506662Y174158D02*
Y182489D01*
X2502496Y186654D01*
X2490000D01*
Y174158D01*
X2494166Y169993D01*
X2498331Y174158D01*
Y186654D01*
X2490000Y194985D02*
Y207481D01*
X2494166Y211646D01*
X2498331Y207481D01*
Y199150D01*
X2502496Y194985D01*
X2506662Y199150D01*
Y211646D01*
X2490000Y232473D02*
Y224142D01*
X2494166Y219977D01*
X2502496D01*
X2506662Y224142D01*
Y232473D01*
X2502496Y236638D01*
X2498331D01*
Y219977D01*
X2514992Y261630D02*
X2490000D01*
Y249134D01*
X2494166Y244969D01*
X2502496D01*
X2506662Y249134D01*
Y261630D01*
X2490000Y299118D02*
Y307449D01*
X2494166Y311614D01*
X2502496D01*
X2506662Y307449D01*
Y299118D01*
X2502496Y294953D01*
X2494166D01*
X2490000Y299118D01*
Y319944D02*
X2506662D01*
Y332440D01*
X2502496Y336606D01*
X2490000D01*
X2514992Y386590D02*
X2490000D01*
Y374094D01*
X2494166Y369928D01*
X2502496D01*
X2506662Y374094D01*
Y386590D01*
X2490000Y407416D02*
Y399086D01*
X2494166Y394920D01*
X2502496D01*
X2506662Y399086D01*
Y407416D01*
X2502496Y411581D01*
X2498331D01*
Y394920D01*
X2490000Y419912D02*
Y432408D01*
X2494166Y436573D01*
X2498331Y432408D01*
Y424077D01*
X2502496Y419912D01*
X2506662Y424077D01*
Y436573D01*
X2490000Y444904D02*
Y453235D01*
Y449069D01*
X2506662D01*
Y444904D01*
X2481670Y474061D02*
Y478227D01*
X2485835Y482392D01*
X2506662D01*
Y469896D01*
X2502496Y465731D01*
X2494166D01*
X2490000Y469896D01*
Y482392D01*
Y490723D02*
X2506662D01*
Y503218D01*
X2502496Y507384D01*
X2490000D01*
Y515714D02*
Y528210D01*
X2494166Y532376D01*
X2498331Y528210D01*
Y519880D01*
X2502496Y515714D01*
X2506662Y519880D01*
Y532376D01*
X2514992Y565698D02*
X2490000D01*
Y578194D01*
X2494166Y582360D01*
X2498331D01*
X2502496D01*
X2506662Y578194D01*
Y565698D01*
Y590690D02*
X2494166D01*
X2490000Y594856D01*
Y607351D01*
X2485835D01*
X2481670Y603186D01*
Y599021D01*
X2490000Y607351D02*
X2506662D01*
X2514992Y657335D02*
Y649005D01*
Y653170D01*
X2494166D01*
X2490000Y649005D01*
Y644839D01*
X2494166Y640674D01*
X2490000Y669831D02*
Y678162D01*
X2494166Y682327D01*
X2502496D01*
X2506662Y678162D01*
Y669831D01*
X2502496Y665666D01*
X2494166D01*
X2490000Y669831D01*
Y690658D02*
Y703154D01*
X2494166Y707319D01*
X2498331Y703154D01*
Y694823D01*
X2502496Y690658D01*
X2506662Y694823D01*
Y707319D01*
X2490000Y728146D02*
Y719815D01*
X2494166Y715650D01*
X2502496D01*
X2506662Y719815D01*
Y728146D01*
X2502496Y732311D01*
X2498331D01*
Y715650D01*
X2490000Y744807D02*
X2510827D01*
X2502496D01*
Y740642D01*
Y748972D01*
Y744807D01*
X2510827D01*
X2514992Y748972D01*
X2490000Y786460D02*
X2514992D01*
Y798956D01*
X2510827Y803122D01*
X2502496D01*
X2498331Y798956D01*
Y786460D01*
X2506662Y811452D02*
X2490000D01*
X2498331D01*
X2502496Y815618D01*
X2506662Y819783D01*
Y823948D01*
Y836444D02*
X2494166D01*
X2490000Y840610D01*
Y853105D01*
X2506662D01*
X2490000Y861436D02*
Y873932D01*
X2494166Y878097D01*
X2498331Y873932D01*
Y865601D01*
X2502496Y861436D01*
X2506662Y865601D01*
Y878097D01*
Y890593D02*
Y898924D01*
X2502496Y903089D01*
X2490000D01*
Y890593D01*
X2494166Y886428D01*
X2498331Y890593D01*
Y903089D01*
X2485835Y915585D02*
X2490000Y919751D01*
X2494166D01*
Y915585D01*
X2490000D01*
Y919751D01*
X2485835Y915585D01*
X2481670Y911420D01*
X2490000Y961404D02*
X2514992D01*
Y973900D01*
X2510827Y978065D01*
X2502496D01*
X2498331Y973900D01*
Y961404D01*
Y969734D02*
X2490000Y978065D01*
Y998892D02*
Y990561D01*
X2494166Y986396D01*
X2502496D01*
X2506662Y990561D01*
Y998892D01*
X2502496Y1003057D01*
X2498331D01*
Y986396D01*
X2481670Y1011388D02*
X2506662D01*
Y1023884D01*
X2502496Y1028049D01*
X2494166D01*
X2490000Y1023884D01*
Y1011388D01*
Y1036380D02*
X2514992D01*
Y1048876D01*
X2510827Y1053041D01*
X2502496D01*
X2498331Y1048876D01*
Y1036380D01*
Y1044710D02*
X2490000Y1053041D01*
X2506662Y1065537D02*
Y1073867D01*
X2502496Y1078033D01*
X2490000D01*
Y1065537D01*
X2494166Y1061372D01*
X2498331Y1065537D01*
Y1078033D01*
X2481670Y1086363D02*
X2506662D01*
Y1098859D01*
X2502496Y1103025D01*
X2494166D01*
X2490000Y1098859D01*
Y1086363D01*
X2514992Y1136347D02*
X2490000D01*
Y1148843D01*
X2494166Y1153008D01*
X2510827D01*
X2514992Y1148843D01*
Y1136347D01*
X2490000Y1161339D02*
Y1169670D01*
Y1165505D01*
X2506662D01*
Y1161339D01*
X2490000Y1182166D02*
Y1194662D01*
X2494166Y1198827D01*
X2498331Y1194662D01*
Y1186331D01*
X2502496Y1182166D01*
X2506662Y1186331D01*
Y1198827D01*
Y1223819D02*
Y1211323D01*
X2502496Y1207158D01*
X2494166D01*
X2490000Y1211323D01*
Y1223819D01*
Y1236315D02*
Y1244646D01*
X2494166Y1248811D01*
X2502496D01*
X2506662Y1244646D01*
Y1236315D01*
X2502496Y1232150D01*
X2494166D01*
X2490000Y1236315D01*
X2506662Y1257142D02*
X2494166D01*
X2490000Y1261307D01*
Y1273803D01*
X2506662D01*
X2490000Y1282133D02*
X2506662D01*
Y1294629D01*
X2502496Y1298795D01*
X2490000D01*
X2510827Y1311291D02*
X2506662D01*
Y1307125D01*
Y1315456D01*
Y1311291D01*
X2494166D01*
X2490000Y1315456D01*
X2485835Y1332117D02*
X2490000Y1336283D01*
X2494166D01*
Y1332117D01*
X2490000D01*
Y1336283D01*
X2485835Y1332117D01*
X2481670Y1327952D01*
X2506662Y1382101D02*
Y1390432D01*
X2502496Y1394597D01*
X2490000D01*
Y1382101D01*
X2494166Y1377936D01*
X2498331Y1382101D01*
Y1394597D01*
X2490000Y1402928D02*
X2506662D01*
Y1415424D01*
X2502496Y1419589D01*
X2490000D01*
X2514992Y1444581D02*
X2490000D01*
Y1432085D01*
X2494166Y1427920D01*
X2502496D01*
X2506662Y1432085D01*
Y1444581D01*
X2490000Y1482069D02*
Y1490399D01*
X2494166Y1494565D01*
X2502496D01*
X2506662Y1490399D01*
Y1482069D01*
X2502496Y1477903D01*
X2494166D01*
X2490000Y1482069D01*
X2510827Y1507061D02*
X2506662D01*
Y1502896D01*
Y1511226D01*
Y1507061D01*
X2494166D01*
X2490000Y1511226D01*
X2514992Y1523722D02*
X2490000D01*
X2502496D01*
X2506662Y1527887D01*
Y1536218D01*
X2502496Y1540383D01*
X2490000D01*
Y1561210D02*
Y1552879D01*
X2494166Y1548714D01*
X2502496D01*
X2506662Y1552879D01*
Y1561210D01*
X2502496Y1565375D01*
X2498331D01*
Y1548714D01*
X2506662Y1573706D02*
X2490000D01*
X2498331D01*
X2502496Y1577871D01*
X2506662Y1582037D01*
Y1586202D01*
X2490000Y1598698D02*
Y1611194D01*
X2494166Y1615359D01*
X2498331Y1611194D01*
Y1602863D01*
X2502496Y1598698D01*
X2506662Y1602863D01*
Y1615359D01*
X2490000Y1623690D02*
X2494166D01*
Y1627855D01*
X2490000D01*
Y1623690D01*
X2510827Y1686170D02*
X2514992Y1682004D01*
Y1673674D01*
X2510827Y1669508D01*
X2506662D01*
X2502496Y1673674D01*
Y1682004D01*
X2498331Y1686170D01*
X2494166D01*
X2490000Y1682004D01*
Y1673674D01*
X2494166Y1669508D01*
X2490000Y1706996D02*
Y1698665D01*
X2494166Y1694500D01*
X2502496D01*
X2506662Y1698665D01*
Y1706996D01*
X2502496Y1711161D01*
X2498331D01*
Y1694500D01*
X2490000Y1731988D02*
Y1723658D01*
X2494166Y1719492D01*
X2502496D01*
X2506662Y1723658D01*
Y1731988D01*
X2502496Y1736153D01*
X2498331D01*
Y1719492D01*
X2506662Y1769476D02*
X2490000D01*
X2498331D01*
X2502496Y1773641D01*
X2506662Y1777807D01*
Y1781972D01*
X2490000Y1806964D02*
Y1798633D01*
X2494166Y1794468D01*
X2502496D01*
X2506662Y1798633D01*
Y1806964D01*
X2502496Y1811129D01*
X2498331D01*
Y1794468D01*
X2481670Y1819460D02*
X2506662D01*
Y1831956D01*
X2502496Y1836121D01*
X2494166D01*
X2490000Y1831956D01*
Y1819460D01*
X2506662Y1844452D02*
X2490000D01*
X2498331D01*
X2502496Y1848617D01*
X2506662Y1852782D01*
Y1856948D01*
Y1873609D02*
Y1881940D01*
X2502496Y1886105D01*
X2490000D01*
Y1873609D01*
X2494166Y1869444D01*
X2498331Y1873609D01*
Y1886105D01*
X2481670Y1894436D02*
X2506662D01*
Y1906932D01*
X2502496Y1911097D01*
X2494166D01*
X2490000Y1906932D01*
Y1894436D01*
Y1919427D02*
X2494166D01*
Y1923593D01*
X2490000D01*
Y1919427D01*
Y1944420D02*
Y1952750D01*
X2494166Y1956915D01*
X2502496D01*
X2506662Y1952750D01*
Y1944420D01*
X2502496Y1940254D01*
X2494166D01*
X2490000Y1944420D01*
X2506662Y1965246D02*
X2490000D01*
X2498331D01*
X2502496Y1969411D01*
X2506662Y1973577D01*
Y1977742D01*
X2481670Y1998569D02*
Y2002734D01*
X2485835Y2006899D01*
X2506662D01*
Y1994403D01*
X2502496Y1990238D01*
X2494166D01*
X2490000Y1994403D01*
Y2006899D01*
Y2015230D02*
X2506662Y2031891D01*
Y2040222D02*
X2494166D01*
X2490000Y2044387D01*
X2494166Y2048553D01*
X2490000Y2052718D01*
X2494166Y2056883D01*
X2506662D01*
X2490000Y2065214D02*
Y2073544D01*
Y2069379D01*
X2506662D01*
Y2065214D01*
X2490000Y2086040D02*
X2514992D01*
X2498331D02*
X2506662Y2098536D01*
X2498331Y2086040D02*
X2490000Y2098536D01*
Y2111032D02*
Y2119363D01*
Y2115198D01*
X2506662D01*
Y2111032D01*
X2490000Y2131859D02*
X2506662Y2148520D01*
X2490000Y2156851D02*
X2514992D01*
Y2169347D01*
X2510827Y2173512D01*
X2502496D01*
X2498331Y2169347D01*
Y2156851D01*
X2510827Y2198504D02*
X2514992Y2194339D01*
Y2186008D01*
X2510827Y2181843D01*
X2494166D01*
X2490000Y2186008D01*
Y2194339D01*
X2494166Y2198504D01*
X2514992Y2206835D02*
X2490000D01*
Y2219331D01*
X2494166Y2223496D01*
X2498331D01*
X2502496Y2219331D01*
Y2206835D01*
Y2219331D01*
X2506662Y2223496D01*
X2510827D01*
X2514992Y2219331D01*
Y2206835D01*
X2485835Y2231827D02*
Y2248488D01*
X2514992Y2256819D02*
X2490000D01*
X2502496D01*
Y2273480D01*
X2514992D01*
X2490000D01*
Y2294306D02*
Y2285976D01*
X2494166Y2281810D01*
X2502496D01*
X2506662Y2285976D01*
Y2294306D01*
X2502496Y2298472D01*
X2498331D01*
Y2281810D01*
X2506662Y2310968D02*
Y2319298D01*
X2502496Y2323464D01*
X2490000D01*
Y2310968D01*
X2494166Y2306802D01*
X2498331Y2310968D01*
Y2323464D01*
X2510827Y2335960D02*
X2506662D01*
Y2331794D01*
Y2340125D01*
Y2335960D01*
X2494166D01*
X2490000Y2340125D01*
X2514992Y2352621D02*
X2490000D01*
Y2365117D01*
X2494166Y2369282D01*
X2498331D01*
X2502496D01*
X2506662Y2365117D01*
Y2352621D01*
X2490000Y2390109D02*
Y2381778D01*
X2494166Y2377613D01*
X2502496D01*
X2506662Y2381778D01*
Y2390109D01*
X2502496Y2394274D01*
X2498331D01*
Y2377613D01*
X2514992Y2419266D02*
X2490000D01*
Y2406770D01*
X2494166Y2402605D01*
X2502496D01*
X2506662Y2406770D01*
Y2419266D01*
X1178000Y2637001D02*
X1171336D01*
X1174668D01*
Y2656995D01*
X1178000Y2653662D01*
X1148010Y2637001D02*
X1161339D01*
X1148010Y2650330D01*
Y2653662D01*
X1151342Y2656995D01*
X1158007D01*
X1161339Y2653662D01*
X1141345Y2656995D02*
Y2643665D01*
X1134681Y2637001D01*
X1128016Y2643665D01*
Y2656995D01*
D32*
X94000Y2530000D02*
G03*
X94000Y2530000I-29000J0D01*
G01*
X1304000D02*
G03*
X1304000Y2530000I-29000J0D01*
G01*
X94000Y40000D02*
G03*
X94000Y40000I-29000J0D01*
G01*
X1304000Y40000D02*
G03*
X1304000Y40000I-29000J0D01*
G01*
X2514000Y40000D02*
G03*
X2514000Y40000I-29000J0D01*
G01*
Y2530001D02*
G03*
X2514000Y2530001I-29000J0D01*
G01*
D33*
X2475000Y75000D02*
Y2475000D01*
X75001Y75000D02*
X2475000D01*
X75001D02*
Y2475000D01*
X2475000D01*
D34*
X1263748Y2662891D02*
X1267558Y2659081D01*
Y2648921D02*
Y2659081D01*
X1263748Y2645111D02*
X1267558Y2648921D01*
X1229585Y2645111D02*
X1239745D01*
X1257525D02*
X1263748D01*
X1229585Y2662891D02*
X1239745D01*
X1229585Y2645111D02*
Y2662891D01*
X1257525D02*
X1263748D01*
X1266542Y2647905D02*
Y2660097D01*
X1300190Y2636651D02*
X1307810D01*
X1300190Y2649351D02*
X1307810D01*
X1228442Y2626921D02*
X1232252Y2623111D01*
X1228442Y2626921D02*
Y2637081D01*
X1232252Y2640891D01*
X1256255D02*
X1266415D01*
X1232252D02*
X1238475D01*
X1256255Y2623111D02*
X1266415D01*
Y2640891D01*
X1232252Y2623111D02*
X1238475D01*
X1229458Y2625905D02*
Y2638097D01*
D44*
X1280000Y1275001D02*
G03*
X1280000Y1275001I-5000J0D01*
G01*
M02*
