G04 Layer_Physical_Order=1*
G04 Layer_Color=255*
%FSLAX44Y44*%
%MOMM*%
G71*
G01*
G75*
G04:AMPARAMS|DCode=10|XSize=1mm|YSize=0.9mm|CornerRadius=0.1125mm|HoleSize=0mm|Usage=FLASHONLY|Rotation=90.000|XOffset=0mm|YOffset=0mm|HoleType=Round|Shape=RoundedRectangle|*
%AMROUNDEDRECTD10*
21,1,1.0000,0.6750,0,0,90.0*
21,1,0.7750,0.9000,0,0,90.0*
1,1,0.2250,0.3375,0.3875*
1,1,0.2250,0.3375,-0.3875*
1,1,0.2250,-0.3375,-0.3875*
1,1,0.2250,-0.3375,0.3875*
%
%ADD10ROUNDEDRECTD10*%
%ADD11C,1.3000*%
%ADD12C,1.4500*%
%ADD13C,1.5000*%
%ADD14C,3.0000*%
%ADD15C,4.0000*%
%ADD16C,2.6000*%
%ADD17C,0.2500*%
%ADD18C,2.0000*%
%ADD19R,15.0000X3.0000*%
%ADD20C,1.5000*%
%ADD21R,1.5000X1.5000*%
%ADD22C,1.0000*%
%ADD23C,2.0000*%
%ADD24C,3.5000*%
%ADD25C,0.6000*%
D10*
X1283500Y1275000D02*
D03*
X1266500D02*
D03*
D11*
X662500Y2473750D02*
X1887500D01*
X2430000D01*
X102500Y2456250D02*
X662500D01*
X1887500Y2438750D02*
X2465000D01*
X662500D02*
X1887500D01*
X662500Y2456250D02*
X1887500D01*
X85000Y2386250D02*
Y2403750D01*
X662500D01*
X1887500D02*
X2465000D01*
X662500D02*
X1887500D01*
X2465000D02*
Y2421250D01*
X1887500D02*
X2465000D01*
X662500D02*
X1887500D01*
X85000Y2351250D02*
Y2368750D01*
Y2386250D02*
X662500D01*
X85000Y2368750D02*
X662500D01*
X1887500D02*
X2465000D01*
X662500D02*
X1887500D01*
X2465000D02*
Y2386250D01*
X1887500D02*
X2465000D01*
X662500D02*
X1887500D01*
X85000Y2316250D02*
Y2333750D01*
Y2351250D02*
X662500D01*
X85000Y2333750D02*
X662500D01*
X1887500D02*
X2465000D01*
X662500D02*
X1887500D01*
X2465000D02*
Y2351250D01*
X1887500D02*
X2465000D01*
X662500D02*
X1887500D01*
X85000Y2281250D02*
Y2298750D01*
Y2316250D02*
X662500D01*
X85000Y2298750D02*
X662500D01*
X1887500D02*
X2465000D01*
X662500D02*
X1887500D01*
X2465000D02*
Y2316250D01*
X1887500D02*
X2465000D01*
X662500D02*
X1887500D01*
X85000Y2246250D02*
Y2263750D01*
Y2281250D02*
X662500D01*
X85000Y2263750D02*
X662500D01*
X1887500D02*
X2465000D01*
X662500D02*
X1887500D01*
X2465000D02*
Y2281250D01*
X1887500D02*
X2465000D01*
X662500D02*
X1887500D01*
X85000Y2211250D02*
Y2228750D01*
Y2246250D02*
X662500D01*
X85000Y2228750D02*
X662500D01*
X1887500D02*
X2465000D01*
X662500D02*
X1887500D01*
X2465000D02*
Y2246250D01*
X1887500D02*
X2465000D01*
X662500D02*
X1887500D01*
X662500Y1966250D02*
X1887500D01*
X2465000D01*
Y1948750D02*
Y1966250D01*
X662500Y1948750D02*
X1887500D01*
X2465000D01*
X85000D02*
X662500D01*
X85000Y1966250D02*
X662500D01*
X85000Y1931250D02*
Y1948750D01*
X662500Y2001250D02*
X1887500D01*
X2465000D01*
Y1983750D02*
Y2001250D01*
X662500Y1983750D02*
X1887500D01*
X2465000D01*
X85000D02*
X662500D01*
X85000Y2001250D02*
X662500D01*
X85000Y1966250D02*
Y1983750D01*
X662500Y2036250D02*
X1887500D01*
X2465000D01*
Y2018750D02*
Y2036250D01*
X662500Y2018750D02*
X1887500D01*
X2465000D01*
X85000D02*
X662500D01*
X85000Y2036250D02*
X662500D01*
X85000Y2001250D02*
Y2018750D01*
X662500Y2071250D02*
X1887500D01*
X2465000D01*
Y2053750D02*
Y2071250D01*
X662500Y2053750D02*
X1887500D01*
X2465000D01*
X85000D02*
X662500D01*
X85000Y2071250D02*
X662500D01*
X85000Y2036250D02*
Y2053750D01*
X662500Y2106250D02*
X1887500D01*
X2465000D01*
Y2088750D02*
Y2106250D01*
X662500Y2088750D02*
X1887500D01*
X2465000D01*
X85000D02*
X662500D01*
X85000Y2106250D02*
X662500D01*
X85000Y2071250D02*
Y2088750D01*
X662500Y2141250D02*
X1887500D01*
X2465000D01*
Y2123750D02*
Y2141250D01*
X662500Y2123750D02*
X1887500D01*
X2465000D01*
X85000D02*
X662500D01*
X85000Y2141250D02*
X662500D01*
X85000Y2106250D02*
Y2123750D01*
X662500Y2176250D02*
X1887500D01*
X2465000D01*
Y2158750D02*
Y2176250D01*
X662500Y2158750D02*
X1887500D01*
X2465000D01*
X85000D02*
X662500D01*
X85000Y2176250D02*
X662500D01*
X85000Y2141250D02*
Y2158750D01*
Y2176250D02*
Y2193750D01*
Y2211250D02*
X662500D01*
X85000Y2193750D02*
X662500D01*
X1887500D02*
X2465000D01*
X662500D02*
X1887500D01*
X2465000D02*
Y2211250D01*
X1887500D02*
X2465000D01*
X662500D02*
X1887500D01*
Y1703750D02*
X2465000D01*
Y1686250D02*
Y1703750D01*
X1887500Y1686250D02*
X2465000D01*
X85000D02*
X662500D01*
X85000Y1703750D02*
X662500D01*
X85000Y1668750D02*
Y1686250D01*
X1887500Y1738750D02*
X2465000D01*
Y1721250D02*
Y1738750D01*
X1887500Y1721250D02*
X2465000D01*
X85000D02*
X662500D01*
X85000Y1738750D02*
X662500D01*
X85000Y1703750D02*
Y1721250D01*
X1887500Y1773750D02*
X2465000D01*
Y1756250D02*
Y1773750D01*
X1887500Y1756250D02*
X2465000D01*
X85000D02*
X662500D01*
X85000Y1773750D02*
X662500D01*
X85000Y1738750D02*
Y1756250D01*
X1887500Y1808750D02*
X2465000D01*
Y1791250D02*
Y1808750D01*
X1887500Y1791250D02*
X2465000D01*
X85000D02*
X662500D01*
X85000Y1808750D02*
X662500D01*
X85000Y1773750D02*
Y1791250D01*
X1887500Y1843750D02*
X2465000D01*
Y1826250D02*
Y1843750D01*
X1887500Y1826250D02*
X2465000D01*
X85000D02*
X662500D01*
X85000Y1843750D02*
X662500D01*
X85000Y1808750D02*
Y1826250D01*
X1887500Y1878750D02*
X2465000D01*
Y1861250D02*
Y1878750D01*
X1887500Y1861250D02*
X2465000D01*
X85000D02*
X662500D01*
X85000Y1878750D02*
X662500D01*
X85000Y1843750D02*
Y1861250D01*
X1887500Y1896250D02*
X2465000D01*
X85000D02*
X662500D01*
X85000Y1878750D02*
Y1896250D01*
Y1931250D02*
X662500D01*
X85000Y1913750D02*
X662500D01*
X1887500D02*
X2465000D01*
X662500D02*
X1887500D01*
X2465000D02*
Y1931250D01*
X1887500D02*
X2465000D01*
X662500D02*
X1887500D01*
Y1423750D02*
X2465000D01*
Y1406250D02*
Y1423750D01*
X1887500Y1406250D02*
X2465000D01*
X85000D02*
X662500D01*
X85000Y1423750D02*
X662500D01*
X85000Y1388750D02*
Y1406250D01*
X1887500Y1458750D02*
X2465000D01*
Y1441250D02*
Y1458750D01*
X1887500Y1441250D02*
X2465000D01*
X85000D02*
X662500D01*
X85000Y1458750D02*
X662500D01*
X85000Y1423750D02*
Y1441250D01*
X1887500Y1493750D02*
X2465000D01*
Y1476250D02*
Y1493750D01*
X1887500Y1476250D02*
X2465000D01*
X85000D02*
X662500D01*
X85000Y1493750D02*
X662500D01*
X85000Y1458750D02*
Y1476250D01*
X1887500Y1528750D02*
X2465000D01*
Y1511250D02*
Y1528750D01*
X1887500Y1511250D02*
X2465000D01*
X85000D02*
X662500D01*
X85000Y1528750D02*
X662500D01*
X85000Y1493750D02*
Y1511250D01*
X1887500Y1563750D02*
X2465000D01*
Y1546250D02*
Y1563750D01*
X1887500Y1546250D02*
X2465000D01*
X85000D02*
X662500D01*
X85000Y1563750D02*
X662500D01*
X85000Y1528750D02*
Y1546250D01*
X1887500Y1598750D02*
X2465000D01*
Y1581250D02*
Y1598750D01*
X1887500Y1581250D02*
X2465000D01*
X85000D02*
X662500D01*
X85000Y1598750D02*
X662500D01*
X85000Y1563750D02*
Y1581250D01*
X1887500Y1633750D02*
X2465000D01*
Y1616250D02*
Y1633750D01*
X1887500Y1616250D02*
X2465000D01*
X85000D02*
X662500D01*
X85000Y1633750D02*
X662500D01*
X85000Y1598750D02*
Y1616250D01*
Y1633750D02*
Y1651250D01*
Y1668750D02*
X662500D01*
X85000Y1651250D02*
X662500D01*
X1887500D02*
X2465000D01*
Y1668750D01*
X1887500D02*
X2465000D01*
X1887500Y1161250D02*
X2465000D01*
Y1143750D02*
Y1161250D01*
X1887500Y1143750D02*
X2465000D01*
X85000D02*
X662500D01*
X85000Y1161250D02*
X662500D01*
X85000Y1126250D02*
Y1143750D01*
X1887500Y1196250D02*
X2465000D01*
Y1178750D02*
Y1196250D01*
X1887500Y1178750D02*
X2465000D01*
X85000D02*
X662500D01*
X85000Y1196250D02*
X662500D01*
X85000Y1161250D02*
Y1178750D01*
X1887500Y1231250D02*
X2465000D01*
Y1213750D02*
Y1231250D01*
X1887500Y1213750D02*
X2465000D01*
X85000D02*
X662500D01*
X85000Y1231250D02*
X662500D01*
X85000Y1196250D02*
Y1213750D01*
X1887500Y1266250D02*
X2465000D01*
Y1248750D02*
Y1266250D01*
X1887500Y1248750D02*
X2465000D01*
X85000D02*
X662500D01*
X85000Y1266250D02*
X662500D01*
X85000Y1231250D02*
Y1248750D01*
X1887500Y1283750D02*
X2517500D01*
X85000D02*
X662500D01*
X85000Y1266250D02*
Y1283750D01*
X1887500Y1318750D02*
X2465000D01*
Y1301250D02*
Y1318750D01*
X1887500Y1301250D02*
X2465000D01*
X85000D02*
X662500D01*
X85000Y1318750D02*
X662500D01*
X1887500Y1353750D02*
X2465000D01*
Y1336250D02*
Y1353750D01*
X1887500Y1336250D02*
X2465000D01*
X85000D02*
X662500D01*
X85000Y1353750D02*
X662500D01*
X85000Y1318750D02*
Y1336250D01*
Y1353750D02*
Y1371250D01*
Y1388750D02*
X662500D01*
X85000Y1371250D02*
X662500D01*
X1887500D02*
X2465000D01*
Y1388750D01*
X1887500D02*
X2465000D01*
X1887500Y881250D02*
X2465000D01*
Y863750D02*
Y881250D01*
X1887500Y863750D02*
X2465000D01*
X85000D02*
X662500D01*
X85000Y881250D02*
X662500D01*
X85000Y846250D02*
Y863750D01*
X1887500Y916250D02*
X2465000D01*
Y898750D02*
Y916250D01*
X1887500Y898750D02*
X2465000D01*
X85000D02*
X662500D01*
X85000Y916250D02*
X662500D01*
X85000Y881250D02*
Y898750D01*
X1887500Y951250D02*
X2465000D01*
Y933750D02*
Y951250D01*
X1887500Y933750D02*
X2465000D01*
X85000D02*
X662500D01*
X85000Y951250D02*
X662500D01*
X85000Y916250D02*
Y933750D01*
X1887500Y986250D02*
X2465000D01*
Y968750D02*
Y986250D01*
X1887500Y968750D02*
X2465000D01*
X85000D02*
X662500D01*
X85000Y986250D02*
X662500D01*
X85000Y951250D02*
Y968750D01*
X1887500Y1021250D02*
X2465000D01*
Y1003750D02*
Y1021250D01*
X1887500Y1003750D02*
X2465000D01*
X85000D02*
X662500D01*
X85000Y1021250D02*
X662500D01*
X85000Y986250D02*
Y1003750D01*
X1887500Y1056250D02*
X2465000D01*
Y1038750D02*
Y1056250D01*
X1887500Y1038750D02*
X2465000D01*
X85000D02*
X662500D01*
X85000Y1056250D02*
X662500D01*
X85000Y1021250D02*
Y1038750D01*
X1887500Y1091250D02*
X2465000D01*
Y1073750D02*
Y1091250D01*
X1887500Y1073750D02*
X2465000D01*
X85000D02*
X662500D01*
X85000Y1091250D02*
X662500D01*
X85000Y1056250D02*
Y1073750D01*
Y1091250D02*
Y1108750D01*
Y1126250D02*
X662500D01*
X85000Y1108750D02*
X662500D01*
X1887500D02*
X2465000D01*
Y1126250D01*
X1887500D02*
X2465000D01*
X662500Y618750D02*
X1887500D01*
X2465000D01*
Y601250D02*
Y618750D01*
X662500Y601250D02*
X1887500D01*
X2465000D01*
X85000D02*
X662500D01*
X85000Y618750D02*
X662500D01*
X85000Y583750D02*
Y601250D01*
X662500Y653750D02*
X1887500D01*
X2465000D01*
Y636250D02*
Y653750D01*
X662500Y636250D02*
X1887500D01*
X2465000D01*
X85000D02*
X662500D01*
X85000Y653750D02*
X662500D01*
X85000Y618750D02*
Y636250D01*
X662500Y671250D02*
X1887500D01*
X2517500D01*
X85000D02*
X662500D01*
X85000Y653750D02*
Y671250D01*
X662500Y706250D02*
X1887500D01*
X2465000D01*
Y688750D02*
Y706250D01*
X662500Y688750D02*
X1887500D01*
X2465000D01*
X85000D02*
X662500D01*
X85000Y706250D02*
X662500D01*
X1887500Y741250D02*
X2465000D01*
Y723750D02*
Y741250D01*
X1887500Y723750D02*
X2465000D01*
X85000D02*
X662500D01*
X85000Y741250D02*
X662500D01*
X85000Y706250D02*
Y723750D01*
X1887500Y776250D02*
X2465000D01*
Y758750D02*
Y776250D01*
X1887500Y758750D02*
X2465000D01*
X85000D02*
X662500D01*
X85000Y776250D02*
X662500D01*
X85000Y741250D02*
Y758750D01*
X1887500Y811250D02*
X2465000D01*
Y793750D02*
Y811250D01*
X1887500Y793750D02*
X2465000D01*
X85000D02*
X662500D01*
X85000Y811250D02*
X662500D01*
X85000Y776250D02*
Y793750D01*
Y811250D02*
Y828750D01*
Y846250D02*
X662500D01*
X85000Y828750D02*
X662500D01*
X1887500D02*
X2465000D01*
Y846250D01*
X1887500D02*
X2465000D01*
X662500Y338750D02*
X1887500D01*
X2465000D01*
Y321250D02*
Y338750D01*
X662500Y321250D02*
X1887500D01*
X2465000D01*
X85000D02*
X662500D01*
X85000Y338750D02*
X662500D01*
X85000Y303750D02*
Y321250D01*
X662500Y373750D02*
X1887500D01*
X2465000D01*
Y356250D02*
Y373750D01*
X662500Y356250D02*
X1887500D01*
X2465000D01*
X85000D02*
X662500D01*
X85000Y373750D02*
X662500D01*
X85000Y338750D02*
Y356250D01*
X662500Y408750D02*
X1887500D01*
X2465000D01*
Y391250D02*
Y408750D01*
X662500Y391250D02*
X1887500D01*
X2465000D01*
X85000D02*
X662500D01*
X85000Y408750D02*
X662500D01*
X85000Y373750D02*
Y391250D01*
X662500Y443750D02*
X1887500D01*
X2465000D01*
Y426250D02*
Y443750D01*
X662500Y426250D02*
X1887500D01*
X2465000D01*
X85000D02*
X662500D01*
X85000Y443750D02*
X662500D01*
X85000Y408750D02*
Y426250D01*
X662500Y478750D02*
X1887500D01*
X2465000D01*
Y461250D02*
Y478750D01*
X662500Y461250D02*
X1887500D01*
X2465000D01*
X85000D02*
X662500D01*
X85000Y478750D02*
X662500D01*
X85000Y443750D02*
Y461250D01*
X662500Y513750D02*
X1887500D01*
X2465000D01*
Y496250D02*
Y513750D01*
X662500Y496250D02*
X1887500D01*
X2465000D01*
X85000D02*
X662500D01*
X85000Y513750D02*
X662500D01*
X85000Y478750D02*
Y496250D01*
X662500Y548750D02*
X1887500D01*
X2465000D01*
Y531250D02*
Y548750D01*
X662500Y531250D02*
X1887500D01*
X2465000D01*
X85000D02*
X662500D01*
X85000Y548750D02*
X662500D01*
X85000Y513750D02*
Y531250D01*
Y548750D02*
Y566250D01*
Y583750D02*
X662500D01*
X85000Y566250D02*
X662500D01*
X1887500D02*
X2465000D01*
X662500D02*
X1887500D01*
X2465000D02*
Y583750D01*
X1887500D02*
X2465000D01*
X662500D02*
X1887500D01*
X662500Y163750D02*
X1887500D01*
X2465000D01*
X662500Y198750D02*
X1887500D01*
X2465000D01*
Y181250D02*
Y198750D01*
X662500Y181250D02*
X1887500D01*
X2465000D01*
X85000D02*
X662500D01*
X85000Y198750D02*
X662500D01*
Y233750D02*
X1887500D01*
X2465000D01*
Y216250D02*
Y233750D01*
X662500Y216250D02*
X1887500D01*
X2465000D01*
X85000D02*
X662500D01*
X85000Y198750D02*
Y216250D01*
X662500Y268750D02*
X1887500D01*
X2465000D01*
Y251250D02*
Y268750D01*
X662500Y251250D02*
X1887500D01*
X2465000D01*
X85000D02*
X662500D01*
X85000Y268750D02*
X662500D01*
X85000D02*
Y286250D01*
Y303750D02*
X662500D01*
X85000Y286250D02*
X662500D01*
X1887500D02*
X2465000D01*
X662500D02*
X1887500D01*
X2465000D02*
Y303750D01*
X1887500D02*
X2465000D01*
X662500D02*
X1887500D01*
X120000Y2473750D02*
X662500D01*
X102500Y2456250D02*
X120000Y2473750D01*
X85000Y2438750D02*
X662500D01*
X85000Y2421250D02*
X662500D01*
X85000D02*
Y2438750D01*
X67500Y1913750D02*
X67500Y1913750D01*
X67500Y1913750D02*
X85000D01*
X50000Y1913750D02*
X67500D01*
X1887500Y2456250D02*
X2447500D01*
X2465000Y2438750D01*
X50000Y1301250D02*
X85000D01*
X50000Y688750D02*
X85000D01*
X2465000Y1896250D02*
X2482500D01*
X2482500Y1896250D01*
X2430000Y2473750D02*
X2447500D01*
X2465000D01*
X85000Y146250D02*
X662500D01*
X1887500D02*
X2465000D01*
X662500D02*
X1887500D01*
Y128750D02*
X2465000D01*
X662500D02*
X1887500D01*
X85000Y111250D02*
X662500D01*
X1887500D02*
X2465000D01*
X662500D02*
X1887500D01*
Y93750D02*
X2465000D01*
X662500D02*
X1887500D01*
X2465000Y146250D02*
Y163750D01*
Y111250D02*
Y128750D01*
X85000Y163750D02*
Y181250D01*
Y163750D02*
X662500Y163750D01*
X85000Y76250D02*
X662500D01*
X1887500D02*
X2465000D01*
X662500D02*
X1887500D01*
X2465000D02*
Y93750D01*
X102500D02*
X662500D01*
X85000Y111250D02*
X102500Y93750D01*
X50000Y111250D02*
X85000Y76250D01*
X2482500Y1896250D02*
X2495000D01*
X85000Y128750D02*
Y146250D01*
Y128750D02*
X662500D01*
X85000Y233750D02*
Y251250D01*
Y233750D02*
X662500D01*
D12*
Y1703750D02*
X1887500D01*
X662500Y1686250D02*
X1887500D01*
X662500Y1738750D02*
X1887500D01*
X662500Y1721250D02*
X1887500D01*
X662500Y1773750D02*
X1887500D01*
X662500Y1756250D02*
X1887500D01*
X662500Y1808750D02*
X1887500D01*
X662500Y1791250D02*
X1887500D01*
X662500Y1843750D02*
X1887500D01*
X662500Y1826250D02*
X1887500D01*
X662500Y1878750D02*
X1887500D01*
X662500Y1861250D02*
X1887500D01*
X662500Y1896250D02*
X1887500D01*
X662500Y1493750D02*
X1887500D01*
X662500Y1476250D02*
X1887500D01*
X662500Y1528750D02*
X1887500D01*
X662500Y1511250D02*
X1887500D01*
X662500Y1563750D02*
X1887500D01*
X662500Y1546250D02*
X1887500D01*
X662500Y1598750D02*
X1887500D01*
X662500Y1581250D02*
X1887500D01*
X662500Y1633750D02*
X1887500D01*
X662500Y1616250D02*
X1887500D01*
X662500Y1651250D02*
X1887500D01*
X662500Y1668750D02*
X1887500D01*
D13*
X662500Y881250D02*
X1887500D01*
X662500Y863750D02*
X1887500D01*
X662500Y916250D02*
X1887500D01*
X662500Y898750D02*
X1887500D01*
X662500Y951250D02*
X1887500D01*
X662500Y933750D02*
X1887500D01*
X662500Y986250D02*
X1887500D01*
X662500Y968750D02*
X1887500D01*
X662500Y1021250D02*
X1887500D01*
X662500Y1003750D02*
X1887500D01*
X662500Y1056250D02*
X1887500D01*
X662500Y1038750D02*
X1887500D01*
X662500Y1073750D02*
X1887500D01*
X662500Y741250D02*
X1887500D01*
X662500Y723750D02*
X1887500D01*
X662500Y776250D02*
X1887500D01*
X662500Y758750D02*
X1887500D01*
X662500Y811250D02*
X1887500D01*
X662500Y793750D02*
X1887500D01*
X662500Y828750D02*
X1887500D01*
X662500Y846250D02*
X1887500D01*
X662500Y1371250D02*
X1198500D01*
X1200250D01*
X1189750Y1388750D02*
X1191500D01*
X662500D02*
X1189750D01*
X1181000Y1406250D02*
X1182750D01*
X662500D02*
X1181000D01*
X1172250Y1423750D02*
X1174000D01*
X662500D02*
X1172250D01*
X1163500Y1441250D02*
X1165250D01*
X662500D02*
X1163500D01*
X1154750Y1458750D02*
X1156500D01*
X662500D02*
X1154750D01*
X1207250Y1353750D02*
X1209000D01*
X662500D02*
X1207250D01*
X1216000Y1336250D02*
X1217750D01*
X662500D02*
X1216000D01*
X1224750Y1318750D02*
X1226500D01*
X662500D02*
X1224750D01*
X1233500Y1301250D02*
X1235250D01*
X662500D02*
X1233500D01*
X1242250Y1283750D02*
X1244000D01*
X662500D02*
X1242250D01*
X1165250Y1441250D02*
X1166500Y1442500D01*
X1275000D01*
X1174000Y1423750D02*
X1175750Y1425500D01*
X1275000D01*
X1182750Y1406250D02*
X1185000Y1408500D01*
X1275000D01*
X1191500Y1388750D02*
X1194250Y1391500D01*
X1275000D01*
X1200250Y1371250D02*
X1203500Y1374500D01*
X1275000D01*
X1209000Y1353750D02*
X1212750Y1357500D01*
X1275000D01*
X1217750Y1336250D02*
X1222000Y1340500D01*
X1275000D01*
X1226500Y1318750D02*
X1231250Y1323500D01*
X1275000D01*
X1235250Y1301250D02*
X1240500Y1306500D01*
X1275000D01*
X1244000Y1283750D02*
X1249750Y1289500D01*
X1275000D01*
X1156500Y1458750D02*
X1157250Y1459500D01*
X1275000D01*
Y1090500D02*
X1392750D01*
X1393500Y1091250D01*
X1275000Y1260500D02*
X1300250D01*
X1306000Y1266250D01*
X1275000Y1243500D02*
X1309500D01*
X1314750Y1248750D01*
X1275000Y1226500D02*
X1318750D01*
X1323500Y1231250D01*
X1275000Y1209500D02*
X1328000D01*
X1332250Y1213750D01*
X1275000Y1192500D02*
X1337250D01*
X1341000Y1196250D01*
X1275000Y1175500D02*
X1346500D01*
X1349750Y1178750D01*
X1275000Y1158500D02*
X1355750D01*
X1358500Y1161250D01*
X1275000Y1141500D02*
X1365000D01*
X1367250Y1143750D01*
X1275000Y1124500D02*
X1374250D01*
X1376000Y1126250D01*
X1275000Y1107500D02*
X1383500D01*
X1384750Y1108750D01*
X1307750Y1266250D02*
X1887500D01*
X1306000D02*
X1307750D01*
X1316500Y1248750D02*
X1887500D01*
X1314750D02*
X1316500D01*
X1325250Y1231250D02*
X1887500D01*
X1323500D02*
X1325250D01*
X1334000Y1213750D02*
X1887500D01*
X1332250D02*
X1334000D01*
X1342750Y1196250D02*
X1887500D01*
X1341000D02*
X1342750D01*
X1395250Y1091250D02*
X1887500D01*
X1393500D02*
X1395250D01*
X1386500Y1108750D02*
X1887500D01*
X1384750D02*
X1386500D01*
X1377750Y1126250D02*
X1887500D01*
X1376000D02*
X1377750D01*
X1369000Y1143750D02*
X1887500D01*
X1367250D02*
X1369000D01*
X1360250Y1161250D02*
X1887500D01*
X1358500D02*
X1360250D01*
X1349750Y1178750D02*
X1351500D01*
X1887500D01*
X1351500Y1371250D02*
X1887500D01*
X1349750D02*
X1351500D01*
X1358500Y1388750D02*
X1360250D01*
X1887500D01*
X1367250Y1406250D02*
X1369000D01*
X1887500D01*
X1376000Y1423750D02*
X1377750D01*
X1887500D01*
X1384750Y1441250D02*
X1386500D01*
X1887500D01*
X1393500Y1458750D02*
X1395250D01*
X1887500D01*
X1341000Y1353750D02*
X1342750D01*
X1887500D01*
X1332250Y1336250D02*
X1334000D01*
X1887500D01*
X1323500Y1318750D02*
X1325250D01*
X1887500D01*
X1314750Y1301250D02*
X1316500D01*
X1887500D01*
X1306000Y1283750D02*
X1307750D01*
X1887500D01*
X1383500Y1442500D02*
X1384750Y1441250D01*
X1275000Y1442500D02*
X1383500D01*
X1374250Y1425500D02*
X1376000Y1423750D01*
X1275000Y1425500D02*
X1374250D01*
X1365000Y1408500D02*
X1367250Y1406250D01*
X1275000Y1408500D02*
X1365000D01*
X1355750Y1391500D02*
X1358500Y1388750D01*
X1275000Y1391500D02*
X1355750D01*
X1346500Y1374500D02*
X1349750Y1371250D01*
X1275000Y1374500D02*
X1346500D01*
X1337250Y1357500D02*
X1341000Y1353750D01*
X1275000Y1357500D02*
X1337250D01*
X1328000Y1340500D02*
X1332250Y1336250D01*
X1275000Y1340500D02*
X1328000D01*
X1318750Y1323500D02*
X1323500Y1318750D01*
X1275000Y1323500D02*
X1318750D01*
X1309500Y1306500D02*
X1314750Y1301250D01*
X1275000Y1306500D02*
X1309500D01*
X1300250Y1289500D02*
X1306000Y1283750D01*
X1275000Y1289500D02*
X1300250D01*
X1392750Y1459500D02*
X1393500Y1458750D01*
X1275000Y1459500D02*
X1392750D01*
X1157250Y1090500D02*
X1275000D01*
X1156500Y1091250D02*
X1157250Y1090500D01*
X1249750Y1260500D02*
X1275000D01*
X1244000Y1266250D02*
X1249750Y1260500D01*
X1240500Y1243500D02*
X1275000D01*
X1235250Y1248750D02*
X1240500Y1243500D01*
X1231250Y1226500D02*
X1275000D01*
X1226500Y1231250D02*
X1231250Y1226500D01*
X1222000Y1209500D02*
X1275000D01*
X1217750Y1213750D02*
X1222000Y1209500D01*
X1212750Y1192500D02*
X1275000D01*
X1209000Y1196250D02*
X1212750Y1192500D01*
X1203500Y1175500D02*
X1275000D01*
X1200250Y1178750D02*
X1203500Y1175500D01*
X1194250Y1158500D02*
X1275000D01*
X1191500Y1161250D02*
X1194250Y1158500D01*
X1185000Y1141500D02*
X1275000D01*
X1182750Y1143750D02*
X1185000Y1141500D01*
X1175750Y1124500D02*
X1275000D01*
X1174000Y1126250D02*
X1175750Y1124500D01*
X1166500Y1107500D02*
X1275000D01*
X1165250Y1108750D02*
X1166500Y1107500D01*
X662500Y1266250D02*
X1242250D01*
X1244000D01*
X662500Y1248750D02*
X1233500D01*
X1235250D01*
X662500Y1231250D02*
X1224750D01*
X1226500D01*
X662500Y1213750D02*
X1216000D01*
X1217750D01*
X662500Y1196250D02*
X1207250D01*
X1209000D01*
X662500Y1091250D02*
X1154750D01*
X1156500D01*
X662500Y1108750D02*
X1163500D01*
X1165250D01*
X662500Y1126250D02*
X1172250D01*
X1174000D01*
X662500Y1143750D02*
X1181000D01*
X1182750D01*
X662500Y1161250D02*
X1189750D01*
X1191500D01*
X1198500Y1178750D02*
X1200250D01*
X662500D02*
X1198500D01*
D14*
X50000Y111250D02*
Y2456250D01*
X102500Y2508750D01*
X815000D01*
X842401Y2538651D02*
X1033700D01*
X812500Y2508750D02*
X842401Y2538651D01*
X1040050Y2545001D02*
X1125000D01*
X1033700Y2538651D02*
X1040050Y2545001D01*
X1070050Y2575001D02*
X1125000D01*
X1040050Y2545001D02*
X1070050Y2575001D01*
D15*
X2517500Y682500D02*
Y1860000D01*
D16*
X2495000Y1896250D02*
Y2443750D01*
X2517500Y1861250D02*
X2525000Y1868750D01*
Y2457500D01*
X2438750Y2543750D02*
X2525000Y2457500D01*
X1642500Y2508750D02*
X1644350Y2506900D01*
X2431850D01*
X2495000Y2443750D01*
X1467500Y2508750D02*
Y2515000D01*
X1496250Y2543750D01*
X2438750D01*
D17*
X1257500Y1275000D02*
X1266500D01*
X1283500D02*
X1292500D01*
X1286100Y2583101D02*
X1287700D01*
X1269000Y2566001D02*
X1286100Y2583101D01*
X1245000Y2566001D02*
X1269000D01*
X1238000Y2559001D02*
X1245000Y2566001D01*
X1169000Y2559001D02*
X1238000D01*
X1155000Y2545001D02*
X1169000Y2559001D01*
X1287700Y2583101D02*
X1336100D01*
X1355000Y2602001D01*
X1371000D01*
X1380000Y2593001D01*
Y2560001D02*
Y2593001D01*
Y2560001D02*
X1395000Y2545001D01*
X1155000Y2543001D02*
Y2545001D01*
Y2543001D02*
X1192000Y2506001D01*
D18*
X1365000Y2545001D02*
Y2575001D01*
Y2524851D02*
Y2545001D01*
Y2524851D02*
X1382950Y2506901D01*
X1332150D02*
X1376600D01*
X1185000Y2575001D02*
X1216100D01*
X1249600Y2608501D01*
X1332150D01*
X1370250Y2646601D01*
X1414700D01*
X1425000Y2636301D01*
Y2575001D02*
Y2636301D01*
Y2545001D02*
Y2575001D01*
X1319450Y2494201D02*
X1332150Y2506901D01*
X1185000Y2545001D02*
X1235800Y2494201D01*
X1319450D01*
D19*
X812500Y2508750D02*
D03*
X1417500D02*
D03*
X1607500D02*
D03*
D20*
X1287700Y2583101D02*
D03*
D21*
X1262300D02*
D03*
D22*
X1512500Y2507500D02*
D03*
X905000D02*
D03*
X1192000Y2506001D02*
D03*
D23*
X1155000Y2618201D02*
D03*
X1185000Y2545001D02*
D03*
X1155000D02*
D03*
X1125000D02*
D03*
X1185000Y2575001D02*
D03*
X1155000D02*
D03*
X1125000D02*
D03*
X1395000Y2618201D02*
D03*
X1425000Y2545001D02*
D03*
X1395000D02*
D03*
X1365000D02*
D03*
X1425000Y2575001D02*
D03*
X1395000D02*
D03*
X1365000D02*
D03*
D24*
X2510000Y2530001D02*
D03*
X2510000Y40000D02*
D03*
X1275000Y40000D02*
D03*
X40000Y40000D02*
D03*
X1275000Y2530000D02*
D03*
X40000D02*
D03*
D25*
X1257500Y1275000D02*
D03*
X1292500Y1275001D02*
D03*
M02*
