G04 Layer_Physical_Order=1*
G04 Layer_Color=255*
%FSLAX44Y44*%
%MOMM*%
G71*
G01*
G75*
%ADD10C,1.2500*%
%ADD11C,1.3500*%
%ADD12C,0.2500*%
%ADD13C,2.0000*%
%ADD14C,1.5000*%
%ADD15C,1.3000*%
%ADD16R,15.0000X3.0000*%
%ADD17C,1.5000*%
%ADD18R,1.5000X1.5000*%
%ADD19C,1.0000*%
%ADD20C,2.0000*%
%ADD21C,3.5000*%
G36*
X1665904Y192275D02*
X1671662Y190892D01*
X1677133Y188626D01*
X1682183Y185532D01*
X1686686Y181686D01*
X1690532Y177183D01*
X1693626Y172133D01*
X1695892Y166662D01*
X1697275Y160904D01*
X1697730Y155120D01*
X1697706Y155000D01*
Y142500D01*
X1668770D01*
X1667500Y142500D01*
X1667500Y143770D01*
Y154500D01*
X1512500D01*
Y145000D01*
X1500612Y142622D01*
X1499315Y143382D01*
X1499254Y143461D01*
X1499218Y143823D01*
X1498103Y147498D01*
X1496292Y150886D01*
X1493855Y153855D01*
X1490886Y156292D01*
X1487498Y158103D01*
X1483823Y159218D01*
X1480000Y159594D01*
X1476177Y159218D01*
X1472502Y158103D01*
X1469114Y156292D01*
X1466145Y153855D01*
X1463708Y150886D01*
X1461897Y147498D01*
X1460782Y143823D01*
X1460406Y140000D01*
X1460782Y136177D01*
X1461897Y132502D01*
X1463708Y129114D01*
X1466042Y126270D01*
X1465870Y125376D01*
X1465735Y125000D01*
X1400000D01*
X1400000Y192706D01*
X1660000D01*
X1660121Y192730D01*
X1665904Y192275D01*
D02*
G37*
G36*
X740000Y192706D02*
X1065000D01*
Y156200D01*
X1064218Y154738D01*
X1063246Y151533D01*
X1062918Y148201D01*
X1063246Y144868D01*
X1064218Y141664D01*
X1065000Y140201D01*
X1065000Y12500D01*
X-47706Y12500D01*
Y44908D01*
X-46436Y45058D01*
X-46013Y43299D01*
X-43740Y37809D01*
X-40635Y32743D01*
X-36776Y28224D01*
X-32257Y24365D01*
X-27191Y21260D01*
X-21702Y18987D01*
X-15924Y17599D01*
X-10000Y17133D01*
X-4076Y17599D01*
X1701Y18987D01*
X7191Y21260D01*
X12257Y24365D01*
X16776Y28224D01*
X20635Y32743D01*
X23740Y37809D01*
X26013Y43299D01*
X27401Y49076D01*
X27867Y55000D01*
X27401Y60924D01*
X26013Y66701D01*
X23740Y72191D01*
X20635Y77257D01*
X16776Y81776D01*
X12257Y85635D01*
X7191Y88740D01*
X1701Y91013D01*
X-59Y91436D01*
X92Y92706D01*
X660000D01*
Y92659D01*
X665527Y93022D01*
X670959Y94102D01*
X676203Y95882D01*
X681170Y98332D01*
X685775Y101409D01*
X689939Y105061D01*
X693591Y109225D01*
X696668Y113830D01*
X699118Y118797D01*
X700898Y124041D01*
X701978Y129473D01*
X702341Y135000D01*
X702294D01*
X702294Y135000D01*
Y153730D01*
X702294Y155000D01*
X702358Y156243D01*
X702725Y160904D01*
X704108Y166662D01*
X706374Y172133D01*
X709468Y177183D01*
X713314Y181686D01*
X717817Y185532D01*
X722867Y188626D01*
X728338Y190892D01*
X734096Y192275D01*
X739880Y192730D01*
X740000Y192706D01*
D02*
G37*
G36*
X1284445Y116230D02*
X1283696Y115920D01*
X1281085Y113916D01*
X1279081Y111305D01*
X1278749Y110501D01*
X1290000D01*
Y105001D01*
X1295500D01*
Y93749D01*
X1296304Y94082D01*
X1298730Y95943D01*
X1300000Y95618D01*
Y84384D01*
X1298730Y84058D01*
X1296304Y85920D01*
X1295500Y86253D01*
Y75001D01*
Y63749D01*
X1296304Y64082D01*
X1298730Y65943D01*
X1300000Y65618D01*
Y35000D01*
X1400000D01*
X1400000Y67500D01*
X1450000D01*
Y12500D01*
X1147500D01*
X1102500Y57500D01*
X1097500Y62500D01*
Y69196D01*
X1098770Y69449D01*
X1099081Y68697D01*
X1101085Y66086D01*
X1103696Y64082D01*
X1104500Y63749D01*
Y75001D01*
X1110000D01*
Y80501D01*
X1121252D01*
X1120919Y81305D01*
X1118915Y83916D01*
X1116304Y85920D01*
X1115555Y86230D01*
X1115808Y87500D01*
X1252500D01*
X1275000Y112500D01*
X1280000Y117500D01*
X1284193D01*
X1284445Y116230D01*
D02*
G37*
G36*
X1339021Y192500D02*
X1395000D01*
Y120000D01*
X1495000D01*
X1511327Y136327D01*
X1512500Y135841D01*
Y125500D01*
X1667500D01*
Y137500D01*
X1697706D01*
Y135000D01*
X1697659D01*
X1698022Y129473D01*
X1699102Y124041D01*
X1700883Y118797D01*
X1703332Y113830D01*
X1706409Y109225D01*
X1710061Y105061D01*
X1714225Y101409D01*
X1718830Y98332D01*
X1723797Y95882D01*
X1729042Y94102D01*
X1734474Y93022D01*
X1740000Y92659D01*
Y92706D01*
X2399904D01*
X2400055Y91436D01*
X2398299Y91014D01*
X2392809Y88740D01*
X2387742Y85636D01*
X2383224Y81777D01*
X2379365Y77258D01*
X2376261Y72192D01*
X2373987Y66702D01*
X2372599Y60925D01*
X2372133Y55001D01*
X2372599Y49077D01*
X2373987Y43299D01*
X2376261Y37810D01*
X2379365Y32743D01*
X2383224Y28225D01*
X2387742Y24366D01*
X2392809Y21261D01*
X2398299Y18987D01*
X2404076Y17600D01*
X2410000Y17134D01*
X2415924Y17600D01*
X2421702Y18987D01*
X2427191Y21261D01*
X2432258Y24366D01*
X2436776Y28225D01*
X2440635Y32743D01*
X2443739Y37810D01*
X2446013Y43299D01*
X2446436Y45061D01*
X2447706Y44910D01*
Y12500D01*
X1455000D01*
Y72500D01*
X1395000D01*
Y40000D01*
X1335000D01*
Y135000D01*
X1332481D01*
X1332453Y135078D01*
X1332201Y136270D01*
X1334204Y138710D01*
X1335782Y141664D01*
X1336754Y144868D01*
X1337083Y148201D01*
X1336754Y151533D01*
X1335782Y154738D01*
X1335642Y155000D01*
X1335000Y156201D01*
X1334204Y157691D01*
X1332079Y160280D01*
X1329491Y162404D01*
X1326537Y163983D01*
X1323333Y164955D01*
X1320000Y165283D01*
X1316668Y164955D01*
X1313463Y163983D01*
X1310510Y162404D01*
X1307921Y160280D01*
X1305797Y157691D01*
X1304218Y154738D01*
X1303246Y151533D01*
X1302918Y148201D01*
X1303246Y144868D01*
X1304218Y141664D01*
X1305797Y138710D01*
X1307800Y136270D01*
X1307548Y135078D01*
X1307520Y135000D01*
X1162500D01*
X1162500Y95000D01*
X1119381D01*
X1119057Y96270D01*
X1120919Y98697D01*
X1121252Y99501D01*
X1110000D01*
Y105001D01*
X1104500D01*
Y116253D01*
X1103696Y115920D01*
X1101270Y114058D01*
X1100000Y114383D01*
Y192706D01*
X1338815D01*
X1339021Y192500D01*
D02*
G37*
%LPC*%
G36*
X1667500Y177500D02*
X1595500D01*
Y165500D01*
X1667500D01*
Y177500D01*
D02*
G37*
G36*
X1584500D02*
X1512500D01*
Y165500D01*
X1584500D01*
Y177500D01*
D02*
G37*
G36*
X887500Y157500D02*
X815500D01*
Y145500D01*
X887500D01*
Y157500D01*
D02*
G37*
G36*
X804500D02*
X732500D01*
Y145500D01*
X804500D01*
Y157500D01*
D02*
G37*
G36*
X887500Y134500D02*
X815500D01*
Y122500D01*
X887500D01*
Y134500D01*
D02*
G37*
G36*
X804500D02*
X732500D01*
Y122500D01*
X804500D01*
Y134500D01*
D02*
G37*
G36*
X920000Y159594D02*
X916177Y159218D01*
X912502Y158103D01*
X909114Y156292D01*
X906145Y153855D01*
X903708Y150886D01*
X901897Y147498D01*
X900782Y143823D01*
X900406Y140000D01*
X900782Y136177D01*
X901897Y132502D01*
X903708Y129114D01*
X906145Y126145D01*
X909114Y123708D01*
X912502Y121897D01*
X916177Y120782D01*
X920000Y120406D01*
X923823Y120782D01*
X927498Y121897D01*
X930886Y123708D01*
X933855Y126145D01*
X936292Y129114D01*
X938103Y132502D01*
X939218Y136177D01*
X939594Y140000D01*
X939218Y143823D01*
X938103Y147498D01*
X936292Y150886D01*
X933855Y153855D01*
X930886Y156292D01*
X927498Y158103D01*
X923823Y159218D01*
X920000Y159594D01*
D02*
G37*
G36*
X1055500Y116253D02*
Y110501D01*
X1061252D01*
X1060919Y111305D01*
X1058915Y113916D01*
X1056304Y115920D01*
X1055500Y116253D01*
D02*
G37*
G36*
X1044500Y116253D02*
X1043696Y115920D01*
X1041085Y113916D01*
X1039081Y111305D01*
X1038749Y110501D01*
X1044500D01*
Y116253D01*
D02*
G37*
G36*
Y99501D02*
X1038748D01*
X1039081Y98697D01*
X1041085Y96086D01*
X1043696Y94082D01*
X1044500Y93749D01*
Y99501D01*
D02*
G37*
G36*
X1061252D02*
X1055500D01*
Y93749D01*
X1056304Y94082D01*
X1058915Y96086D01*
X1060919Y98697D01*
X1061252Y99501D01*
D02*
G37*
G36*
X1055500Y86253D02*
Y80501D01*
X1061252D01*
X1060919Y81305D01*
X1058915Y83916D01*
X1056304Y85920D01*
X1055500Y86253D01*
D02*
G37*
G36*
X1044500Y86253D02*
X1043696Y85920D01*
X1041085Y83916D01*
X1039081Y81305D01*
X1038749Y80501D01*
X1044500D01*
Y86253D01*
D02*
G37*
G36*
Y69501D02*
X1038748D01*
X1039081Y68697D01*
X1041085Y66086D01*
X1043696Y64082D01*
X1044500Y63749D01*
Y69501D01*
D02*
G37*
G36*
X1061252D02*
X1055500D01*
Y63749D01*
X1056304Y64082D01*
X1058915Y66086D01*
X1060919Y68697D01*
X1061252Y69501D01*
D02*
G37*
G36*
X1284500Y99501D02*
X1278748D01*
X1279081Y98697D01*
X1281085Y96086D01*
X1283696Y94082D01*
X1284500Y93749D01*
Y99501D01*
D02*
G37*
G36*
Y86253D02*
X1283696Y85920D01*
X1281085Y83916D01*
X1279081Y81305D01*
X1278748Y80501D01*
X1284500D01*
Y86253D01*
D02*
G37*
G36*
X1121252Y69501D02*
X1115500D01*
Y63749D01*
X1116304Y64082D01*
X1118915Y66086D01*
X1120919Y68697D01*
X1121252Y69501D01*
D02*
G37*
G36*
X1284500D02*
X1278748D01*
X1279081Y68697D01*
X1281085Y66086D01*
X1283696Y64082D01*
X1284500Y63749D01*
Y69501D01*
D02*
G37*
G36*
X1115500Y116253D02*
Y110501D01*
X1121252D01*
X1120919Y111305D01*
X1118915Y113916D01*
X1116304Y115920D01*
X1115500Y116253D01*
D02*
G37*
G36*
X1355500Y116253D02*
Y110501D01*
X1361252D01*
X1360919Y111305D01*
X1358915Y113916D01*
X1356304Y115920D01*
X1355500Y116253D01*
D02*
G37*
G36*
X1344500Y116253D02*
X1343696Y115920D01*
X1341085Y113916D01*
X1339082Y111305D01*
X1338749Y110501D01*
X1344500D01*
Y116253D01*
D02*
G37*
G36*
X1667500Y114500D02*
X1595500D01*
Y102500D01*
X1667500D01*
Y114500D01*
D02*
G37*
G36*
X1584500D02*
X1512500D01*
Y102500D01*
X1584500D01*
Y114500D01*
D02*
G37*
G36*
X1361252Y99501D02*
X1355500D01*
Y93749D01*
X1356304Y94082D01*
X1358915Y96086D01*
X1360919Y98697D01*
X1361252Y99501D01*
D02*
G37*
G36*
X1344500D02*
X1338748D01*
X1339082Y98697D01*
X1341085Y96086D01*
X1343696Y94082D01*
X1344500Y93749D01*
Y99501D01*
D02*
G37*
G36*
X1355500Y86253D02*
Y80501D01*
X1361252D01*
X1360919Y81305D01*
X1358915Y83916D01*
X1356304Y85920D01*
X1355500Y86253D01*
D02*
G37*
G36*
X1344500Y86253D02*
X1343696Y85920D01*
X1341085Y83916D01*
X1339082Y81305D01*
X1338748Y80501D01*
X1344500D01*
Y86253D01*
D02*
G37*
G36*
X1361252Y69501D02*
X1355500D01*
Y63749D01*
X1356304Y64082D01*
X1358915Y66086D01*
X1360919Y68697D01*
X1361252Y69501D01*
D02*
G37*
G36*
X1344500D02*
X1338748D01*
X1339082Y68697D01*
X1341085Y66086D01*
X1343696Y64082D01*
X1344500Y63749D01*
Y69501D01*
D02*
G37*
%LPD*%
D10*
X2367500Y-1250D02*
X2433750D01*
X1812500D02*
X2365000D01*
X2367500Y-36250D02*
X2415000D01*
X2367500Y-53750D02*
X2415000D01*
X2367500Y-123750D02*
X2415000D01*
X2367500Y-106250D02*
X2415000D01*
X2367500Y-158750D02*
X2415000D01*
X2367500Y-141250D02*
X2415000D01*
X2367500Y-246250D02*
X2415000D01*
X2367500Y-176250D02*
X2415000D01*
X2367500Y-421250D02*
X2415000D01*
X2367500Y-438750D02*
X2415000D01*
X2367500Y-386250D02*
X2415000D01*
X2367500Y-771250D02*
X2415000D01*
X2367500Y-491250D02*
X2415000D01*
X2367500Y-281250D02*
X2415000D01*
X2367500Y-263750D02*
X2415000D01*
X2367500Y-368750D02*
X2415000D01*
X2367500Y-298750D02*
X2415000D01*
X2367500Y-508750D02*
X2415000D01*
X2367500Y-526250D02*
X2415000D01*
X2367500Y-18750D02*
X2415000D01*
X1812500D02*
X2365000D01*
X2367500Y-561250D02*
X2415000D01*
X2367500Y-543750D02*
X2415000D01*
X2367500Y-631250D02*
X2415000D01*
X2367500Y-613750D02*
X2415000D01*
X2367500Y-666250D02*
X2415000D01*
X2367500Y-648750D02*
X2415000D01*
X2367500Y-876250D02*
X2415000D01*
X2367500Y-806250D02*
X2415000D01*
X2367500Y-911250D02*
X2415000D01*
X2367500Y-893750D02*
X2415000D01*
X2367500Y-736250D02*
X2415000D01*
X2367500Y-683750D02*
X2415000D01*
X2367500Y-788750D02*
X2415000D01*
X2367500Y-753750D02*
X2415000D01*
X2367500Y-1068750D02*
X2415000D01*
X2367500Y-1121250D02*
X2415000D01*
X2367500Y-1051250D02*
X2415000D01*
X2367500Y-1156250D02*
X2415000D01*
X2367500Y-1138750D02*
X2415000D01*
X2367500Y-998750D02*
X2415000D01*
X2367500Y-928750D02*
X2415000D01*
X2367500Y-1033750D02*
X2415000D01*
X2367500Y-1016250D02*
X2415000D01*
X2367500Y-1296250D02*
X2415000D01*
X2367500Y-1278750D02*
X2415000D01*
X2367500Y-1366250D02*
X2415000D01*
X2367500Y-1313750D02*
X2415000D01*
X2367500Y-1191025D02*
X2429000Y-1191000D01*
X2367500Y-1173750D02*
X2415000D01*
X2367500Y-1261250D02*
X2415000D01*
X2367500Y-1243750D02*
X2415000D01*
X2367500Y-1523750D02*
X2415000D01*
X2367500Y-1541250D02*
X2415000D01*
X2367500Y-1506250D02*
X2415000D01*
X2367500Y-1628750D02*
X2415000D01*
X2367500Y-1558750D02*
X2415000D01*
X2367500Y-1401250D02*
X2415000D01*
X2367500Y-1383750D02*
X2415000D01*
X2367500Y-1436250D02*
X2415000D01*
X2367500Y-1418750D02*
X2415000D01*
X2367500Y-1873750D02*
X2415000D01*
X2367500Y-1751250D02*
X2415000D01*
X2367500Y-2398750D02*
X2415000D01*
X1812500D02*
X2365000D01*
X2367500Y-2381250D02*
X2415000D01*
X1812500D02*
X2365000D01*
X2367500Y-1663750D02*
X2415000D01*
X2367500Y-1646250D02*
X2415000D01*
X2367500Y-1698750D02*
X2415000D01*
X2367500Y-1681250D02*
X2415000D01*
X2367500Y-316250D02*
X2415000D01*
X2367500Y-333750D02*
X2415000D01*
X2367500Y-228750D02*
X2415000D01*
X2367500Y-403750D02*
X2415000D01*
X2367500Y-351250D02*
X2415000D01*
X2367500Y-88750D02*
X2415000D01*
X2367500Y-71250D02*
X2415000D01*
X2367500Y-211250D02*
X2415000D01*
X2367500Y-193750D02*
X2415000D01*
X2367500Y-718750D02*
X2415000D01*
X2367500Y-823750D02*
X2415000D01*
X2367500Y-701250D02*
X2415000D01*
X2367500Y-858750D02*
X2415000D01*
X2367500Y-841250D02*
X2415000D01*
X2367500Y-473750D02*
X2415000D01*
X2367500Y-456250D02*
X2415000D01*
X2367500Y-578750D02*
X2430000D01*
X2367500Y-596250D02*
X2415000D01*
X2367500Y-1208750D02*
X2415000D01*
X2367500Y-1226250D02*
X2415000D01*
X2367500Y-1103750D02*
X2415000D01*
X2367500Y-1348750D02*
X2415000D01*
X2367500Y-1331250D02*
X2415000D01*
X2367500Y-963750D02*
X2415000D01*
X2367500Y-946250D02*
X2415000D01*
X2367500Y-1086250D02*
X2415000D01*
X2367500Y-981250D02*
X2415000D01*
X2367500Y-1611250D02*
X2415000D01*
X2367500Y-1593750D02*
X2415000D01*
X2367500Y-1733750D02*
X2415000D01*
X2367500Y-1716250D02*
X2415000D01*
X2367500Y-1471250D02*
X2415000D01*
X2367500Y-1453750D02*
X2415000D01*
X2367500Y-1576250D02*
X2415000D01*
X2367500Y-1488750D02*
X2415000D01*
X2367500Y-1856250D02*
X2415000D01*
X2367500Y-1891250D02*
X2415000D01*
X2367500Y-1838750D02*
X2415000D01*
X2367500Y-1926250D02*
X2415000D01*
X2367500Y-1908750D02*
X2415000D01*
X2367500Y-1786250D02*
X2415000D01*
X2367500Y-1768750D02*
X2415000D01*
X2367500Y-1803750D02*
X2435000D01*
X2367500Y-1821250D02*
X2415000D01*
X2367500Y-2031250D02*
X2415000D01*
X2367500Y-2013750D02*
X2415000D01*
X2367500Y-2066250D02*
X2415000D01*
X2367500Y-2048750D02*
X2415000D01*
X2367500Y-1961250D02*
X2415000D01*
X2367500Y-1943750D02*
X2415000D01*
X2367500Y-1996250D02*
X2415000D01*
X2367500Y-1978750D02*
X2415000D01*
X2367500Y-2171250D02*
X2415000D01*
X2367500Y-2188750D02*
X2415000D01*
X2367500Y-2153750D02*
X2415000D01*
X2367500Y-2223750D02*
X2415000D01*
X2367500Y-2206250D02*
X2415000D01*
X2367500Y-2101250D02*
X2415000D01*
X2367500Y-2083750D02*
X2415000D01*
X2367500Y-2136250D02*
X2415000D01*
X2367500Y-2118750D02*
X2415000D01*
X2367500Y-2328750D02*
X2415000D01*
X2367500Y-2311250D02*
X2415000D01*
X2367500Y-2363750D02*
X2415000D01*
X2367500Y-2346250D02*
X2415000D01*
X2367500Y-2258750D02*
X2415000D01*
X2367500Y-2241250D02*
X2415000D01*
X2367500Y-2293750D02*
X2415000D01*
X2367500Y-2276250D02*
X2415000D01*
X-15000Y-491250D02*
X35000D01*
X-15000Y-508750D02*
X35000D01*
X-15000Y-438750D02*
X35000D01*
X10000Y-561250D02*
X35000D01*
X-15000Y-526250D02*
X35000D01*
X-15000Y-613750D02*
X35000D01*
X-15000Y-543750D02*
X35000D01*
X-15000Y-648750D02*
X35000D01*
X-15000Y-631250D02*
X35000D01*
X-15000Y-788750D02*
X35000D01*
X-15000Y-806250D02*
X35000D01*
X-15000Y-771250D02*
X35000D01*
X-15000Y-893750D02*
X35000D01*
X-15000Y-876250D02*
X35000D01*
X-15000Y-683750D02*
X35000D01*
X-15000Y-666250D02*
X35000D01*
X-15000Y-753750D02*
X35000D01*
X-15000Y-736250D02*
X35000D01*
X-15000Y-123750D02*
X35000D01*
X-15000Y-141250D02*
X35000D01*
X-15000Y-106250D02*
X35000D01*
X-15000Y-176250D02*
X35000D01*
X-15000Y-158750D02*
X35000D01*
X37500Y-18750D02*
X587500D01*
X-15000D02*
X35000D01*
X37500Y-1250D02*
X587500D01*
X-15000D02*
X35000D01*
X-15000Y-53750D02*
X35000D01*
X-15000Y-36250D02*
X35000D01*
X-15000Y-386250D02*
X35000D01*
X-15000Y-368750D02*
X35000D01*
X-15000Y-421250D02*
X35000D01*
X-15000Y-403750D02*
X35000D01*
X-15000Y-263750D02*
X35000D01*
X-15000Y-246250D02*
X35000D01*
X-15000Y-298750D02*
X35000D01*
X-15000Y-281250D02*
X35000D01*
X-15000Y-1506250D02*
X35000D01*
X-15000Y-1523750D02*
X35000D01*
X-15000Y-1436250D02*
X35000D01*
X-15000Y-1558750D02*
X35000D01*
X-15000Y-1541250D02*
X35000D01*
X-15000Y-1383750D02*
X35000D01*
X-15000Y-1366250D02*
X35000D01*
X-15000Y-1418750D02*
X35000D01*
X-15000Y-1401250D02*
X35000D01*
X-15000Y-1646250D02*
X35000D01*
X-15000Y-1628750D02*
X35000D01*
X10000Y-1786250D02*
X35000D01*
X-15000Y-1663750D02*
X35000D01*
X-15000Y-1698750D02*
X35000D01*
X-15000Y-1681250D02*
X35000D01*
X-15000Y-1873750D02*
X35000D01*
X-15000Y-1768750D02*
X35000D01*
X-15000Y-1051250D02*
X35000D01*
X-15000Y-1068750D02*
X35000D01*
X-15000Y-1033750D02*
X35000D01*
X-15000Y-1138750D02*
X35000D01*
X-15000Y-1121250D02*
X35000D01*
X-15000Y-928750D02*
X35000D01*
X-15000Y-911250D02*
X35000D01*
X-15000Y-1016250D02*
X35000D01*
X-15000Y-998750D02*
X35000D01*
X10000Y-1173750D02*
X35000D01*
X-15000Y-1156250D02*
X35000D01*
X-15000Y-1243750D02*
X35000D01*
X-15000Y-1191250D02*
X35000D01*
X-15000Y-1278750D02*
X35000D01*
X-15000Y-1261250D02*
X35000D01*
X-15000Y-1313750D02*
X35000D01*
X-15000Y-1296250D02*
X35000D01*
X-15000Y-1208750D02*
X35000D01*
X-15000Y-1226250D02*
X35000D01*
X-15000Y-1103750D02*
X35000D01*
X-15000Y-1348750D02*
X35000D01*
X-15000Y-1331250D02*
X35000D01*
X-15000Y-963750D02*
X35000D01*
X-15000Y-946250D02*
X35000D01*
X-15000Y-1086250D02*
X35000D01*
X-15000Y-981250D02*
X35000D01*
X-15000Y-1611250D02*
X35000D01*
X-15000Y-1716250D02*
X35000D01*
X-15000Y-1593750D02*
X35000D01*
X-15000Y-1751250D02*
X35000D01*
X-15000Y-1733750D02*
X35000D01*
X-15000Y-1471250D02*
X35000D01*
X-15000Y-1453750D02*
X35000D01*
X-15000Y-1576250D02*
X35000D01*
X-15000Y-1488750D02*
X35000D01*
X-15000Y-316250D02*
X35000D01*
X-15000Y-333750D02*
X35000D01*
X-15000Y-228750D02*
X35000D01*
X-15000Y-456250D02*
X35000D01*
X-15000Y-351250D02*
X35000D01*
X-15000Y-88750D02*
X35000D01*
X-15000Y-71250D02*
X35000D01*
X-15000Y-211250D02*
X35000D01*
X-15000Y-193750D02*
X35000D01*
X-15000Y-823750D02*
X35000D01*
X-15000Y-718750D02*
X35000D01*
X-15000Y-858750D02*
X35000D01*
X-15000Y-841250D02*
X35000D01*
X-15000Y-578750D02*
X35000D01*
X-15000Y-473750D02*
X35000D01*
X-15000Y-701250D02*
X35000D01*
X-15000Y-596250D02*
X35000D01*
X-15000Y-2206250D02*
X35000D01*
X-15000Y-2223750D02*
X35000D01*
X-15000Y-2188750D02*
X35000D01*
X-15000Y-2258750D02*
X35000D01*
X-15000Y-2241250D02*
X35000D01*
X-15000Y-2136250D02*
X35000D01*
X-15000Y-2118750D02*
X35000D01*
X-15000Y-2171250D02*
X35000D01*
X-15000Y-2153750D02*
X35000D01*
X-15000Y-2293750D02*
X35000D01*
X-15000Y-2276250D02*
X35000D01*
X-15000Y-2328750D02*
X35000D01*
X-15000Y-2311250D02*
X35000D01*
X-15000Y-2363750D02*
X35000D01*
X-15000Y-2346250D02*
X35000D01*
X37500Y-2398750D02*
X587500D01*
X-35000D02*
X35000D01*
X37500Y-2381250D02*
X587500D01*
X-15000D02*
X35000D01*
X-15000Y-1908750D02*
X35000D01*
X-15000Y-1926250D02*
X35000D01*
X-15000Y-1891250D02*
X35000D01*
X-15000Y-1961250D02*
X35000D01*
X-15000Y-1943750D02*
X35000D01*
X-15000Y-1821250D02*
X35000D01*
X-15000Y-1803750D02*
X35000D01*
X-15000Y-1856250D02*
X35000D01*
X-15000Y-1838750D02*
X35000D01*
X-15000Y-2066250D02*
X35000D01*
X-15000Y-2048750D02*
X35000D01*
X-15000Y-2101250D02*
X35000D01*
X-15000Y-2083750D02*
X35000D01*
X-15000Y-1996250D02*
X35000D01*
X-15000Y-1978750D02*
X35000D01*
X-15000Y-2031250D02*
X35000D01*
X-15000Y-2013750D02*
X35000D01*
X-15000Y-18750D02*
Y-1250D01*
Y-53750D02*
Y-36250D01*
Y-88750D02*
Y-71250D01*
Y-123750D02*
Y-106250D01*
Y-158750D02*
Y-141250D01*
Y-193750D02*
Y-176250D01*
Y-228750D02*
Y-211250D01*
Y-263750D02*
Y-246250D01*
Y-298750D02*
Y-281250D01*
Y-333750D02*
Y-316250D01*
Y-368750D02*
Y-351250D01*
Y-403750D02*
Y-386250D01*
Y-438750D02*
Y-421250D01*
Y-473750D02*
Y-456250D01*
Y-508750D02*
Y-491250D01*
Y-543750D02*
Y-526250D01*
Y-596250D02*
Y-578750D01*
Y-631250D02*
Y-613750D01*
Y-666250D02*
Y-648750D01*
Y-701250D02*
Y-683750D01*
Y-736250D02*
Y-718750D01*
Y-771250D02*
Y-753750D01*
Y-806250D02*
Y-788750D01*
Y-841250D02*
Y-823750D01*
Y-876250D02*
Y-858750D01*
Y-911250D02*
Y-893750D01*
Y-946250D02*
Y-928750D01*
Y-981250D02*
Y-963750D01*
Y-1016250D02*
Y-998750D01*
Y-1051250D02*
Y-1033750D01*
Y-1086250D02*
Y-1068750D01*
Y-1121250D02*
Y-1103750D01*
Y-1156250D02*
Y-1138750D01*
Y-1208750D02*
Y-1191250D01*
Y-1243750D02*
Y-1226250D01*
Y-1278750D02*
Y-1261250D01*
Y-1313750D02*
Y-1296250D01*
Y-1348750D02*
Y-1331250D01*
Y-1383750D02*
Y-1366250D01*
Y-1418750D02*
Y-1401250D01*
Y-1453750D02*
Y-1436250D01*
Y-1488750D02*
Y-1471250D01*
Y-1523750D02*
Y-1506250D01*
Y-1558750D02*
Y-1541250D01*
Y-1593750D02*
Y-1576250D01*
Y-1628750D02*
Y-1611250D01*
Y-1663750D02*
Y-1646250D01*
Y-1698750D02*
Y-1681250D01*
Y-1733750D02*
Y-1716250D01*
Y-1768750D02*
Y-1751250D01*
Y-1821250D02*
Y-1803750D01*
Y-1856250D02*
Y-1838750D01*
Y-1891250D02*
Y-1873750D01*
Y-1926250D02*
Y-1908750D01*
Y-1961250D02*
Y-1943750D01*
Y-1996250D02*
Y-1978750D01*
Y-2031250D02*
Y-2013750D01*
Y-2066250D02*
Y-2048750D01*
Y-2101250D02*
Y-2083750D01*
Y-2136250D02*
Y-2118750D01*
Y-2171250D02*
Y-2153750D01*
Y-2206250D02*
Y-2188750D01*
Y-2241250D02*
Y-2223750D01*
Y-2276250D02*
Y-2258750D01*
Y-2311250D02*
Y-2293750D01*
Y-2346250D02*
Y-2328750D01*
Y-2381250D02*
Y-2363750D01*
X2415000Y-2398750D02*
Y-2381250D01*
Y-2363750D02*
Y-2346250D01*
Y-2328750D02*
Y-2311250D01*
Y-2293750D02*
Y-2276250D01*
Y-2258750D02*
Y-2241250D01*
Y-2223750D02*
Y-2206250D01*
Y-2188750D02*
Y-2171250D01*
Y-2153750D02*
Y-2136250D01*
Y-2118750D02*
Y-2101250D01*
Y-2083750D02*
Y-2066250D01*
Y-2048750D02*
Y-2031250D01*
Y-2013750D02*
Y-1996250D01*
Y-1978750D02*
Y-1961250D01*
Y-1943750D02*
Y-1926250D01*
Y-1908750D02*
Y-1891250D01*
Y-1873750D02*
Y-1856250D01*
Y-1838750D02*
Y-1821250D01*
Y-1786250D02*
Y-1768750D01*
Y-1751250D02*
Y-1733750D01*
Y-1716250D02*
Y-1698750D01*
Y-1681250D02*
Y-1663750D01*
Y-1646250D02*
Y-1628750D01*
Y-1611250D02*
Y-1593750D01*
Y-1576250D02*
Y-1558750D01*
Y-1541250D02*
Y-1523750D01*
Y-1506250D02*
Y-1488750D01*
Y-1471250D02*
Y-1453750D01*
Y-1436250D02*
Y-1418750D01*
Y-1401250D02*
Y-1383750D01*
Y-1366250D02*
Y-1348750D01*
Y-1331250D02*
Y-1313750D01*
Y-1296250D02*
Y-1278750D01*
Y-1261250D02*
Y-1243750D01*
Y-1226250D02*
Y-1208750D01*
Y-1173750D02*
Y-1156250D01*
Y-1138750D02*
Y-1121250D01*
Y-1103750D02*
Y-1086250D01*
Y-1068750D02*
Y-1051250D01*
Y-1033750D02*
Y-1016250D01*
Y-998750D02*
Y-981250D01*
Y-963750D02*
Y-946250D01*
Y-928750D02*
Y-911250D01*
Y-893750D02*
Y-876250D01*
Y-858750D02*
Y-841250D01*
Y-823750D02*
Y-806250D01*
Y-788750D02*
Y-771250D01*
Y-753750D02*
Y-736250D01*
Y-718750D02*
Y-701250D01*
Y-683750D02*
Y-666250D01*
Y-648750D02*
Y-631250D01*
Y-613750D02*
Y-596250D01*
Y-561250D02*
Y-543750D01*
Y-526250D02*
Y-508750D01*
Y-491250D02*
Y-473750D01*
Y-456250D02*
Y-438750D01*
Y-421250D02*
Y-403750D01*
Y-386250D02*
Y-368750D01*
Y-351250D02*
Y-333750D01*
Y-316250D02*
Y-298750D01*
Y-281250D02*
Y-263750D01*
Y-246250D02*
Y-228750D01*
Y-211250D02*
Y-193750D01*
Y-176250D02*
Y-158750D01*
Y-141250D02*
Y-123750D01*
Y-106250D02*
Y-88750D01*
Y-71250D02*
Y-53750D01*
Y-36250D02*
Y-18750D01*
X587500Y-1250D02*
X1812500D01*
X587500Y-18750D02*
X1812500D01*
X-7500Y-561250D02*
X10000D01*
X-25000Y-561250D02*
X-7500D01*
X-25000Y-1173750D02*
X10000D01*
X-25000Y-1786250D02*
X10000D01*
X587500Y-2381250D02*
X1812500D01*
X587500Y-2398750D02*
X1812500D01*
D11*
Y-36250D02*
X2365000D01*
X1812500Y-53750D02*
X2365000D01*
X1812500Y-123750D02*
X2365000D01*
X1812500Y-106250D02*
X2365000D01*
X1812500Y-158750D02*
X2365000D01*
X1812500Y-141250D02*
X2365000D01*
X1812500Y-246250D02*
X2365000D01*
X1812500Y-176250D02*
X2365000D01*
X1812500Y-421250D02*
X2365000D01*
X1812500Y-438750D02*
X2365000D01*
X1812500Y-386250D02*
X2365000D01*
X1812500Y-771250D02*
X2365000D01*
X1812500Y-491250D02*
X2365000D01*
X1812500Y-281250D02*
X2365000D01*
X1812500Y-263750D02*
X2365000D01*
X1812500Y-368750D02*
X2365000D01*
X1812500Y-298750D02*
X2365000D01*
X1812500Y-508750D02*
X2365000D01*
X1812500Y-526250D02*
X2365000D01*
X1812500Y-561250D02*
X2365000D01*
X1812500Y-543750D02*
X2365000D01*
X1812500Y-631250D02*
X2365000D01*
X1812500Y-613750D02*
X2365000D01*
X1812500Y-666250D02*
X2365000D01*
X1812500Y-648750D02*
X2365000D01*
X1812500Y-876250D02*
X2365000D01*
X1812500Y-806250D02*
X2365000D01*
X1812500Y-911250D02*
X2365000D01*
X1812500Y-893750D02*
X2365000D01*
X1812500Y-736250D02*
X2365000D01*
X1812500Y-683750D02*
X2365000D01*
X1812500Y-788750D02*
X2365000D01*
X1812500Y-753750D02*
X2365000D01*
X1812500Y-1068750D02*
X2365000D01*
X1812500Y-1121250D02*
X2365000D01*
X1812500Y-1051250D02*
X2365000D01*
X1812500Y-1156250D02*
X2365000D01*
X1812500Y-1138750D02*
X2365000D01*
X1812500Y-998750D02*
X2365000D01*
X1812500Y-928750D02*
X2365000D01*
X1812500Y-1033750D02*
X2365000D01*
X1812500Y-1016250D02*
X2365000D01*
X1812500Y-1296250D02*
X2365000D01*
X1812500Y-1278750D02*
X2365000D01*
X1812500Y-1366250D02*
X2365000D01*
X1812500Y-1313750D02*
X2365000D01*
X1812500Y-1191250D02*
X2365000Y-1191026D01*
X1812500Y-1173750D02*
X2365000D01*
X1812500Y-1261250D02*
X2365000D01*
X1812500Y-1243750D02*
X2365000D01*
X1812500Y-1523750D02*
X2365000D01*
X1812500Y-1541250D02*
X2365000D01*
X1812500Y-1506250D02*
X2365000D01*
X1812500Y-1628750D02*
X2365000D01*
X1812500Y-1558750D02*
X2365000D01*
X1812500Y-1401250D02*
X2365000D01*
X1812500Y-1383750D02*
X2365000D01*
X1812500Y-1436250D02*
X2365000D01*
X1812500Y-1418750D02*
X2365000D01*
X1812500Y-1873750D02*
X2365000D01*
X1812500Y-1751250D02*
X2365000D01*
X1812500Y-1663750D02*
X2365000D01*
X1812500Y-1646250D02*
X2365000D01*
X1812500Y-1698750D02*
X2365000D01*
X1812500Y-1681250D02*
X2365000D01*
X1812500Y-316250D02*
X2365000D01*
X1812500Y-333750D02*
X2365000D01*
X1812500Y-228750D02*
X2365000D01*
X1812500Y-403750D02*
X2365000D01*
X1812500Y-351250D02*
X2365000D01*
X1812500Y-88750D02*
X2365000D01*
X1812500Y-71250D02*
X2365000D01*
X1812500Y-211250D02*
X2365000D01*
X1812500Y-193750D02*
X2365000D01*
X1812500Y-718750D02*
X2365000D01*
X1812500Y-823750D02*
X2365000D01*
X1812500Y-701250D02*
X2365000D01*
X1812500Y-858750D02*
X2365000D01*
X1812500Y-841250D02*
X2365000D01*
X1812500Y-473750D02*
X2365000D01*
X1812500Y-456250D02*
X2365000D01*
X1812500Y-578750D02*
X2365000D01*
X1812500Y-596250D02*
X2365000D01*
X1812500Y-1208750D02*
X2365000D01*
X1812500Y-1226250D02*
X2365000D01*
X1812500Y-1103750D02*
X2365000D01*
X1812500Y-1348750D02*
X2365000D01*
X1812500Y-1331250D02*
X2365000D01*
X1812500Y-963750D02*
X2365000D01*
X1812500Y-946250D02*
X2365000D01*
X1812500Y-1086250D02*
X2365000D01*
X1812500Y-981250D02*
X2365000D01*
X1812500Y-1611250D02*
X2365000D01*
X1812500Y-1593750D02*
X2365000D01*
X1812500Y-1733750D02*
X2365000D01*
X1812500Y-1716250D02*
X2365000D01*
X1812500Y-1471250D02*
X2365000D01*
X1812500Y-1453750D02*
X2365000D01*
X1812500Y-1576250D02*
X2365000D01*
X1812500Y-1488750D02*
X2365000D01*
X1812500Y-1856250D02*
X2365000D01*
X1812500Y-1891250D02*
X2365000D01*
X1812500Y-1838750D02*
X2365000D01*
X1812500Y-1926250D02*
X2365000D01*
X1812500Y-1908750D02*
X2365000D01*
X1812500Y-1786250D02*
X2365000D01*
X1812500Y-1768750D02*
X2365000D01*
X1812500Y-1803750D02*
X2365000D01*
X1812500Y-1821250D02*
X2365000D01*
X1812500Y-2031250D02*
X2365000D01*
X1812500Y-2013750D02*
X2365000D01*
X1812500Y-2066250D02*
X2365000D01*
X1812500Y-2048750D02*
X2365000D01*
X1812500Y-1961250D02*
X2365000D01*
X1812500Y-1943750D02*
X2365000D01*
X1812500Y-1996250D02*
X2365000D01*
X1812500Y-1978750D02*
X2365000D01*
X1812500Y-2171250D02*
X2365000D01*
X1812500Y-2188750D02*
X2365000D01*
X1812500Y-2153750D02*
X2365000D01*
X1812500Y-2223750D02*
X2365000D01*
X1812500Y-2206250D02*
X2365000D01*
X1812500Y-2101250D02*
X2365000D01*
X1812500Y-2083750D02*
X2365000D01*
X1812500Y-2136250D02*
X2365000D01*
X1812500Y-2118750D02*
X2365000D01*
X1812500Y-2328750D02*
X2365000D01*
X1812500Y-2311250D02*
X2365000D01*
X1812500Y-2363750D02*
X2365000D01*
X1812500Y-2346250D02*
X2365000D01*
X1812500Y-2258750D02*
X2365000D01*
X1812500Y-2241250D02*
X2365000D01*
X1812500Y-2293750D02*
X2365000D01*
X1812500Y-2276250D02*
X2365000D01*
X37500Y-491250D02*
X587500D01*
X37500Y-508750D02*
X587500D01*
X37500Y-438750D02*
X587500D01*
X37500Y-561250D02*
X587500D01*
X37500Y-526250D02*
X587500D01*
X37500Y-613750D02*
X587500D01*
X37500Y-543750D02*
X587500D01*
X37500Y-648750D02*
X587500D01*
X37500Y-631250D02*
X587500D01*
X37500Y-788750D02*
X587500D01*
X37500Y-806250D02*
X587500D01*
X37500Y-771250D02*
X587500D01*
X37500Y-893750D02*
X587500D01*
X37500Y-876250D02*
X587500D01*
X37500Y-683750D02*
X587500D01*
X37500Y-666250D02*
X587500D01*
X37500Y-753750D02*
X587500D01*
X37500Y-736250D02*
X587500D01*
X37500Y-123750D02*
X587500D01*
X37500Y-141250D02*
X587500D01*
X37500Y-106250D02*
X587500D01*
X37500Y-176250D02*
X587500D01*
X37500Y-158750D02*
X587500D01*
X37500Y-53750D02*
X587500D01*
X37500Y-36250D02*
X587500D01*
X37500Y-386250D02*
X587500D01*
X37500Y-368750D02*
X587500D01*
X37500Y-421250D02*
X587500D01*
X37500Y-403750D02*
X587500D01*
X37500Y-263750D02*
X587500D01*
X37500Y-246250D02*
X587500D01*
X37500Y-298750D02*
X587500D01*
X37500Y-281250D02*
X587500D01*
X37500Y-1506250D02*
X587500D01*
X37500Y-1523750D02*
X587500D01*
X37500Y-1436250D02*
X587500D01*
X37500Y-1558750D02*
X587500D01*
X37500Y-1541250D02*
X587500D01*
X37500Y-1383750D02*
X587500D01*
X37500Y-1366250D02*
X587500D01*
X37500Y-1418750D02*
X587500D01*
X37500Y-1401250D02*
X587500D01*
X37500Y-1646250D02*
X587500D01*
X37500Y-1628750D02*
X587500D01*
X37500Y-1786250D02*
X587500D01*
X37500Y-1663750D02*
X587500D01*
X37500Y-1698750D02*
X587500D01*
X37500Y-1681250D02*
X587500D01*
X37500Y-1873750D02*
X587500D01*
X37500Y-1768750D02*
X587500D01*
X37500Y-1051250D02*
X587500D01*
X37500Y-1068750D02*
X587500D01*
X37500Y-1033750D02*
X587500D01*
X37500Y-1138750D02*
X587500D01*
X37500Y-1121250D02*
X587500D01*
X37500Y-928750D02*
X587500D01*
X37500Y-911250D02*
X587500D01*
X37500Y-1016250D02*
X587500D01*
X37500Y-998750D02*
X587500D01*
X37500Y-1173750D02*
X587500D01*
X37500Y-1156250D02*
X587500D01*
X37500Y-1243750D02*
X587500D01*
X37500Y-1191250D02*
X587500D01*
X37500Y-1278750D02*
X587500D01*
X37500Y-1261250D02*
X587500D01*
X37500Y-1313750D02*
X587500D01*
X37500Y-1296250D02*
X587500D01*
X37500Y-1208750D02*
X587500D01*
X37500Y-1226250D02*
X587500D01*
X37500Y-1103750D02*
X587500D01*
X37500Y-1348750D02*
X587500D01*
X37500Y-1331250D02*
X587500D01*
X37500Y-963750D02*
X587500D01*
X37500Y-946250D02*
X587500D01*
X37500Y-1086250D02*
X587500D01*
X37500Y-981250D02*
X587500D01*
X37500Y-1611250D02*
X587500D01*
X37500Y-1716250D02*
X587500D01*
X37500Y-1593750D02*
X587500D01*
X37500Y-1751250D02*
X587500D01*
X37500Y-1733750D02*
X587500D01*
X37500Y-1471250D02*
X587500D01*
X37500Y-1453750D02*
X587500D01*
X37500Y-1576250D02*
X587500D01*
X37500Y-1488750D02*
X587500D01*
X37500Y-316250D02*
X587500D01*
X37500Y-333750D02*
X587500D01*
X37500Y-228750D02*
X587500D01*
X37500Y-456250D02*
X587500D01*
X37500Y-351250D02*
X587500D01*
X37500Y-88750D02*
X587500D01*
X37500Y-71250D02*
X587500D01*
X37500Y-211250D02*
X587500D01*
X37500Y-193750D02*
X587500D01*
X37500Y-823750D02*
X587500D01*
X37500Y-718750D02*
X587500D01*
X37500Y-858750D02*
X587500D01*
X37500Y-841250D02*
X587500D01*
X37500Y-578750D02*
X587500D01*
X37500Y-473750D02*
X587500D01*
X37500Y-701250D02*
X587500D01*
X37500Y-596250D02*
X587500D01*
X37500Y-2206250D02*
X587500D01*
X37500Y-2223750D02*
X587500D01*
X37500Y-2188750D02*
X587500D01*
X37500Y-2258750D02*
X587500D01*
X37500Y-2241250D02*
X587500D01*
X37500Y-2136250D02*
X587500D01*
X37500Y-2118750D02*
X587500D01*
X37500Y-2171250D02*
X587500D01*
X37500Y-2153750D02*
X587500D01*
X37500Y-2293750D02*
X587500D01*
X37500Y-2276250D02*
X587500D01*
X37500Y-2328750D02*
X587500D01*
X37500Y-2311250D02*
X587500Y-2311250D01*
X37500Y-2363750D02*
X587500D01*
X37500Y-2346250D02*
X587500D01*
X37500Y-1908750D02*
X587500D01*
X37500Y-1926250D02*
X587500D01*
X37500Y-1891250D02*
X587500D01*
X37500Y-1961250D02*
X587500D01*
X37500Y-1943750D02*
X587500D01*
X37500Y-1821250D02*
X587500D01*
X37500Y-1803750D02*
X587500D01*
X37500Y-1856250D02*
X587500D01*
X37500Y-1838750D02*
X587500D01*
X37500Y-2066250D02*
X587500D01*
X37500Y-2048750D02*
X587500D01*
X37500Y-2101250D02*
X587500D01*
X37500Y-2083750D02*
X587500D01*
X37500Y-1996250D02*
X587500D01*
X37500Y-1978750D02*
X587500D01*
X37500Y-2031250D02*
X587500D01*
X37500Y-2013750D02*
X587500D01*
Y-36250D02*
X1812500D01*
X587500Y-71250D02*
X1812500D01*
X587500Y-53750D02*
X1812500D01*
X587500Y-106250D02*
X1812500D01*
X587500Y-88750D02*
X1812500D01*
X587500Y-141250D02*
X1812500D01*
X587500Y-123750D02*
X1812500D01*
X587500Y-176250D02*
X1812500D01*
X587500Y-158750D02*
X1812500D01*
X587500Y-211250D02*
X1812500D01*
X587500Y-193750D02*
X1812500D01*
X587500Y-246250D02*
X1812500D01*
X587500Y-228750D02*
X1812500D01*
X587500Y-508750D02*
X1812500D01*
X587500Y-526250D02*
X1812500D01*
X587500Y-473750D02*
X1812500D01*
X587500Y-491250D02*
X1812500D01*
X587500Y-438750D02*
X1812500D01*
X587500Y-456250D02*
X1812500D01*
X587500Y-403750D02*
X1812500D01*
X587500Y-421250D02*
X1812500D01*
X587500Y-368750D02*
X1812500D01*
X587500Y-386250D02*
X1812500D01*
X587500Y-333750D02*
X1812500D01*
X587500Y-351250D02*
X1812500D01*
X587500Y-298750D02*
X1812500D01*
X587500Y-316250D02*
X1812500D01*
X587500Y-281250D02*
X1812500D01*
X587500Y-263750D02*
X1812500D01*
X587500Y-561250D02*
X1812500D01*
X587500Y-543750D02*
X1812500D01*
X587500Y-1856250D02*
X1812500D01*
X587500Y-1873750D02*
X1812500D01*
X587500Y-1821250D02*
X1812500D01*
X587500Y-1838750D02*
X1812500D01*
X587500Y-1803750D02*
X1812500D01*
X587500Y-1768750D02*
X1812500D01*
X587500Y-1786250D02*
X1812500D01*
X587500Y-2136250D02*
X1812500D01*
X587500Y-2153750D02*
X1812500D01*
X587500Y-2101250D02*
X1812500D01*
X587500Y-2118750D02*
X1812500D01*
X587500Y-2066250D02*
X1812500D01*
X587500Y-2083750D02*
X1812500D01*
X587500Y-2031250D02*
X1812500D01*
X587500Y-2048750D02*
X1812500D01*
X587500Y-1996250D02*
X1812500D01*
X587500Y-2013750D02*
X1812500D01*
X587500Y-1961250D02*
X1812500D01*
X587500Y-1978750D02*
X1812500D01*
X587500Y-1926250D02*
X1812500D01*
X587500Y-1943750D02*
X1812500D01*
X587500Y-1908750D02*
X1812500D01*
X587500Y-1891250D02*
X1812500D01*
X587500Y-2311250D02*
X1812500D01*
X587500Y-2276250D02*
X1812500D01*
X587500Y-2293750D02*
X1812500D01*
X587500Y-2241250D02*
X1812500D01*
X587500Y-2258750D02*
X1812500D01*
X587500Y-2206250D02*
X1812500D01*
X587500Y-2223750D02*
X1812500D01*
X587500Y-2188750D02*
X1812500D01*
X587500Y-2171250D02*
X1812500D01*
X587500Y-2328750D02*
X1812500D01*
X587500Y-2346250D02*
X1812500D01*
X587500Y-2363750D02*
X1812500D01*
D12*
X1300501Y122500D02*
X1305000Y118001D01*
X1275499Y122500D02*
X1300501D01*
X1261100Y108101D02*
X1275499Y122500D01*
X1080000Y70001D02*
X1101000Y91001D01*
X1194000D02*
X1211100Y108101D01*
X1101000Y91001D02*
X1194000D01*
X1211100Y108101D02*
X1261100D01*
X1305000Y85001D02*
Y118001D01*
Y85001D02*
X1320000Y70001D01*
X1080000Y68001D02*
Y70001D01*
Y68001D02*
X1117000Y31001D01*
D13*
X1345000Y177500D02*
X1350000Y172500D01*
X1301149Y177500D02*
X1345000D01*
X1350000Y127500D02*
Y172500D01*
X-35000Y-2400000D02*
Y-45000D01*
X2435000Y-575000D02*
Y-5000D01*
X2435000Y-1800000D02*
Y-614000D01*
D14*
X587500Y-771250D02*
X1812500D01*
X587500Y-788750D02*
X1812500D01*
X587500Y-736250D02*
X1812500D01*
X587500Y-753750D02*
X1812500D01*
X587500Y-701250D02*
X1812500D01*
X587500Y-718750D02*
X1812500D01*
X587500Y-666250D02*
X1812500D01*
X587500Y-683750D02*
X1812500D01*
X587500Y-631250D02*
X1812500D01*
X587500Y-648750D02*
X1812500D01*
X587500Y-596250D02*
X1812500D01*
X587500Y-613750D02*
X1812500D01*
X587500Y-578750D02*
X1812500D01*
X587500Y-981250D02*
X1812500D01*
X587500Y-998750D02*
X1812500D01*
X587500Y-946250D02*
X1812500D01*
X587500Y-963750D02*
X1812500D01*
X587500Y-911250D02*
X1812500D01*
X587500Y-928750D02*
X1812500D01*
X587500Y-876250D02*
X1812500D01*
X587500Y-893750D02*
X1812500D01*
X587500Y-841250D02*
X1812500D01*
X587500Y-858750D02*
X1812500D01*
X587500Y-823750D02*
X1812500D01*
X587500Y-806250D02*
X1812500D01*
X587500Y-1593750D02*
X1812500D01*
X587500Y-1611250D02*
X1812500D01*
X587500Y-1558750D02*
X1812500D01*
X587500Y-1576250D02*
X1812500D01*
X587500Y-1523750D02*
X1812500D01*
X587500Y-1541250D02*
X1812500D01*
X587500Y-1488750D02*
X1812500D01*
X587500Y-1506250D02*
X1812500D01*
X587500Y-1453750D02*
X1812500D01*
X587500Y-1471250D02*
X1812500D01*
X587500Y-1418750D02*
X1812500D01*
X587500Y-1436250D02*
X1812500D01*
X587500Y-1733750D02*
X1812500D01*
X587500Y-1751250D02*
X1812500D01*
X587500Y-1698750D02*
X1812500D01*
X587500Y-1716250D02*
X1812500D01*
X587500Y-1663750D02*
X1812500D01*
X587500Y-1681250D02*
X1812500D01*
X587500Y-1646250D02*
X1812500D01*
X587500Y-1628750D02*
X1812500D01*
X587500Y-1016250D02*
X1812500D01*
X587500Y-1191250D02*
X1812500D01*
X587500Y-1033750D02*
X1812500D01*
X587500Y-1068750D02*
X1812500D01*
X587500Y-1051250D02*
X1812500D01*
X587500Y-1103750D02*
X1812500D01*
X587500Y-1086250D02*
X1812500D01*
X587500Y-1138750D02*
X1812500D01*
X587500Y-1121250D02*
X1812500D01*
X587500Y-1173750D02*
X1812500D01*
X587500Y-1156250D02*
X1812500D01*
X587500Y-1366250D02*
X1812500D01*
X587500Y-1208750D02*
X1812500D01*
X587500Y-1243750D02*
X1812500D01*
X587500Y-1226250D02*
X1812500D01*
X587500Y-1278750D02*
X1812500D01*
X587500Y-1261250D02*
X1812500D01*
X587500Y-1313750D02*
X1812500D01*
X587500Y-1296250D02*
X1812500D01*
X587500Y-1348750D02*
X1812500D01*
X587500Y-1331250D02*
X1812500D01*
X587500Y-1383750D02*
X1812500D01*
X587500Y-1401250D02*
X1812500D01*
D15*
X-32500Y-561250D02*
X-32500Y-561250D01*
D16*
X810000Y140000D02*
D03*
X1590000Y160000D02*
D03*
Y120000D02*
D03*
D17*
X1212700Y105601D02*
D03*
D18*
X1187300D02*
D03*
D19*
X1480000Y140000D02*
D03*
X920000D02*
D03*
X1407500Y177500D02*
D03*
X1427500D02*
D03*
X2435000Y-30000D02*
D03*
Y-10000D02*
D03*
X1467500Y177500D02*
D03*
X1447500D02*
D03*
X1487500D02*
D03*
X1835000Y22500D02*
D03*
X1855000D02*
D03*
X1875000D02*
D03*
X1895000D02*
D03*
X1915000D02*
D03*
X1735000D02*
D03*
X1755000D02*
D03*
X1775000D02*
D03*
X1795000D02*
D03*
X1815000D02*
D03*
X1635000D02*
D03*
X1655000D02*
D03*
X1675000D02*
D03*
X1695000D02*
D03*
X1715000D02*
D03*
X1535000D02*
D03*
X1555000D02*
D03*
X1575000D02*
D03*
X1595000D02*
D03*
X1615000D02*
D03*
X1495000D02*
D03*
X1515000D02*
D03*
X1375000Y22500D02*
D03*
X1395000D02*
D03*
X1415000D02*
D03*
X1275000D02*
D03*
X1295000D02*
D03*
X1315000D02*
D03*
X1335000D02*
D03*
X1355000D02*
D03*
X1255000D02*
D03*
X1235000D02*
D03*
X1215000D02*
D03*
X1195000D02*
D03*
X1175000D02*
D03*
X297500Y32500D02*
D03*
X277500D02*
D03*
X257500D02*
D03*
X237500D02*
D03*
X217500D02*
D03*
X397500D02*
D03*
X377500D02*
D03*
X357500D02*
D03*
X337500D02*
D03*
X317500D02*
D03*
X497500D02*
D03*
X477500D02*
D03*
X457500D02*
D03*
X437500D02*
D03*
X417500D02*
D03*
X597500D02*
D03*
X577500D02*
D03*
X557500D02*
D03*
X537500D02*
D03*
X517500D02*
D03*
X697500D02*
D03*
X677500D02*
D03*
X657500D02*
D03*
X637500D02*
D03*
X617500D02*
D03*
X797500D02*
D03*
X777500D02*
D03*
X757500D02*
D03*
X737500D02*
D03*
X717500D02*
D03*
X897500D02*
D03*
X877500D02*
D03*
X857500D02*
D03*
X837500D02*
D03*
X817500D02*
D03*
X-35000Y-2390000D02*
D03*
X1117000Y31001D02*
D03*
X2435000Y-50000D02*
D03*
Y-70000D02*
D03*
Y-90000D02*
D03*
Y-110000D02*
D03*
Y-130000D02*
D03*
Y-230000D02*
D03*
Y-210000D02*
D03*
Y-190000D02*
D03*
Y-170000D02*
D03*
Y-150000D02*
D03*
Y-330000D02*
D03*
Y-310000D02*
D03*
Y-290000D02*
D03*
Y-270000D02*
D03*
Y-250000D02*
D03*
Y-430000D02*
D03*
Y-410000D02*
D03*
Y-390000D02*
D03*
Y-370000D02*
D03*
Y-350000D02*
D03*
Y-530000D02*
D03*
Y-510000D02*
D03*
Y-490000D02*
D03*
Y-470000D02*
D03*
Y-450000D02*
D03*
Y-570000D02*
D03*
Y-550000D02*
D03*
Y-690000D02*
D03*
Y-670000D02*
D03*
Y-650000D02*
D03*
Y-630000D02*
D03*
Y-610000D02*
D03*
Y-790000D02*
D03*
Y-770000D02*
D03*
Y-750000D02*
D03*
Y-730000D02*
D03*
Y-710000D02*
D03*
Y-890000D02*
D03*
Y-870000D02*
D03*
Y-850000D02*
D03*
Y-830000D02*
D03*
Y-810000D02*
D03*
Y-990000D02*
D03*
Y-970000D02*
D03*
Y-950000D02*
D03*
Y-930000D02*
D03*
Y-910000D02*
D03*
Y-1090000D02*
D03*
Y-1070000D02*
D03*
Y-1050000D02*
D03*
Y-1030000D02*
D03*
Y-1010000D02*
D03*
Y-1190000D02*
D03*
Y-1170000D02*
D03*
Y-1150000D02*
D03*
Y-1130000D02*
D03*
Y-1110000D02*
D03*
Y-1290000D02*
D03*
Y-1270000D02*
D03*
Y-1250000D02*
D03*
Y-1230000D02*
D03*
Y-1210000D02*
D03*
Y-1390000D02*
D03*
Y-1370000D02*
D03*
Y-1350000D02*
D03*
Y-1330000D02*
D03*
Y-1310000D02*
D03*
Y-1490000D02*
D03*
Y-1470000D02*
D03*
Y-1450000D02*
D03*
Y-1430000D02*
D03*
Y-1410000D02*
D03*
Y-1590000D02*
D03*
Y-1570000D02*
D03*
Y-1550000D02*
D03*
Y-1530000D02*
D03*
Y-1510000D02*
D03*
Y-1690000D02*
D03*
Y-1670000D02*
D03*
Y-1650000D02*
D03*
Y-1630000D02*
D03*
Y-1610000D02*
D03*
Y-1790000D02*
D03*
Y-1770000D02*
D03*
Y-1750000D02*
D03*
Y-1730000D02*
D03*
Y-1710000D02*
D03*
X-35000Y-750000D02*
D03*
Y-650000D02*
D03*
Y-670000D02*
D03*
Y-690000D02*
D03*
Y-710000D02*
D03*
Y-730000D02*
D03*
Y-550000D02*
D03*
Y-570000D02*
D03*
Y-590000D02*
D03*
Y-610000D02*
D03*
Y-630000D02*
D03*
Y-450000D02*
D03*
Y-470000D02*
D03*
Y-490000D02*
D03*
Y-510000D02*
D03*
Y-530000D02*
D03*
Y-350000D02*
D03*
Y-370000D02*
D03*
Y-390000D02*
D03*
Y-410000D02*
D03*
Y-430000D02*
D03*
Y-250000D02*
D03*
Y-270000D02*
D03*
Y-290000D02*
D03*
Y-310000D02*
D03*
Y-330000D02*
D03*
Y-150000D02*
D03*
Y-170000D02*
D03*
Y-190000D02*
D03*
Y-210000D02*
D03*
Y-230000D02*
D03*
Y-50000D02*
D03*
Y-70000D02*
D03*
Y-90000D02*
D03*
Y-110000D02*
D03*
Y-130000D02*
D03*
Y-1470000D02*
D03*
Y-1370000D02*
D03*
Y-1390000D02*
D03*
Y-1410000D02*
D03*
Y-1430000D02*
D03*
Y-1450000D02*
D03*
Y-1270000D02*
D03*
Y-1290000D02*
D03*
Y-1310000D02*
D03*
Y-1330000D02*
D03*
Y-1350000D02*
D03*
Y-1170000D02*
D03*
Y-1190000D02*
D03*
Y-1210000D02*
D03*
Y-1230000D02*
D03*
Y-1250000D02*
D03*
Y-1070000D02*
D03*
Y-1090000D02*
D03*
Y-1110000D02*
D03*
Y-1130000D02*
D03*
Y-1150000D02*
D03*
Y-970000D02*
D03*
Y-990000D02*
D03*
Y-1010000D02*
D03*
Y-1030000D02*
D03*
Y-1050000D02*
D03*
Y-870000D02*
D03*
Y-890000D02*
D03*
Y-910000D02*
D03*
Y-930000D02*
D03*
Y-950000D02*
D03*
Y-770000D02*
D03*
Y-790000D02*
D03*
Y-810000D02*
D03*
Y-830000D02*
D03*
Y-850000D02*
D03*
Y-2190000D02*
D03*
Y-2090000D02*
D03*
Y-2110000D02*
D03*
Y-2130000D02*
D03*
Y-2150000D02*
D03*
Y-2170000D02*
D03*
Y-1990000D02*
D03*
Y-2010000D02*
D03*
Y-2030000D02*
D03*
Y-2050000D02*
D03*
Y-2070000D02*
D03*
Y-1890000D02*
D03*
Y-1910000D02*
D03*
Y-1930000D02*
D03*
Y-1950000D02*
D03*
Y-1970000D02*
D03*
Y-1790000D02*
D03*
Y-1810000D02*
D03*
Y-1830000D02*
D03*
Y-1850000D02*
D03*
Y-1870000D02*
D03*
Y-1690000D02*
D03*
Y-1710000D02*
D03*
Y-1730000D02*
D03*
Y-1750000D02*
D03*
Y-1770000D02*
D03*
Y-1590000D02*
D03*
Y-1610000D02*
D03*
Y-1630000D02*
D03*
Y-1650000D02*
D03*
Y-1670000D02*
D03*
Y-1490000D02*
D03*
Y-1510000D02*
D03*
Y-1530000D02*
D03*
Y-1550000D02*
D03*
Y-1570000D02*
D03*
Y-2310000D02*
D03*
Y-2330000D02*
D03*
Y-2350000D02*
D03*
Y-2370000D02*
D03*
Y-2210000D02*
D03*
Y-2230000D02*
D03*
Y-2250000D02*
D03*
Y-2270000D02*
D03*
Y-2290000D02*
D03*
D20*
X1080000Y148201D02*
D03*
X1110000Y75001D02*
D03*
X1080000D02*
D03*
X1050000D02*
D03*
X1110000Y105001D02*
D03*
X1080000D02*
D03*
X1050000D02*
D03*
X1320000Y148201D02*
D03*
X1350000Y75001D02*
D03*
X1320000D02*
D03*
X1290000D02*
D03*
X1350000Y105001D02*
D03*
X1320000D02*
D03*
X1290000D02*
D03*
D21*
X2410000Y55001D02*
D03*
Y-2465000D02*
D03*
X1200000Y-2465000D02*
D03*
X-10000Y-2465000D02*
D03*
X-10000Y55000D02*
D03*
M02*
